%
M48
M72
T01C0.0120
T02C0.0400
T03C0.0550
T04C0.0630
%
T01
X6635Y4862
X7619Y4823
X7619Y4508
X7619Y4193
X7619Y3878
X8663Y4960
X8643Y6063
X8210Y6437
X7541Y6260
X7541Y5945
X7541Y5630
X7541Y5315
X7521Y6929
X7521Y7204
X7797Y7204
X7797Y6929
X6084Y8543
X8564Y8956
X8820Y8661
X9155Y8976
X10297Y8917
X10513Y8681
X10001Y7736
X9608Y7244
X10631Y5945
X11468Y6338
X11852Y6397
X11694Y5393
X10631Y5000
X11714Y7618
X12560Y8641
X12915Y8543
X13466Y9252
X14017Y9389
X13466Y10000
X12797Y9527
X13958Y8504
X15513Y9232
X16064Y9409
X16832Y10177
X17167Y10177
X17167Y10571
X16871Y10708
X16852Y11161
X16852Y11437
X16576Y11437
X16576Y11161
X16261Y11161
X15986Y11161
X15986Y11437
X16261Y11437
X16261Y11830
X15986Y11830
X15986Y12185
X16261Y12185
X16556Y12185
X16832Y12185
X16832Y11830
X16556Y11830
X17206Y11673
X17245Y11181
X18043Y11417
X18013Y11811
X18013Y12519
X18466Y12480
X19096Y12382
X19293Y12677
X19273Y13031
X19214Y13346
X19509Y13484
X20356Y13267
X20690Y12795
X20690Y12519
X20966Y12519
X21241Y12519
X21241Y12795
X20966Y12795
X21517Y12450
X21517Y12145
X21241Y12145
X20946Y12145
X20671Y12145
X20671Y11830
X20946Y11830
X21241Y11830
X21517Y11830
X21537Y11437
X21261Y11437
X21261Y11161
X21537Y11161
X21930Y11141
X21891Y11614
X22688Y11840
X22993Y11594
X22797Y11319
X23456Y11988
X23239Y12283
X23072Y12539
X22698Y12460
X21911Y12697
X21871Y13090
X21930Y13386
X21635Y13484
X21694Y13956
X22285Y14252
X22285Y14567
X22777Y14626
X22797Y14980
X22856Y13799
X23190Y13799
X23978Y14134
X24194Y14468
X24962Y13602
X24785Y13267
X24942Y12854
X24942Y12578
X25218Y12578
X25493Y12578
X25769Y12578
X25769Y12854
X25493Y12854
X25218Y12854
X25198Y12204
X24923Y12204
X24923Y11850
X25198Y11850
X25493Y11850
X25769Y11850
X25769Y12204
X25493Y12204
X26182Y12421
X26930Y12618
X27186Y12441
X27491Y12588
X27747Y12421
X27580Y12126
X27344Y11850
X26901Y11427
X27019Y11102
X27836Y10728
X28161Y11220
X28180Y11889
X28131Y12204
X28131Y12913
X27580Y13838
X27245Y13976
X26576Y13996
X26182Y13425
X25848Y13425
X26399Y14626
X26419Y15236
X26694Y15236
X26694Y15511
X26419Y15511
X26970Y15689
X27186Y15334
X27580Y16023
X27501Y16358
X27186Y16378
X26970Y16614
X26005Y16693
X26005Y16043
X25297Y15728
X24962Y16319
X25297Y16437
X24667Y17145
X24883Y17421
X24883Y17736
X25316Y18051
X25986Y17618
X27423Y17539
X27757Y17401
X27974Y17185
X29135Y17145
X29568Y16397
X29234Y16260
X29804Y15551
X30159Y15590
X30474Y16122
X31438Y17421
X30454Y17637
X29726Y18228
X29982Y19606
X30434Y19970
X30789Y20630
X31005Y20984
X30946Y21319
X32147Y20511
X32541Y20945
X32915Y20354
X33407Y20137
X32875Y19606
X32934Y19271
X32964Y18858
X33190Y18405
X32442Y19842
X31419Y18819
X29411Y19783
X28525Y20098
X28013Y20059
X27737Y20059
X27737Y19783
X28033Y19783
X27304Y20590
X28328Y21417
X28308Y22047
X28308Y22323
X28308Y22598
X28308Y22874
X27895Y23071
X27560Y24429
X26655Y24429
X26320Y24763
X26655Y25098
X25789Y26378
X25848Y27559
X25533Y27736
X24765Y27519
X23820Y25846
X22797Y26515
X21793Y27303
X22718Y27795
X21891Y29389
X22777Y29488
X19804Y27519
X18938Y27893
X18643Y27460
X18761Y26889
X18230Y26614
X17777Y26358
X17009Y26712
X16793Y26378
X16438Y25571
X15986Y24941
X17285Y25157
X17285Y23573
X15572Y22716
X15297Y22716
X14588Y22736
X14312Y22736
X14037Y22736
X13761Y22736
X13781Y21889
X14056Y21889
X14312Y21889
X14588Y21889
X15277Y21909
X15552Y21909
X13741Y20571
X13407Y20433
X13407Y19960
X12856Y20236
X12718Y19901
X12363Y20492
X12698Y20826
X11773Y20826
X11635Y20492
X10592Y21653
X10611Y21988
X10454Y22441
X10454Y22716
X10139Y22716
X10139Y22421
X10611Y22992
X9962Y23386
X9962Y24094
X9312Y24094
X8997Y24094
X8663Y24094
X8131Y24311
X7600Y24055
X7600Y23779
X7324Y23779
X7324Y24055
X6734Y24094
X6734Y23819
X6458Y23819
X6458Y24094
X6458Y23464
X6458Y23189
X6734Y23189
X6734Y23464
X7324Y23425
X7600Y23425
X7600Y23149
X7324Y23149
X7797Y22165
X7875Y21830
X8308Y21456
X8092Y21240
X8289Y20905
X9755Y20758
X9755Y20472
X10050Y20472
X10060Y20748
X9863Y19370
X8289Y17815
X9037Y17027
X9440Y16850
X9037Y16181
X10100Y17283
X10277Y17027
X10297Y16417
X11320Y16732
X11320Y17283
X12383Y17500
X13151Y18228
X13407Y18720
X14027Y18750
X14037Y19045
X14342Y19045
X14342Y18750
X14312Y18149
X14096Y17933
X13840Y17263
X14155Y17106
X14608Y17086
X14883Y16870
X14824Y16535
X14844Y16141
X15415Y15275
X15060Y14842
X14568Y14862
X14824Y14035
X15454Y13976
X15671Y13622
X15671Y13307
X16005Y12834
X16005Y12559
X16281Y12559
X16281Y12834
X16556Y12834
X16556Y12559
X16832Y12559
X17265Y12401
X17265Y12913
X17029Y13887
X17580Y14173
X17580Y14449
X17856Y14449
X17856Y14173
X18092Y13858
X18919Y14153
X18210Y15000
X18466Y15334
X18367Y16102
X18151Y16358
X18387Y16870
X18820Y17185
X19273Y16850
X18997Y16496
X19352Y17401
X19135Y17972
X18919Y18189
X18151Y17480
X17186Y17480
X16517Y16791
X16281Y16555
X16064Y16319
X15848Y16850
X16222Y17126
X15848Y17460
X16419Y18071
X16005Y19370
X16793Y19655
X17088Y19655
X17088Y19960
X16793Y19950
X18111Y20216
X18367Y20452
X18860Y20886
X19608Y21535
X19942Y21515
X20297Y21574
X20552Y21043
X19608Y20019
X18564Y19803
X19804Y19015
X20808Y18208
X21084Y18051
X21674Y17618
X21537Y17047
X21773Y16673
X21241Y16102
X21163Y15551
X21163Y15236
X21163Y14901
X21222Y14409
X20119Y14488
X19942Y14901
X19549Y15374
X20100Y15551
X20434Y17283
X20434Y17637
X22009Y18799
X23190Y19094
X23230Y18248
X23230Y17913
X23741Y18248
X24273Y18248
X23702Y17421
X23367Y16870
X23367Y16378
X22737Y16693
X24647Y19665
X24627Y20039
X24076Y20571
X23741Y21338
X23131Y21555
X22678Y21673
X23190Y20984
X22678Y20137
X25513Y21181
X25848Y21791
X25848Y20275
X27423Y18228
X28249Y15177
X28249Y14901
X28525Y14901
X28525Y15177
X29804Y14665
X29804Y14330
X29489Y13563
X29234Y13228
X29352Y12795
X29627Y12795
X29627Y12519
X29352Y12519
X29332Y12145
X29608Y12145
X29903Y12145
X30178Y12145
X30178Y11830
X29903Y11830
X29608Y11830
X29332Y11830
X29332Y11437
X29608Y11437
X29608Y11161
X29332Y11161
X28958Y11525
X29923Y11437
X30198Y11437
X30198Y11161
X29923Y11161
X30257Y10669
X30592Y11004
X30543Y11594
X31291Y11830
X31556Y11663
X31596Y11338
X31881Y11013
X32403Y11161
X32403Y11870
X32432Y12204
X31783Y12598
X31291Y12569
X30552Y12362
X30178Y12519
X29903Y12519
X29903Y12795
X30178Y12795
X31005Y13956
X30808Y14311
X30808Y14645
X31261Y14645
X31241Y15000
X31281Y14261
X32176Y15590
X31999Y16378
X32993Y14015
X33781Y12067
X34293Y12283
X33545Y11486
X33781Y11082
X33800Y10767
X33712Y10472
X33249Y10590
X33151Y10236
X33564Y9901
X33092Y9370
X33564Y9212
X33180Y8809
X32462Y9891
X31871Y9862
X31871Y10216
X31606Y9389
X31871Y8956
X31655Y8700
X31025Y8956
X30828Y8336
X30808Y7746
X32009Y7608
X32580Y7637
X33938Y6889
X34155Y6634
X34470Y6968
X34962Y7303
X34706Y7578
X34706Y8366
X34588Y8700
X34962Y8700
X34578Y9596
X34568Y10590
X34588Y11260
X35474Y10886
X35808Y11023
X36222Y11397
X35946Y11693
X36222Y9015
X36852Y9025
X38200Y7165
X38200Y6889
X38476Y6889
X38476Y7165
X35986Y6535
X35986Y6260
X35710Y6260
X35710Y6535
X35808Y6850
X36458Y4803
X36379Y3858
X33702Y3858
X32718Y4724
X33741Y4921
X31025Y5551
X29962Y5551
X29962Y5826
X29686Y5826
X29686Y5551
X29430Y4508
X28741Y4134
X28466Y4134
X28466Y3858
X28741Y3858
X28682Y4763
X27757Y4173
X27777Y3720
X25474Y4921
X25474Y5197
X25198Y5197
X25198Y4921
X25562Y5511
X25169Y6279
X26674Y7569
X27836Y7697
X28712Y7657
X28899Y8543
X28564Y8632
X28161Y9173
X28367Y9409
X28623Y9586
X28623Y9862
X28899Y9862
X28899Y9586
X29686Y9429
X30119Y9291
X29686Y10374
X28997Y10551
X27560Y9084
X27610Y8700
X27245Y9330
X26930Y9803
X26389Y8760
X25789Y9212
X24647Y9921
X24293Y9941
X24293Y9665
X24017Y9665
X24017Y9941
X23426Y9567
X22797Y9212
X22009Y8563
X21448Y8828
X20513Y9763
X20237Y9763
X20237Y10039
X20513Y10039
X20297Y10728
X20671Y11161
X20946Y11161
X20946Y11437
X20671Y11437
X20277Y11338
X19509Y11082
X19411Y11811
X19470Y12263
X18879Y11949
X18771Y11004
X18761Y9645
X18800Y9193
X18407Y9134
X17954Y8445
X17482Y9409
X19529Y8681
X19863Y8917
X21222Y10728
X23682Y10945
X24578Y11181
X24923Y11181
X25198Y11181
X25198Y11456
X24923Y11456
X25513Y11456
X25513Y11181
X25789Y11181
X25789Y11456
X26182Y11634
X24608Y10669
X23722Y11653
X23800Y12421
X23761Y12992
X23623Y8543
X23938Y8543
X22344Y6614
X23131Y6082
X22836Y4685
X22993Y3897
X20671Y5630
X20789Y6122
X17737Y6141
X17403Y6260
X16419Y6417
X16596Y5000
X17245Y4291
X14863Y4547
X14529Y4252
X14174Y4921
X14923Y6260
X15631Y7677
X15592Y10886
X14696Y11122
X14804Y11614
X14647Y11929
X14785Y12263
X14529Y12441
X14608Y12736
X14765Y13051
X13860Y12716
X13486Y12578
X13879Y11949
X13486Y11742
X13495Y11387
X12718Y11181
X12324Y11200
X12049Y11200
X12049Y11476
X12324Y11476
X12304Y11870
X12029Y11870
X12029Y12145
X12304Y12145
X12304Y12519
X12029Y12519
X11753Y12519
X11478Y12519
X11478Y12795
X11753Y12795
X12029Y12795
X11734Y12145
X11734Y11870
X11458Y11870
X11458Y12145
X11064Y12165
X10297Y12323
X10297Y12657
X10237Y13130
X10297Y13445
X10966Y13956
X11143Y13641
X11143Y13326
X11891Y13641
X11970Y13976
X11911Y14685
X12974Y15275
X13623Y15748
X12383Y16299
X12206Y15826
X11478Y16063
X11084Y15472
X12993Y14311
X12993Y14035
X13269Y14035
X13269Y14311
X12600Y13641
X12698Y13061
X12737Y12421
X12678Y11702
X11734Y11476
X11734Y11200
X11458Y11200
X11458Y11476
X10297Y11889
X9686Y11476
X9863Y11141
X10297Y10905
X9194Y10748
X8210Y11791
X8564Y12145
X8308Y12795
X8033Y12795
X8033Y13071
X8308Y13071
X8860Y12795
X9234Y13130
X7757Y12086
X7088Y12401
X7167Y12795
X7442Y12795
X7442Y13071
X7167Y13071
X7009Y11653
X7442Y14901
X7383Y16417
X7108Y16417
X7108Y16693
X7383Y16693
X6753Y16614
X6478Y16614
X6478Y16338
X6753Y16338
X6773Y17067
X6773Y17342
X6497Y17342
X6497Y17067
X5041Y16574
X7009Y18582
X7797Y19330
X8072Y19134
X7108Y19724
X9273Y22421
X9273Y22736
X9312Y23051
X10838Y24074
X11458Y24419
X11330Y24931
X11793Y23563
X11566Y22500
X11635Y22185
X13919Y24173
X13919Y24449
X14214Y24449
X14214Y24173
X11891Y26830
X12777Y27352
X11497Y27775
X10237Y27834
X9430Y28149
X7659Y27716
X7344Y25787
X7049Y25157
X5159Y23110
X4617Y28307
X6419Y29606
X6694Y29606
X6694Y29882
X6419Y29882
X6419Y30197
X6419Y30472
X6694Y30472
X6694Y30197
X8151Y29449
X11143Y29429
X14293Y27716
X15257Y27893
X15710Y27421
X16340Y27697
X17088Y27677
X17777Y27893
X19037Y29094
X18072Y30354
X15552Y29508
X14726Y29468
X20178Y25610
X20769Y25886
X20769Y25039
X20779Y23838
X20178Y23228
X22009Y23169
X22009Y22736
X22777Y23169
X23741Y22952
X22797Y24212
X23131Y24468
X23486Y24547
X22265Y25610
X26419Y29449
X26950Y29921
X27698Y28031
X27934Y27519
X28860Y27962
X29726Y27421
X30926Y27519
X32127Y28582
X31202Y29862
X29332Y29606
X33722Y25767
X33131Y25511
X32875Y25177
X33407Y25177
X32285Y25511
X31930Y24232
X31419Y24232
X30454Y24212
X30474Y23700
X31556Y22815
X32521Y22037
X34804Y22185
X35651Y24527
X36202Y24449
X36261Y25393
X37678Y27854
X35690Y29429
X34568Y29685
X30365Y25403
X30090Y25403
X30090Y25128
X30365Y25128
X17186Y16102
X16458Y15531
X16458Y15197
X16458Y14862
X16458Y14527
X16438Y13996
X2757Y6968
X2757Y6693
X2482Y6693
X2482Y6968
X5001Y30315
X897Y30472
X30986Y3858
T02
X31509Y5551
X32509Y5551
X32340Y7137
X33340Y7137
X33340Y8137
X32340Y8137
X31340Y8137
X30340Y8137
X30340Y7137
X31340Y7137
X29340Y7137
X28340Y7137
X27340Y7137
X26340Y7137
X25340Y7137
X24340Y7137
X23340Y7137
X22340Y7137
X21340Y7137
X20340Y7137
X19340Y7137
X18340Y7137
X17340Y7137
X16340Y7137
X15340Y7137
X14340Y7137
X13340Y7137
X12340Y7137
X11340Y7137
X11340Y8137
X12340Y8137
X13340Y8137
X14340Y8137
X15340Y8137
X16340Y8137
X17340Y8137
X18340Y8137
X19340Y8137
X20340Y8137
X21340Y8137
X22340Y8137
X23340Y8137
X24340Y8137
X25340Y8137
X26340Y8137
X27340Y8137
X28340Y8137
X29340Y8137
X29100Y5551
X28100Y5551
X27100Y5551
X26100Y5551
X24611Y5511
X23611Y5511
X22611Y5511
X21611Y5511
X20123Y5511
X19123Y5511
X18123Y5511
X17123Y5511
X15635Y5511
X14635Y5511
X13635Y5511
X12635Y5511
X11147Y5511
X10147Y5511
X9147Y5511
X8147Y5511
X11277Y26130
X11277Y27130
X12277Y27130
X13277Y27130
X14277Y27130
X15277Y27130
X16277Y27130
X17277Y27130
X18277Y27130
X19277Y27130
X20277Y27130
X21277Y27130
X22277Y27130
X23277Y27130
X24277Y27130
X25277Y27130
X26277Y27130
X27277Y27130
X28277Y27130
X29277Y27130
X30277Y27130
X31277Y27130
X32277Y27130
X33277Y27130
X33277Y26130
X32277Y26130
X31277Y26130
X30277Y26130
X29277Y26130
X28277Y26130
X27277Y26130
X26277Y26130
X25277Y26130
X24277Y26130
X23277Y26130
X22277Y26130
X21277Y26130
X20277Y26130
X19277Y26130
X18277Y26130
X17277Y26130
X16277Y26130
X15277Y26130
X14277Y26130
X13277Y26130
X12277Y26130
X12659Y28681
X13659Y28681
X15379Y28720
X16379Y28720
X17379Y28720
X19730Y28602
X20730Y28602
X21730Y28602
X22938Y28602
X23938Y28602
X24938Y28602
X26167Y28602
X27167Y28602
X28167Y28602
X29375Y28602
X30375Y28602
X31375Y28602
X32623Y28602
X33623Y28602
X34623Y28602
X35852Y28641
X36852Y28641
X37852Y28641
X37863Y5551
X36863Y5551
X35186Y5511
X34186Y5511
X11659Y28681
X9978Y28661
X8978Y28661
X7978Y28661
T03
X4088Y4874
X4088Y6874
X4088Y8874
X4088Y10874
X4088Y13724
X4088Y15724
X4088Y18574
X4088Y20574
X4088Y22574
X4088Y24574
X4088Y27425
X4088Y29425
T04
X5375Y10551
X6714Y10551
X6714Y5669
X5375Y5669
M30
