G75*
G70*
%OFA0B0*%
%FSLAX24Y24*%
%IPPOS*%
%LPD*%
%AMOC8*
5,1,8,0,0,1.08239X$1,22.5*
%
%ADD10C,0.0000*%
D10*
X000474Y003346D02*
X006615Y003346D01*
X006616Y003346D02*
X006657Y003350D01*
X006699Y003358D01*
X006739Y003369D01*
X006778Y003384D01*
X006815Y003403D01*
X006851Y003425D01*
X006884Y003450D01*
X006915Y003478D01*
X006944Y003509D01*
X006969Y003542D01*
X006991Y003577D01*
X007010Y003615D01*
X007025Y003654D01*
X007037Y003694D01*
X007044Y003735D01*
X007048Y003777D01*
X007049Y003819D01*
X007049Y004626D01*
X007324Y004626D01*
X007324Y003858D01*
X007323Y003821D01*
X007327Y003784D01*
X007334Y003748D01*
X007344Y003713D01*
X007358Y003679D01*
X007376Y003646D01*
X007396Y003616D01*
X007419Y003587D01*
X007445Y003561D01*
X007474Y003538D01*
X007504Y003517D01*
X007536Y003500D01*
X007570Y003485D01*
X007606Y003475D01*
X007642Y003467D01*
X007678Y003464D01*
X029686Y003464D01*
X029714Y003466D01*
X029742Y003471D01*
X029770Y003479D01*
X029796Y003491D01*
X029820Y003506D01*
X029842Y003523D01*
X029863Y003544D01*
X029880Y003566D01*
X029895Y003590D01*
X029907Y003616D01*
X029915Y003644D01*
X029920Y003672D01*
X029922Y003700D01*
X029923Y003700D02*
X029923Y004527D01*
X030237Y004527D01*
X030237Y003700D01*
X030238Y003700D02*
X030240Y003672D01*
X030245Y003644D01*
X030253Y003616D01*
X030265Y003590D01*
X030280Y003566D01*
X030297Y003544D01*
X030318Y003523D01*
X030340Y003506D01*
X030364Y003491D01*
X030390Y003479D01*
X030418Y003471D01*
X030446Y003466D01*
X030474Y003464D01*
X038249Y003464D01*
X038249Y003465D02*
X038290Y003461D01*
X038332Y003462D01*
X038373Y003465D01*
X038414Y003473D01*
X038454Y003484D01*
X038493Y003498D01*
X038531Y003516D01*
X038566Y003537D01*
X038600Y003561D01*
X038632Y003588D01*
X038661Y003618D01*
X038688Y003650D01*
X038711Y003684D01*
X038732Y003720D01*
X038749Y003758D01*
X038763Y003797D01*
X038773Y003837D01*
X038780Y003878D01*
X038781Y003878D02*
X038781Y012795D01*
X033545Y012795D01*
X033545Y019882D01*
X038663Y019882D01*
X038663Y030511D01*
X038656Y030548D01*
X038645Y030583D01*
X038630Y030617D01*
X038612Y030650D01*
X038591Y030681D01*
X038567Y030709D01*
X038541Y030735D01*
X038512Y030759D01*
X038481Y030779D01*
X038448Y030796D01*
X038413Y030810D01*
X038378Y030820D01*
X038341Y030827D01*
X038304Y030831D01*
X038267Y030830D01*
X038230Y030826D01*
X019273Y030826D01*
X019245Y030819D01*
X019217Y030809D01*
X019192Y030796D01*
X019168Y030780D01*
X019146Y030762D01*
X019126Y030740D01*
X019109Y030717D01*
X019096Y030692D01*
X019085Y030665D01*
X019078Y030637D01*
X019074Y030608D01*
X019073Y030579D01*
X019076Y030551D01*
X019076Y029626D01*
X018820Y029626D01*
X018820Y030551D01*
X018823Y030579D01*
X018822Y030608D01*
X018818Y030637D01*
X018811Y030665D01*
X018800Y030692D01*
X018787Y030717D01*
X018770Y030740D01*
X018750Y030762D01*
X018728Y030780D01*
X018704Y030796D01*
X018679Y030809D01*
X018651Y030819D01*
X018623Y030826D01*
X007797Y030826D01*
X007756Y030824D01*
X007715Y030819D01*
X007675Y030810D01*
X007636Y030798D01*
X007598Y030782D01*
X007561Y030763D01*
X007526Y030741D01*
X007494Y030716D01*
X007463Y030688D01*
X007435Y030657D01*
X007410Y030625D01*
X007388Y030590D01*
X007369Y030553D01*
X007353Y030515D01*
X007341Y030476D01*
X007332Y030436D01*
X007327Y030395D01*
X007325Y030354D01*
X007324Y030354D02*
X007324Y029409D01*
X007009Y029409D01*
X007009Y030354D01*
X007010Y030354D02*
X007006Y030397D01*
X006999Y030439D01*
X006988Y030481D01*
X006973Y030521D01*
X006955Y030560D01*
X006934Y030597D01*
X006909Y030633D01*
X006882Y030666D01*
X006851Y030696D01*
X006819Y030724D01*
X006783Y030749D01*
X006746Y030770D01*
X006707Y030789D01*
X006667Y030804D01*
X006625Y030815D01*
X006583Y030823D01*
X006540Y030826D01*
X006497Y030827D01*
X006497Y030826D02*
X000474Y030826D01*
X000474Y003346D01*
M02*
