G75*
G70*
%OFA0B0*%
%FSLAX24Y24*%
%IPPOS*%
%LPD*%
%AMOC8*
5,1,8,0,0,1.08239X$1,22.5*
%
%ADD10C,0.0000*%
%ADD11OC8,0.0640*%
%ADD12R,0.0640X0.0640*%
%ADD13R,0.0434X0.0178*%
%ADD14R,0.1221X0.2009*%
%ADD15R,0.0620X0.0180*%
%ADD16R,0.0430X0.0160*%
%ADD17R,0.0316X0.0394*%
%ADD18R,0.0631X0.0552*%
%ADD19R,0.0355X0.0355*%
%ADD20R,0.0520X0.0920*%
%ADD21R,0.1457X0.0906*%
%ADD22R,0.0394X0.0316*%
%ADD23C,0.0640*%
%ADD24R,0.0865X0.0865*%
%ADD25C,0.0865*%
%ADD26R,0.1001X0.0485*%
%ADD27R,0.1024X0.1418*%
%ADD28R,0.0512X0.0257*%
%ADD29R,0.0237X0.0473*%
%ADD30R,0.0827X0.0827*%
%ADD31C,0.0158*%
%ADD32R,0.0749X0.0749*%
%ADD33R,0.0749X0.0670*%
%ADD34R,0.0591X0.2009*%
%ADD35R,0.0434X0.0158*%
%ADD36R,0.0670X0.0749*%
%ADD37R,0.2993X0.0749*%
%ADD38R,0.0820X0.0250*%
%ADD39C,0.0985*%
%ADD40C,0.0434*%
%ADD41C,0.0500*%
%ADD42C,0.0540*%
D10*
X000474Y003346D02*
X006615Y003346D01*
X006616Y003346D02*
X006657Y003350D01*
X006699Y003358D01*
X006739Y003369D01*
X006778Y003384D01*
X006815Y003403D01*
X006851Y003425D01*
X006884Y003450D01*
X006915Y003478D01*
X006944Y003509D01*
X006969Y003542D01*
X006991Y003577D01*
X007010Y003615D01*
X007025Y003654D01*
X007037Y003694D01*
X007044Y003735D01*
X007048Y003777D01*
X007049Y003819D01*
X007049Y004626D01*
X007324Y004626D01*
X007324Y003858D01*
X007323Y003821D01*
X007327Y003784D01*
X007334Y003748D01*
X007344Y003713D01*
X007358Y003679D01*
X007376Y003646D01*
X007396Y003616D01*
X007419Y003587D01*
X007445Y003561D01*
X007474Y003538D01*
X007504Y003517D01*
X007536Y003500D01*
X007570Y003485D01*
X007606Y003475D01*
X007642Y003467D01*
X007678Y003464D01*
X029686Y003464D01*
X029714Y003466D01*
X029742Y003471D01*
X029770Y003479D01*
X029796Y003491D01*
X029820Y003506D01*
X029842Y003523D01*
X029863Y003544D01*
X029880Y003566D01*
X029895Y003590D01*
X029907Y003616D01*
X029915Y003644D01*
X029920Y003672D01*
X029922Y003700D01*
X029923Y003700D02*
X029923Y004527D01*
X030237Y004527D01*
X030237Y003700D01*
X030238Y003700D02*
X030240Y003672D01*
X030245Y003644D01*
X030253Y003616D01*
X030265Y003590D01*
X030280Y003566D01*
X030297Y003544D01*
X030318Y003523D01*
X030340Y003506D01*
X030364Y003491D01*
X030390Y003479D01*
X030418Y003471D01*
X030446Y003466D01*
X030474Y003464D01*
X038249Y003464D01*
X038249Y003465D02*
X038290Y003461D01*
X038332Y003462D01*
X038373Y003465D01*
X038414Y003473D01*
X038454Y003484D01*
X038493Y003498D01*
X038531Y003516D01*
X038566Y003537D01*
X038600Y003561D01*
X038632Y003588D01*
X038661Y003618D01*
X038688Y003650D01*
X038711Y003684D01*
X038732Y003720D01*
X038749Y003758D01*
X038763Y003797D01*
X038773Y003837D01*
X038780Y003878D01*
X038781Y003878D02*
X038781Y012795D01*
X033545Y012795D01*
X033545Y019882D01*
X038663Y019882D01*
X038663Y030511D01*
X038656Y030548D01*
X038645Y030583D01*
X038630Y030617D01*
X038612Y030650D01*
X038591Y030681D01*
X038567Y030709D01*
X038541Y030735D01*
X038512Y030759D01*
X038481Y030779D01*
X038448Y030796D01*
X038413Y030810D01*
X038378Y030820D01*
X038341Y030827D01*
X038304Y030831D01*
X038267Y030830D01*
X038230Y030826D01*
X019273Y030826D01*
X019245Y030819D01*
X019217Y030809D01*
X019192Y030796D01*
X019168Y030780D01*
X019146Y030762D01*
X019126Y030740D01*
X019109Y030717D01*
X019096Y030692D01*
X019085Y030665D01*
X019078Y030637D01*
X019074Y030608D01*
X019073Y030579D01*
X019076Y030551D01*
X019076Y029626D01*
X018820Y029626D01*
X018820Y030551D01*
X018823Y030579D01*
X018822Y030608D01*
X018818Y030637D01*
X018811Y030665D01*
X018800Y030692D01*
X018787Y030717D01*
X018770Y030740D01*
X018750Y030762D01*
X018728Y030780D01*
X018704Y030796D01*
X018679Y030809D01*
X018651Y030819D01*
X018623Y030826D01*
X007797Y030826D01*
X007756Y030824D01*
X007715Y030819D01*
X007675Y030810D01*
X007636Y030798D01*
X007598Y030782D01*
X007561Y030763D01*
X007526Y030741D01*
X007494Y030716D01*
X007463Y030688D01*
X007435Y030657D01*
X007410Y030625D01*
X007388Y030590D01*
X007369Y030553D01*
X007353Y030515D01*
X007341Y030476D01*
X007332Y030436D01*
X007327Y030395D01*
X007325Y030354D01*
X007324Y030354D02*
X007324Y029409D01*
X007009Y029409D01*
X007009Y030354D01*
X007010Y030354D02*
X007006Y030397D01*
X006999Y030439D01*
X006988Y030481D01*
X006973Y030521D01*
X006955Y030560D01*
X006934Y030597D01*
X006909Y030633D01*
X006882Y030666D01*
X006851Y030696D01*
X006819Y030724D01*
X006783Y030749D01*
X006746Y030770D01*
X006707Y030789D01*
X006667Y030804D01*
X006625Y030815D01*
X006583Y030823D01*
X006540Y030826D01*
X006497Y030827D01*
X006497Y030826D02*
X000474Y030826D01*
X000474Y003346D01*
D11*
X011340Y007137D03*
X012340Y007137D03*
X013340Y007137D03*
X014340Y007137D03*
X015340Y007137D03*
X016340Y007137D03*
X017340Y007137D03*
X018340Y007137D03*
X019340Y007137D03*
X020340Y007137D03*
X021340Y007137D03*
X022340Y007137D03*
X023340Y007137D03*
X024340Y007137D03*
X025340Y007137D03*
X026340Y007137D03*
X027340Y007137D03*
X028340Y007137D03*
X029340Y007137D03*
X030340Y007137D03*
X031340Y007137D03*
X032340Y007137D03*
X033340Y007137D03*
X032340Y008137D03*
X031340Y008137D03*
X030340Y008137D03*
X029340Y008137D03*
X028340Y008137D03*
X027340Y008137D03*
X026340Y008137D03*
X025340Y008137D03*
X024340Y008137D03*
X023340Y008137D03*
X022340Y008137D03*
X021340Y008137D03*
X020340Y008137D03*
X019340Y008137D03*
X018340Y008137D03*
X017340Y008137D03*
X016340Y008137D03*
X015340Y008137D03*
X014340Y008137D03*
X013340Y008137D03*
X012340Y008137D03*
X011340Y008137D03*
X011277Y026130D03*
X011277Y027130D03*
X012277Y027130D03*
X013277Y027130D03*
X014277Y027130D03*
X015277Y027130D03*
X016277Y027130D03*
X017277Y027130D03*
X018277Y027130D03*
X019277Y027130D03*
X020277Y027130D03*
X021277Y027130D03*
X022277Y027130D03*
X023277Y027130D03*
X024277Y027130D03*
X025277Y027130D03*
X026277Y027130D03*
X027277Y027130D03*
X028277Y027130D03*
X029277Y027130D03*
X030277Y027130D03*
X031277Y027130D03*
X032277Y027130D03*
X032277Y026130D03*
X033277Y026130D03*
X031277Y026130D03*
X030277Y026130D03*
X029277Y026130D03*
X028277Y026130D03*
X027277Y026130D03*
X026277Y026130D03*
X025277Y026130D03*
X024277Y026130D03*
X023277Y026130D03*
X022277Y026130D03*
X021277Y026130D03*
X020277Y026130D03*
X019277Y026130D03*
X018277Y026130D03*
X017277Y026130D03*
X016277Y026130D03*
X015277Y026130D03*
X014277Y026130D03*
X013277Y026130D03*
X012277Y026130D03*
D12*
X011659Y028681D03*
X007978Y028661D03*
X015379Y028720D03*
X019730Y028602D03*
X022938Y028602D03*
X026167Y028602D03*
X029375Y028602D03*
X032623Y028602D03*
X033277Y027130D03*
X035852Y028641D03*
X033340Y008137D03*
X032509Y005551D03*
X035186Y005511D03*
X037863Y005551D03*
X029100Y005551D03*
X024611Y005511D03*
X020123Y005511D03*
X015635Y005511D03*
X011147Y005511D03*
D13*
X010675Y010344D03*
X010675Y010600D03*
X010675Y010856D03*
X010675Y011112D03*
X010675Y011368D03*
X010675Y011624D03*
X010675Y011880D03*
X010675Y012136D03*
X010675Y012391D03*
X010675Y012647D03*
X010675Y012903D03*
X010675Y013159D03*
X010675Y013415D03*
X010675Y013671D03*
X013107Y013671D03*
X013107Y013415D03*
X013107Y013159D03*
X013107Y012903D03*
X013107Y012647D03*
X013107Y012391D03*
X013107Y012136D03*
X013107Y011880D03*
X013107Y011624D03*
X013107Y011368D03*
X013107Y011112D03*
X013107Y010856D03*
X013107Y010600D03*
X013107Y010344D03*
X015203Y010344D03*
X015203Y010600D03*
X015203Y010856D03*
X015203Y011112D03*
X015203Y011368D03*
X015203Y011624D03*
X015203Y011880D03*
X015203Y012136D03*
X015203Y012391D03*
X015203Y012647D03*
X015203Y012903D03*
X015203Y013159D03*
X015203Y013415D03*
X015203Y013671D03*
X017634Y013671D03*
X017634Y013415D03*
X017634Y013159D03*
X017634Y012903D03*
X017634Y012647D03*
X017634Y012391D03*
X017634Y012136D03*
X017634Y011880D03*
X017634Y011624D03*
X017634Y011368D03*
X017634Y011112D03*
X017634Y010856D03*
X017634Y010600D03*
X017634Y010344D03*
X019888Y010305D03*
X019888Y010561D03*
X019888Y010817D03*
X019888Y011073D03*
X019888Y011328D03*
X019888Y011584D03*
X019888Y011840D03*
X019888Y012096D03*
X019888Y012352D03*
X019888Y012608D03*
X019888Y012864D03*
X019888Y013120D03*
X019888Y013376D03*
X019888Y013632D03*
X022319Y013632D03*
X022319Y013376D03*
X022319Y013120D03*
X022319Y012864D03*
X022319Y012608D03*
X022319Y012352D03*
X022319Y012096D03*
X022319Y011840D03*
X022319Y011584D03*
X022319Y011328D03*
X022319Y011073D03*
X022319Y010817D03*
X022319Y010561D03*
X022319Y010305D03*
X024140Y010344D03*
X024140Y010600D03*
X024140Y010856D03*
X024140Y011112D03*
X024140Y011368D03*
X024140Y011624D03*
X024140Y011880D03*
X024140Y012136D03*
X024140Y012391D03*
X024140Y012647D03*
X024140Y012903D03*
X024140Y013159D03*
X024140Y013415D03*
X024140Y013671D03*
X026571Y013671D03*
X026571Y013415D03*
X026571Y013159D03*
X026571Y012903D03*
X026571Y012647D03*
X026571Y012391D03*
X026571Y012136D03*
X026571Y011880D03*
X026571Y011624D03*
X026571Y011368D03*
X026571Y011112D03*
X026571Y010856D03*
X026571Y010600D03*
X026571Y010344D03*
X028549Y010305D03*
X028549Y010561D03*
X028549Y010817D03*
X028549Y011073D03*
X028549Y011328D03*
X028549Y011584D03*
X028549Y011840D03*
X028549Y012096D03*
X028549Y012352D03*
X028549Y012608D03*
X028549Y012864D03*
X028549Y013120D03*
X028549Y013376D03*
X028549Y013632D03*
X030981Y013632D03*
X030981Y013376D03*
X030981Y013120D03*
X030981Y012864D03*
X030981Y012608D03*
X030981Y012352D03*
X030981Y012096D03*
X030981Y011840D03*
X030981Y011584D03*
X030981Y011328D03*
X030981Y011073D03*
X030981Y010817D03*
X030981Y010561D03*
X030981Y010305D03*
D14*
X029765Y011968D03*
X025356Y012008D03*
X021104Y011968D03*
X016419Y012008D03*
X011891Y012008D03*
D15*
X010839Y015734D03*
X010839Y015994D03*
X010839Y016254D03*
X010839Y016504D03*
X010839Y016764D03*
X010839Y017014D03*
X010839Y017274D03*
X010839Y017534D03*
X013139Y017534D03*
X013139Y017274D03*
X013139Y017014D03*
X013139Y016764D03*
X013139Y016504D03*
X013139Y016254D03*
X013139Y015994D03*
X013139Y015734D03*
X015367Y015852D03*
X015367Y016112D03*
X015367Y016372D03*
X015367Y016622D03*
X015367Y016882D03*
X015367Y017132D03*
X015367Y017392D03*
X015367Y017652D03*
X017667Y017652D03*
X017667Y017392D03*
X017667Y017132D03*
X017667Y016882D03*
X017667Y016622D03*
X017667Y016372D03*
X017667Y016112D03*
X017667Y015852D03*
X019954Y015852D03*
X019954Y016112D03*
X019954Y016372D03*
X019954Y016622D03*
X019954Y016882D03*
X019954Y017132D03*
X019954Y017392D03*
X019954Y017652D03*
X022254Y017652D03*
X022254Y017392D03*
X022254Y017132D03*
X022254Y016882D03*
X022254Y016622D03*
X022254Y016372D03*
X022254Y016112D03*
X022254Y015852D03*
X024186Y015871D03*
X024186Y016131D03*
X024186Y016391D03*
X024186Y016641D03*
X024186Y016901D03*
X024186Y017151D03*
X024186Y017411D03*
X024186Y017671D03*
X026486Y017671D03*
X026486Y017411D03*
X026486Y017151D03*
X026486Y016901D03*
X026486Y016641D03*
X026486Y016391D03*
X026486Y016131D03*
X026486Y015871D03*
X028654Y015871D03*
X028654Y016131D03*
X028654Y016391D03*
X028654Y016641D03*
X028654Y016901D03*
X028654Y017151D03*
X028654Y017411D03*
X028654Y017671D03*
X030954Y017671D03*
X030954Y017411D03*
X030954Y017151D03*
X030954Y016901D03*
X030954Y016641D03*
X030954Y016391D03*
X030954Y016131D03*
X030954Y015871D03*
X011092Y020190D03*
X011092Y020440D03*
X011092Y020700D03*
X011092Y020950D03*
X011092Y021210D03*
X011092Y021470D03*
X011092Y021720D03*
X011092Y021980D03*
X011092Y022230D03*
X011092Y022490D03*
X011092Y022750D03*
X011092Y023000D03*
X011092Y023260D03*
X011092Y023510D03*
X008792Y023510D03*
X008792Y023260D03*
X008792Y023000D03*
X008792Y022750D03*
X008792Y022490D03*
X008792Y022230D03*
X008792Y021980D03*
X008792Y021720D03*
X008792Y021470D03*
X008792Y021210D03*
X008792Y020950D03*
X008792Y020700D03*
X008792Y020440D03*
X008792Y020190D03*
D16*
X035093Y011643D03*
X035093Y011387D03*
X035093Y011132D03*
X035093Y010876D03*
X035093Y010620D03*
X035093Y010364D03*
X035093Y010108D03*
X035093Y009852D03*
X037390Y009852D03*
X037390Y010108D03*
X037390Y010364D03*
X037390Y010620D03*
X037390Y010876D03*
X037390Y011132D03*
X037390Y011387D03*
X037390Y011643D03*
D17*
X037934Y009862D03*
X038446Y009862D03*
X031025Y009852D03*
X030513Y009852D03*
X030159Y009852D03*
X029647Y009852D03*
X026399Y009842D03*
X025887Y009842D03*
X025533Y009842D03*
X025021Y009842D03*
X022304Y009842D03*
X021793Y009842D03*
X021438Y009842D03*
X020926Y009842D03*
X017600Y009803D03*
X017088Y009803D03*
X016625Y009803D03*
X016113Y009803D03*
X013052Y009842D03*
X012541Y009842D03*
X012058Y009842D03*
X011547Y009842D03*
X012324Y017874D03*
X012836Y017874D03*
X013186Y017866D03*
X013698Y017866D03*
X016832Y018011D03*
X017344Y018011D03*
X017698Y018011D03*
X018210Y018011D03*
X021399Y018031D03*
X021911Y018031D03*
X022265Y018031D03*
X022777Y018031D03*
X025651Y018031D03*
X026163Y018031D03*
X026497Y018031D03*
X027009Y018031D03*
X030080Y018051D03*
X030592Y018051D03*
X030966Y018051D03*
X031478Y018051D03*
X031261Y020551D03*
X031773Y020551D03*
X033667Y024823D03*
X034178Y024823D03*
X037541Y024882D03*
X038052Y024882D03*
X038033Y025374D03*
X037521Y025374D03*
X037521Y025905D03*
X038033Y025905D03*
X020897Y024370D03*
X020385Y024370D03*
X019913Y024370D03*
X019401Y024370D03*
X019824Y023858D03*
X020336Y023858D03*
X018702Y025118D03*
X018190Y025118D03*
X016950Y025157D03*
X016438Y025157D03*
X014824Y028090D03*
X014312Y028090D03*
X014312Y028622D03*
X014824Y028622D03*
X014824Y029094D03*
X014312Y029094D03*
X011084Y029055D03*
X011084Y028602D03*
X010572Y028602D03*
X010572Y029055D03*
X010562Y028061D03*
X011074Y028061D03*
X011161Y023988D03*
X011673Y023988D03*
X018190Y028287D03*
X018190Y028740D03*
X018702Y028740D03*
X018702Y028287D03*
X018702Y029193D03*
X018190Y029193D03*
D18*
X017741Y024126D03*
X017068Y021909D03*
X017068Y021161D03*
X017029Y015098D03*
X017029Y014350D03*
X015907Y014350D03*
X015907Y015098D03*
X012442Y015059D03*
X011478Y015059D03*
X011478Y014311D03*
X012442Y014311D03*
X020611Y014330D03*
X020611Y015078D03*
X021714Y015157D03*
X021714Y014409D03*
X025100Y014370D03*
X025887Y014350D03*
X025887Y015098D03*
X025100Y015118D03*
X029273Y015098D03*
X029273Y014350D03*
X030316Y014350D03*
X030316Y015098D03*
X029785Y022972D03*
X029785Y023720D03*
X028919Y023720D03*
X028919Y022972D03*
D19*
X038052Y020886D03*
X038052Y020295D03*
X036025Y004389D03*
X036025Y003799D03*
X033348Y003799D03*
X033348Y004389D03*
X030651Y004389D03*
X030651Y003799D03*
X006753Y003917D03*
X006753Y004508D03*
X005395Y016555D03*
X005395Y017145D03*
X005188Y023445D03*
X005188Y024035D03*
X005356Y029734D03*
X005356Y030324D03*
D20*
X019131Y019823D03*
X020041Y019823D03*
X020950Y019823D03*
X022202Y019862D03*
X023111Y019862D03*
X024021Y019862D03*
X025391Y019921D03*
X026300Y019921D03*
X027210Y019921D03*
D21*
X026300Y022361D03*
X023111Y022302D03*
X020041Y022263D03*
D22*
X019293Y023317D03*
X019293Y023828D03*
X018446Y029882D03*
X018446Y030393D03*
X014627Y030374D03*
X014627Y029862D03*
X010907Y029882D03*
X010907Y030393D03*
X007324Y029035D03*
X007324Y028523D03*
X007363Y027185D03*
X007363Y026673D03*
X006072Y025685D03*
X005631Y025685D03*
X005631Y025173D03*
X006072Y025173D03*
X005808Y024035D03*
X005808Y023523D03*
X007403Y022697D03*
X007403Y022185D03*
X007482Y020925D03*
X007482Y020413D03*
X005958Y018976D03*
X005958Y018464D03*
X005336Y018464D03*
X005336Y018976D03*
X005907Y017185D03*
X005907Y016673D03*
X007442Y015807D03*
X007442Y015295D03*
X007403Y013956D03*
X007403Y013445D03*
X005907Y012441D03*
X005907Y011929D03*
X005224Y011943D03*
X005224Y012454D03*
X013545Y011043D03*
X013545Y010531D03*
X013643Y013051D03*
X013643Y013563D03*
X014194Y013563D03*
X014194Y013051D03*
X018200Y013002D03*
X018673Y013002D03*
X018673Y013513D03*
X018200Y013513D03*
X018190Y011082D03*
X018190Y010571D03*
X022757Y010452D03*
X022757Y010964D03*
X022826Y012952D03*
X023308Y012962D03*
X023308Y013474D03*
X022826Y013464D03*
X027058Y013454D03*
X027501Y013454D03*
X027501Y012943D03*
X027058Y012943D03*
X027019Y010826D03*
X027019Y010315D03*
X031497Y010502D03*
X031497Y011013D03*
X031527Y012903D03*
X032009Y012903D03*
X032009Y013415D03*
X031527Y013415D03*
X037560Y020315D03*
X037560Y020826D03*
X032865Y021752D03*
X032865Y022263D03*
X033348Y005531D03*
X033348Y005019D03*
X030631Y004980D03*
X030631Y005492D03*
X036064Y005610D03*
X036064Y005098D03*
X010972Y024441D03*
X010493Y024429D03*
X010021Y024429D03*
X009552Y024425D03*
X009552Y024937D03*
X010021Y024941D03*
X010493Y024941D03*
X010972Y024952D03*
X009021Y024941D03*
X009021Y024429D03*
X008489Y024425D03*
X008489Y024937D03*
X005966Y029783D03*
X005966Y030295D03*
X006123Y004429D03*
X006123Y003917D03*
D23*
X008147Y005211D02*
X008147Y005811D01*
X009147Y005811D02*
X009147Y005211D01*
X010147Y005211D02*
X010147Y005811D01*
X012635Y005811D02*
X012635Y005211D01*
X013635Y005211D02*
X013635Y005811D01*
X014635Y005811D02*
X014635Y005211D01*
X017123Y005211D02*
X017123Y005811D01*
X018123Y005811D02*
X018123Y005211D01*
X019123Y005211D02*
X019123Y005811D01*
X021611Y005811D02*
X021611Y005211D01*
X022611Y005211D02*
X022611Y005811D01*
X023611Y005811D02*
X023611Y005211D01*
X026100Y005251D02*
X026100Y005851D01*
X027100Y005851D02*
X027100Y005251D01*
X028100Y005251D02*
X028100Y005851D01*
X031509Y005851D02*
X031509Y005251D01*
X034186Y005211D02*
X034186Y005811D01*
X036863Y005851D02*
X036863Y005251D01*
X036852Y028341D02*
X036852Y028941D01*
X037852Y028941D02*
X037852Y028341D01*
X034623Y028302D02*
X034623Y028902D01*
X033623Y028902D02*
X033623Y028302D01*
X031375Y028302D02*
X031375Y028902D01*
X030375Y028902D02*
X030375Y028302D01*
X028167Y028302D02*
X028167Y028902D01*
X027167Y028902D02*
X027167Y028302D01*
X024938Y028302D02*
X024938Y028902D01*
X023938Y028902D02*
X023938Y028302D01*
X021730Y028302D02*
X021730Y028902D01*
X020730Y028902D02*
X020730Y028302D01*
X017379Y028420D02*
X017379Y029020D01*
X016379Y029020D02*
X016379Y028420D01*
X013659Y028381D02*
X013659Y028981D01*
X012659Y028981D02*
X012659Y028381D01*
X009978Y028361D02*
X009978Y028961D01*
X008978Y028961D02*
X008978Y028361D01*
D24*
X004088Y029425D03*
X004088Y024574D03*
X004088Y015724D03*
X004088Y010874D03*
D25*
X004500Y008874D02*
X003675Y008874D01*
X003675Y006874D02*
X004500Y006874D01*
X004500Y004874D02*
X003675Y004874D01*
X003675Y013724D02*
X004500Y013724D01*
X004500Y018574D02*
X003675Y018574D01*
X003675Y020574D02*
X004500Y020574D01*
X004500Y022574D02*
X003675Y022574D01*
X003675Y027425D02*
X004500Y027425D01*
D26*
X034135Y023177D03*
X034135Y022177D03*
X037521Y022177D03*
X037521Y023177D03*
D27*
X008899Y009862D03*
X008899Y007303D03*
D28*
X007521Y011634D03*
X007521Y012382D03*
X006497Y012382D03*
X006497Y012008D03*
X006497Y011634D03*
X006576Y018169D03*
X006576Y018543D03*
X006576Y018917D03*
X007600Y018917D03*
X007600Y018169D03*
X007639Y024783D03*
X007639Y025531D03*
X006615Y025531D03*
X006615Y025157D03*
X006615Y024783D03*
D29*
X006667Y026870D03*
X006167Y026870D03*
X005667Y026870D03*
X005167Y026870D03*
X005167Y029153D03*
X005667Y029153D03*
X006167Y029153D03*
X006667Y029153D03*
X006736Y022687D03*
X006236Y022687D03*
X005736Y022687D03*
X005236Y022687D03*
X005236Y020403D03*
X005736Y020403D03*
X006236Y020403D03*
X006736Y020403D03*
X006804Y015748D03*
X006304Y015748D03*
X005804Y015748D03*
X005304Y015748D03*
X005304Y013464D03*
X005804Y013464D03*
X006304Y013464D03*
X006804Y013464D03*
D30*
X009096Y014015D03*
X009096Y015590D03*
X009115Y017618D03*
X009115Y019193D03*
X012560Y021496D03*
X012560Y023071D03*
X010237Y026604D03*
X008663Y026604D03*
D31*
X030888Y022224D02*
X031064Y022224D01*
X031064Y022027D02*
X030888Y022027D01*
X030888Y021830D02*
X031064Y021830D01*
X031064Y021634D02*
X030888Y021634D01*
X031261Y021436D02*
X031261Y021260D01*
X031458Y021260D02*
X031458Y021436D01*
X031655Y021436D02*
X031655Y021260D01*
X031852Y021260D02*
X031852Y021436D01*
X032049Y021634D02*
X032225Y021634D01*
X032225Y021830D02*
X032049Y021830D01*
X032049Y022027D02*
X032225Y022027D01*
X032225Y022224D02*
X032049Y022224D01*
X031852Y022422D02*
X031852Y022598D01*
X031655Y022598D02*
X031655Y022422D01*
X031458Y022422D02*
X031458Y022598D01*
X031261Y022598D02*
X031261Y022422D01*
D32*
X031556Y021929D03*
D33*
X029824Y022086D03*
X028919Y022086D03*
X028919Y020984D03*
X029824Y020984D03*
D34*
X030946Y024291D03*
X032403Y024291D03*
D35*
X018702Y024330D03*
X018702Y024527D03*
X018702Y024132D03*
X018702Y023937D03*
X018702Y023740D03*
X016812Y023740D03*
X016812Y023937D03*
X016812Y024132D03*
X016812Y024330D03*
X016812Y024527D03*
D36*
X015946Y024252D03*
X014844Y024252D03*
D37*
X015001Y023346D03*
X015001Y021141D03*
D38*
X034937Y024899D03*
X034937Y025399D03*
X034937Y025899D03*
X034937Y026399D03*
X036877Y026399D03*
X036877Y025899D03*
X036877Y025399D03*
X036877Y024899D03*
D39*
X006714Y010551D03*
X005375Y010551D03*
X005375Y005669D03*
X006714Y005669D03*
D40*
X012934Y024586D03*
X037984Y012126D03*
D41*
X037630Y012126D02*
X037632Y012163D01*
X037638Y012200D01*
X037647Y012235D01*
X037661Y012270D01*
X037677Y012303D01*
X037698Y012334D01*
X037721Y012363D01*
X037747Y012389D01*
X037776Y012412D01*
X037807Y012433D01*
X037840Y012449D01*
X037875Y012463D01*
X037910Y012472D01*
X037947Y012478D01*
X037984Y012480D01*
X038021Y012478D01*
X038058Y012472D01*
X038093Y012463D01*
X038128Y012449D01*
X038161Y012433D01*
X038192Y012412D01*
X038221Y012389D01*
X038247Y012363D01*
X038270Y012334D01*
X038291Y012303D01*
X038307Y012270D01*
X038321Y012235D01*
X038330Y012200D01*
X038336Y012163D01*
X038338Y012126D01*
X038336Y012089D01*
X038330Y012052D01*
X038321Y012017D01*
X038307Y011982D01*
X038291Y011949D01*
X038270Y011918D01*
X038247Y011889D01*
X038221Y011863D01*
X038192Y011840D01*
X038161Y011819D01*
X038128Y011803D01*
X038093Y011789D01*
X038058Y011780D01*
X038021Y011774D01*
X037984Y011772D01*
X037947Y011774D01*
X037910Y011780D01*
X037875Y011789D01*
X037840Y011803D01*
X037807Y011819D01*
X037776Y011840D01*
X037747Y011863D01*
X037721Y011889D01*
X037698Y011918D01*
X037677Y011949D01*
X037661Y011982D01*
X037647Y012017D01*
X037638Y012052D01*
X037632Y012089D01*
X037630Y012126D01*
X012580Y024586D02*
X012582Y024623D01*
X012588Y024660D01*
X012597Y024695D01*
X012611Y024730D01*
X012627Y024763D01*
X012648Y024794D01*
X012671Y024823D01*
X012697Y024849D01*
X012726Y024872D01*
X012757Y024893D01*
X012790Y024909D01*
X012825Y024923D01*
X012860Y024932D01*
X012897Y024938D01*
X012934Y024940D01*
X012971Y024938D01*
X013008Y024932D01*
X013043Y024923D01*
X013078Y024909D01*
X013111Y024893D01*
X013142Y024872D01*
X013171Y024849D01*
X013197Y024823D01*
X013220Y024794D01*
X013241Y024763D01*
X013257Y024730D01*
X013271Y024695D01*
X013280Y024660D01*
X013286Y024623D01*
X013288Y024586D01*
X013286Y024549D01*
X013280Y024512D01*
X013271Y024477D01*
X013257Y024442D01*
X013241Y024409D01*
X013220Y024378D01*
X013197Y024349D01*
X013171Y024323D01*
X013142Y024300D01*
X013111Y024279D01*
X013078Y024263D01*
X013043Y024249D01*
X013008Y024240D01*
X012971Y024234D01*
X012934Y024232D01*
X012897Y024234D01*
X012860Y024240D01*
X012825Y024249D01*
X012790Y024263D01*
X012757Y024279D01*
X012726Y024300D01*
X012697Y024323D01*
X012671Y024349D01*
X012648Y024378D01*
X012627Y024409D01*
X012611Y024442D01*
X012597Y024477D01*
X012588Y024512D01*
X012582Y024549D01*
X012580Y024586D01*
D42*
X017924Y021801D03*
X029381Y025295D03*
M02*
