G75*
G70*
%OFA0B0*%
%FSLAX24Y24*%
%IPPOS*%
%LPD*%
%AMOC8*
5,1,8,0,0,1.08239X$1,22.5*
%
%ADD10C,0.0000*%
%ADD11C,0.0030*%
%ADD12C,0.0060*%
%ADD13C,0.0020*%
%ADD14C,0.0070*%
%ADD15C,0.0100*%
%ADD16C,0.0050*%
%ADD17C,0.0040*%
D10*
X004498Y001844D02*
X037293Y001844D01*
X037293Y008144D01*
X032057Y008144D01*
X032057Y015230D01*
X039931Y015230D01*
X039931Y020742D01*
X039930Y020742D02*
X039937Y020845D01*
X039939Y020949D01*
X039936Y021052D01*
X039928Y021155D01*
X039915Y021258D01*
X039898Y021360D01*
X039875Y021461D01*
X039848Y021561D01*
X039816Y021659D01*
X039780Y021756D01*
X039738Y021851D01*
X039693Y021944D01*
X039643Y022035D01*
X039589Y022123D01*
X039530Y022208D01*
X039468Y022291D01*
X039402Y022370D01*
X039332Y022446D01*
X039258Y022519D01*
X039181Y022588D01*
X039101Y022654D01*
X039018Y022716D01*
X038932Y022773D01*
X038843Y022827D01*
X038752Y022876D01*
X038659Y022921D01*
X038564Y022961D01*
X038467Y022997D01*
X038368Y023028D01*
X038268Y023054D01*
X038167Y023076D01*
X038065Y023092D01*
X037962Y023104D01*
X004498Y023104D01*
X004421Y023102D01*
X004344Y023096D01*
X004267Y023087D01*
X004191Y023074D01*
X004115Y023057D01*
X004041Y023036D01*
X003967Y023012D01*
X003895Y022984D01*
X003825Y022953D01*
X003756Y022918D01*
X003688Y022880D01*
X003623Y022839D01*
X003560Y022794D01*
X003499Y022746D01*
X003440Y022696D01*
X003384Y022643D01*
X003331Y022587D01*
X003281Y022528D01*
X003233Y022467D01*
X003188Y022404D01*
X003147Y022339D01*
X003109Y022271D01*
X003074Y022202D01*
X003043Y022132D01*
X003015Y022060D01*
X002991Y021986D01*
X002970Y021912D01*
X002953Y021836D01*
X002940Y021760D01*
X002931Y021683D01*
X002925Y021606D01*
X002923Y021529D01*
X002923Y003813D01*
X002922Y003813D02*
X002914Y003726D01*
X002911Y003638D01*
X002912Y003551D01*
X002918Y003463D01*
X002927Y003376D01*
X002941Y003290D01*
X002959Y003204D01*
X002981Y003120D01*
X003008Y003036D01*
X003038Y002954D01*
X003073Y002874D01*
X003111Y002795D01*
X003153Y002719D01*
X003199Y002644D01*
X003249Y002572D01*
X003302Y002502D01*
X003358Y002435D01*
X003418Y002371D01*
X003480Y002310D01*
X003546Y002252D01*
X003614Y002197D01*
X003685Y002146D01*
X003758Y002098D01*
X003834Y002054D01*
X003912Y002014D01*
X003991Y001977D01*
X004072Y001945D01*
X004155Y001916D01*
X004239Y001892D01*
X004324Y001872D01*
X004410Y001856D01*
X004497Y001844D01*
D11*
X008091Y008598D02*
X008285Y008598D01*
X008188Y008598D02*
X008188Y008888D01*
X008285Y008791D01*
X008386Y008598D02*
X008579Y008598D01*
X008483Y008598D02*
X008483Y008888D01*
X008579Y008791D01*
X008681Y008888D02*
X008681Y008646D01*
X008729Y008598D01*
X008826Y008598D01*
X008874Y008646D01*
X008874Y008888D01*
X009192Y008765D02*
X009506Y008452D01*
X009506Y008608D02*
X009192Y008608D01*
X009192Y008452D02*
X009506Y008765D01*
X009349Y008765D02*
X009349Y008452D01*
X008988Y009681D02*
X008674Y009994D01*
X008674Y009838D02*
X008988Y009838D01*
X008988Y009994D02*
X008674Y009681D01*
X008831Y009681D02*
X008831Y009994D01*
X009407Y010901D02*
X009600Y010901D01*
X009503Y010901D02*
X009503Y011191D01*
X009600Y011094D01*
X009701Y011046D02*
X009895Y011046D01*
X009750Y011191D01*
X009750Y010901D01*
X009996Y010949D02*
X010044Y010901D01*
X010141Y010901D01*
X010189Y010949D01*
X010189Y011143D01*
X010141Y011191D01*
X010044Y011191D01*
X009996Y011143D01*
X009609Y011531D02*
X009513Y011531D01*
X009464Y011579D01*
X009363Y011531D02*
X009170Y011724D01*
X009170Y011773D01*
X009218Y011821D01*
X009315Y011821D01*
X009363Y011773D01*
X009464Y011773D02*
X009513Y011821D01*
X009609Y011821D01*
X009658Y011773D01*
X009658Y011579D01*
X009609Y011531D01*
X009363Y011531D02*
X009170Y011531D01*
X009069Y011676D02*
X008875Y011676D01*
X008923Y011821D02*
X009069Y011676D01*
X008923Y011531D02*
X008923Y011821D01*
X008586Y012602D02*
X008489Y012602D01*
X008441Y012650D01*
X008340Y012602D02*
X008146Y012795D01*
X008146Y012843D01*
X008194Y012892D01*
X008291Y012892D01*
X008340Y012843D01*
X008441Y012843D02*
X008489Y012892D01*
X008586Y012892D01*
X008634Y012843D01*
X008634Y012650D01*
X008586Y012602D01*
X008340Y012602D02*
X008146Y012602D01*
X008045Y012650D02*
X007997Y012602D01*
X007900Y012602D01*
X007851Y012650D01*
X007851Y012747D01*
X007900Y012795D01*
X007948Y012795D01*
X008045Y012747D01*
X008045Y012892D01*
X007851Y012892D01*
X008674Y014012D02*
X008988Y014325D01*
X008988Y014168D02*
X008674Y014168D01*
X008674Y014325D02*
X008988Y014012D01*
X008831Y014012D02*
X008831Y014325D01*
X008942Y014666D02*
X008942Y014715D01*
X008748Y014908D01*
X008748Y014957D01*
X008942Y014957D01*
X009043Y014957D02*
X009043Y014715D01*
X009091Y014666D01*
X009188Y014666D01*
X009236Y014715D01*
X009236Y014957D01*
X009281Y015889D02*
X009087Y015889D01*
X008986Y015889D02*
X008792Y016082D01*
X008792Y016131D01*
X008841Y016179D01*
X008938Y016179D01*
X008986Y016131D01*
X009087Y016131D02*
X009135Y016179D01*
X009232Y016179D01*
X009281Y016131D01*
X009382Y016131D02*
X009430Y016179D01*
X009527Y016179D01*
X009575Y016131D01*
X009575Y015937D01*
X009527Y015889D01*
X009430Y015889D01*
X009382Y015937D01*
X009281Y015889D02*
X009087Y016082D01*
X009087Y016131D01*
X009012Y016306D02*
X009061Y016355D01*
X009012Y016306D02*
X008916Y016306D01*
X008867Y016355D01*
X008867Y016403D01*
X008916Y016451D01*
X008964Y016451D01*
X008916Y016451D02*
X008867Y016500D01*
X008867Y016548D01*
X008916Y016596D01*
X009012Y016596D01*
X009061Y016548D01*
X009162Y016548D02*
X009210Y016596D01*
X009307Y016596D01*
X009355Y016548D01*
X009456Y016548D02*
X009505Y016596D01*
X009602Y016596D01*
X009650Y016548D01*
X009650Y016355D01*
X009602Y016306D01*
X009505Y016306D01*
X009456Y016355D01*
X009355Y016306D02*
X009162Y016306D01*
X009355Y016306D02*
X009162Y016500D01*
X009162Y016548D01*
X008986Y015889D02*
X008792Y015889D01*
X008831Y018342D02*
X008831Y018656D01*
X008674Y018656D02*
X008988Y018342D01*
X008988Y018499D02*
X008674Y018499D01*
X008674Y018342D02*
X008988Y018656D01*
X007339Y019128D02*
X007290Y019080D01*
X007194Y019080D01*
X007145Y019128D01*
X007145Y019370D01*
X007044Y019322D02*
X007044Y019273D01*
X006996Y019225D01*
X006851Y019225D01*
X006851Y019128D02*
X006851Y019322D01*
X006899Y019370D01*
X006996Y019370D01*
X007044Y019322D01*
X007044Y019128D02*
X006996Y019080D01*
X006899Y019080D01*
X006851Y019128D01*
X007339Y019128D02*
X007339Y019370D01*
X008596Y020158D02*
X008644Y020109D01*
X008741Y020109D01*
X008789Y020158D01*
X008596Y020351D01*
X008596Y020158D01*
X008789Y020158D02*
X008789Y020351D01*
X008741Y020400D01*
X008644Y020400D01*
X008596Y020351D01*
X008890Y020351D02*
X008939Y020400D01*
X009035Y020400D01*
X009084Y020351D01*
X009185Y020351D02*
X009233Y020400D01*
X009330Y020400D01*
X009378Y020351D01*
X009378Y020158D01*
X009330Y020109D01*
X009233Y020109D01*
X009185Y020158D01*
X009084Y020109D02*
X008890Y020303D01*
X008890Y020351D01*
X008890Y020109D02*
X009084Y020109D01*
X008424Y020948D02*
X008328Y020948D01*
X008279Y020996D01*
X008178Y020948D02*
X007985Y021141D01*
X007985Y021190D01*
X008033Y021238D01*
X008130Y021238D01*
X008178Y021190D01*
X008279Y021190D02*
X008328Y021238D01*
X008424Y021238D01*
X008473Y021190D01*
X008473Y020996D01*
X008424Y020948D01*
X008178Y020948D02*
X007985Y020948D01*
X007884Y020948D02*
X007690Y020948D01*
X007787Y020948D02*
X007787Y021238D01*
X007884Y021141D01*
X016557Y018444D02*
X016557Y018251D01*
X016750Y018444D01*
X016798Y018444D01*
X016847Y018396D01*
X016847Y018299D01*
X016798Y018251D01*
X016847Y018053D02*
X016557Y018053D01*
X016557Y017956D02*
X016557Y018150D01*
X016750Y017956D02*
X016847Y018053D01*
X016847Y017855D02*
X016605Y017855D01*
X016557Y017807D01*
X016557Y017710D01*
X016605Y017662D01*
X016847Y017662D01*
X019494Y018360D02*
X019494Y018457D01*
X019542Y018506D01*
X019494Y018607D02*
X019494Y018800D01*
X019494Y018703D02*
X019784Y018703D01*
X019687Y018607D01*
X019736Y018506D02*
X019784Y018457D01*
X019784Y018360D01*
X019736Y018312D01*
X019542Y018312D01*
X019494Y018360D01*
X019494Y018901D02*
X019494Y019095D01*
X019494Y018998D02*
X019784Y018998D01*
X019687Y018901D01*
X025779Y020139D02*
X026093Y020452D01*
X025779Y020139D01*
X025779Y020295D02*
X026093Y020295D01*
X025779Y020295D01*
X025779Y020452D02*
X026093Y020139D01*
X025779Y020452D01*
X025936Y020452D02*
X025936Y020139D01*
X025936Y020452D01*
X028190Y019489D02*
X028432Y019489D01*
X028481Y019440D01*
X028481Y019344D01*
X028432Y019295D01*
X028190Y019295D01*
X028287Y019194D02*
X028190Y019097D01*
X028481Y019097D01*
X028481Y019001D02*
X028481Y019194D01*
X028432Y018899D02*
X028239Y018706D01*
X028432Y018706D01*
X028481Y018754D01*
X028481Y018851D01*
X028432Y018899D01*
X028239Y018899D01*
X028190Y018851D01*
X028190Y018754D01*
X028239Y018706D01*
X026497Y018184D02*
X026448Y018233D01*
X026400Y018233D01*
X026352Y018184D01*
X026303Y018233D01*
X026255Y018233D01*
X026206Y018184D01*
X026206Y018088D01*
X026255Y018039D01*
X026206Y017938D02*
X026206Y017745D01*
X026206Y017841D02*
X026497Y017841D01*
X026400Y017745D01*
X026448Y017643D02*
X026497Y017595D01*
X026497Y017498D01*
X026448Y017450D01*
X026255Y017450D01*
X026206Y017498D01*
X026206Y017595D01*
X026255Y017643D01*
X026448Y018039D02*
X026497Y018088D01*
X026497Y018184D01*
X026352Y018184D02*
X026352Y018136D01*
X034004Y021938D02*
X034246Y021938D01*
X034246Y021999D01*
X034004Y022241D01*
X034004Y022302D01*
X034246Y022302D01*
X037643Y021015D02*
X037643Y020918D01*
X037692Y020870D01*
X037885Y021063D01*
X037692Y021063D01*
X037643Y021015D01*
X037692Y020870D02*
X037885Y020870D01*
X037934Y020918D01*
X037934Y021015D01*
X037885Y021063D01*
X037643Y020769D02*
X037643Y020575D01*
X037643Y020672D02*
X037934Y020672D01*
X037837Y020575D01*
X037934Y020474D02*
X037643Y020281D01*
X037643Y020474D02*
X037934Y020281D01*
X029241Y011383D02*
X029290Y011334D01*
X029290Y011141D01*
X029241Y011093D01*
X029145Y011093D01*
X029096Y011141D01*
X028995Y011141D02*
X028947Y011093D01*
X028850Y011093D01*
X028802Y011141D01*
X028802Y011189D01*
X028850Y011238D01*
X028898Y011238D01*
X028850Y011238D02*
X028802Y011286D01*
X028802Y011334D01*
X028850Y011383D01*
X028947Y011383D01*
X028995Y011334D01*
X029096Y011334D02*
X029145Y011383D01*
X029241Y011383D01*
X028701Y011383D02*
X028507Y011383D01*
X028507Y011334D01*
X028701Y011141D01*
X028701Y011093D01*
X029882Y010722D02*
X030076Y010722D01*
X030076Y010577D01*
X029979Y010626D01*
X029930Y010626D01*
X029882Y010577D01*
X029882Y010481D01*
X029930Y010432D01*
X030027Y010432D01*
X030076Y010481D01*
X030177Y010481D02*
X030177Y010722D01*
X030370Y010722D02*
X030370Y010481D01*
X030322Y010432D01*
X030225Y010432D01*
X030177Y010481D01*
X030767Y010516D02*
X031081Y010516D01*
X031081Y010672D02*
X030767Y010359D01*
X030924Y010359D02*
X030924Y010672D01*
X030767Y010672D02*
X031081Y010359D01*
X026632Y010398D02*
X026318Y010712D01*
X026318Y010555D02*
X026632Y010555D01*
X026632Y010712D02*
X026318Y010398D01*
X026475Y010398D02*
X026475Y010712D01*
X026000Y010801D02*
X026000Y010559D01*
X025952Y010511D01*
X025855Y010511D01*
X025807Y010559D01*
X025807Y010801D01*
X025705Y010656D02*
X025512Y010656D01*
X025560Y010511D02*
X025560Y010801D01*
X025705Y010656D01*
X024802Y011259D02*
X024802Y011453D01*
X024753Y011501D01*
X024656Y011501D01*
X024608Y011453D01*
X024507Y011453D02*
X024459Y011501D01*
X024362Y011501D01*
X024314Y011453D01*
X024314Y011404D01*
X024362Y011356D01*
X024314Y011307D01*
X024314Y011259D01*
X024362Y011211D01*
X024459Y011211D01*
X024507Y011259D01*
X024608Y011259D02*
X024656Y011211D01*
X024753Y011211D01*
X024802Y011259D01*
X024410Y011356D02*
X024362Y011356D01*
X024212Y011356D02*
X024067Y011356D01*
X024019Y011307D01*
X024019Y011259D01*
X024067Y011211D01*
X024164Y011211D01*
X024212Y011259D01*
X024212Y011356D01*
X024116Y011453D01*
X024019Y011501D01*
X022144Y010790D02*
X021830Y010477D01*
X021830Y010634D02*
X022144Y010634D01*
X022144Y010477D02*
X021830Y010790D01*
X021987Y010790D02*
X021987Y010477D01*
X021354Y010599D02*
X021306Y010550D01*
X021209Y010550D01*
X021161Y010599D01*
X021161Y010841D01*
X021060Y010792D02*
X021011Y010841D01*
X020915Y010841D01*
X020866Y010792D01*
X020866Y010744D01*
X020915Y010695D01*
X020866Y010647D01*
X020866Y010599D01*
X020915Y010550D01*
X021011Y010550D01*
X021060Y010599D01*
X020963Y010695D02*
X020915Y010695D01*
X021354Y010599D02*
X021354Y010841D01*
X020313Y011338D02*
X020265Y011289D01*
X020168Y011289D01*
X020120Y011338D01*
X020019Y011338D02*
X019970Y011289D01*
X019874Y011289D01*
X019825Y011338D01*
X019825Y011386D01*
X019874Y011435D01*
X019922Y011435D01*
X019874Y011435D02*
X019825Y011483D01*
X019825Y011531D01*
X019874Y011580D01*
X019970Y011580D01*
X020019Y011531D01*
X020120Y011531D02*
X020168Y011580D01*
X020265Y011580D01*
X020313Y011531D01*
X020313Y011338D01*
X019724Y011338D02*
X019676Y011289D01*
X019579Y011289D01*
X019531Y011338D01*
X019531Y011531D01*
X019579Y011580D01*
X019676Y011580D01*
X019724Y011531D01*
X019724Y011483D01*
X019676Y011435D01*
X019531Y011435D01*
X017419Y010790D02*
X017106Y010477D01*
X017263Y010477D02*
X017263Y010790D01*
X017106Y010790D02*
X017419Y010477D01*
X017419Y010634D02*
X017106Y010634D01*
X016788Y010599D02*
X016788Y010841D01*
X016594Y010841D02*
X016594Y010599D01*
X016642Y010550D01*
X016739Y010550D01*
X016788Y010599D01*
X016493Y010550D02*
X016299Y010744D01*
X016299Y010792D01*
X016348Y010841D01*
X016445Y010841D01*
X016493Y010792D01*
X016493Y010550D02*
X016299Y010550D01*
X015471Y011220D02*
X015423Y011171D01*
X015326Y011171D01*
X015277Y011220D01*
X015176Y011316D02*
X015031Y011462D01*
X015031Y011171D01*
X014983Y011316D02*
X015176Y011316D01*
X015277Y011413D02*
X015326Y011462D01*
X015423Y011462D01*
X015471Y011413D01*
X015471Y011220D01*
X014882Y011220D02*
X014882Y011413D01*
X014833Y011462D01*
X014736Y011462D01*
X014688Y011413D01*
X014882Y011220D01*
X014833Y011171D01*
X014736Y011171D01*
X014688Y011220D01*
X014688Y011413D01*
X012498Y010751D02*
X012184Y010437D01*
X012341Y010437D02*
X012341Y010751D01*
X012184Y010751D02*
X012498Y010437D01*
X012498Y010594D02*
X012184Y010594D01*
X011788Y010481D02*
X011739Y010432D01*
X011642Y010432D01*
X011594Y010481D01*
X011594Y010722D01*
X011493Y010626D02*
X011396Y010722D01*
X011396Y010432D01*
X011493Y010432D02*
X011299Y010432D01*
X011788Y010481D02*
X011788Y010722D01*
X007327Y010610D02*
X007327Y010368D01*
X007279Y010320D01*
X007182Y010320D01*
X007133Y010368D01*
X007133Y010610D01*
X007032Y010562D02*
X007032Y010514D01*
X006984Y010465D01*
X006887Y010465D01*
X006839Y010417D01*
X006839Y010368D01*
X006887Y010320D01*
X006984Y010320D01*
X007032Y010368D01*
X007032Y010417D01*
X006984Y010465D01*
X006887Y010465D02*
X006839Y010514D01*
X006839Y010562D01*
X006887Y010610D01*
X006984Y010610D01*
X007032Y010562D01*
X007066Y009225D02*
X007163Y009225D01*
X007211Y009177D01*
X007211Y008983D01*
X007163Y008935D01*
X007066Y008935D01*
X007018Y008983D01*
X006916Y008935D02*
X006723Y008935D01*
X006820Y008935D02*
X006820Y009225D01*
X006916Y009129D01*
X007018Y009177D02*
X007066Y009225D01*
X006622Y009225D02*
X006428Y009225D01*
X006428Y009177D01*
X006622Y008983D01*
X006622Y008935D01*
X025800Y005966D02*
X025848Y006014D01*
X026042Y006014D01*
X026090Y005966D01*
X026090Y005869D01*
X026042Y005821D01*
X025994Y005821D01*
X025945Y005869D01*
X025945Y006014D01*
X025800Y005966D02*
X025800Y005869D01*
X025848Y005821D01*
X025800Y005720D02*
X025800Y005526D01*
X025800Y005623D02*
X026090Y005623D01*
X025994Y005526D01*
X026042Y005425D02*
X025945Y005425D01*
X025897Y005377D01*
X025897Y005231D01*
X025800Y005231D02*
X026090Y005231D01*
X026090Y005377D01*
X026042Y005425D01*
X025897Y005328D02*
X025800Y005425D01*
X028989Y005350D02*
X029279Y005350D01*
X029279Y005495D01*
X029231Y005543D01*
X029134Y005543D01*
X029086Y005495D01*
X029086Y005350D01*
X029086Y005446D02*
X028989Y005543D01*
X028989Y005644D02*
X029182Y005838D01*
X029231Y005838D01*
X029279Y005789D01*
X029279Y005693D01*
X029231Y005644D01*
X028989Y005644D02*
X028989Y005838D01*
X029037Y005939D02*
X029231Y006132D01*
X029037Y006132D01*
X028989Y006084D01*
X028989Y005987D01*
X029037Y005939D01*
X029231Y005939D01*
X029279Y005987D01*
X029279Y006084D01*
X029231Y006132D01*
X031527Y005748D02*
X031527Y005555D01*
X031527Y005652D02*
X031818Y005652D01*
X031721Y005555D01*
X031721Y005454D02*
X031769Y005454D01*
X031818Y005405D01*
X031818Y005309D01*
X031769Y005260D01*
X031769Y005159D02*
X031672Y005159D01*
X031624Y005111D01*
X031624Y004966D01*
X031624Y005062D02*
X031527Y005159D01*
X031527Y005260D02*
X031721Y005454D01*
X031527Y005454D02*
X031527Y005260D01*
X031769Y005159D02*
X031818Y005111D01*
X031818Y004966D01*
X031527Y004966D01*
X034881Y006422D02*
X034881Y006518D01*
X034929Y006567D01*
X034881Y006668D02*
X034881Y006861D01*
X034881Y006765D02*
X035171Y006765D01*
X035074Y006668D01*
X035123Y006567D02*
X035171Y006518D01*
X035171Y006422D01*
X035123Y006373D01*
X034929Y006373D01*
X034881Y006422D01*
X035026Y006962D02*
X035026Y007156D01*
X034881Y007108D02*
X035171Y007108D01*
X035026Y006962D01*
X036351Y006922D02*
X036641Y006922D01*
X036545Y006825D01*
X036593Y006724D02*
X036496Y006724D01*
X036448Y006676D01*
X036448Y006531D01*
X036448Y006627D02*
X036351Y006724D01*
X036351Y006825D02*
X036351Y007019D01*
X036400Y007120D02*
X036351Y007168D01*
X036351Y007265D01*
X036400Y007313D01*
X036448Y007313D01*
X036496Y007265D01*
X036496Y007217D01*
X036496Y007265D02*
X036545Y007313D01*
X036593Y007313D01*
X036641Y007265D01*
X036641Y007168D01*
X036593Y007120D01*
X036593Y006724D02*
X036641Y006676D01*
X036641Y006531D01*
X036351Y006531D01*
X036593Y005345D02*
X036400Y005151D01*
X036351Y005151D01*
X036351Y005050D02*
X036351Y004857D01*
X036351Y004954D02*
X036641Y004954D01*
X036545Y004857D01*
X036593Y004756D02*
X036496Y004756D01*
X036448Y004707D01*
X036448Y004562D01*
X036351Y004562D02*
X036641Y004562D01*
X036641Y004707D01*
X036593Y004756D01*
X036448Y004659D02*
X036351Y004756D01*
X036641Y005151D02*
X036641Y005345D01*
X036593Y005345D01*
X035210Y005345D02*
X035210Y005151D01*
X035065Y005151D01*
X035114Y005248D01*
X035114Y005297D01*
X035065Y005345D01*
X034968Y005345D01*
X034920Y005297D01*
X034920Y005200D01*
X034968Y005151D01*
X034920Y005050D02*
X034920Y004857D01*
X034920Y004954D02*
X035210Y004954D01*
X035114Y004857D01*
X035162Y004756D02*
X035210Y004707D01*
X035210Y004611D01*
X035162Y004562D01*
X034968Y004562D01*
X034920Y004611D01*
X034920Y004707D01*
X034968Y004756D01*
X034968Y003495D02*
X035017Y003495D01*
X035065Y003446D01*
X035065Y003301D01*
X034968Y003301D01*
X034920Y003349D01*
X034920Y003446D01*
X034968Y003495D01*
X035162Y003398D02*
X035065Y003301D01*
X035162Y003398D02*
X035210Y003495D01*
X034920Y003200D02*
X034920Y003006D01*
X034920Y003103D02*
X035210Y003103D01*
X035114Y003006D01*
X035162Y002905D02*
X035210Y002857D01*
X035210Y002760D01*
X035162Y002712D01*
X034968Y002712D01*
X034920Y002760D01*
X034920Y002857D01*
X034968Y002905D01*
X036351Y002888D02*
X036351Y003082D01*
X036351Y002985D02*
X036641Y002985D01*
X036545Y002888D01*
X036593Y002787D02*
X036496Y002787D01*
X036448Y002739D01*
X036448Y002594D01*
X036448Y002690D02*
X036351Y002787D01*
X036351Y002594D02*
X036641Y002594D01*
X036641Y002739D01*
X036593Y002787D01*
X036593Y003183D02*
X036545Y003183D01*
X036496Y003231D01*
X036496Y003328D01*
X036448Y003376D01*
X036400Y003376D01*
X036351Y003328D01*
X036351Y003231D01*
X036400Y003183D01*
X036448Y003183D01*
X036496Y003231D01*
X036496Y003328D02*
X036545Y003376D01*
X036593Y003376D01*
X036641Y003328D01*
X036641Y003231D01*
X036593Y003183D01*
D12*
X032348Y003736D02*
X032348Y002236D01*
X032098Y001986D01*
X031598Y001986D01*
X031348Y002236D01*
X031098Y001986D01*
X030598Y001986D01*
X030348Y002236D01*
X030098Y001986D01*
X029598Y001986D01*
X029348Y002236D01*
X029348Y003736D01*
X029598Y003986D01*
X030098Y003986D01*
X030348Y003736D01*
X030598Y003986D01*
X031098Y003986D01*
X031348Y003736D01*
X031598Y003986D01*
X032098Y003986D01*
X032348Y003736D01*
X031348Y003736D02*
X031348Y002236D01*
X030348Y002236D02*
X030348Y003736D01*
X029348Y003736D02*
X029098Y003986D01*
X028598Y003986D01*
X028348Y003736D01*
X028348Y002236D01*
X028598Y001986D01*
X029098Y001986D01*
X029348Y002236D01*
X028348Y002236D02*
X028098Y001986D01*
X027598Y001986D01*
X027348Y002236D01*
X027348Y003736D01*
X027098Y003986D01*
X026598Y003986D01*
X026348Y003736D01*
X026348Y002236D01*
X026598Y001986D01*
X027098Y001986D01*
X027348Y002236D01*
X026348Y002236D02*
X026098Y001986D01*
X025598Y001986D01*
X025348Y002236D01*
X025348Y003736D01*
X025098Y003986D01*
X024598Y003986D01*
X024348Y003736D01*
X024348Y002236D01*
X024598Y001986D01*
X025098Y001986D01*
X025348Y002236D01*
X024348Y002236D02*
X024098Y001986D01*
X023598Y001986D01*
X023348Y002236D01*
X023348Y003736D01*
X023098Y003986D01*
X022598Y003986D01*
X022348Y003736D01*
X022348Y002236D01*
X022098Y001986D01*
X021598Y001986D01*
X021348Y002236D01*
X021348Y003736D01*
X021098Y003986D01*
X020598Y003986D01*
X020348Y003736D01*
X020348Y002236D01*
X020598Y001986D01*
X021098Y001986D01*
X021348Y002236D01*
X022348Y002236D02*
X022598Y001986D01*
X023098Y001986D01*
X023348Y002236D01*
X023348Y003736D02*
X023598Y003986D01*
X024098Y003986D01*
X024348Y003736D01*
X025348Y003736D02*
X025598Y003986D01*
X026098Y003986D01*
X026348Y003736D01*
X027348Y003736D02*
X027598Y003986D01*
X028098Y003986D01*
X028348Y003736D01*
X022348Y003736D02*
X022098Y003986D01*
X021598Y003986D01*
X021348Y003736D01*
X020348Y003736D02*
X020098Y003986D01*
X019598Y003986D01*
X019348Y003736D01*
X019348Y002236D01*
X019598Y001986D01*
X020098Y001986D01*
X020348Y002236D01*
X019939Y008403D02*
X021419Y008403D01*
X023197Y008675D02*
X023597Y008685D01*
X024427Y008325D02*
X025907Y008325D01*
X027646Y008635D02*
X028046Y008645D01*
X028876Y008285D02*
X030356Y008285D01*
X030356Y010285D02*
X029736Y010285D01*
X029496Y010285D01*
X028876Y010285D01*
X029496Y010285D02*
X029498Y010264D01*
X029503Y010244D01*
X029512Y010225D01*
X029524Y010208D01*
X029539Y010193D01*
X029556Y010181D01*
X029575Y010172D01*
X029595Y010167D01*
X029616Y010165D01*
X029637Y010167D01*
X029657Y010172D01*
X029676Y010181D01*
X029693Y010193D01*
X029708Y010208D01*
X029720Y010225D01*
X029729Y010244D01*
X029734Y010264D01*
X029736Y010285D01*
X025907Y010325D02*
X025287Y010325D01*
X025047Y010325D01*
X024427Y010325D01*
X025047Y010325D02*
X025049Y010304D01*
X025054Y010284D01*
X025063Y010265D01*
X025075Y010248D01*
X025090Y010233D01*
X025107Y010221D01*
X025126Y010212D01*
X025146Y010207D01*
X025167Y010205D01*
X025188Y010207D01*
X025208Y010212D01*
X025227Y010221D01*
X025244Y010233D01*
X025259Y010248D01*
X025271Y010265D01*
X025280Y010284D01*
X025285Y010304D01*
X025287Y010325D01*
X021419Y010403D02*
X020799Y010403D01*
X020559Y010403D01*
X019939Y010403D01*
X020559Y010403D02*
X020561Y010382D01*
X020566Y010362D01*
X020575Y010343D01*
X020587Y010326D01*
X020602Y010311D01*
X020619Y010299D01*
X020638Y010290D01*
X020658Y010285D01*
X020679Y010283D01*
X020700Y010285D01*
X020720Y010290D01*
X020739Y010299D01*
X020756Y010311D01*
X020771Y010326D01*
X020783Y010343D01*
X020792Y010362D01*
X020797Y010382D01*
X020799Y010403D01*
X019109Y008763D02*
X018709Y008753D01*
X016694Y008403D02*
X015214Y008403D01*
X014384Y008763D02*
X013984Y008753D01*
X011773Y008364D02*
X010293Y008364D01*
X009463Y008724D02*
X009063Y008714D01*
X008931Y008538D02*
X008931Y008468D01*
X008931Y008538D02*
X008161Y008538D01*
X007921Y008538D01*
X007151Y008538D01*
X007151Y008468D01*
X007921Y008538D02*
X007923Y008517D01*
X007928Y008497D01*
X007937Y008478D01*
X007949Y008461D01*
X007964Y008446D01*
X007981Y008434D01*
X008000Y008425D01*
X008020Y008420D01*
X008041Y008418D01*
X008062Y008420D01*
X008082Y008425D01*
X008101Y008434D01*
X008118Y008446D01*
X008133Y008461D01*
X008145Y008478D01*
X008154Y008497D01*
X008159Y008517D01*
X008161Y008538D01*
X008641Y010296D02*
X008641Y010386D01*
X008641Y010626D01*
X008641Y010716D01*
X008641Y010626D02*
X008620Y010624D01*
X008600Y010619D01*
X008581Y010610D01*
X008564Y010598D01*
X008549Y010583D01*
X008537Y010566D01*
X008528Y010547D01*
X008523Y010527D01*
X008521Y010506D01*
X008523Y010485D01*
X008528Y010465D01*
X008537Y010446D01*
X008549Y010429D01*
X008564Y010414D01*
X008581Y010402D01*
X008600Y010393D01*
X008620Y010388D01*
X008641Y010386D01*
X008171Y010846D02*
X007911Y010846D01*
X007441Y010716D02*
X007441Y010296D01*
X010293Y010364D02*
X010913Y010364D01*
X011153Y010364D01*
X011773Y010364D01*
X011153Y010364D02*
X011151Y010343D01*
X011146Y010323D01*
X011137Y010304D01*
X011125Y010287D01*
X011110Y010272D01*
X011093Y010260D01*
X011074Y010251D01*
X011054Y010246D01*
X011033Y010244D01*
X011012Y010246D01*
X010992Y010251D01*
X010973Y010260D01*
X010956Y010272D01*
X010941Y010287D01*
X010929Y010304D01*
X010920Y010323D01*
X010915Y010343D01*
X010913Y010364D01*
X015214Y010403D02*
X015834Y010403D01*
X016074Y010403D01*
X016694Y010403D01*
X016074Y010403D02*
X016072Y010382D01*
X016067Y010362D01*
X016058Y010343D01*
X016046Y010326D01*
X016031Y010311D01*
X016014Y010299D01*
X015995Y010290D01*
X015975Y010285D01*
X015954Y010283D01*
X015933Y010285D01*
X015913Y010290D01*
X015894Y010299D01*
X015877Y010311D01*
X015862Y010326D01*
X015850Y010343D01*
X015841Y010362D01*
X015836Y010382D01*
X015834Y010403D01*
X010011Y005968D02*
X009611Y005968D01*
X008931Y004748D02*
X008931Y004678D01*
X007151Y004678D01*
X007151Y004748D01*
X006471Y006228D02*
X006071Y006228D01*
X007441Y014627D02*
X007441Y015047D01*
X007911Y015177D02*
X008171Y015177D01*
X008641Y015047D02*
X008641Y014957D01*
X008641Y014717D01*
X008641Y014627D01*
X008641Y014717D02*
X008620Y014719D01*
X008600Y014724D01*
X008581Y014733D01*
X008564Y014745D01*
X008549Y014760D01*
X008537Y014777D01*
X008528Y014796D01*
X008523Y014816D01*
X008521Y014837D01*
X008523Y014858D01*
X008528Y014878D01*
X008537Y014897D01*
X008549Y014914D01*
X008564Y014929D01*
X008581Y014941D01*
X008600Y014950D01*
X008620Y014955D01*
X008641Y014957D01*
X008641Y018957D02*
X008641Y019047D01*
X008641Y019287D01*
X008641Y019377D01*
X008641Y019287D02*
X008620Y019285D01*
X008600Y019280D01*
X008581Y019271D01*
X008564Y019259D01*
X008549Y019244D01*
X008537Y019227D01*
X008528Y019208D01*
X008523Y019188D01*
X008521Y019167D01*
X008523Y019146D01*
X008528Y019126D01*
X008537Y019107D01*
X008549Y019090D01*
X008564Y019075D01*
X008581Y019063D01*
X008600Y019054D01*
X008620Y019049D01*
X008641Y019047D01*
X008171Y019507D02*
X007911Y019507D01*
X007441Y019377D02*
X007441Y018957D01*
X016933Y019082D02*
X016933Y017284D01*
X018913Y017284D01*
X018913Y019082D01*
X016933Y019082D01*
X017103Y018663D02*
X017105Y018689D01*
X017111Y018715D01*
X017120Y018739D01*
X017133Y018762D01*
X017149Y018783D01*
X017168Y018801D01*
X017189Y018817D01*
X017213Y018829D01*
X017237Y018837D01*
X017263Y018842D01*
X017290Y018843D01*
X017316Y018840D01*
X017341Y018833D01*
X017365Y018823D01*
X017388Y018809D01*
X017408Y018793D01*
X017425Y018773D01*
X017440Y018751D01*
X017451Y018727D01*
X017459Y018702D01*
X017463Y018676D01*
X017463Y018650D01*
X017459Y018624D01*
X017451Y018599D01*
X017440Y018575D01*
X017425Y018553D01*
X017408Y018533D01*
X017388Y018517D01*
X017365Y018503D01*
X017341Y018493D01*
X017316Y018486D01*
X017290Y018483D01*
X017263Y018484D01*
X017237Y018489D01*
X017213Y018497D01*
X017189Y018509D01*
X017168Y018525D01*
X017149Y018543D01*
X017133Y018564D01*
X017120Y018587D01*
X017111Y018611D01*
X017105Y018637D01*
X017103Y018663D01*
X026116Y018607D02*
X026116Y019047D01*
X026116Y019287D01*
X026116Y019727D01*
X026116Y019287D02*
X026137Y019285D01*
X026157Y019280D01*
X026176Y019271D01*
X026193Y019259D01*
X026208Y019244D01*
X026220Y019227D01*
X026229Y019208D01*
X026234Y019188D01*
X026236Y019167D01*
X026234Y019146D01*
X026229Y019126D01*
X026220Y019107D01*
X026208Y019090D01*
X026193Y019075D01*
X026176Y019063D01*
X026157Y019054D01*
X026137Y019049D01*
X026116Y019047D01*
X026137Y019049D01*
X026157Y019054D01*
X026176Y019063D01*
X026193Y019075D01*
X026208Y019090D01*
X026220Y019107D01*
X026229Y019126D01*
X026234Y019146D01*
X026236Y019167D01*
X026234Y019188D01*
X026229Y019208D01*
X026220Y019227D01*
X026208Y019244D01*
X026193Y019259D01*
X026176Y019271D01*
X026157Y019280D01*
X026137Y019285D01*
X026116Y019287D01*
X028076Y019727D02*
X028076Y018607D01*
D13*
X018823Y018992D02*
X018823Y017374D01*
X017023Y017374D01*
X017023Y018992D01*
X018823Y018992D01*
D14*
X034897Y022256D02*
X034969Y022185D01*
X034897Y022256D02*
X034897Y022400D01*
X034969Y022471D01*
X035041Y022471D01*
X035113Y022400D01*
X035113Y022328D01*
X035113Y022400D02*
X035184Y022471D01*
X035256Y022471D01*
X035328Y022400D01*
X035328Y022256D01*
X035256Y022185D01*
X036877Y022235D02*
X036877Y022521D01*
X036877Y022378D02*
X037308Y022378D01*
X037164Y022235D01*
D15*
X037283Y021860D02*
X036783Y021860D01*
X036783Y021610D01*
X036283Y021610D01*
X036283Y021860D01*
X035783Y021860D01*
X035783Y021610D01*
X035283Y021610D01*
X035283Y021860D01*
X034783Y021860D01*
X034783Y021610D01*
X034533Y021610D01*
X034533Y022860D01*
X034883Y022860D01*
X034883Y025310D01*
X035013Y025450D01*
X035033Y026010D02*
X035133Y026210D01*
X035553Y026210D01*
X035513Y026210D02*
X036933Y026210D01*
X037033Y026010D01*
X037033Y022860D01*
X037533Y022860D01*
X037533Y021610D01*
X037283Y021610D01*
X037283Y021860D01*
X037183Y022860D02*
X037183Y025310D01*
X037053Y025450D01*
X035033Y026010D02*
X035033Y022860D01*
D16*
X034883Y022860D02*
X037033Y022860D01*
X032522Y004389D02*
X032297Y004389D01*
X032222Y004314D01*
X032222Y004163D01*
X032297Y004088D01*
X032522Y004088D01*
X032522Y003938D02*
X032522Y004389D01*
X032062Y004314D02*
X032062Y004239D01*
X031987Y004163D01*
X031837Y004163D01*
X031762Y004088D01*
X031762Y004013D01*
X031837Y003938D01*
X031987Y003938D01*
X032062Y004013D01*
X032062Y004088D01*
X031987Y004163D01*
X031837Y004163D02*
X031762Y004239D01*
X031762Y004314D01*
X031837Y004389D01*
X031987Y004389D01*
X032062Y004314D01*
X031602Y004163D02*
X031301Y004163D01*
X031141Y004088D02*
X030916Y004088D01*
X030841Y004163D01*
X030841Y004314D01*
X030916Y004389D01*
X031141Y004389D01*
X031141Y003938D01*
X030681Y003938D02*
X030531Y003938D01*
X030606Y003938D02*
X030606Y004389D01*
X030681Y004389D02*
X030531Y004389D01*
X030374Y004389D02*
X030074Y003938D01*
X030074Y004389D01*
X030374Y004389D02*
X030374Y003938D01*
D17*
X032731Y003256D02*
X033038Y003256D01*
X032885Y003256D02*
X032885Y003716D01*
X033038Y003563D01*
X032962Y002716D02*
X032808Y002716D01*
X032731Y002640D01*
X032731Y002563D01*
X033038Y002256D01*
X032731Y002256D01*
X033038Y002640D02*
X032962Y002716D01*
M02*
