G75*
G70*
%OFA0B0*%
%FSLAX24Y24*%
%IPPOS*%
%LPD*%
%AMOC8*
5,1,8,0,0,1.08239X$1,22.5*
%
%ADD10C,0.0000*%
%ADD11C,0.0060*%
%ADD12C,0.0030*%
%ADD13C,0.0020*%
%ADD14C,0.0040*%
D10*
X001342Y006134D02*
X009334Y006134D01*
X009334Y005623D01*
X009335Y005623D02*
X009329Y005534D01*
X009327Y005445D01*
X009329Y005355D01*
X009336Y005266D01*
X009346Y005177D01*
X009361Y005089D01*
X009380Y005002D01*
X009403Y004916D01*
X009431Y004830D01*
X009462Y004747D01*
X009497Y004665D01*
X009536Y004584D01*
X009579Y004506D01*
X009626Y004430D01*
X009676Y004356D01*
X009730Y004284D01*
X009787Y004215D01*
X009847Y004149D01*
X009910Y004086D01*
X009976Y004026D01*
X010045Y003969D01*
X010117Y003915D01*
X010191Y003865D01*
X010267Y003819D01*
X010346Y003776D01*
X010426Y003737D01*
X010508Y003702D01*
X010592Y003671D01*
X010677Y003644D01*
X010764Y003621D01*
X010851Y003602D01*
X010939Y003587D01*
X011028Y003576D01*
X011027Y003575D02*
X017051Y003575D01*
X017149Y003580D01*
X017246Y003588D01*
X017342Y003602D01*
X017438Y003620D01*
X017533Y003642D01*
X017627Y003669D01*
X017719Y003701D01*
X017810Y003737D01*
X017898Y003777D01*
X017985Y003821D01*
X018070Y003869D01*
X018152Y003922D01*
X018232Y003978D01*
X018309Y004038D01*
X018383Y004101D01*
X018454Y004168D01*
X018521Y004238D01*
X018585Y004312D01*
X018646Y004388D01*
X018703Y004467D01*
X018756Y004549D01*
X018805Y004633D01*
X018850Y004720D01*
X018891Y004808D01*
X018928Y004899D01*
X018960Y004991D01*
X018988Y005084D01*
X019011Y005179D01*
X019030Y005274D01*
X019044Y005371D01*
X019054Y005468D01*
X019059Y005565D01*
X019060Y005662D01*
X019059Y005662D02*
X019059Y006134D01*
X019728Y006134D01*
X019728Y005623D01*
X019727Y005540D01*
X019730Y005456D01*
X019737Y005373D01*
X019748Y005290D01*
X019763Y005208D01*
X019782Y005127D01*
X019805Y005047D01*
X019832Y004968D01*
X019862Y004890D01*
X019896Y004814D01*
X019933Y004739D01*
X019974Y004666D01*
X020019Y004596D01*
X020066Y004527D01*
X020117Y004461D01*
X020171Y004398D01*
X020228Y004337D01*
X020288Y004279D01*
X020351Y004223D01*
X020416Y004171D01*
X020483Y004122D01*
X020553Y004076D01*
X020625Y004034D01*
X020698Y003995D01*
X020774Y003959D01*
X020851Y003928D01*
X020930Y003900D01*
X021010Y003875D01*
X021090Y003855D01*
X021172Y003838D01*
X021255Y003826D01*
X021338Y003817D01*
X021421Y003812D01*
X030358Y003812D01*
X032366Y005662D02*
X032366Y006134D01*
X037287Y006134D01*
X037287Y012434D01*
X032051Y012434D01*
X032051Y019520D01*
X039925Y019520D01*
X039925Y025032D01*
X037563Y026134D02*
X037565Y026184D01*
X037571Y026234D01*
X037581Y026283D01*
X037595Y026331D01*
X037612Y026378D01*
X037633Y026423D01*
X037658Y026467D01*
X037686Y026508D01*
X037718Y026547D01*
X037752Y026584D01*
X037789Y026618D01*
X037829Y026648D01*
X037871Y026675D01*
X037915Y026699D01*
X037961Y026720D01*
X038008Y026736D01*
X038056Y026749D01*
X038106Y026758D01*
X038155Y026763D01*
X038206Y026764D01*
X038256Y026761D01*
X038305Y026754D01*
X038354Y026743D01*
X038402Y026728D01*
X038448Y026710D01*
X038493Y026688D01*
X038536Y026662D01*
X038577Y026633D01*
X038616Y026601D01*
X038652Y026566D01*
X038684Y026528D01*
X038714Y026488D01*
X038741Y026445D01*
X038764Y026401D01*
X038783Y026355D01*
X038799Y026307D01*
X038811Y026258D01*
X038819Y026209D01*
X038823Y026159D01*
X038823Y026109D01*
X038819Y026059D01*
X038811Y026010D01*
X038799Y025961D01*
X038783Y025913D01*
X038764Y025867D01*
X038741Y025823D01*
X038714Y025780D01*
X038684Y025740D01*
X038652Y025702D01*
X038616Y025667D01*
X038577Y025635D01*
X038536Y025606D01*
X038493Y025580D01*
X038448Y025558D01*
X038402Y025540D01*
X038354Y025525D01*
X038305Y025514D01*
X038256Y025507D01*
X038206Y025504D01*
X038155Y025505D01*
X038106Y025510D01*
X038056Y025519D01*
X038008Y025532D01*
X037961Y025548D01*
X037915Y025569D01*
X037871Y025593D01*
X037829Y025620D01*
X037789Y025650D01*
X037752Y025684D01*
X037718Y025721D01*
X037686Y025760D01*
X037658Y025801D01*
X037633Y025845D01*
X037612Y025890D01*
X037595Y025937D01*
X037581Y025985D01*
X037571Y026034D01*
X037565Y026084D01*
X037563Y026134D01*
X037957Y027394D02*
X038060Y027382D01*
X038162Y027366D01*
X038263Y027344D01*
X038363Y027318D01*
X038462Y027287D01*
X038559Y027251D01*
X038654Y027211D01*
X038747Y027166D01*
X038838Y027117D01*
X038927Y027063D01*
X039013Y027006D01*
X039096Y026944D01*
X039176Y026878D01*
X039253Y026809D01*
X039327Y026736D01*
X039397Y026660D01*
X039463Y026581D01*
X039525Y026498D01*
X039584Y026413D01*
X039638Y026325D01*
X039688Y026234D01*
X039733Y026141D01*
X039775Y026046D01*
X039811Y025949D01*
X039843Y025851D01*
X039870Y025751D01*
X039893Y025650D01*
X039910Y025548D01*
X039923Y025445D01*
X039931Y025342D01*
X039934Y025239D01*
X039932Y025135D01*
X039925Y025032D01*
X037957Y027394D02*
X032248Y027394D01*
X032248Y028142D01*
X032249Y028225D01*
X032246Y028309D01*
X032239Y028392D01*
X032228Y028475D01*
X032213Y028557D01*
X032194Y028638D01*
X032171Y028718D01*
X032144Y028797D01*
X032114Y028875D01*
X032080Y028951D01*
X032043Y029026D01*
X032002Y029099D01*
X031957Y029169D01*
X031910Y029238D01*
X031859Y029304D01*
X031805Y029367D01*
X031748Y029428D01*
X031688Y029486D01*
X031625Y029542D01*
X031560Y029594D01*
X031493Y029643D01*
X031423Y029689D01*
X031351Y029731D01*
X031278Y029770D01*
X031202Y029806D01*
X031125Y029837D01*
X031046Y029865D01*
X030966Y029890D01*
X030886Y029910D01*
X030804Y029927D01*
X030721Y029939D01*
X030638Y029948D01*
X030555Y029953D01*
X021618Y029953D01*
X021526Y029955D01*
X021434Y029952D01*
X021342Y029945D01*
X021251Y029933D01*
X021161Y029918D01*
X021071Y029897D01*
X020982Y029873D01*
X020895Y029844D01*
X020809Y029812D01*
X020725Y029775D01*
X020643Y029734D01*
X020562Y029690D01*
X020484Y029641D01*
X020408Y029589D01*
X020335Y029534D01*
X020265Y029475D01*
X020197Y029412D01*
X020132Y029347D01*
X020071Y029279D01*
X020013Y029207D01*
X019958Y029133D01*
X019907Y029057D01*
X019860Y028978D01*
X019817Y028897D01*
X019777Y028814D01*
X019741Y028729D01*
X019710Y028643D01*
X019683Y028555D01*
X019659Y028466D01*
X019640Y028377D01*
X019626Y028286D01*
X019616Y028194D01*
X019610Y028103D01*
X019610Y027394D01*
X019059Y027394D01*
X019059Y027906D01*
X019065Y027995D01*
X019067Y028084D01*
X019065Y028174D01*
X019058Y028263D01*
X019048Y028352D01*
X019033Y028440D01*
X019014Y028527D01*
X018991Y028613D01*
X018963Y028699D01*
X018932Y028782D01*
X018897Y028864D01*
X018858Y028945D01*
X018815Y029023D01*
X018768Y029099D01*
X018718Y029173D01*
X018664Y029245D01*
X018607Y029314D01*
X018547Y029380D01*
X018484Y029443D01*
X018418Y029503D01*
X018349Y029560D01*
X018277Y029614D01*
X018203Y029664D01*
X018127Y029710D01*
X018048Y029753D01*
X017968Y029792D01*
X017886Y029827D01*
X017802Y029858D01*
X017717Y029885D01*
X017630Y029908D01*
X017543Y029927D01*
X017455Y029942D01*
X017366Y029953D01*
X011342Y029953D01*
X011343Y029954D02*
X011245Y029949D01*
X011148Y029941D01*
X011052Y029927D01*
X010956Y029909D01*
X010861Y029887D01*
X010767Y029860D01*
X010675Y029828D01*
X010584Y029792D01*
X010496Y029752D01*
X010409Y029708D01*
X010324Y029660D01*
X010242Y029607D01*
X010162Y029551D01*
X010085Y029491D01*
X010011Y029428D01*
X009940Y029361D01*
X009873Y029291D01*
X009809Y029217D01*
X009748Y029141D01*
X009691Y029062D01*
X009638Y028980D01*
X009589Y028896D01*
X009544Y028809D01*
X009503Y028721D01*
X009466Y028630D01*
X009434Y028538D01*
X009406Y028445D01*
X009383Y028350D01*
X009364Y028255D01*
X009350Y028158D01*
X009340Y028061D01*
X009335Y027964D01*
X009334Y027867D01*
X009334Y027394D01*
X001342Y027394D01*
X001342Y006134D01*
X030358Y003812D02*
X030450Y003810D01*
X030542Y003813D01*
X030634Y003820D01*
X030725Y003832D01*
X030815Y003847D01*
X030905Y003868D01*
X030994Y003892D01*
X031081Y003921D01*
X031167Y003953D01*
X031251Y003990D01*
X031333Y004031D01*
X031414Y004075D01*
X031492Y004124D01*
X031568Y004176D01*
X031641Y004231D01*
X031711Y004290D01*
X031779Y004353D01*
X031844Y004418D01*
X031905Y004486D01*
X031963Y004558D01*
X032018Y004632D01*
X032069Y004708D01*
X032116Y004787D01*
X032159Y004868D01*
X032199Y004951D01*
X032235Y005036D01*
X032266Y005122D01*
X032293Y005210D01*
X032317Y005299D01*
X032336Y005388D01*
X032350Y005479D01*
X032360Y005571D01*
X032366Y005662D01*
X033311Y026134D02*
X033313Y026184D01*
X033319Y026234D01*
X033329Y026283D01*
X033343Y026331D01*
X033360Y026378D01*
X033381Y026423D01*
X033406Y026467D01*
X033434Y026508D01*
X033466Y026547D01*
X033500Y026584D01*
X033537Y026618D01*
X033577Y026648D01*
X033619Y026675D01*
X033663Y026699D01*
X033709Y026720D01*
X033756Y026736D01*
X033804Y026749D01*
X033854Y026758D01*
X033903Y026763D01*
X033954Y026764D01*
X034004Y026761D01*
X034053Y026754D01*
X034102Y026743D01*
X034150Y026728D01*
X034196Y026710D01*
X034241Y026688D01*
X034284Y026662D01*
X034325Y026633D01*
X034364Y026601D01*
X034400Y026566D01*
X034432Y026528D01*
X034462Y026488D01*
X034489Y026445D01*
X034512Y026401D01*
X034531Y026355D01*
X034547Y026307D01*
X034559Y026258D01*
X034567Y026209D01*
X034571Y026159D01*
X034571Y026109D01*
X034567Y026059D01*
X034559Y026010D01*
X034547Y025961D01*
X034531Y025913D01*
X034512Y025867D01*
X034489Y025823D01*
X034462Y025780D01*
X034432Y025740D01*
X034400Y025702D01*
X034364Y025667D01*
X034325Y025635D01*
X034284Y025606D01*
X034241Y025580D01*
X034196Y025558D01*
X034150Y025540D01*
X034102Y025525D01*
X034053Y025514D01*
X034004Y025507D01*
X033954Y025504D01*
X033903Y025505D01*
X033854Y025510D01*
X033804Y025519D01*
X033756Y025532D01*
X033709Y025548D01*
X033663Y025569D01*
X033619Y025593D01*
X033577Y025620D01*
X033537Y025650D01*
X033500Y025684D01*
X033466Y025721D01*
X033434Y025760D01*
X033406Y025801D01*
X033381Y025845D01*
X033360Y025890D01*
X033343Y025937D01*
X033329Y025985D01*
X033319Y026034D01*
X033313Y026084D01*
X033311Y026134D01*
D11*
X028070Y024017D02*
X028070Y022897D01*
X026110Y022897D02*
X026110Y023337D01*
X026110Y023577D01*
X026110Y024017D01*
X026110Y023577D02*
X026131Y023575D01*
X026151Y023570D01*
X026170Y023561D01*
X026187Y023549D01*
X026202Y023534D01*
X026214Y023517D01*
X026223Y023498D01*
X026228Y023478D01*
X026230Y023457D01*
X026228Y023436D01*
X026223Y023416D01*
X026214Y023397D01*
X026202Y023380D01*
X026187Y023365D01*
X026170Y023353D01*
X026151Y023344D01*
X026131Y023339D01*
X026110Y023337D01*
X026131Y023339D01*
X026151Y023344D01*
X026170Y023353D01*
X026187Y023365D01*
X026202Y023380D01*
X026214Y023397D01*
X026223Y023416D01*
X026228Y023436D01*
X026230Y023457D01*
X026228Y023478D01*
X026223Y023498D01*
X026214Y023517D01*
X026202Y023534D01*
X026187Y023549D01*
X026170Y023561D01*
X026151Y023570D01*
X026131Y023575D01*
X026110Y023577D01*
X018907Y023372D02*
X018907Y021574D01*
X016927Y021574D01*
X016927Y023372D01*
X018907Y023372D01*
X017097Y022953D02*
X017099Y022979D01*
X017105Y023005D01*
X017114Y023029D01*
X017127Y023052D01*
X017143Y023073D01*
X017162Y023091D01*
X017183Y023107D01*
X017207Y023119D01*
X017231Y023127D01*
X017257Y023132D01*
X017284Y023133D01*
X017310Y023130D01*
X017335Y023123D01*
X017359Y023113D01*
X017382Y023099D01*
X017402Y023083D01*
X017419Y023063D01*
X017434Y023041D01*
X017445Y023017D01*
X017453Y022992D01*
X017457Y022966D01*
X017457Y022940D01*
X017453Y022914D01*
X017445Y022889D01*
X017434Y022865D01*
X017419Y022843D01*
X017402Y022823D01*
X017382Y022807D01*
X017359Y022793D01*
X017335Y022783D01*
X017310Y022776D01*
X017284Y022773D01*
X017257Y022774D01*
X017231Y022779D01*
X017207Y022787D01*
X017183Y022799D01*
X017162Y022815D01*
X017143Y022833D01*
X017127Y022854D01*
X017114Y022877D01*
X017105Y022901D01*
X017099Y022927D01*
X017097Y022953D01*
X016689Y014694D02*
X016069Y014694D01*
X015829Y014694D01*
X015209Y014694D01*
X015829Y014694D02*
X015831Y014673D01*
X015836Y014653D01*
X015845Y014634D01*
X015857Y014617D01*
X015872Y014602D01*
X015889Y014590D01*
X015908Y014581D01*
X015928Y014576D01*
X015949Y014574D01*
X015970Y014576D01*
X015990Y014581D01*
X016009Y014590D01*
X016026Y014602D01*
X016041Y014617D01*
X016053Y014634D01*
X016062Y014653D01*
X016067Y014673D01*
X016069Y014694D01*
X014379Y013054D02*
X013979Y013044D01*
X015209Y012694D02*
X016689Y012694D01*
X018703Y013044D02*
X019103Y013054D01*
X019933Y012694D02*
X021413Y012694D01*
X023191Y012965D02*
X023591Y012975D01*
X024421Y012615D02*
X025901Y012615D01*
X027640Y012925D02*
X028040Y012935D01*
X028870Y012575D02*
X030350Y012575D01*
X030350Y014575D02*
X029730Y014575D01*
X029490Y014575D01*
X028870Y014575D01*
X029490Y014575D02*
X029492Y014554D01*
X029497Y014534D01*
X029506Y014515D01*
X029518Y014498D01*
X029533Y014483D01*
X029550Y014471D01*
X029569Y014462D01*
X029589Y014457D01*
X029610Y014455D01*
X029631Y014457D01*
X029651Y014462D01*
X029670Y014471D01*
X029687Y014483D01*
X029702Y014498D01*
X029714Y014515D01*
X029723Y014534D01*
X029728Y014554D01*
X029730Y014575D01*
X025901Y014615D02*
X025281Y014615D01*
X025041Y014615D01*
X024421Y014615D01*
X025041Y014615D02*
X025043Y014594D01*
X025048Y014574D01*
X025057Y014555D01*
X025069Y014538D01*
X025084Y014523D01*
X025101Y014511D01*
X025120Y014502D01*
X025140Y014497D01*
X025161Y014495D01*
X025182Y014497D01*
X025202Y014502D01*
X025221Y014511D01*
X025238Y014523D01*
X025253Y014538D01*
X025265Y014555D01*
X025274Y014574D01*
X025279Y014594D01*
X025281Y014615D01*
X021413Y014694D02*
X020793Y014694D01*
X020553Y014694D01*
X019933Y014694D01*
X020553Y014694D02*
X020555Y014673D01*
X020560Y014653D01*
X020569Y014634D01*
X020581Y014617D01*
X020596Y014602D01*
X020613Y014590D01*
X020632Y014581D01*
X020652Y014576D01*
X020673Y014574D01*
X020694Y014576D01*
X020714Y014581D01*
X020733Y014590D01*
X020750Y014602D01*
X020765Y014617D01*
X020777Y014634D01*
X020786Y014653D01*
X020791Y014673D01*
X020793Y014694D01*
X011767Y014654D02*
X011147Y014654D01*
X010907Y014654D01*
X010287Y014654D01*
X010907Y014654D02*
X010909Y014633D01*
X010914Y014613D01*
X010923Y014594D01*
X010935Y014577D01*
X010950Y014562D01*
X010967Y014550D01*
X010986Y014541D01*
X011006Y014536D01*
X011027Y014534D01*
X011048Y014536D01*
X011068Y014541D01*
X011087Y014550D01*
X011104Y014562D01*
X011119Y014577D01*
X011131Y014594D01*
X011140Y014613D01*
X011145Y014633D01*
X011147Y014654D01*
X009457Y013014D02*
X009057Y013004D01*
X010287Y012654D02*
X011767Y012654D01*
D12*
X011734Y014722D02*
X011637Y014722D01*
X011588Y014771D01*
X011588Y015013D01*
X011487Y014916D02*
X011390Y015013D01*
X011390Y014722D01*
X011294Y014722D02*
X011487Y014722D01*
X011734Y014722D02*
X011782Y014771D01*
X011782Y015013D01*
X012179Y015041D02*
X012492Y014728D01*
X012336Y014728D02*
X012336Y015041D01*
X012492Y015041D02*
X012179Y014728D01*
X012179Y014884D02*
X012492Y014884D01*
X014682Y015510D02*
X014731Y015461D01*
X014828Y015461D01*
X014876Y015510D01*
X014682Y015703D01*
X014682Y015510D01*
X014682Y015703D02*
X014731Y015752D01*
X014828Y015752D01*
X014876Y015703D01*
X014876Y015510D01*
X014977Y015606D02*
X015171Y015606D01*
X015025Y015752D01*
X015025Y015461D01*
X015272Y015510D02*
X015320Y015461D01*
X015417Y015461D01*
X015465Y015510D01*
X015465Y015703D01*
X015417Y015752D01*
X015320Y015752D01*
X015272Y015703D01*
X016294Y015082D02*
X016342Y015131D01*
X016439Y015131D01*
X016487Y015082D01*
X016588Y015131D02*
X016588Y014889D01*
X016637Y014840D01*
X016734Y014840D01*
X016782Y014889D01*
X016782Y015131D01*
X017100Y015081D02*
X017414Y014767D01*
X017414Y014924D02*
X017100Y014924D01*
X017100Y014767D02*
X017414Y015081D01*
X017257Y015081D02*
X017257Y014767D01*
X016487Y014840D02*
X016294Y015034D01*
X016294Y015082D01*
X016294Y014840D02*
X016487Y014840D01*
X019446Y015549D02*
X019446Y015743D01*
X019495Y015791D01*
X019591Y015791D01*
X019640Y015743D01*
X019640Y015694D01*
X019591Y015646D01*
X019446Y015646D01*
X019446Y015549D02*
X019495Y015501D01*
X019591Y015501D01*
X019640Y015549D01*
X019741Y015549D02*
X019789Y015501D01*
X019886Y015501D01*
X019934Y015549D01*
X020036Y015549D02*
X020084Y015501D01*
X020181Y015501D01*
X020229Y015549D01*
X020229Y015743D01*
X020181Y015791D01*
X020084Y015791D01*
X020036Y015743D01*
X019934Y015743D02*
X019886Y015791D01*
X019789Y015791D01*
X019741Y015743D01*
X019741Y015694D01*
X019789Y015646D01*
X019741Y015597D01*
X019741Y015549D01*
X019789Y015646D02*
X019838Y015646D01*
X020861Y015082D02*
X020861Y015034D01*
X020909Y014986D01*
X020861Y014937D01*
X020861Y014889D01*
X020909Y014840D01*
X021006Y014840D01*
X021054Y014889D01*
X021155Y014889D02*
X021155Y015131D01*
X021054Y015082D02*
X021006Y015131D01*
X020909Y015131D01*
X020861Y015082D01*
X020909Y014986D02*
X020957Y014986D01*
X021155Y014889D02*
X021204Y014840D01*
X021300Y014840D01*
X021349Y014889D01*
X021349Y015131D01*
X021824Y015081D02*
X022138Y014767D01*
X021981Y014767D02*
X021981Y015081D01*
X022138Y015081D02*
X021824Y014767D01*
X021824Y014924D02*
X022138Y014924D01*
X024013Y015549D02*
X024013Y015597D01*
X024062Y015646D01*
X024207Y015646D01*
X024207Y015549D01*
X024158Y015501D01*
X024062Y015501D01*
X024013Y015549D01*
X024110Y015743D02*
X024013Y015791D01*
X024110Y015743D02*
X024207Y015646D01*
X024308Y015694D02*
X024356Y015646D01*
X024308Y015597D01*
X024308Y015549D01*
X024356Y015501D01*
X024453Y015501D01*
X024501Y015549D01*
X024602Y015549D02*
X024651Y015501D01*
X024748Y015501D01*
X024796Y015549D01*
X024796Y015743D01*
X024748Y015791D01*
X024651Y015791D01*
X024602Y015743D01*
X024501Y015743D02*
X024453Y015791D01*
X024356Y015791D01*
X024308Y015743D01*
X024308Y015694D01*
X024356Y015646D02*
X024405Y015646D01*
X025555Y015091D02*
X025555Y014801D01*
X025506Y014946D02*
X025700Y014946D01*
X025555Y015091D01*
X025801Y015091D02*
X025801Y014849D01*
X025849Y014801D01*
X025946Y014801D01*
X025994Y014849D01*
X025994Y015091D01*
X026313Y015002D02*
X026626Y014688D01*
X026469Y014688D02*
X026469Y015002D01*
X026626Y015002D02*
X026313Y014688D01*
X026313Y014845D02*
X026626Y014845D01*
X028501Y015624D02*
X028695Y015431D01*
X028695Y015383D01*
X028796Y015431D02*
X028844Y015383D01*
X028941Y015383D01*
X028989Y015431D01*
X029091Y015431D02*
X029139Y015383D01*
X029236Y015383D01*
X029284Y015431D01*
X029284Y015624D01*
X029236Y015673D01*
X029139Y015673D01*
X029091Y015624D01*
X028989Y015624D02*
X028941Y015673D01*
X028844Y015673D01*
X028796Y015624D01*
X028796Y015576D01*
X028844Y015528D01*
X028796Y015479D01*
X028796Y015431D01*
X028844Y015528D02*
X028893Y015528D01*
X028695Y015673D02*
X028501Y015673D01*
X028501Y015624D01*
X029876Y015013D02*
X030070Y015013D01*
X030070Y014867D01*
X029973Y014916D01*
X029925Y014916D01*
X029876Y014867D01*
X029876Y014771D01*
X029925Y014722D01*
X030022Y014722D01*
X030070Y014771D01*
X030171Y014771D02*
X030171Y015013D01*
X030365Y015013D02*
X030365Y014771D01*
X030316Y014722D01*
X030219Y014722D01*
X030171Y014771D01*
X030761Y014806D02*
X031075Y014806D01*
X031075Y014962D02*
X030761Y014649D01*
X030918Y014649D02*
X030918Y014962D01*
X030761Y014962D02*
X031075Y014649D01*
X032262Y011259D02*
X032214Y011211D01*
X032407Y011018D01*
X032359Y010969D01*
X032262Y010969D01*
X032214Y011018D01*
X032214Y011211D01*
X032262Y011259D02*
X032359Y011259D01*
X032407Y011211D01*
X032407Y011018D01*
X032509Y011018D02*
X032509Y011066D01*
X032557Y011114D01*
X032605Y011114D01*
X032557Y011114D02*
X032509Y011163D01*
X032509Y011211D01*
X032557Y011259D01*
X032654Y011259D01*
X032702Y011211D01*
X032803Y011211D02*
X032803Y011114D01*
X032852Y011066D01*
X032997Y011066D01*
X032997Y010969D02*
X032997Y011259D01*
X032852Y011259D01*
X032803Y011211D01*
X032900Y011066D02*
X032803Y010969D01*
X032702Y011018D02*
X032654Y010969D01*
X032557Y010969D01*
X032509Y011018D01*
X031249Y010756D02*
X031249Y010465D01*
X031249Y010562D02*
X031104Y010562D01*
X031055Y010610D01*
X031055Y010707D01*
X031104Y010756D01*
X031249Y010756D01*
X031152Y010562D02*
X031055Y010465D01*
X030954Y010465D02*
X030761Y010659D01*
X030761Y010707D01*
X030809Y010756D01*
X030906Y010756D01*
X030954Y010707D01*
X030954Y010465D02*
X030761Y010465D01*
X030659Y010514D02*
X030611Y010465D01*
X030514Y010465D01*
X030466Y010514D01*
X030466Y010707D01*
X030514Y010756D01*
X030611Y010756D01*
X030659Y010707D01*
X030659Y010659D01*
X030611Y010610D01*
X030466Y010610D01*
X029166Y010621D02*
X029021Y010621D01*
X028973Y010669D01*
X028973Y010766D01*
X029021Y010815D01*
X029166Y010815D01*
X029166Y010524D01*
X029069Y010621D02*
X028973Y010524D01*
X028871Y010524D02*
X028678Y010718D01*
X028678Y010766D01*
X028726Y010815D01*
X028823Y010815D01*
X028871Y010766D01*
X028871Y010524D02*
X028678Y010524D01*
X028577Y010573D02*
X028577Y010621D01*
X028528Y010669D01*
X028432Y010669D01*
X028383Y010621D01*
X028383Y010573D01*
X028432Y010524D01*
X028528Y010524D01*
X028577Y010573D01*
X028528Y010669D02*
X028577Y010718D01*
X028577Y010766D01*
X028528Y010815D01*
X028432Y010815D01*
X028383Y010766D01*
X028383Y010718D01*
X028432Y010669D01*
X028428Y011056D02*
X028524Y011056D01*
X028573Y011104D01*
X028573Y011201D02*
X028476Y011249D01*
X028428Y011249D01*
X028379Y011201D01*
X028379Y011104D01*
X028428Y011056D01*
X028573Y011201D02*
X028573Y011346D01*
X028379Y011346D01*
X028674Y011298D02*
X028722Y011346D01*
X028819Y011346D01*
X028867Y011298D01*
X028969Y011298D02*
X028969Y011201D01*
X029017Y011153D01*
X029162Y011153D01*
X029065Y011153D02*
X028969Y011056D01*
X028867Y011056D02*
X028674Y011249D01*
X028674Y011298D01*
X028674Y011056D02*
X028867Y011056D01*
X028969Y011298D02*
X029017Y011346D01*
X029162Y011346D01*
X029162Y011056D01*
X027207Y011518D02*
X027207Y011808D01*
X027062Y011808D01*
X027014Y011759D01*
X027014Y011663D01*
X027062Y011614D01*
X027207Y011614D01*
X027111Y011614D02*
X027014Y011518D01*
X026913Y011518D02*
X026719Y011711D01*
X026719Y011759D01*
X026768Y011808D01*
X026864Y011808D01*
X026913Y011759D01*
X026913Y011951D02*
X026719Y012144D01*
X026719Y012193D01*
X026768Y012241D01*
X026864Y012241D01*
X026913Y012193D01*
X027014Y012193D02*
X027014Y012096D01*
X027062Y012047D01*
X027207Y012047D01*
X027207Y011951D02*
X027207Y012241D01*
X027062Y012241D01*
X027014Y012193D01*
X027111Y012047D02*
X027014Y011951D01*
X026913Y011951D02*
X026719Y011951D01*
X026618Y011951D02*
X026618Y011999D01*
X026425Y012193D01*
X026425Y012241D01*
X026618Y012241D01*
X026425Y011808D02*
X026521Y011759D01*
X026618Y011663D01*
X026473Y011663D01*
X026425Y011614D01*
X026425Y011566D01*
X026473Y011518D01*
X026570Y011518D01*
X026618Y011566D01*
X026618Y011663D01*
X026719Y011518D02*
X026913Y011518D01*
X015946Y005778D02*
X015946Y005681D01*
X015897Y005632D01*
X015849Y005632D01*
X015801Y005681D01*
X015801Y005826D01*
X015897Y005826D02*
X015946Y005778D01*
X015897Y005826D02*
X015704Y005826D01*
X015655Y005778D01*
X015655Y005681D01*
X015704Y005632D01*
X015655Y005531D02*
X015655Y005338D01*
X015655Y005434D02*
X015946Y005434D01*
X015849Y005338D01*
X015897Y005237D02*
X015801Y005237D01*
X015752Y005188D01*
X015752Y005043D01*
X015655Y005043D02*
X015946Y005043D01*
X015946Y005188D01*
X015897Y005237D01*
X015752Y005140D02*
X015655Y005237D01*
X012835Y005267D02*
X012787Y005315D01*
X012690Y005315D01*
X012642Y005267D01*
X012642Y005122D01*
X012642Y005219D02*
X012545Y005315D01*
X012545Y005416D02*
X012739Y005610D01*
X012787Y005610D01*
X012835Y005562D01*
X012835Y005465D01*
X012787Y005416D01*
X012835Y005267D02*
X012835Y005122D01*
X012545Y005122D01*
X012545Y005416D02*
X012545Y005610D01*
X012545Y005711D02*
X012545Y005905D01*
X012545Y005808D02*
X012835Y005808D01*
X012739Y005711D01*
X009568Y005620D02*
X009519Y005668D01*
X009326Y005475D01*
X009278Y005523D01*
X009278Y005620D01*
X009326Y005668D01*
X009519Y005668D01*
X009568Y005620D02*
X009568Y005523D01*
X009519Y005475D01*
X009326Y005475D01*
X009278Y005374D02*
X009278Y005180D01*
X009471Y005374D01*
X009519Y005374D01*
X009568Y005325D01*
X009568Y005229D01*
X009519Y005180D01*
X009519Y005079D02*
X009423Y005079D01*
X009374Y005031D01*
X009374Y004886D01*
X009374Y004982D02*
X009278Y005079D01*
X009278Y004886D02*
X009568Y004886D01*
X009568Y005031D01*
X009519Y005079D01*
X009498Y015191D02*
X009498Y015481D01*
X009594Y015384D01*
X009696Y015336D02*
X009889Y015336D01*
X009744Y015481D01*
X009744Y015191D01*
X009594Y015191D02*
X009401Y015191D01*
X009990Y015239D02*
X010039Y015191D01*
X010135Y015191D01*
X010184Y015239D01*
X010184Y015433D01*
X010135Y015481D01*
X010039Y015481D01*
X009990Y015433D01*
X016551Y022000D02*
X016551Y022097D01*
X016599Y022145D01*
X016841Y022145D01*
X016744Y022246D02*
X016841Y022343D01*
X016551Y022343D01*
X016551Y022246D02*
X016551Y022440D01*
X016551Y022541D02*
X016744Y022734D01*
X016793Y022734D01*
X016841Y022686D01*
X016841Y022589D01*
X016793Y022541D01*
X016551Y022541D02*
X016551Y022734D01*
X016551Y022000D02*
X016599Y021952D01*
X016841Y021952D01*
X019488Y022651D02*
X019488Y022747D01*
X019536Y022796D01*
X019488Y022897D02*
X019488Y023090D01*
X019488Y022994D02*
X019778Y022994D01*
X019682Y022897D01*
X019730Y022796D02*
X019778Y022747D01*
X019778Y022651D01*
X019730Y022602D01*
X019536Y022602D01*
X019488Y022651D01*
X019488Y023191D02*
X019488Y023385D01*
X019488Y023288D02*
X019778Y023288D01*
X019682Y023191D01*
X015237Y027523D02*
X014947Y027523D01*
X015044Y027523D02*
X015044Y027669D01*
X015092Y027717D01*
X015189Y027717D01*
X015237Y027669D01*
X015237Y027523D01*
X015044Y027620D02*
X014947Y027717D01*
X014947Y027818D02*
X014947Y028012D01*
X014947Y027915D02*
X015237Y027915D01*
X015140Y027818D01*
X015237Y028113D02*
X015237Y028306D01*
X015189Y028306D01*
X014995Y028113D01*
X014947Y028113D01*
X014629Y029359D02*
X014533Y029359D01*
X014484Y029407D01*
X014383Y029359D02*
X014190Y029359D01*
X014286Y029359D02*
X014286Y029649D01*
X014383Y029552D01*
X014484Y029601D02*
X014533Y029649D01*
X014629Y029649D01*
X014678Y029601D01*
X014678Y029407D01*
X014629Y029359D01*
X014089Y029504D02*
X013895Y029504D01*
X013943Y029359D02*
X013943Y029649D01*
X014089Y029504D01*
X012905Y028267D02*
X012857Y028267D01*
X012808Y028218D01*
X012760Y028267D01*
X012712Y028267D01*
X012663Y028218D01*
X012663Y028122D01*
X012712Y028073D01*
X012663Y027972D02*
X012663Y027779D01*
X012663Y027875D02*
X012954Y027875D01*
X012857Y027779D01*
X012905Y027678D02*
X012808Y027678D01*
X012760Y027629D01*
X012760Y027484D01*
X012663Y027484D02*
X012954Y027484D01*
X012954Y027629D01*
X012905Y027678D01*
X012760Y027581D02*
X012663Y027678D01*
X012905Y028073D02*
X012954Y028122D01*
X012954Y028218D01*
X012905Y028267D01*
X012808Y028218D02*
X012808Y028170D01*
X012307Y029398D02*
X012210Y029398D01*
X012162Y029447D01*
X012060Y029398D02*
X011867Y029398D01*
X011964Y029398D02*
X011964Y029689D01*
X012060Y029592D01*
X012162Y029640D02*
X012210Y029689D01*
X012307Y029689D01*
X012355Y029640D01*
X012355Y029447D01*
X012307Y029398D01*
X011766Y029447D02*
X011766Y029544D01*
X011621Y029544D01*
X011572Y029495D01*
X011572Y029447D01*
X011621Y029398D01*
X011717Y029398D01*
X011766Y029447D01*
X011766Y029544D02*
X011669Y029640D01*
X011572Y029689D01*
X010346Y028227D02*
X010298Y028227D01*
X010249Y028179D01*
X010249Y028082D01*
X010298Y028034D01*
X010346Y028034D01*
X010395Y028082D01*
X010395Y028179D01*
X010346Y028227D01*
X010249Y028179D02*
X010201Y028227D01*
X010153Y028227D01*
X010104Y028179D01*
X010104Y028082D01*
X010153Y028034D01*
X010201Y028034D01*
X010249Y028082D01*
X010104Y027933D02*
X010104Y027739D01*
X010104Y027836D02*
X010395Y027836D01*
X010298Y027739D01*
X010346Y027638D02*
X010249Y027638D01*
X010201Y027590D01*
X010201Y027445D01*
X010201Y027541D02*
X010104Y027638D01*
X010104Y027445D02*
X010395Y027445D01*
X010395Y027590D01*
X010346Y027638D01*
X016415Y029447D02*
X016463Y029398D01*
X016560Y029398D01*
X016608Y029447D01*
X016608Y029544D02*
X016511Y029592D01*
X016463Y029592D01*
X016415Y029544D01*
X016415Y029447D01*
X016608Y029544D02*
X016608Y029689D01*
X016415Y029689D01*
X016806Y029689D02*
X016806Y029398D01*
X016903Y029398D02*
X016709Y029398D01*
X016903Y029592D02*
X016806Y029689D01*
X017004Y029640D02*
X017052Y029689D01*
X017149Y029689D01*
X017198Y029640D01*
X017198Y029447D01*
X017149Y029398D01*
X017052Y029398D01*
X017004Y029447D01*
X025773Y024742D02*
X026087Y024429D01*
X025773Y024742D01*
X025773Y024586D02*
X026087Y024586D01*
X025773Y024586D01*
X025773Y024429D02*
X026087Y024742D01*
X025773Y024429D01*
X025930Y024429D02*
X025930Y024742D01*
X025930Y024429D01*
X026249Y022523D02*
X026201Y022474D01*
X026201Y022378D01*
X026249Y022329D01*
X026201Y022228D02*
X026201Y022035D01*
X026201Y022131D02*
X026491Y022131D01*
X026394Y022035D01*
X026443Y021933D02*
X026491Y021885D01*
X026491Y021788D01*
X026443Y021740D01*
X026249Y021740D01*
X026201Y021788D01*
X026201Y021885D01*
X026249Y021933D01*
X026443Y022329D02*
X026491Y022378D01*
X026491Y022474D01*
X026443Y022523D01*
X026394Y022523D01*
X026346Y022474D01*
X026297Y022523D01*
X026249Y022523D01*
X026346Y022474D02*
X026346Y022426D01*
X028185Y023044D02*
X028233Y022996D01*
X028427Y023189D01*
X028475Y023141D01*
X028475Y023044D01*
X028427Y022996D01*
X028233Y022996D01*
X028185Y023044D02*
X028185Y023141D01*
X028233Y023189D01*
X028427Y023189D01*
X028475Y023291D02*
X028475Y023484D01*
X028475Y023387D02*
X028185Y023387D01*
X028282Y023484D01*
X028185Y023585D02*
X028427Y023585D01*
X028475Y023634D01*
X028475Y023730D01*
X028427Y023779D01*
X028185Y023779D01*
D13*
X018817Y023282D02*
X018817Y021664D01*
X017017Y021664D01*
X017017Y023282D01*
X018817Y023282D01*
D14*
X010602Y010267D02*
X010295Y010267D01*
X010219Y010190D01*
X010219Y010036D01*
X010295Y009960D01*
X010295Y009806D02*
X010219Y009730D01*
X010219Y009576D01*
X010295Y009499D01*
X010295Y009361D02*
X010219Y009284D01*
X010219Y009131D01*
X010295Y009054D01*
X010372Y009054D01*
X010449Y009131D01*
X010449Y009284D01*
X010372Y009361D01*
X010295Y009361D01*
X010219Y009346D02*
X010372Y009193D01*
X010372Y009269D02*
X010372Y009039D01*
X010449Y009131D02*
X010526Y009054D01*
X010602Y009054D01*
X010679Y009131D01*
X010679Y009284D01*
X010602Y009361D01*
X010526Y009361D01*
X010449Y009284D01*
X010449Y009346D02*
X010372Y009269D01*
X010449Y009346D02*
X010602Y009346D01*
X010679Y009269D01*
X010679Y009039D01*
X010219Y009039D01*
X010295Y008901D02*
X010219Y008824D01*
X010219Y008671D01*
X010295Y008594D01*
X010219Y008440D02*
X010372Y008287D01*
X010372Y008364D02*
X010372Y008134D01*
X010219Y008134D02*
X010679Y008134D01*
X010679Y008364D01*
X010602Y008440D01*
X010449Y008440D01*
X010372Y008364D01*
X010602Y008594D02*
X010679Y008671D01*
X010679Y008824D01*
X010602Y008901D01*
X010526Y008901D01*
X010449Y008824D01*
X010372Y008901D01*
X010295Y008901D01*
X010449Y008824D02*
X010449Y008747D01*
X010602Y009499D02*
X010679Y009576D01*
X010679Y009730D01*
X010602Y009806D01*
X010526Y009806D01*
X010449Y009730D01*
X010372Y009806D01*
X010295Y009806D01*
X010449Y009730D02*
X010449Y009653D01*
X010526Y009960D02*
X010449Y010036D01*
X010449Y010267D01*
X010602Y010267D02*
X010679Y010190D01*
X010679Y010036D01*
X010602Y009960D01*
X010526Y009960D01*
M02*
