%
M48
M72
T01C0.0120
T02C0.0400
T03C0.0550
T04C0.0630
%
T01
X6478Y3602
X7619Y3878
X7619Y4193
X7619Y4508
X7619Y4823
X7541Y5315
X7541Y5630
X7541Y5945
X7541Y6260
X8151Y6417
X8702Y6102
X7797Y6929
X7797Y7204
X7521Y7204
X7521Y6929
X9608Y7244
X9804Y7913
X10513Y8700
X10356Y8976
X10907Y9527
X11419Y10039
X11064Y10630
X11458Y11181
X11458Y11456
X11734Y11456
X11734Y11181
X12049Y11181
X12324Y11181
X12324Y11456
X12049Y11456
X12049Y11732
X12324Y11732
X12324Y12008
X12324Y12283
X12049Y12283
X12049Y12008
X11734Y12008
X11734Y12283
X11734Y12559
X11734Y12834
X11458Y12834
X11458Y12559
X11458Y12283
X11458Y12008
X11458Y11732
X11734Y11732
X12049Y12559
X12324Y12559
X12324Y12834
X12049Y12834
X11379Y13307
X11064Y13386
X11615Y13779
X12088Y13858
X12363Y13858
X12363Y13582
X12088Y13582
X11891Y14173
X11891Y14882
X11891Y15157
X11615Y15472
X12639Y15511
X12639Y16181
X12678Y16929
X13387Y16968
X13663Y16614
X13663Y16260
X14214Y15669
X14253Y15354
X14253Y15039
X15021Y15433
X15237Y15197
X15080Y14862
X15395Y14370
X15159Y14015
X14844Y13386
X14647Y13149
X14844Y12677
X14371Y12401
X14174Y12047
X13781Y12323
X13505Y12480
X13505Y11929
X13781Y11653
X14450Y11181
X14174Y10905
X14450Y10197
X14253Y9960
X14253Y9685
X13978Y9685
X13978Y9960
X13741Y9488
X13151Y9488
X12285Y9074
X11852Y8976
X11261Y8700
X12915Y8543
X13899Y8543
X15159Y9212
X15159Y10078
X16104Y10236
X15986Y11181
X16261Y11181
X16261Y11456
X15986Y11456
X15986Y11732
X16261Y11732
X16576Y11732
X16576Y11456
X16576Y11181
X16852Y11181
X16852Y11456
X16852Y11732
X17245Y11653
X16852Y12283
X16576Y12283
X16576Y12559
X16261Y12559
X16261Y12834
X15986Y12834
X15986Y12559
X15986Y12283
X16261Y12283
X17245Y12913
X17954Y12637
X18348Y12559
X18663Y12244
X18938Y12401
X19155Y12815
X19470Y12834
X19135Y13169
X19450Y13425
X19568Y13937
X19765Y14409
X19962Y14763
X20080Y14055
X20356Y13740
X20356Y13287
X20671Y12795
X20946Y12795
X20946Y12519
X20946Y12244
X20671Y12244
X20671Y12519
X20297Y12598
X20277Y12244
X20277Y11850
X20671Y11417
X20946Y11417
X20946Y11141
X20671Y11141
X20789Y10748
X20513Y10708
X20434Y10433
X20710Y10472
X21261Y11141
X21537Y11141
X21537Y11417
X21537Y11693
X21261Y11693
X21261Y11417
X20946Y11693
X21261Y12244
X21261Y12519
X21537Y12519
X21537Y12244
X21930Y12244
X21930Y12598
X21537Y12795
X21261Y12795
X21615Y13267
X21497Y13740
X21930Y13681
X22403Y13897
X22206Y14311
X22836Y14330
X22600Y14842
X22737Y15610
X22757Y15945
X22757Y16260
X23249Y15787
X22757Y16771
X22954Y17519
X22206Y17559
X21852Y18740
X21143Y18740
X20631Y18740
X19686Y18858
X19647Y18543
X19253Y18346
X18702Y18386
X18151Y18838
X18564Y19212
X17993Y19488
X17639Y19527
X17088Y18838
X16241Y18799
X15710Y19055
X14726Y20236
X14726Y20551
X13702Y20866
X13663Y21220
X13623Y21693
X12954Y21693
X12403Y21693
X12403Y22244
X12600Y22480
X12127Y23267
X12363Y23582
X12678Y23582
X13308Y23543
X14214Y23267
X14726Y23582
X14214Y24763
X11458Y23582
X11419Y21968
X11419Y20945
X11438Y18523
X11438Y18248
X11163Y18248
X11163Y18523
X11773Y18307
X10710Y17795
X10710Y17244
X10986Y17244
X10986Y16968
X10710Y16968
X10198Y16456
X10316Y15945
X10316Y15275
X10041Y14685
X9923Y14055
X10316Y13464
X9804Y12637
X9844Y11850
X9962Y11437
X10041Y11102
X10277Y10866
X9371Y10354
X9588Y9527
X9155Y8976
X8820Y8661
X6084Y8543
X2757Y6968
X2757Y6693
X2482Y6693
X2482Y6968
X6635Y4862
X8860Y3897
X10631Y5000
X10631Y5945
X11379Y6338
X11812Y6378
X11694Y5393
X11694Y4252
X11340Y3897
X12639Y4134
X12954Y4449
X14135Y4370
X14529Y4252
X14174Y4921
X15395Y4645
X14923Y6260
X16419Y6417
X17403Y6260
X17737Y6141
X17678Y4370
X17245Y4291
X20671Y5630
X20789Y6122
X23033Y7637
X23584Y7657
X24155Y7637
X24529Y7637
X24883Y7637
X23879Y8543
X23564Y8602
X23072Y8602
X24174Y9527
X23426Y9567
X23426Y9842
X23111Y9842
X23111Y9567
X21911Y9271
X22009Y8563
X21576Y8622
X20671Y8760
X20159Y9232
X19844Y8897
X19923Y8543
X19194Y8681
X19371Y9291
X19371Y9567
X19647Y9567
X19647Y9291
X19489Y10157
X19214Y10157
X19450Y10590
X19529Y11063
X19174Y11378
X19489Y11712
X19529Y12067
X18033Y11811
X18033Y11456
X18584Y10905
X18545Y9567
X18545Y9291
X18269Y9291
X18269Y9567
X17442Y8976
X17560Y8661
X17167Y8700
X17954Y8445
X17245Y11102
X14804Y11771
X14765Y12126
X15671Y13504
X15907Y13937
X16497Y13976
X16537Y13582
X16930Y13661
X17245Y13425
X17521Y14015
X17836Y14015
X18328Y14586
X18840Y14645
X18545Y15472
X18525Y15807
X18486Y16260
X18899Y16082
X18899Y16968
X18860Y17283
X18879Y17598
X18426Y17008
X18072Y17283
X17521Y17716
X17167Y17086
X17127Y16771
X17167Y16161
X17167Y15846
X17521Y15787
X17521Y15472
X16497Y15472
X16615Y15984
X13584Y14685
X13328Y14055
X12954Y14055
X12718Y13425
X12718Y12637
X12718Y12008
X12678Y11378
X10828Y14567
X8938Y14015
X8230Y13543
X8308Y13071
X8033Y13071
X8033Y12795
X8308Y12795
X7442Y12795
X7167Y12795
X7167Y13071
X7442Y13071
X7088Y12401
X7757Y12086
X8151Y11732
X7009Y11653
X7049Y15315
X6753Y16338
X6478Y16338
X6478Y16614
X6753Y16614
X7108Y16693
X7383Y16693
X7383Y16417
X7108Y16417
X6773Y17067
X6773Y17342
X6497Y17342
X6497Y17067
X7797Y16771
X8230Y15708
X5041Y16574
X7009Y18582
X7797Y19330
X7797Y22165
X7600Y23149
X7600Y23425
X7324Y23425
X7324Y23149
X6734Y23189
X6734Y23464
X6458Y23464
X6458Y23189
X6458Y23819
X6458Y24094
X6734Y24094
X6734Y23819
X7324Y23779
X7600Y23779
X7600Y24055
X7324Y24055
X7049Y25157
X7344Y25787
X7344Y27716
X6694Y29606
X6419Y29606
X6419Y29882
X6694Y29882
X6694Y30197
X6694Y30472
X6419Y30472
X6419Y30197
X5001Y30315
X5001Y28307
X8387Y29645
X8781Y29527
X9489Y29409
X9883Y29567
X11064Y29842
X11694Y29488
X12009Y29409
X12600Y29488
X12600Y29960
X13072Y29960
X13269Y29645
X14056Y29488
X14332Y29724
X14056Y29960
X14489Y30433
X15710Y29882
X15552Y29449
X15789Y28976
X16497Y29488
X17639Y30275
X19450Y29409
X21773Y29567
X22167Y29606
X22718Y29449
X22167Y27756
X24214Y27874
X25986Y29449
X27482Y27756
X28505Y29606
X29293Y29449
X30237Y29882
X32639Y29449
X34135Y27874
X34017Y25334
X32954Y24252
X32167Y23700
X32167Y23425
X31891Y23425
X31891Y23700
X31970Y25275
X32324Y25354
X30119Y24173
X29096Y22913
X28151Y23504
X29017Y22204
X29017Y21929
X29293Y21929
X29293Y22204
X30237Y21968
X31163Y21240
X31163Y20590
X29686Y20590
X29430Y20590
X29115Y20334
X29391Y20078
X29647Y20078
X29568Y19763
X29489Y19370
X29608Y18700
X29332Y18425
X28466Y18425
X28111Y18582
X27442Y18897
X27639Y19685
X28466Y19645
X28072Y20748
X26674Y21693
X26399Y21693
X26399Y21968
X26674Y21968
X26163Y20295
X26163Y20019
X25887Y20019
X25887Y20295
X24450Y20157
X24371Y18543
X23348Y18582
X24017Y17559
X24017Y17204
X25159Y16378
X25867Y16378
X25946Y16063
X26970Y16850
X27127Y17244
X27403Y16909
X27560Y17519
X27206Y17834
X28151Y17165
X29214Y17382
X29923Y17165
X30356Y17047
X30631Y17283
X30867Y17519
X31143Y17204
X31497Y17756
X30356Y17795
X32127Y16535
X31379Y16181
X31734Y15945
X31360Y15511
X32127Y15157
X32127Y14882
X32403Y14882
X32403Y15157
X32285Y15630
X33151Y15630
X33308Y15315
X31812Y14134
X31379Y14212
X30631Y13858
X30434Y13386
X30592Y12795
X30198Y12795
X29923Y12795
X29923Y12519
X30198Y12519
X30198Y12244
X29923Y12244
X29608Y12244
X29608Y12519
X29608Y12795
X29332Y12795
X29332Y12519
X29332Y12244
X29332Y11693
X29608Y11693
X29608Y11417
X29608Y11141
X29332Y11141
X29332Y11417
X28978Y11181
X28190Y11063
X28151Y11496
X28111Y12126
X28072Y12578
X27560Y12637
X27501Y12185
X27127Y12401
X26950Y12657
X26182Y12834
X26104Y13307
X25513Y12834
X25513Y12559
X25789Y12559
X25789Y12283
X25513Y12283
X25198Y12283
X24923Y12283
X24923Y12559
X25198Y12559
X25198Y12834
X24923Y12834
X25001Y13307
X24765Y13563
X25552Y13937
X25395Y14330
X24293Y14763
X23860Y14763
X23663Y14015
X23623Y13661
X23722Y12815
X23407Y12795
X23308Y12500
X23741Y12224
X23741Y11594
X23741Y11141
X23348Y11102
X22718Y11338
X22639Y12047
X22718Y12401
X22737Y12736
X21930Y11771
X21930Y11417
X24529Y10905
X24844Y10748
X25119Y10748
X25119Y10472
X24844Y10472
X24923Y11181
X25198Y11181
X25198Y11456
X24923Y11456
X24923Y11732
X25198Y11732
X25513Y11732
X25513Y11456
X25513Y11181
X25789Y11181
X25789Y11456
X25789Y11732
X26143Y11653
X26182Y11102
X26950Y11338
X26930Y11811
X27541Y11319
X27816Y10767
X27875Y10393
X28269Y10000
X27895Y9685
X28387Y9212
X28387Y8622
X27915Y8543
X27029Y9035
X26379Y8760
X26655Y9704
X28781Y10000
X28899Y9212
X28899Y8543
X28722Y7697
X27954Y7697
X26734Y7500
X26812Y6889
X25316Y6378
X25001Y6378
X25080Y6102
X25198Y5511
X25198Y5197
X25474Y5197
X25474Y4921
X25198Y4921
X27363Y4370
X27757Y4173
X27363Y3819
X28466Y3858
X28741Y3858
X28741Y4134
X28466Y4134
X29647Y4370
X30198Y4842
X29962Y5551
X29962Y5826
X29686Y5826
X29686Y5551
X30316Y6260
X30848Y6279
X31025Y5551
X30986Y3858
X33702Y3858
X33741Y4921
X35710Y6260
X35710Y6535
X35986Y6535
X35986Y6260
X36458Y4803
X36379Y3858
X33938Y6889
X32797Y7637
X31655Y8700
X32049Y9134
X31537Y9409
X31379Y9685
X30986Y9212
X30828Y8386
X30710Y7795
X30986Y7480
X31379Y10787
X31537Y11299
X31379Y11574
X31812Y11732
X32442Y12008
X32797Y12165
X32383Y12401
X31930Y12519
X33072Y11771
X33426Y11417
X33072Y10984
X32797Y10630
X33741Y12480
X30592Y11063
X30198Y11141
X29923Y11141
X29923Y11417
X30198Y11417
X30198Y11693
X29923Y11693
X28938Y12677
X28938Y13189
X28938Y13543
X28171Y13504
X28151Y13976
X27560Y14291
X27324Y14685
X26970Y14763
X26950Y15295
X27324Y16023
X27718Y15905
X27718Y16220
X29214Y16260
X30316Y15787
X30415Y16358
X33111Y18425
X33978Y22086
X34253Y22362
X34529Y22834
X36655Y24252
X36930Y25000
X37482Y27834
X37245Y22086
X27088Y14252
X26615Y14055
X25513Y15118
X25041Y15669
X24726Y15787
X26300Y17441
X26182Y18760
X26615Y18819
X23505Y21614
X22678Y21220
X22521Y21614
X22324Y22401
X22088Y23110
X22088Y23386
X21812Y23386
X21812Y23110
X21458Y23582
X21497Y24606
X21615Y24921
X21615Y25197
X21891Y25197
X21891Y24921
X23230Y24527
X24371Y23425
X23899Y22992
X25041Y25000
X25434Y25590
X25592Y25275
X21458Y22047
X21419Y21693
X20277Y22047
X20434Y22401
X19923Y21693
X18387Y21693
X17757Y22086
X17521Y20984
X15434Y21614
X14726Y22008
X17974Y24055
X18249Y24055
X18249Y24330
X17974Y24330
X20237Y24803
X17737Y26476
X14293Y28582
X10828Y28425
X5159Y23110
X12954Y18307
X14017Y18228
X19844Y17165
X20749Y17559
X21674Y16338
X21773Y16043
X21419Y16102
X21615Y15472
X21025Y15393
X21104Y14763
X21104Y14449
X21104Y14055
X21340Y19724
X21970Y19724
X22797Y20433
X22521Y20826
X20867Y20197
X36458Y8897
X37678Y7756
X37678Y7480
X37954Y7480
X37954Y7756
X22993Y3897
T02
X22611Y5511
X23611Y5511
X24611Y5511
X26100Y5551
X27100Y5551
X28100Y5551
X29100Y5551
X29340Y7137
X30340Y7137
X31340Y7137
X32340Y7137
X33340Y7137
X33340Y8137
X32340Y8137
X31340Y8137
X30340Y8137
X29340Y8137
X28340Y8137
X27340Y8137
X26340Y8137
X26340Y7137
X27340Y7137
X28340Y7137
X25340Y7137
X24340Y7137
X23340Y7137
X22340Y7137
X21340Y7137
X20340Y7137
X19340Y7137
X18340Y7137
X17340Y7137
X16340Y7137
X15340Y7137
X14340Y7137
X13340Y7137
X12340Y7137
X11340Y7137
X11340Y8137
X12340Y8137
X13340Y8137
X14340Y8137
X15340Y8137
X16340Y8137
X17340Y8137
X18340Y8137
X19340Y8137
X20340Y8137
X21340Y8137
X22340Y8137
X23340Y8137
X24340Y8137
X25340Y8137
X21611Y5511
X20123Y5511
X19123Y5511
X18123Y5511
X17123Y5511
X15635Y5511
X14635Y5511
X13635Y5511
X12635Y5511
X11147Y5511
X10147Y5511
X9147Y5511
X8147Y5511
X31509Y5551
X32509Y5551
X34186Y5511
X35186Y5511
X36863Y5551
X37863Y5551
X33277Y26130
X32277Y26130
X32277Y27130
X33277Y27130
X33387Y28661
X32387Y28661
X31041Y28661
X30041Y28661
X29041Y28661
X27734Y28661
X26734Y28661
X25734Y28661
X24466Y28661
X23466Y28661
X22466Y28661
X21198Y28622
X20198Y28622
X19198Y28622
X19277Y27130
X20277Y27130
X21277Y27130
X22277Y27130
X23277Y27130
X24277Y27130
X25277Y27130
X26277Y27130
X27277Y27130
X28277Y27130
X29277Y27130
X30277Y27130
X31277Y27130
X31277Y26130
X30277Y26130
X29277Y26130
X28277Y26130
X27277Y26130
X26277Y26130
X25277Y26130
X24277Y26130
X23277Y26130
X22277Y26130
X21277Y26130
X20277Y26130
X19277Y26130
X18277Y26130
X17277Y26130
X17277Y27130
X18277Y27130
X17300Y28661
X16300Y28661
X15300Y28661
X15277Y27130
X16277Y27130
X16277Y26130
X15277Y26130
X14277Y26130
X14277Y27130
X13277Y27130
X12277Y27130
X11277Y27130
X11277Y26130
X12277Y26130
X13277Y26130
X13678Y28661
X12678Y28661
X11678Y28661
X10214Y28622
X9214Y28622
X8214Y28622
X34387Y28661
X35734Y28622
X36734Y28622
X37734Y28622
T03
X4088Y4874
X4088Y6874
X4088Y8874
X4088Y10874
X4088Y13724
X4088Y15724
X4088Y18574
X4088Y20574
X4088Y22574
X4088Y24574
X4088Y27425
X4088Y29425
T04
X5316Y9730
X6655Y9730
X6655Y5899
X5316Y5899
M30
