G75*
G70*
%OFA0B0*%
%FSLAX24Y24*%
%IPPOS*%
%LPD*%
%AMOC8*
5,1,8,0,0,1.08239X$1,22.5*
%
%ADD10C,0.0000*%
%ADD11OC8,0.0640*%
%ADD12R,0.0434X0.0178*%
%ADD13R,0.1221X0.2009*%
%ADD14R,0.0316X0.0394*%
%ADD15R,0.0631X0.0552*%
%ADD16R,0.0355X0.0355*%
%ADD17R,0.0520X0.0920*%
%ADD18R,0.1457X0.0906*%
%ADD19R,0.0394X0.0316*%
%ADD20R,0.0620X0.0180*%
%ADD21C,0.0640*%
%ADD22C,0.0865*%
%ADD23R,0.1001X0.0485*%
%ADD24R,0.1024X0.1418*%
%ADD25R,0.0512X0.0257*%
%ADD26R,0.0237X0.0473*%
%ADD27C,0.0158*%
%ADD28R,0.0749X0.0749*%
%ADD29R,0.0749X0.0670*%
%ADD30R,0.0591X0.2009*%
%ADD31R,0.0473X0.0197*%
%ADD32R,0.0670X0.0749*%
%ADD33R,0.0827X0.0827*%
%ADD34R,0.2993X0.0749*%
%ADD35C,0.0985*%
D10*
X000474Y003346D02*
X006615Y003346D01*
X006616Y003346D02*
X006657Y003350D01*
X006699Y003358D01*
X006739Y003369D01*
X006778Y003384D01*
X006815Y003403D01*
X006851Y003425D01*
X006884Y003450D01*
X006915Y003478D01*
X006944Y003509D01*
X006969Y003542D01*
X006991Y003577D01*
X007010Y003615D01*
X007025Y003654D01*
X007037Y003694D01*
X007044Y003735D01*
X007048Y003777D01*
X007049Y003819D01*
X007049Y004921D01*
X007324Y004921D01*
X007324Y003858D01*
X007323Y003821D01*
X007327Y003784D01*
X007334Y003748D01*
X007344Y003713D01*
X007358Y003679D01*
X007376Y003646D01*
X007396Y003616D01*
X007419Y003587D01*
X007445Y003561D01*
X007474Y003538D01*
X007504Y003517D01*
X007536Y003500D01*
X007570Y003485D01*
X007606Y003475D01*
X007642Y003467D01*
X007678Y003464D01*
X029686Y003464D01*
X029714Y003466D01*
X029742Y003471D01*
X029770Y003479D01*
X029796Y003491D01*
X029820Y003506D01*
X029842Y003523D01*
X029863Y003544D01*
X029880Y003566D01*
X029895Y003590D01*
X029907Y003616D01*
X029915Y003644D01*
X029920Y003672D01*
X029922Y003700D01*
X029923Y003700D02*
X029923Y004527D01*
X030237Y004527D01*
X030237Y003700D01*
X030238Y003700D02*
X030240Y003672D01*
X030245Y003644D01*
X030253Y003616D01*
X030265Y003590D01*
X030280Y003566D01*
X030297Y003544D01*
X030318Y003523D01*
X030340Y003506D01*
X030364Y003491D01*
X030390Y003479D01*
X030418Y003471D01*
X030446Y003466D01*
X030474Y003464D01*
X037993Y003464D01*
X037994Y003464D02*
X038052Y003475D01*
X038109Y003489D01*
X038165Y003506D01*
X038219Y003528D01*
X038273Y003552D01*
X038325Y003580D01*
X038374Y003611D01*
X038422Y003645D01*
X038468Y003682D01*
X038511Y003722D01*
X038552Y003764D01*
X038589Y003809D01*
X038624Y003856D01*
X038656Y003906D01*
X038685Y003957D01*
X038711Y004010D01*
X038733Y004064D01*
X038751Y004120D01*
X038767Y004177D01*
X038778Y004234D01*
X038786Y004292D01*
X038790Y004351D01*
X038791Y004410D01*
X038788Y004468D01*
X038781Y004527D01*
X038781Y012795D01*
X033545Y012795D01*
X033545Y019882D01*
X038663Y019882D01*
X038643Y029882D01*
X038640Y029942D01*
X038633Y030002D01*
X038622Y030062D01*
X038608Y030121D01*
X038589Y030179D01*
X038568Y030235D01*
X038543Y030291D01*
X038514Y030344D01*
X038482Y030396D01*
X038447Y030445D01*
X038409Y030492D01*
X038368Y030537D01*
X038324Y030579D01*
X038278Y030618D01*
X038229Y030654D01*
X038178Y030687D01*
X038126Y030717D01*
X038071Y030743D01*
X038015Y030766D01*
X037957Y030786D01*
X037899Y030801D01*
X037839Y030813D01*
X037779Y030822D01*
X037719Y030826D01*
X037658Y030827D01*
X037659Y030826D02*
X018545Y030826D01*
X018545Y030827D02*
X018514Y030825D01*
X018484Y030820D01*
X018454Y030812D01*
X018425Y030800D01*
X018398Y030785D01*
X018373Y030767D01*
X018350Y030746D01*
X018329Y030723D01*
X018311Y030698D01*
X018296Y030671D01*
X018284Y030642D01*
X018276Y030612D01*
X018271Y030582D01*
X018269Y030551D01*
X018269Y029330D01*
X017993Y029330D01*
X017993Y030551D01*
X017994Y030551D02*
X017992Y030582D01*
X017987Y030612D01*
X017979Y030642D01*
X017967Y030671D01*
X017952Y030698D01*
X017934Y030723D01*
X017913Y030746D01*
X017890Y030767D01*
X017865Y030785D01*
X017838Y030800D01*
X017809Y030812D01*
X017779Y030820D01*
X017749Y030825D01*
X017718Y030827D01*
X017718Y030826D02*
X007797Y030826D01*
X007756Y030824D01*
X007715Y030819D01*
X007675Y030810D01*
X007636Y030798D01*
X007598Y030782D01*
X007561Y030763D01*
X007526Y030741D01*
X007494Y030716D01*
X007463Y030688D01*
X007435Y030657D01*
X007410Y030625D01*
X007388Y030590D01*
X007369Y030553D01*
X007353Y030515D01*
X007341Y030476D01*
X007332Y030436D01*
X007327Y030395D01*
X007325Y030354D01*
X007324Y030354D02*
X007324Y029409D01*
X007009Y029409D01*
X007009Y030354D01*
X007010Y030354D02*
X007006Y030397D01*
X006999Y030439D01*
X006988Y030481D01*
X006973Y030521D01*
X006955Y030560D01*
X006934Y030597D01*
X006909Y030633D01*
X006882Y030666D01*
X006851Y030696D01*
X006819Y030724D01*
X006783Y030749D01*
X006746Y030770D01*
X006707Y030789D01*
X006667Y030804D01*
X006625Y030815D01*
X006583Y030823D01*
X006540Y030826D01*
X006497Y030827D01*
X006497Y030826D02*
X000474Y030826D01*
X000474Y003346D01*
D11*
X011340Y007137D03*
X012340Y007137D03*
X013340Y007137D03*
X014340Y007137D03*
X015340Y007137D03*
X016340Y007137D03*
X017340Y007137D03*
X018340Y007137D03*
X019340Y007137D03*
X020340Y007137D03*
X021340Y007137D03*
X022340Y007137D03*
X023340Y007137D03*
X024340Y007137D03*
X025340Y007137D03*
X026340Y007137D03*
X027340Y007137D03*
X028340Y007137D03*
X029340Y007137D03*
X030340Y007137D03*
X031340Y007137D03*
X032340Y007137D03*
X033340Y007137D03*
X033340Y008137D03*
X032340Y008137D03*
X031340Y008137D03*
X030340Y008137D03*
X029340Y008137D03*
X028340Y008137D03*
X027340Y008137D03*
X026340Y008137D03*
X025340Y008137D03*
X024340Y008137D03*
X023340Y008137D03*
X022340Y008137D03*
X021340Y008137D03*
X020340Y008137D03*
X019340Y008137D03*
X018340Y008137D03*
X017340Y008137D03*
X016340Y008137D03*
X015340Y008137D03*
X014340Y008137D03*
X013340Y008137D03*
X012340Y008137D03*
X011340Y008137D03*
X011277Y026130D03*
X012277Y026130D03*
X013277Y026130D03*
X013277Y027130D03*
X012277Y027130D03*
X011277Y027130D03*
X014277Y027130D03*
X015277Y027130D03*
X016277Y027130D03*
X017277Y027130D03*
X018277Y027130D03*
X019277Y027130D03*
X020277Y027130D03*
X021277Y027130D03*
X022277Y027130D03*
X023277Y027130D03*
X024277Y027130D03*
X025277Y027130D03*
X026277Y027130D03*
X027277Y027130D03*
X028277Y027130D03*
X029277Y027130D03*
X030277Y027130D03*
X031277Y027130D03*
X032277Y027130D03*
X033277Y027130D03*
X033277Y026130D03*
X032277Y026130D03*
X031277Y026130D03*
X030277Y026130D03*
X029277Y026130D03*
X028277Y026130D03*
X027277Y026130D03*
X026277Y026130D03*
X025277Y026130D03*
X024277Y026130D03*
X023277Y026130D03*
X022277Y026130D03*
X021277Y026130D03*
X020277Y026130D03*
X019277Y026130D03*
X018277Y026130D03*
X017277Y026130D03*
X016277Y026130D03*
X015277Y026130D03*
X014277Y026130D03*
D12*
X015203Y013671D03*
X015203Y013415D03*
X015203Y013159D03*
X015203Y012903D03*
X015203Y012647D03*
X015203Y012391D03*
X015203Y012136D03*
X015203Y011880D03*
X015203Y011624D03*
X015203Y011368D03*
X015203Y011112D03*
X015203Y010856D03*
X015203Y010600D03*
X015203Y010344D03*
X013107Y010344D03*
X013107Y010600D03*
X013107Y010856D03*
X013107Y011112D03*
X013107Y011368D03*
X013107Y011624D03*
X013107Y011880D03*
X013107Y012136D03*
X013107Y012391D03*
X013107Y012647D03*
X013107Y012903D03*
X013107Y013159D03*
X013107Y013415D03*
X013107Y013671D03*
X010675Y013671D03*
X010675Y013415D03*
X010675Y013159D03*
X010675Y012903D03*
X010675Y012647D03*
X010675Y012391D03*
X010675Y012136D03*
X010675Y011880D03*
X010675Y011624D03*
X010675Y011368D03*
X010675Y011112D03*
X010675Y010856D03*
X010675Y010600D03*
X010675Y010344D03*
X017634Y010344D03*
X017634Y010600D03*
X017634Y010856D03*
X017634Y011112D03*
X017634Y011368D03*
X017634Y011624D03*
X017634Y011880D03*
X017634Y012136D03*
X017634Y012391D03*
X017634Y012647D03*
X017634Y012903D03*
X017634Y013159D03*
X017634Y013415D03*
X017634Y013671D03*
X019888Y013632D03*
X019888Y013376D03*
X019888Y013120D03*
X019888Y012864D03*
X019888Y012608D03*
X019888Y012352D03*
X019888Y012096D03*
X019888Y011840D03*
X019888Y011584D03*
X019888Y011328D03*
X019888Y011073D03*
X019888Y010817D03*
X019888Y010561D03*
X019888Y010305D03*
X022319Y010305D03*
X022319Y010561D03*
X022319Y010817D03*
X022319Y011073D03*
X022319Y011328D03*
X022319Y011584D03*
X022319Y011840D03*
X022319Y012096D03*
X022319Y012352D03*
X022319Y012608D03*
X022319Y012864D03*
X022319Y013120D03*
X022319Y013376D03*
X022319Y013632D03*
X024140Y013671D03*
X024140Y013415D03*
X024140Y013159D03*
X024140Y012903D03*
X024140Y012647D03*
X024140Y012391D03*
X024140Y012136D03*
X024140Y011880D03*
X024140Y011624D03*
X024140Y011368D03*
X024140Y011112D03*
X024140Y010856D03*
X024140Y010600D03*
X024140Y010344D03*
X026571Y010344D03*
X026571Y010600D03*
X026571Y010856D03*
X026571Y011112D03*
X026571Y011368D03*
X026571Y011624D03*
X026571Y011880D03*
X026571Y012136D03*
X026571Y012391D03*
X026571Y012647D03*
X026571Y012903D03*
X026571Y013159D03*
X026571Y013415D03*
X026571Y013671D03*
X028549Y013632D03*
X028549Y013376D03*
X028549Y013120D03*
X028549Y012864D03*
X028549Y012608D03*
X028549Y012352D03*
X028549Y012096D03*
X028549Y011840D03*
X028549Y011584D03*
X028549Y011328D03*
X028549Y011073D03*
X028549Y010817D03*
X028549Y010561D03*
X028549Y010305D03*
X030981Y010305D03*
X030981Y010561D03*
X030981Y010817D03*
X030981Y011073D03*
X030981Y011328D03*
X030981Y011584D03*
X030981Y011840D03*
X030981Y012096D03*
X030981Y012352D03*
X030981Y012608D03*
X030981Y012864D03*
X030981Y013120D03*
X030981Y013376D03*
X030981Y013632D03*
D13*
X029765Y011968D03*
X025356Y012008D03*
X021104Y011968D03*
X016419Y012008D03*
X011891Y012008D03*
D14*
X011753Y009645D03*
X012127Y009645D03*
X012639Y009645D03*
X011241Y009645D03*
X015730Y009645D03*
X016241Y009645D03*
X016635Y009645D03*
X017147Y009645D03*
X020474Y009803D03*
X020986Y009803D03*
X021419Y009823D03*
X021930Y009823D03*
X024706Y009842D03*
X025218Y009842D03*
X025690Y009842D03*
X026202Y009842D03*
X029155Y009803D03*
X029667Y009803D03*
X030060Y009803D03*
X030572Y009803D03*
X030454Y019803D03*
X029942Y019803D03*
X024430Y023819D03*
X023919Y023819D03*
X024076Y024291D03*
X024470Y024291D03*
X024982Y024291D03*
X023564Y024291D03*
X022816Y025039D03*
X022304Y025039D03*
X021163Y025078D03*
X020651Y025078D03*
D15*
X021954Y024047D03*
X022009Y021830D03*
X022009Y021082D03*
X027600Y022224D03*
X027600Y022972D03*
X028466Y022972D03*
X028466Y022224D03*
X029174Y015098D03*
X029174Y014350D03*
X030237Y014311D03*
X030237Y015059D03*
X026104Y015295D03*
X026104Y014547D03*
X024844Y014389D03*
X024844Y015137D03*
X021714Y015019D03*
X021714Y014271D03*
X020592Y014271D03*
X020592Y015019D03*
X017029Y015098D03*
X017029Y014350D03*
X015907Y014350D03*
X015907Y015098D03*
X012442Y015059D03*
X011340Y015019D03*
X011340Y014271D03*
X012442Y014311D03*
D16*
X005395Y016555D03*
X005395Y017145D03*
X005434Y023405D03*
X005434Y023996D03*
X005356Y029704D03*
X005356Y030295D03*
X006753Y004508D03*
X006753Y003917D03*
X030651Y003799D03*
X030651Y004389D03*
X033348Y004389D03*
X033348Y003799D03*
X036025Y003799D03*
X036025Y004389D03*
X038308Y020334D03*
X038308Y020925D03*
D17*
X025360Y017087D03*
X024450Y017087D03*
X023540Y017087D03*
X021187Y017047D03*
X020277Y017047D03*
X019367Y017047D03*
X017643Y017087D03*
X016734Y017087D03*
X015824Y017087D03*
D18*
X016734Y019527D03*
X020277Y019487D03*
X024450Y019527D03*
D19*
X023505Y023287D03*
X023505Y023799D03*
X031517Y021515D03*
X031517Y021004D03*
X037757Y020807D03*
X037757Y020295D03*
X032088Y013523D03*
X031615Y013523D03*
X031615Y013011D03*
X032088Y013011D03*
X031930Y010689D03*
X031930Y010177D03*
X027482Y013169D03*
X027029Y013169D03*
X027029Y013681D03*
X027482Y013681D03*
X027088Y010748D03*
X027088Y010236D03*
X023210Y013248D03*
X022797Y013110D03*
X022797Y013622D03*
X023210Y013760D03*
X022954Y010886D03*
X022954Y010374D03*
X018525Y013130D03*
X018092Y013130D03*
X018092Y013641D03*
X018525Y013641D03*
X018111Y010886D03*
X018111Y010374D03*
X014135Y012972D03*
X013623Y012972D03*
X013623Y013484D03*
X014135Y013484D03*
X013623Y011004D03*
X013623Y010492D03*
X007403Y013445D03*
X007403Y013956D03*
X007442Y015295D03*
X007442Y015807D03*
X005907Y016673D03*
X005907Y017185D03*
X005958Y018464D03*
X005474Y018464D03*
X005474Y018976D03*
X005958Y018976D03*
X007482Y020413D03*
X007482Y020925D03*
X007403Y022185D03*
X007403Y022697D03*
X006025Y023484D03*
X006025Y023996D03*
X006072Y025173D03*
X005631Y025173D03*
X005631Y025685D03*
X006072Y025685D03*
X007363Y026673D03*
X007363Y027185D03*
X007324Y028523D03*
X007324Y029035D03*
X005828Y029704D03*
X005828Y030216D03*
X011619Y024425D03*
X011619Y023913D03*
X012151Y023917D03*
X012151Y024429D03*
X012682Y024425D03*
X013151Y024429D03*
X013623Y024429D03*
X014127Y024421D03*
X014604Y024441D03*
X014604Y023929D03*
X014127Y023909D03*
X013623Y023917D03*
X013151Y023917D03*
X012682Y023913D03*
X005966Y012441D03*
X005470Y012445D03*
X005470Y011933D03*
X005966Y011929D03*
X030631Y005492D03*
X030631Y004980D03*
X033348Y005019D03*
X033348Y005531D03*
X036064Y005610D03*
X036064Y005098D03*
D20*
X014222Y019678D03*
X014222Y019928D03*
X014222Y020188D03*
X014222Y020438D03*
X014222Y020698D03*
X014222Y020958D03*
X014222Y021208D03*
X014222Y021468D03*
X014222Y021718D03*
X014222Y021978D03*
X014222Y022238D03*
X014222Y022488D03*
X014222Y022748D03*
X014222Y022998D03*
X011922Y022998D03*
X011922Y022748D03*
X011922Y022488D03*
X011922Y022238D03*
X011922Y021978D03*
X011922Y021718D03*
X011922Y021468D03*
X011922Y021208D03*
X011922Y020958D03*
X011922Y020698D03*
X011922Y020438D03*
X011922Y020188D03*
X011922Y019928D03*
X011922Y019678D03*
D21*
X010214Y028322D02*
X010214Y028922D01*
X009214Y028922D02*
X009214Y028322D01*
X008214Y028322D02*
X008214Y028922D01*
X011678Y028961D02*
X011678Y028361D01*
X012678Y028361D02*
X012678Y028961D01*
X013678Y028961D02*
X013678Y028361D01*
X015300Y028361D02*
X015300Y028961D01*
X016300Y028961D02*
X016300Y028361D01*
X017300Y028361D02*
X017300Y028961D01*
X019198Y028922D02*
X019198Y028322D01*
X020198Y028322D02*
X020198Y028922D01*
X021198Y028922D02*
X021198Y028322D01*
X022466Y028361D02*
X022466Y028961D01*
X023466Y028961D02*
X023466Y028361D01*
X024466Y028361D02*
X024466Y028961D01*
X025734Y028961D02*
X025734Y028361D01*
X026734Y028361D02*
X026734Y028961D01*
X027734Y028961D02*
X027734Y028361D01*
X029041Y028361D02*
X029041Y028961D01*
X030041Y028961D02*
X030041Y028361D01*
X031041Y028361D02*
X031041Y028961D01*
X032387Y028961D02*
X032387Y028361D01*
X033387Y028361D02*
X033387Y028961D01*
X034387Y028961D02*
X034387Y028361D01*
X035734Y028322D02*
X035734Y028922D01*
X036734Y028922D02*
X036734Y028322D01*
X037734Y028322D02*
X037734Y028922D01*
X037863Y005851D02*
X037863Y005251D01*
X036863Y005251D02*
X036863Y005851D01*
X035186Y005811D02*
X035186Y005211D01*
X034186Y005211D02*
X034186Y005811D01*
X032509Y005851D02*
X032509Y005251D01*
X031509Y005251D02*
X031509Y005851D01*
X029100Y005851D02*
X029100Y005251D01*
X028100Y005251D02*
X028100Y005851D01*
X027100Y005851D02*
X027100Y005251D01*
X026100Y005251D02*
X026100Y005851D01*
X024611Y005811D02*
X024611Y005211D01*
X023611Y005211D02*
X023611Y005811D01*
X022611Y005811D02*
X022611Y005211D01*
X021611Y005211D02*
X021611Y005811D01*
X020123Y005811D02*
X020123Y005211D01*
X019123Y005211D02*
X019123Y005811D01*
X018123Y005811D02*
X018123Y005211D01*
X017123Y005211D02*
X017123Y005811D01*
X015635Y005811D02*
X015635Y005211D01*
X014635Y005211D02*
X014635Y005811D01*
X013635Y005811D02*
X013635Y005211D01*
X012635Y005211D02*
X012635Y005811D01*
X011147Y005811D02*
X011147Y005211D01*
X010147Y005211D02*
X010147Y005811D01*
X009147Y005811D02*
X009147Y005211D01*
X008147Y005211D02*
X008147Y005811D01*
D22*
X004500Y004874D02*
X003675Y004874D01*
X003675Y006874D02*
X004500Y006874D01*
X004500Y008874D02*
X003675Y008874D01*
X003675Y010874D02*
X004500Y010874D01*
X004500Y013724D02*
X003675Y013724D01*
X003675Y015724D02*
X004500Y015724D01*
X004500Y018574D02*
X003675Y018574D01*
X003675Y020574D02*
X004500Y020574D01*
X004500Y022574D02*
X003675Y022574D01*
X003675Y024574D02*
X004500Y024574D01*
X004500Y027425D02*
X003675Y027425D01*
X003675Y029425D02*
X004500Y029425D01*
D23*
X033505Y023649D03*
X033505Y022649D03*
X036891Y022649D03*
X036891Y023649D03*
D24*
X008899Y009862D03*
X008899Y007303D03*
D25*
X007521Y011634D03*
X007521Y012382D03*
X006497Y012382D03*
X006497Y012008D03*
X006497Y011634D03*
X006576Y018169D03*
X006576Y018543D03*
X006576Y018917D03*
X007600Y018917D03*
X007600Y018169D03*
X007639Y024783D03*
X007639Y025531D03*
X006615Y025531D03*
X006615Y025157D03*
X006615Y024783D03*
D26*
X006393Y026811D03*
X005893Y026811D03*
X005393Y026811D03*
X006893Y026811D03*
X006893Y029094D03*
X006393Y029094D03*
X005893Y029094D03*
X005393Y029094D03*
X005393Y022677D03*
X005893Y022677D03*
X006393Y022677D03*
X006893Y022677D03*
X006893Y020393D03*
X006393Y020393D03*
X005893Y020393D03*
X005393Y020393D03*
X005472Y015787D03*
X005972Y015787D03*
X006472Y015787D03*
X006972Y015787D03*
X006972Y013504D03*
X006472Y013504D03*
X005972Y013504D03*
X005472Y013504D03*
D27*
X029569Y020886D02*
X029745Y020886D01*
X029745Y021082D02*
X029569Y021082D01*
X029569Y021279D02*
X029745Y021279D01*
X029745Y021476D02*
X029569Y021476D01*
X029942Y021673D02*
X029942Y021849D01*
X030139Y021849D02*
X030139Y021673D01*
X030336Y021673D02*
X030336Y021849D01*
X030533Y021849D02*
X030533Y021673D01*
X030730Y021476D02*
X030906Y021476D01*
X030906Y021279D02*
X030730Y021279D01*
X030730Y021082D02*
X030906Y021082D01*
X030906Y020886D02*
X030730Y020886D01*
X030533Y020688D02*
X030533Y020512D01*
X030336Y020512D02*
X030336Y020688D01*
X030139Y020688D02*
X030139Y020512D01*
X029942Y020512D02*
X029942Y020688D01*
D28*
X030237Y021181D03*
D29*
X028505Y021338D03*
X027600Y021338D03*
X027600Y020236D03*
X028505Y020236D03*
D30*
X029627Y023543D03*
X031084Y023543D03*
D31*
X022816Y023541D03*
X022816Y023797D03*
X022816Y024053D03*
X022816Y024309D03*
X022816Y024565D03*
X021045Y024565D03*
X021045Y024309D03*
X021045Y024053D03*
X021045Y023797D03*
X021045Y023541D03*
D32*
X020159Y024173D03*
X019056Y024173D03*
D33*
X016773Y022992D03*
X016773Y021417D03*
D34*
X019214Y021063D03*
X019214Y023267D03*
D35*
X006655Y009730D03*
X005316Y009730D03*
X005316Y005899D03*
X006655Y005899D03*
M02*
