G75*
G70*
%OFA0B0*%
%FSLAX24Y24*%
%IPPOS*%
%LPD*%
%AMOC8*
5,1,8,0,0,1.08239X$1,22.5*
%
%ADD10C,0.0000*%
%ADD11OC8,0.0640*%
%ADD12R,0.0620X0.0180*%
%ADD13R,0.0430X0.0160*%
%ADD14R,0.0394X0.0316*%
%ADD15R,0.0316X0.0394*%
%ADD16C,0.0640*%
%ADD17C,0.0865*%
%ADD18R,0.0827X0.0827*%
%ADD19R,0.0820X0.0250*%
%ADD20C,0.0985*%
D10*
X000474Y003346D02*
X006615Y003346D01*
X006616Y003346D02*
X006657Y003350D01*
X006699Y003358D01*
X006739Y003369D01*
X006778Y003384D01*
X006815Y003403D01*
X006851Y003425D01*
X006884Y003450D01*
X006915Y003478D01*
X006944Y003509D01*
X006969Y003542D01*
X006991Y003577D01*
X007010Y003615D01*
X007025Y003654D01*
X007037Y003694D01*
X007044Y003735D01*
X007048Y003777D01*
X007049Y003819D01*
X007049Y004921D01*
X007324Y004921D01*
X007324Y003858D01*
X007323Y003821D01*
X007327Y003784D01*
X007334Y003748D01*
X007344Y003713D01*
X007358Y003679D01*
X007376Y003646D01*
X007396Y003616D01*
X007419Y003587D01*
X007445Y003561D01*
X007474Y003538D01*
X007504Y003517D01*
X007536Y003500D01*
X007570Y003485D01*
X007606Y003475D01*
X007642Y003467D01*
X007678Y003464D01*
X029686Y003464D01*
X029714Y003466D01*
X029742Y003471D01*
X029770Y003479D01*
X029796Y003491D01*
X029820Y003506D01*
X029842Y003523D01*
X029863Y003544D01*
X029880Y003566D01*
X029895Y003590D01*
X029907Y003616D01*
X029915Y003644D01*
X029920Y003672D01*
X029922Y003700D01*
X029923Y003700D02*
X029923Y004527D01*
X030237Y004527D01*
X030237Y003700D01*
X030238Y003700D02*
X030240Y003672D01*
X030245Y003644D01*
X030253Y003616D01*
X030265Y003590D01*
X030280Y003566D01*
X030297Y003544D01*
X030318Y003523D01*
X030340Y003506D01*
X030364Y003491D01*
X030390Y003479D01*
X030418Y003471D01*
X030446Y003466D01*
X030474Y003464D01*
X037993Y003464D01*
X037994Y003464D02*
X038052Y003475D01*
X038109Y003489D01*
X038165Y003506D01*
X038219Y003528D01*
X038273Y003552D01*
X038325Y003580D01*
X038374Y003611D01*
X038422Y003645D01*
X038468Y003682D01*
X038511Y003722D01*
X038552Y003764D01*
X038589Y003809D01*
X038624Y003856D01*
X038656Y003906D01*
X038685Y003957D01*
X038711Y004010D01*
X038733Y004064D01*
X038751Y004120D01*
X038767Y004177D01*
X038778Y004234D01*
X038786Y004292D01*
X038790Y004351D01*
X038791Y004410D01*
X038788Y004468D01*
X038781Y004527D01*
X038781Y012795D01*
X033545Y012795D01*
X033545Y019882D01*
X038663Y019882D01*
X038643Y029882D01*
X038640Y029942D01*
X038633Y030002D01*
X038622Y030062D01*
X038608Y030121D01*
X038589Y030179D01*
X038568Y030235D01*
X038543Y030291D01*
X038514Y030344D01*
X038482Y030396D01*
X038447Y030445D01*
X038409Y030492D01*
X038368Y030537D01*
X038324Y030579D01*
X038278Y030618D01*
X038229Y030654D01*
X038178Y030687D01*
X038126Y030717D01*
X038071Y030743D01*
X038015Y030766D01*
X037957Y030786D01*
X037899Y030801D01*
X037839Y030813D01*
X037779Y030822D01*
X037719Y030826D01*
X037658Y030827D01*
X037659Y030826D02*
X018545Y030826D01*
X018545Y030827D02*
X018514Y030825D01*
X018484Y030820D01*
X018454Y030812D01*
X018425Y030800D01*
X018398Y030785D01*
X018373Y030767D01*
X018350Y030746D01*
X018329Y030723D01*
X018311Y030698D01*
X018296Y030671D01*
X018284Y030642D01*
X018276Y030612D01*
X018271Y030582D01*
X018269Y030551D01*
X018269Y029330D01*
X017993Y029330D01*
X017993Y030551D01*
X017994Y030551D02*
X017992Y030582D01*
X017987Y030612D01*
X017979Y030642D01*
X017967Y030671D01*
X017952Y030698D01*
X017934Y030723D01*
X017913Y030746D01*
X017890Y030767D01*
X017865Y030785D01*
X017838Y030800D01*
X017809Y030812D01*
X017779Y030820D01*
X017749Y030825D01*
X017718Y030827D01*
X017718Y030826D02*
X007797Y030826D01*
X007756Y030824D01*
X007715Y030819D01*
X007675Y030810D01*
X007636Y030798D01*
X007598Y030782D01*
X007561Y030763D01*
X007526Y030741D01*
X007494Y030716D01*
X007463Y030688D01*
X007435Y030657D01*
X007410Y030625D01*
X007388Y030590D01*
X007369Y030553D01*
X007353Y030515D01*
X007341Y030476D01*
X007332Y030436D01*
X007327Y030395D01*
X007325Y030354D01*
X007324Y030354D02*
X007324Y029409D01*
X007009Y029409D01*
X007009Y030354D01*
X007010Y030354D02*
X007006Y030397D01*
X006999Y030439D01*
X006988Y030481D01*
X006973Y030521D01*
X006955Y030560D01*
X006934Y030597D01*
X006909Y030633D01*
X006882Y030666D01*
X006851Y030696D01*
X006819Y030724D01*
X006783Y030749D01*
X006746Y030770D01*
X006707Y030789D01*
X006667Y030804D01*
X006625Y030815D01*
X006583Y030823D01*
X006540Y030826D01*
X006497Y030827D01*
X006497Y030826D02*
X000474Y030826D01*
X000474Y003346D01*
D11*
X011340Y007137D03*
X012340Y007137D03*
X013340Y007137D03*
X014340Y007137D03*
X015340Y007137D03*
X016340Y007137D03*
X017340Y007137D03*
X018340Y007137D03*
X019340Y007137D03*
X020340Y007137D03*
X021340Y007137D03*
X022340Y007137D03*
X023340Y007137D03*
X024340Y007137D03*
X025340Y007137D03*
X026340Y007137D03*
X027340Y007137D03*
X028340Y007137D03*
X029340Y007137D03*
X030340Y007137D03*
X031340Y007137D03*
X032340Y007137D03*
X033340Y007137D03*
X033340Y008137D03*
X032340Y008137D03*
X031340Y008137D03*
X030340Y008137D03*
X029340Y008137D03*
X028340Y008137D03*
X027340Y008137D03*
X026340Y008137D03*
X025340Y008137D03*
X024340Y008137D03*
X023340Y008137D03*
X022340Y008137D03*
X021340Y008137D03*
X020340Y008137D03*
X019340Y008137D03*
X018340Y008137D03*
X017340Y008137D03*
X016340Y008137D03*
X015340Y008137D03*
X014340Y008137D03*
X013340Y008137D03*
X012340Y008137D03*
X011340Y008137D03*
X011277Y026130D03*
X012277Y026130D03*
X013277Y026130D03*
X013277Y027130D03*
X012277Y027130D03*
X011277Y027130D03*
X014277Y027130D03*
X015277Y027130D03*
X016277Y027130D03*
X017277Y027130D03*
X018277Y027130D03*
X019277Y027130D03*
X020277Y027130D03*
X021277Y027130D03*
X022277Y027130D03*
X023277Y027130D03*
X024277Y027130D03*
X025277Y027130D03*
X026277Y027130D03*
X027277Y027130D03*
X028277Y027130D03*
X029277Y027130D03*
X030277Y027130D03*
X031277Y027130D03*
X032277Y027130D03*
X033277Y027130D03*
X033277Y026130D03*
X032277Y026130D03*
X031277Y026130D03*
X030277Y026130D03*
X029277Y026130D03*
X028277Y026130D03*
X027277Y026130D03*
X026277Y026130D03*
X025277Y026130D03*
X024277Y026130D03*
X023277Y026130D03*
X022277Y026130D03*
X021277Y026130D03*
X020277Y026130D03*
X019277Y026130D03*
X018277Y026130D03*
X017277Y026130D03*
X016277Y026130D03*
X015277Y026130D03*
X014277Y026130D03*
D12*
X015741Y016766D03*
X015741Y016506D03*
X015741Y016246D03*
X015741Y015996D03*
X015741Y015736D03*
X015741Y015486D03*
X015741Y015226D03*
X015741Y014966D03*
X018041Y014966D03*
X018041Y015226D03*
X018041Y015486D03*
X018041Y015736D03*
X018041Y015996D03*
X018041Y016246D03*
X018041Y016506D03*
X018041Y016766D03*
X019954Y016845D03*
X019954Y016585D03*
X019954Y016325D03*
X019954Y016075D03*
X019954Y015815D03*
X019954Y015565D03*
X019954Y015305D03*
X019954Y015045D03*
X022254Y015045D03*
X022254Y015305D03*
X022254Y015565D03*
X022254Y015815D03*
X022254Y016075D03*
X022254Y016325D03*
X022254Y016585D03*
X022254Y016845D03*
X024166Y016845D03*
X024166Y016585D03*
X024166Y016325D03*
X024166Y016075D03*
X024166Y015815D03*
X024166Y015565D03*
X024166Y015305D03*
X024166Y015045D03*
X026466Y015045D03*
X026466Y015305D03*
X026466Y015565D03*
X026466Y015815D03*
X026466Y016075D03*
X026466Y016325D03*
X026466Y016585D03*
X026466Y016845D03*
X028576Y016845D03*
X028576Y016585D03*
X028576Y016325D03*
X028576Y016075D03*
X028576Y015815D03*
X028576Y015565D03*
X028576Y015305D03*
X028576Y015045D03*
X030876Y015045D03*
X030876Y015305D03*
X030876Y015565D03*
X030876Y015815D03*
X030876Y016075D03*
X030876Y016325D03*
X030876Y016585D03*
X030876Y016845D03*
X013159Y016687D03*
X013159Y016427D03*
X013159Y016167D03*
X013159Y015917D03*
X013159Y015657D03*
X013159Y015407D03*
X013159Y015147D03*
X013159Y014887D03*
X010859Y014887D03*
X010859Y015147D03*
X010859Y015407D03*
X010859Y015657D03*
X010859Y015917D03*
X010859Y016167D03*
X010859Y016427D03*
X010859Y016687D03*
D13*
X020073Y017962D03*
X020073Y018218D03*
X020073Y018474D03*
X020073Y018730D03*
X020073Y018986D03*
X020073Y019242D03*
X020073Y019498D03*
X020073Y019754D03*
X022370Y019754D03*
X022370Y019498D03*
X022370Y019242D03*
X022370Y018986D03*
X022370Y018730D03*
X022370Y018474D03*
X022370Y018218D03*
X022370Y017962D03*
D14*
X017206Y029901D03*
X017206Y030413D03*
X015434Y030374D03*
X015434Y029862D03*
X014923Y029901D03*
X014923Y030413D03*
X013663Y030334D03*
X013663Y029823D03*
X012049Y029823D03*
X012049Y030334D03*
X011497Y030334D03*
X011497Y029823D03*
X010277Y029862D03*
X010277Y030374D03*
X008741Y030374D03*
X008741Y029862D03*
X008033Y029862D03*
X008033Y030374D03*
X006202Y004429D03*
X006202Y003917D03*
D15*
X012564Y014460D03*
X013076Y014460D03*
X012304Y017165D03*
X011793Y017165D03*
X016674Y017480D03*
X017186Y017480D03*
X017265Y014488D03*
X017777Y014488D03*
X021163Y017165D03*
X021674Y017165D03*
X021596Y014704D03*
X022108Y014704D03*
X025021Y017283D03*
X025533Y017283D03*
X025926Y014645D03*
X026438Y014645D03*
X030297Y014606D03*
X030808Y014606D03*
X029863Y017756D03*
X029352Y017756D03*
X033997Y023208D03*
X034509Y023208D03*
X034509Y023661D03*
X033997Y023661D03*
X033997Y024173D03*
X034509Y024173D03*
X036718Y022578D03*
X037230Y022578D03*
X022423Y020275D03*
X021911Y020275D03*
X013092Y030354D03*
X012580Y030354D03*
X009785Y030393D03*
X009273Y030393D03*
X015966Y030433D03*
X016478Y030433D03*
D16*
X016300Y028961D02*
X016300Y028361D01*
X017300Y028361D02*
X017300Y028961D01*
X019198Y028922D02*
X019198Y028322D01*
X020198Y028322D02*
X020198Y028922D01*
X021198Y028922D02*
X021198Y028322D01*
X022466Y028361D02*
X022466Y028961D01*
X023466Y028961D02*
X023466Y028361D01*
X024466Y028361D02*
X024466Y028961D01*
X025734Y028961D02*
X025734Y028361D01*
X026734Y028361D02*
X026734Y028961D01*
X027734Y028961D02*
X027734Y028361D01*
X029041Y028361D02*
X029041Y028961D01*
X030041Y028961D02*
X030041Y028361D01*
X031041Y028361D02*
X031041Y028961D01*
X032387Y028961D02*
X032387Y028361D01*
X033387Y028361D02*
X033387Y028961D01*
X034387Y028961D02*
X034387Y028361D01*
X035734Y028322D02*
X035734Y028922D01*
X036734Y028922D02*
X036734Y028322D01*
X037734Y028322D02*
X037734Y028922D01*
X015300Y028961D02*
X015300Y028361D01*
X013678Y028361D02*
X013678Y028961D01*
X012678Y028961D02*
X012678Y028361D01*
X011678Y028361D02*
X011678Y028961D01*
X010214Y028922D02*
X010214Y028322D01*
X009214Y028322D02*
X009214Y028922D01*
X008214Y028922D02*
X008214Y028322D01*
X008147Y005811D02*
X008147Y005211D01*
X009147Y005211D02*
X009147Y005811D01*
X010147Y005811D02*
X010147Y005211D01*
X011147Y005211D02*
X011147Y005811D01*
X012635Y005811D02*
X012635Y005211D01*
X013635Y005211D02*
X013635Y005811D01*
X014635Y005811D02*
X014635Y005211D01*
X015635Y005211D02*
X015635Y005811D01*
X017123Y005811D02*
X017123Y005211D01*
X018123Y005211D02*
X018123Y005811D01*
X019123Y005811D02*
X019123Y005211D01*
X020123Y005211D02*
X020123Y005811D01*
X021611Y005811D02*
X021611Y005211D01*
X022611Y005211D02*
X022611Y005811D01*
X023611Y005811D02*
X023611Y005211D01*
X024611Y005211D02*
X024611Y005811D01*
X026100Y005851D02*
X026100Y005251D01*
X027100Y005251D02*
X027100Y005851D01*
X028100Y005851D02*
X028100Y005251D01*
X029100Y005251D02*
X029100Y005851D01*
X031509Y005851D02*
X031509Y005251D01*
X032509Y005251D02*
X032509Y005851D01*
X034186Y005811D02*
X034186Y005211D01*
X035186Y005211D02*
X035186Y005811D01*
X036863Y005851D02*
X036863Y005251D01*
X037863Y005251D02*
X037863Y005851D01*
D17*
X004500Y004874D02*
X003675Y004874D01*
X003675Y006874D02*
X004500Y006874D01*
X004500Y008874D02*
X003675Y008874D01*
X003675Y010874D02*
X004500Y010874D01*
X004500Y013724D02*
X003675Y013724D01*
X003675Y015724D02*
X004500Y015724D01*
X004500Y018574D02*
X003675Y018574D01*
X003675Y020574D02*
X004500Y020574D01*
X004500Y022574D02*
X003675Y022574D01*
X003675Y024574D02*
X004500Y024574D01*
X004500Y027425D02*
X003675Y027425D01*
X003675Y029425D02*
X004500Y029425D01*
D18*
X002403Y029370D03*
X002403Y027795D03*
X002403Y022716D03*
X002403Y021141D03*
X002482Y015511D03*
X002482Y013937D03*
D19*
X035330Y023187D03*
X035330Y023687D03*
X035330Y024187D03*
X035330Y024687D03*
X037270Y024687D03*
X037270Y024187D03*
X037270Y023687D03*
X037270Y023187D03*
D20*
X006655Y009730D03*
X005316Y009730D03*
X005316Y005899D03*
X006655Y005899D03*
M02*
