G75*
%MOIN*%
%OFA0B0*%
%FSLAX24Y24*%
%IPPOS*%
%LPD*%
%AMOC8*
5,1,8,0,0,1.08239X$1,22.5*
%
%ADD10C,0.0000*%
%ADD11R,0.0138X0.0394*%
%ADD12R,0.1969X0.1181*%
%ADD13R,0.0140X0.0580*%
%ADD14R,0.0120X0.0390*%
%ADD15R,0.0354X0.0276*%
%ADD16R,0.0591X0.0512*%
%ADD17R,0.0315X0.0315*%
%ADD18R,0.0480X0.0880*%
%ADD19R,0.1417X0.0866*%
%ADD20R,0.0276X0.0354*%
%ADD21R,0.0580X0.0140*%
%ADD22R,0.0433X0.0394*%
%ADD23R,0.0394X0.0433*%
%ADD24R,0.0445X0.0961*%
%ADD25R,0.0984X0.1378*%
%ADD26R,0.0787X0.0787*%
%ADD27C,0.0118*%
%ADD28R,0.0709X0.0709*%
%ADD29R,0.0709X0.0630*%
%ADD30R,0.0551X0.1969*%
%ADD31R,0.0394X0.0118*%
%ADD32R,0.0630X0.0709*%
%ADD33R,0.2953X0.0709*%
%ADD34R,0.0780X0.0210*%
%ADD35R,0.0433X0.0197*%
%ADD36R,0.1378X0.1693*%
%ADD37R,0.0472X0.0217*%
D10*
X002484Y003433D02*
X009806Y003433D01*
X009807Y003433D02*
X009841Y003436D01*
X009875Y003443D01*
X009909Y003454D01*
X009941Y003467D01*
X009971Y003484D01*
X010000Y003503D01*
X010027Y003525D01*
X010052Y003550D01*
X010073Y003577D01*
X010093Y003606D01*
X010109Y003637D01*
X010122Y003670D01*
X010132Y003703D01*
X010138Y003737D01*
X010142Y003772D01*
X010141Y003807D01*
X010141Y004614D01*
X010417Y004614D01*
X010417Y003846D01*
X010416Y003847D02*
X010415Y003809D01*
X010418Y003771D01*
X010424Y003734D01*
X010434Y003697D01*
X010448Y003662D01*
X010464Y003628D01*
X010485Y003596D01*
X010508Y003566D01*
X010534Y003539D01*
X010562Y003514D01*
X010593Y003492D01*
X010626Y003474D01*
X010660Y003458D01*
X010696Y003446D01*
X010733Y003438D01*
X010770Y003433D01*
X010771Y003433D02*
X032779Y003433D01*
X032808Y003436D01*
X032837Y003443D01*
X032865Y003453D01*
X032892Y003466D01*
X032917Y003482D01*
X032939Y003502D01*
X032960Y003523D01*
X032977Y003547D01*
X032991Y003573D01*
X033002Y003601D01*
X033010Y003630D01*
X033014Y003659D01*
X033015Y003689D01*
X033015Y004516D01*
X033330Y004516D01*
X033330Y003689D01*
X033331Y003659D01*
X033335Y003630D01*
X033343Y003601D01*
X033354Y003573D01*
X033368Y003547D01*
X033385Y003523D01*
X033406Y003502D01*
X033428Y003482D01*
X033453Y003466D01*
X033480Y003453D01*
X033508Y003443D01*
X033537Y003436D01*
X033566Y003433D01*
X041361Y003433D01*
X041402Y003432D01*
X041442Y003435D01*
X041482Y003441D01*
X041522Y003451D01*
X041560Y003464D01*
X041597Y003480D01*
X041632Y003500D01*
X041666Y003522D01*
X041698Y003548D01*
X041727Y003576D01*
X041753Y003606D01*
X041777Y003639D01*
X041798Y003674D01*
X041816Y003710D01*
X041831Y003748D01*
X041842Y003786D01*
X041850Y003826D01*
X041854Y003866D01*
X041854Y012783D01*
X036417Y012783D01*
X036417Y019870D01*
X041854Y019870D01*
X041854Y030402D01*
X041854Y030401D02*
X041849Y030441D01*
X041841Y030480D01*
X041829Y030519D01*
X041814Y030556D01*
X041796Y030592D01*
X041775Y030626D01*
X041751Y030658D01*
X041724Y030688D01*
X041695Y030715D01*
X041664Y030740D01*
X041630Y030762D01*
X041595Y030781D01*
X041558Y030796D01*
X041520Y030809D01*
X041481Y030818D01*
X041442Y030824D01*
X041402Y030826D01*
X041362Y030825D01*
X041361Y030825D02*
X026056Y030825D01*
X026028Y030820D01*
X026000Y030812D01*
X025973Y030800D01*
X025947Y030786D01*
X025924Y030768D01*
X025903Y030748D01*
X025885Y030725D01*
X025869Y030701D01*
X025856Y030674D01*
X025847Y030646D01*
X025841Y030618D01*
X025839Y030589D01*
X025840Y030559D01*
X025840Y029634D01*
X025584Y029634D01*
X025584Y030539D01*
X025585Y030570D01*
X025582Y030601D01*
X025575Y030631D01*
X025564Y030661D01*
X025550Y030688D01*
X025533Y030714D01*
X025513Y030738D01*
X025490Y030759D01*
X025465Y030777D01*
X025437Y030792D01*
X025408Y030803D01*
X025378Y030811D01*
X025348Y030815D01*
X022365Y030815D01*
X022366Y030815D02*
X022338Y030808D01*
X022310Y030798D01*
X022285Y030785D01*
X022261Y030769D01*
X022239Y030751D01*
X022219Y030729D01*
X022202Y030706D01*
X022189Y030681D01*
X022178Y030654D01*
X022171Y030626D01*
X022167Y030597D01*
X022166Y030568D01*
X022169Y030540D01*
X022169Y030539D02*
X022169Y029614D01*
X021913Y029614D01*
X021913Y030539D01*
X021912Y030540D02*
X021915Y030568D01*
X021914Y030597D01*
X021910Y030626D01*
X021903Y030654D01*
X021892Y030681D01*
X021879Y030706D01*
X021862Y030729D01*
X021842Y030751D01*
X021820Y030769D01*
X021796Y030785D01*
X021771Y030798D01*
X021743Y030808D01*
X021715Y030815D01*
X021716Y030815D02*
X010889Y030815D01*
X010848Y030813D01*
X010807Y030808D01*
X010767Y030799D01*
X010728Y030787D01*
X010690Y030771D01*
X010653Y030752D01*
X010618Y030730D01*
X010586Y030705D01*
X010555Y030677D01*
X010527Y030646D01*
X010502Y030614D01*
X010480Y030579D01*
X010461Y030542D01*
X010445Y030504D01*
X010433Y030465D01*
X010424Y030425D01*
X010419Y030384D01*
X010417Y030343D01*
X010417Y029398D01*
X010102Y029398D01*
X010102Y030343D01*
X010105Y030382D01*
X010104Y030421D01*
X010100Y030459D01*
X010093Y030498D01*
X010082Y030535D01*
X010067Y030571D01*
X010050Y030606D01*
X010029Y030639D01*
X010005Y030670D01*
X009978Y030698D01*
X009949Y030724D01*
X009918Y030747D01*
X009885Y030768D01*
X009850Y030785D01*
X009813Y030798D01*
X009776Y030809D01*
X009737Y030816D01*
X009737Y030815D02*
X002484Y030815D01*
X002484Y003433D01*
D11*
X010712Y012011D03*
X010968Y012011D03*
X011224Y012011D03*
X011480Y012011D03*
X011736Y012011D03*
X011991Y012011D03*
X012247Y012011D03*
X012503Y012011D03*
X012759Y012011D03*
X013015Y012011D03*
X013271Y012011D03*
X013527Y012011D03*
X013783Y012011D03*
X014039Y012011D03*
X015436Y012011D03*
X015692Y012011D03*
X015948Y012011D03*
X016204Y012011D03*
X016460Y012011D03*
X016716Y012011D03*
X016972Y012011D03*
X017228Y012011D03*
X017484Y012011D03*
X017739Y012011D03*
X017995Y012011D03*
X018251Y012011D03*
X018507Y012011D03*
X018763Y012011D03*
X020161Y012011D03*
X020417Y012011D03*
X020673Y012011D03*
X020928Y012011D03*
X021184Y012011D03*
X021440Y012011D03*
X021696Y012011D03*
X021952Y012011D03*
X022208Y012011D03*
X022464Y012011D03*
X022720Y012011D03*
X022976Y012011D03*
X023232Y012011D03*
X023487Y012011D03*
X024885Y012011D03*
X025141Y012011D03*
X025397Y012011D03*
X025653Y012011D03*
X025909Y012011D03*
X026165Y012011D03*
X026421Y012011D03*
X026676Y012011D03*
X026932Y012011D03*
X027188Y012011D03*
X027444Y012011D03*
X027700Y012011D03*
X027956Y012011D03*
X028212Y012011D03*
X029610Y012011D03*
X029865Y012011D03*
X030121Y012011D03*
X030377Y012011D03*
X030633Y012011D03*
X030889Y012011D03*
X031145Y012011D03*
X031401Y012011D03*
X031657Y012011D03*
X031913Y012011D03*
X032169Y012011D03*
X032424Y012011D03*
X032680Y012011D03*
X032936Y012011D03*
X032936Y014442D03*
X032680Y014442D03*
X032424Y014442D03*
X032169Y014442D03*
X031913Y014442D03*
X031657Y014442D03*
X031401Y014442D03*
X031145Y014442D03*
X030889Y014442D03*
X030633Y014442D03*
X030377Y014442D03*
X030121Y014442D03*
X029865Y014442D03*
X029610Y014442D03*
X028212Y014442D03*
X027956Y014442D03*
X027700Y014442D03*
X027444Y014442D03*
X027188Y014442D03*
X026932Y014442D03*
X026676Y014442D03*
X026421Y014442D03*
X026165Y014442D03*
X025909Y014442D03*
X025653Y014442D03*
X025397Y014442D03*
X025141Y014442D03*
X024885Y014442D03*
X023487Y014442D03*
X023232Y014442D03*
X022976Y014442D03*
X022720Y014442D03*
X022464Y014442D03*
X022208Y014442D03*
X021952Y014442D03*
X021696Y014442D03*
X021440Y014442D03*
X021184Y014442D03*
X020928Y014442D03*
X020673Y014442D03*
X020417Y014442D03*
X020161Y014442D03*
X018763Y014442D03*
X018507Y014442D03*
X018251Y014442D03*
X017995Y014442D03*
X017739Y014442D03*
X017484Y014442D03*
X017228Y014442D03*
X016972Y014442D03*
X016716Y014442D03*
X016460Y014442D03*
X016204Y014442D03*
X015948Y014442D03*
X015692Y014442D03*
X015436Y014442D03*
X014039Y014442D03*
X013783Y014442D03*
X013527Y014442D03*
X013271Y014442D03*
X013015Y014442D03*
X012759Y014442D03*
X012503Y014442D03*
X012247Y014442D03*
X011991Y014442D03*
X011736Y014442D03*
X011480Y014442D03*
X011224Y014442D03*
X010968Y014442D03*
X010712Y014442D03*
D12*
X012375Y013226D03*
X017100Y013226D03*
X021824Y013226D03*
X026549Y013226D03*
X031273Y013226D03*
D13*
X031157Y015817D03*
X031407Y015817D03*
X031667Y015817D03*
X031927Y015817D03*
X030897Y015817D03*
X030647Y015817D03*
X030387Y015817D03*
X030127Y015817D03*
X030127Y018117D03*
X030387Y018117D03*
X030647Y018117D03*
X030897Y018117D03*
X031157Y018117D03*
X031407Y018117D03*
X031667Y018117D03*
X031927Y018117D03*
X027202Y018117D03*
X026942Y018117D03*
X026682Y018117D03*
X026432Y018117D03*
X026172Y018117D03*
X025922Y018117D03*
X025662Y018117D03*
X025402Y018117D03*
X025402Y015817D03*
X025662Y015817D03*
X025922Y015817D03*
X026172Y015817D03*
X026432Y015817D03*
X026682Y015817D03*
X026942Y015817D03*
X027202Y015817D03*
X022478Y015817D03*
X022218Y015817D03*
X021958Y015817D03*
X021708Y015817D03*
X021448Y015817D03*
X021198Y015817D03*
X020938Y015817D03*
X020678Y015817D03*
X020678Y018117D03*
X020938Y018117D03*
X021198Y018117D03*
X021448Y018117D03*
X021708Y018117D03*
X021958Y018117D03*
X022218Y018117D03*
X022478Y018117D03*
X017754Y018117D03*
X017494Y018117D03*
X017234Y018117D03*
X016984Y018117D03*
X016724Y018117D03*
X016474Y018117D03*
X016214Y018117D03*
X015954Y018117D03*
X015954Y015817D03*
X016214Y015817D03*
X016474Y015817D03*
X016724Y015817D03*
X016984Y015817D03*
X017234Y015817D03*
X017494Y015817D03*
X017754Y015817D03*
X013029Y015817D03*
X012769Y015817D03*
X012509Y015817D03*
X012259Y015817D03*
X011999Y015817D03*
X011749Y015817D03*
X011489Y015817D03*
X011229Y015817D03*
X011229Y018117D03*
X011489Y018117D03*
X011749Y018117D03*
X011999Y018117D03*
X012259Y018117D03*
X012509Y018117D03*
X012769Y018117D03*
X013029Y018117D03*
D14*
X017562Y021566D03*
X017818Y021566D03*
X018074Y021566D03*
X018330Y021566D03*
X018586Y021566D03*
X018842Y021566D03*
X019098Y021566D03*
X019354Y021566D03*
X019354Y023863D03*
X019098Y023863D03*
X018842Y023863D03*
X018586Y023863D03*
X018330Y023863D03*
X018074Y023863D03*
X017818Y023863D03*
X017562Y023863D03*
D15*
X019836Y023866D03*
X019836Y024378D03*
X022154Y028117D03*
X022154Y028629D03*
X021539Y029821D03*
X021539Y030333D03*
X017621Y030333D03*
X017621Y029821D03*
X013950Y029821D03*
X013950Y030333D03*
X012090Y027547D03*
X012090Y027035D03*
X011558Y027026D03*
X011056Y027026D03*
X011056Y027537D03*
X011558Y027537D03*
X010407Y027557D03*
X010407Y027045D03*
X008143Y028177D03*
X008143Y028689D03*
X005928Y025392D03*
X005928Y024880D03*
X008094Y021701D03*
X008094Y021189D03*
X005928Y018453D03*
X005928Y017941D03*
X007552Y015598D03*
X007552Y015087D03*
X008143Y015087D03*
X008143Y015598D03*
X010023Y013883D03*
X010023Y013371D03*
X010013Y012610D03*
X010013Y012098D03*
X011084Y010864D03*
X011084Y010353D03*
X013786Y010863D03*
X013786Y011374D03*
X014865Y012272D03*
X014865Y012783D03*
X014856Y013453D03*
X014856Y013965D03*
X015623Y011346D03*
X015623Y010835D03*
X018645Y010835D03*
X018645Y011346D03*
X019592Y012164D03*
X019592Y012675D03*
X019592Y013374D03*
X019592Y013886D03*
X020387Y011346D03*
X020387Y010835D03*
X023251Y010835D03*
X023251Y011346D03*
X024275Y012311D03*
X024275Y012823D03*
X024275Y013523D03*
X024275Y014035D03*
X025111Y011346D03*
X025111Y010835D03*
X028015Y010795D03*
X028015Y011307D03*
X028999Y012154D03*
X028999Y012665D03*
X028989Y013374D03*
X028989Y013886D03*
X029836Y011346D03*
X029836Y010835D03*
X032659Y010835D03*
X032659Y011346D03*
X032356Y017055D03*
X032356Y017567D03*
X029756Y017715D03*
X029756Y018227D03*
X027631Y017567D03*
X027631Y017055D03*
X025031Y017555D03*
X025031Y018067D03*
X022907Y017567D03*
X022907Y017055D03*
X020267Y017525D03*
X020267Y018037D03*
X018182Y017567D03*
X018182Y017055D03*
X015562Y017565D03*
X015562Y018077D03*
X013409Y017567D03*
X013409Y017055D03*
X010829Y017565D03*
X010829Y018077D03*
X006224Y012498D03*
X006224Y011986D03*
X011440Y024437D03*
X011932Y024437D03*
X012424Y024437D03*
X012917Y024437D03*
X013409Y024437D03*
X013409Y024949D03*
X012917Y024949D03*
X012424Y024949D03*
X011932Y024949D03*
X011440Y024949D03*
X013901Y024949D03*
X013901Y024437D03*
X028419Y023659D03*
X028960Y023659D03*
X028960Y023148D03*
X028419Y023148D03*
X028615Y029457D03*
X028615Y029969D03*
X031125Y029969D03*
X031125Y029457D03*
X033635Y029457D03*
X033635Y029969D03*
X036145Y029969D03*
X036145Y029457D03*
X038655Y029457D03*
X038655Y029969D03*
X041165Y029969D03*
X041165Y029457D03*
X037090Y022537D03*
X037090Y022026D03*
X036480Y004388D03*
X036480Y003876D03*
X033793Y003876D03*
X033793Y004388D03*
X039196Y004388D03*
X039196Y003876D03*
D16*
X031765Y009260D03*
X031765Y010008D03*
X030928Y010008D03*
X030928Y009260D03*
X027041Y009260D03*
X027041Y010008D03*
X026204Y010008D03*
X026204Y009260D03*
X022316Y009260D03*
X022316Y010008D03*
X021480Y010008D03*
X021480Y009260D03*
X017592Y009260D03*
X017592Y010008D03*
X016755Y010008D03*
X016755Y009260D03*
X012867Y009260D03*
X012867Y010008D03*
X012031Y010008D03*
X012031Y009260D03*
X029108Y019841D03*
X029108Y020589D03*
X026533Y024065D03*
X033389Y023659D03*
X034236Y023659D03*
X034236Y022911D03*
X033389Y022911D03*
D17*
X040574Y020362D03*
X041165Y020362D03*
X039196Y005589D03*
X039196Y004998D03*
X036470Y004998D03*
X036470Y005589D03*
X033773Y005589D03*
X033773Y004998D03*
X008635Y005992D03*
X008045Y005992D03*
X007306Y012439D03*
X006716Y012439D03*
X006519Y018049D03*
X007110Y018049D03*
X007159Y024890D03*
X006568Y024890D03*
D18*
X033985Y009329D03*
X034895Y009329D03*
X035805Y009329D03*
X036761Y009329D03*
X037671Y009329D03*
X038580Y009329D03*
X039517Y009329D03*
X040426Y009329D03*
X041336Y009329D03*
D19*
X040426Y011769D03*
X037671Y011769D03*
X034895Y011769D03*
D20*
X035495Y020835D03*
X036007Y020835D03*
X037119Y024299D03*
X037631Y024299D03*
X040613Y024939D03*
X041125Y024939D03*
X041125Y025431D03*
X040613Y025431D03*
X040613Y025972D03*
X041125Y025972D03*
X041125Y020854D03*
X040613Y020854D03*
X028773Y024240D03*
X028261Y024240D03*
X028261Y024781D03*
X028773Y024781D03*
X027493Y025057D03*
X026982Y025057D03*
X024924Y023935D03*
X024413Y023935D03*
X017887Y028098D03*
X017887Y028581D03*
X017375Y028581D03*
X017375Y028098D03*
X017375Y029112D03*
X017887Y029112D03*
X014186Y028650D03*
X013674Y028650D03*
X013625Y028098D03*
X014137Y028098D03*
X014137Y029161D03*
X013625Y029161D03*
X009334Y028728D03*
X009334Y028236D03*
X008822Y028236D03*
X008822Y028728D03*
X007119Y025480D03*
X006608Y025480D03*
X006608Y024348D03*
X007119Y024348D03*
X008674Y023463D03*
X009186Y023463D03*
X009334Y021593D03*
X008822Y021593D03*
X008822Y021100D03*
X009334Y021100D03*
X007070Y018541D03*
X006558Y018541D03*
X006657Y017508D03*
X007169Y017508D03*
X008773Y017508D03*
X009285Y017508D03*
X009334Y015589D03*
X009334Y015096D03*
X008822Y015096D03*
X008822Y015589D03*
X007365Y011947D03*
X006854Y011947D03*
X008084Y006632D03*
X008596Y006632D03*
X014795Y024075D03*
X015306Y024075D03*
D21*
X014165Y023499D03*
X014165Y023249D03*
X014165Y022989D03*
X014165Y022739D03*
X014165Y022479D03*
X014165Y022219D03*
X014165Y021969D03*
X014165Y021709D03*
X014165Y021459D03*
X014165Y021199D03*
X014165Y020939D03*
X014165Y020689D03*
X014165Y020429D03*
X014165Y020179D03*
X011865Y020179D03*
X011865Y020429D03*
X011865Y020689D03*
X011865Y020939D03*
X011865Y021199D03*
X011865Y021459D03*
X011865Y021709D03*
X011865Y021969D03*
X011865Y022219D03*
X011865Y022479D03*
X011865Y022739D03*
X011865Y022989D03*
X011865Y023249D03*
X011865Y023499D03*
D22*
X033700Y012770D03*
X034369Y012770D03*
D23*
X028635Y011386D03*
X028635Y010717D03*
X023871Y010736D03*
X023871Y011406D03*
X019265Y011406D03*
X019265Y010736D03*
X014423Y010776D03*
X014423Y011445D03*
D24*
X038450Y020589D03*
X039450Y020589D03*
X039450Y023974D03*
X038450Y023974D03*
D25*
X031165Y024457D03*
X031165Y021898D03*
X009728Y010441D03*
X009728Y007882D03*
D26*
X006371Y015244D03*
X006371Y016819D03*
X006371Y021445D03*
X006371Y023020D03*
X006371Y028335D03*
X006371Y029909D03*
X024560Y021829D03*
X024560Y020254D03*
D27*
X035122Y021917D02*
X035298Y021917D01*
X035298Y022114D02*
X035122Y022114D01*
X035122Y022311D02*
X035298Y022311D01*
X035298Y022508D02*
X035122Y022508D01*
X035495Y022705D02*
X035495Y022881D01*
X035692Y022881D02*
X035692Y022705D01*
X035889Y022705D02*
X035889Y022881D01*
X036086Y022881D02*
X036086Y022705D01*
X036283Y022508D02*
X036459Y022508D01*
X036459Y022311D02*
X036283Y022311D01*
X036283Y022114D02*
X036459Y022114D01*
X036459Y021917D02*
X036283Y021917D01*
X036086Y021720D02*
X036086Y021544D01*
X035889Y021544D02*
X035889Y021720D01*
X035692Y021720D02*
X035692Y021544D01*
X035495Y021544D02*
X035495Y021720D01*
D28*
X035791Y022213D03*
D29*
X034255Y021858D03*
X033379Y021858D03*
X033379Y020756D03*
X034255Y020756D03*
D30*
X034964Y024299D03*
X036421Y024299D03*
D31*
X027493Y024270D03*
X027493Y024467D03*
X027493Y024071D03*
X027493Y023876D03*
X027493Y023679D03*
X025604Y023679D03*
X025604Y023876D03*
X025604Y024071D03*
X025604Y024270D03*
X025604Y024467D03*
D32*
X025279Y023118D03*
X024176Y023118D03*
D33*
X026991Y022006D03*
X026991Y019801D03*
D34*
X038029Y024976D03*
X038029Y025476D03*
X038029Y025976D03*
X038029Y026476D03*
X039969Y026476D03*
X039969Y025976D03*
X039969Y025476D03*
X039969Y024976D03*
D35*
X008153Y026108D03*
X008153Y026608D03*
X008153Y027108D03*
X008153Y027608D03*
X005869Y027608D03*
X005869Y027108D03*
X005869Y026608D03*
X005869Y026108D03*
X005869Y020571D03*
X005869Y020071D03*
X005869Y019571D03*
X005869Y019071D03*
X008153Y019071D03*
X008153Y019571D03*
X008153Y020071D03*
X008153Y020571D03*
X008153Y014469D03*
X008153Y013969D03*
X008153Y013469D03*
X008153Y012969D03*
X005869Y012969D03*
X005869Y013469D03*
X005869Y013969D03*
X005869Y014469D03*
D36*
X006716Y013719D03*
X006716Y019821D03*
X006716Y026858D03*
D37*
X008074Y029339D03*
X008074Y030087D03*
X009098Y030087D03*
X009098Y029713D03*
X009098Y029339D03*
X009098Y022902D03*
X009098Y022528D03*
X009098Y022154D03*
X008074Y022154D03*
X008074Y022902D03*
X008222Y016898D03*
X008222Y016150D03*
X009245Y016150D03*
X009245Y016524D03*
X009245Y016898D03*
M02*
