%
M48
M72
T01C0.0120
T02C0.0120
T03C0.0197
T04C0.0236
T05C0.0276
T06C0.0400
T07C0.0550
T08C0.0630
%
T01
X14147Y10264
X14442Y9841
X14442Y8896
X14836Y8650
X18330Y13965
X16952Y14850
X14934Y15539
X16657Y17606
X17001Y18591
X17395Y18837
X17641Y18591
X17641Y19132
X17001Y19280
X18379Y19870
X18084Y20510
X17838Y20805
X17838Y21150
X17198Y21888
X16706Y21789
X15180Y20215
X15525Y19870
X12474Y18591
X12523Y17606
X12228Y14850
X11194Y13925
X19117Y16720
X23202Y16770
X23891Y16474
X24644Y17311
X25663Y17311
X27188Y16770
X26155Y15244
X25613Y14014
X27188Y14014
X27828Y14014
X31174Y14014
X31667Y14801
X33045Y13276
X34084Y13443
X35648Y13312
X32897Y9811
X33143Y9516
X33438Y9457
X28468Y8896
X28419Y9978
X23596Y13571
X23399Y14063
X23104Y12833
X23448Y12488
X29846Y17360
X30436Y17360
X29157Y19033
X26745Y20362
X26401Y20362
X24088Y19280
X19511Y20461
X19117Y20215
X19610Y21100
X21184Y23512
X17297Y23856
X17198Y23512
X17936Y26711
X16460Y30057
X20987Y30286
X30486Y25185
X38015Y27055
X33989Y17695
X34718Y16967
X32897Y17065
X26204Y4762
X25121Y3679
X24728Y4171
X21726Y4663
T02
X19610Y6307
X23461Y9523
X24255Y10323
X24688Y10874
X23784Y11848
X22611Y12783
X22611Y13079
X22611Y13374
X22611Y13669
X22218Y13669
X22218Y13374
X22218Y13079
X22218Y12783
X21824Y12783
X21824Y13079
X21824Y13374
X21824Y13669
X21430Y13669
X21430Y13374
X21430Y13079
X21430Y12783
X21037Y12783
X21037Y13079
X21037Y13374
X21037Y13669
X19806Y14506
X19413Y14506
X19363Y15244
X19363Y15638
X19757Y15638
X19757Y15244
X17887Y13669
X17887Y13374
X17887Y13079
X17887Y12783
X17493Y12783
X17493Y13079
X17493Y13374
X17493Y13669
X17100Y13669
X17100Y13374
X17100Y13079
X17100Y12783
X16706Y12783
X16706Y13079
X16706Y13374
X16706Y13669
X16312Y13669
X16312Y13374
X16312Y13079
X16312Y12783
X14147Y13522
X13163Y13669
X13163Y13374
X13163Y13079
X13163Y12783
X12769Y12783
X12769Y13079
X12769Y13374
X12769Y13669
X12375Y13669
X12375Y13374
X12375Y13079
X12375Y12783
X11982Y12783
X11982Y13079
X11982Y13374
X11982Y13669
X11588Y13669
X11588Y13374
X11588Y13079
X11588Y12783
X13802Y12587
X14934Y9831
X14934Y9437
X15328Y9437
X15328Y9831
X13064Y8551
X12671Y8551
X12671Y8157
X12671Y7764
X13064Y7764
X13064Y8157
X18822Y12636
X18822Y13030
X19846Y9811
X19051Y9593
X23940Y15146
X23940Y15539
X24334Y15539
X24334Y15146
X25761Y13669
X25761Y13374
X25761Y13079
X25761Y12783
X26155Y12783
X26155Y13079
X26155Y13374
X26155Y13669
X26549Y13669
X26549Y13374
X26549Y13079
X26549Y12783
X26942Y12783
X26942Y13079
X26942Y13374
X26942Y13669
X27336Y13669
X27336Y13374
X27336Y13079
X27336Y12783
X30486Y12783
X30486Y13079
X30486Y13374
X30486Y13669
X30879Y13669
X30879Y13374
X30879Y13079
X30879Y12783
X31273Y12783
X31273Y13079
X31273Y13374
X31273Y13669
X31667Y13669
X31667Y13374
X31667Y13079
X31667Y12783
X32060Y12783
X32060Y13079
X32060Y13374
X32060Y13669
X32799Y14998
X32503Y15244
X32897Y15884
X32897Y16278
X32897Y16671
X35062Y15146
X35062Y14752
X35062Y14358
X35062Y13965
X34983Y12811
X34983Y12477
X35317Y12487
X35327Y12821
X29649Y10244
X29009Y9634
X25909Y17557
X24634Y17754
X21775Y17459
X21381Y17459
X20987Y17459
X18182Y18049
X17395Y17459
X16263Y17459
X15525Y18837
X15131Y18837
X14590Y17459
X14196Y17459
X11982Y17459
X11096Y18886
X10702Y18886
X10308Y18886
X10505Y20067
X9029Y20067
X8586Y20067
X8586Y19575
X9029Y19575
X9029Y19083
X8586Y19083
X8537Y13965
X8930Y13965
X8930Y13472
X8537Y13472
X8537Y12980
X8930Y12980
X9029Y26120
X8586Y26120
X8586Y26612
X9029Y26612
X9029Y27104
X8586Y27104
X26450Y22872
X28271Y21297
X30830Y20854
X30899Y19103
X30889Y18629
X29357Y17962
X35515Y21248
X35594Y24319
T03
X38704Y25953
X12917Y19575
X10111Y20018
X10062Y19575
X9275Y18148
X10308Y21199
X8635Y22872
T04
X18871Y24348
X19314Y24348
X21054Y20481
X22176Y20471
X23277Y20481
X25663Y20461
X27287Y20608
X27779Y20608
X28271Y20608
X29797Y20608
X32297Y22144
X32690Y22144
X32690Y22557
X32297Y22557
X33576Y24624
X33970Y24624
X35604Y24860
X35604Y25274
X37237Y24988
X38064Y23217
X35786Y23177
X34856Y22734
X35810Y22232
X35185Y21543
X35171Y20254
X35171Y19860
X34777Y19860
X34777Y20254
X33379Y18994
X33104Y19309
X32808Y19624
X32533Y19959
X35604Y18620
X35997Y18620
X35997Y18226
X35604Y18226
X37134Y20539
X32287Y11346
X32011Y10520
X31322Y10520
X30830Y10520
X30239Y9683
X30281Y11348
X27523Y11307
X26696Y10520
X26312Y10687
X25560Y11343
X25515Y9683
X25515Y8748
X27680Y9683
X27877Y8846
X31470Y6337
X22907Y10520
X21972Y10520
X21627Y10766
X20840Y11356
X20938Y10028
X20938Y8797
X21972Y8748
X22808Y11425
X18182Y10470
X17247Y10520
X16804Y10667
X16115Y10274
X16066Y11356
X18084Y11356
X18182Y8650
X13507Y9683
X12523Y10520
X12080Y10717
X11096Y11356
X11489Y9683
X13360Y11356
T05
X33832Y17262
X34275Y19722
T06
X34466Y26161
X35466Y26161
X36466Y26161
X36466Y27161
X35466Y27161
X34466Y27161
X33466Y27161
X32466Y27161
X32466Y26161
X33466Y26161
X31466Y26161
X30466Y26161
X29466Y26161
X28466Y26161
X27466Y26161
X26466Y26161
X25466Y26161
X24466Y26161
X23466Y26161
X22466Y26161
X21466Y26161
X20466Y26161
X19466Y26161
X18466Y26161
X17466Y26161
X16466Y26161
X15466Y26161
X14466Y26161
X14466Y27161
X15466Y27161
X16466Y27161
X17466Y27161
X18466Y27161
X19466Y27161
X20466Y27161
X21466Y27161
X22466Y27161
X23466Y27161
X24466Y27161
X25466Y27161
X26466Y27161
X27466Y27161
X28466Y27161
X29466Y27161
X30466Y27161
X31466Y27161
X31885Y28709
X32885Y28709
X34395Y28709
X35395Y28709
X36905Y28709
X37905Y28709
X39415Y28709
X40415Y28709
X30375Y28709
X29375Y28709
X27865Y28709
X26865Y28709
X24871Y28709
X23871Y28709
X22871Y28709
X20472Y28709
X19472Y28709
X18472Y28709
X16751Y28669
X15751Y28669
X14751Y28669
X13070Y28650
X12070Y28650
X11070Y28650
X14466Y8116
X15466Y8116
X16466Y8116
X17466Y8116
X18466Y8116
X19466Y8116
X20466Y8116
X21466Y8116
X22466Y8116
X23466Y8116
X24466Y8116
X25466Y8116
X26466Y8116
X27466Y8116
X28466Y8116
X29466Y8116
X30466Y8116
X31466Y8116
X32466Y8116
X33466Y8116
X34466Y8116
X35466Y8116
X36466Y8116
X36466Y7116
X35466Y7116
X34466Y7116
X33466Y7116
X32466Y7116
X31466Y7116
X30466Y7116
X29466Y7116
X28466Y7116
X27466Y7116
X26466Y7116
X25466Y7116
X24466Y7116
X23466Y7116
X22466Y7116
X21466Y7116
X20466Y7116
X19466Y7116
X18466Y7116
X17466Y7116
X16466Y7116
X15466Y7116
X14466Y7116
X14239Y5500
X13239Y5500
X12239Y5500
X11239Y5500
X15728Y5500
X16728Y5500
X17728Y5500
X18728Y5500
X20216Y5500
X21216Y5500
X22216Y5500
X23216Y5500
X24704Y5500
X25704Y5500
X26704Y5500
X27704Y5500
X29192Y5539
X30192Y5539
X31192Y5539
X32192Y5539
X34602Y5539
X35602Y5539
X37318Y5539
X38318Y5539
X40035Y5500
X41035Y5500
T07
X4080Y4862
X4080Y6862
X4080Y8862
X4080Y10862
X4080Y13713
X4080Y15713
X4080Y18563
X4080Y20563
X4080Y22563
X4080Y24563
X4080Y27413
X4080Y29413
T08
X5673Y10520
X7011Y10520
X7011Y5638
X5673Y5638
M30
