G75*
G70*
%OFA0B0*%
%FSLAX24Y24*%
%IPPOS*%
%LPD*%
%AMOC8*
5,1,8,0,0,1.08239X$1,22.5*
%
%ADD10OC8,0.0640*%
%ADD11C,0.0640*%
%ADD12R,0.0620X0.0180*%
%ADD13R,0.0160X0.0430*%
%ADD14R,0.0260X0.0540*%
%ADD15R,0.0250X0.0820*%
%ADD16R,0.0394X0.0316*%
%ADD17C,0.0600*%
%ADD18R,0.0631X0.0552*%
%ADD19R,0.0316X0.0394*%
%ADD20R,0.0473X0.0434*%
%ADD21C,0.0865*%
D10*
X009848Y002526D03*
X010848Y002526D03*
X011848Y002526D03*
X012848Y002526D03*
X013848Y002526D03*
X014848Y002526D03*
X015848Y002526D03*
X016848Y002526D03*
X017848Y002526D03*
X018848Y002526D03*
X019848Y002486D03*
X020848Y002486D03*
X021848Y002486D03*
X022848Y002486D03*
X023848Y002486D03*
X024848Y002486D03*
X025848Y002486D03*
X026848Y002486D03*
X027848Y002486D03*
X028848Y002486D03*
X029848Y002486D03*
X030848Y002486D03*
X031848Y002486D03*
X031848Y003486D03*
X030848Y003486D03*
X029848Y003486D03*
X028848Y003486D03*
X027848Y003486D03*
X026848Y003486D03*
X025848Y003486D03*
X024848Y003486D03*
X023848Y003486D03*
X022848Y003486D03*
X021848Y003486D03*
X020848Y003486D03*
X019848Y003486D03*
X018848Y003526D03*
X017848Y003526D03*
X016848Y003526D03*
X015848Y003526D03*
X014848Y003526D03*
X013848Y003526D03*
X012848Y003526D03*
X011848Y003526D03*
X010848Y003526D03*
X009848Y003526D03*
X009852Y021486D03*
X010852Y021486D03*
X011852Y021486D03*
X012852Y021486D03*
X013852Y021486D03*
X014852Y021486D03*
X015852Y021486D03*
X016852Y021486D03*
X017852Y021486D03*
X018852Y021486D03*
X019852Y021486D03*
X020852Y021486D03*
X021852Y021486D03*
X022852Y021486D03*
X023852Y021486D03*
X024852Y021486D03*
X025852Y021486D03*
X026852Y021486D03*
X027852Y021486D03*
X028852Y021486D03*
X029852Y021486D03*
X030852Y021486D03*
X031852Y021486D03*
X031852Y022486D03*
X030852Y022486D03*
X029852Y022486D03*
X028852Y022486D03*
X027852Y022486D03*
X026852Y022486D03*
X025852Y022486D03*
X024852Y022486D03*
X023852Y022486D03*
X022852Y022486D03*
X021852Y022486D03*
X020852Y022486D03*
X019852Y022486D03*
X018852Y022486D03*
X017852Y022486D03*
X016852Y022486D03*
X015852Y022486D03*
X014852Y022486D03*
X013852Y022486D03*
X012852Y022486D03*
X011852Y022486D03*
X010852Y022486D03*
X009852Y022486D03*
D11*
X006979Y022018D02*
X006379Y022018D01*
X006379Y021018D02*
X006979Y021018D01*
X006979Y020018D02*
X006379Y020018D01*
X006379Y017569D02*
X006979Y017569D01*
X006979Y016569D02*
X006379Y016569D01*
X006379Y015569D02*
X006979Y015569D01*
X010615Y016486D02*
X011215Y016486D01*
X011215Y017486D02*
X010615Y017486D01*
X010615Y018486D02*
X011215Y018486D01*
X011215Y019486D02*
X010615Y019486D01*
X015654Y019486D02*
X016254Y019486D01*
X016254Y018486D02*
X015654Y018486D01*
X015654Y017486D02*
X016254Y017486D01*
X016254Y016486D02*
X015654Y016486D01*
X020379Y016486D02*
X020979Y016486D01*
X020979Y017486D02*
X020379Y017486D01*
X020379Y018486D02*
X020979Y018486D01*
X020979Y019486D02*
X020379Y019486D01*
X024867Y019486D02*
X025467Y019486D01*
X025467Y018486D02*
X024867Y018486D01*
X024867Y017486D02*
X025467Y017486D01*
X025467Y016486D02*
X024867Y016486D01*
X029316Y016447D02*
X029916Y016447D01*
X029916Y017447D02*
X029316Y017447D01*
X029316Y018447D02*
X029916Y018447D01*
X029916Y019447D02*
X029316Y019447D01*
X033458Y019585D02*
X033458Y018985D01*
X034458Y018985D02*
X034458Y019585D01*
X035458Y019585D02*
X035458Y018985D01*
X036883Y018985D02*
X036883Y019585D01*
X037033Y020560D02*
X037033Y021160D01*
X036033Y021160D02*
X036033Y020560D01*
X035033Y020560D02*
X035033Y021160D01*
X037883Y019585D02*
X037883Y018985D01*
X038883Y018985D02*
X038883Y019585D01*
X034089Y007620D02*
X033489Y007620D01*
X033489Y006620D02*
X034089Y006620D01*
X034089Y005455D02*
X033489Y005455D01*
X033489Y004455D02*
X034089Y004455D01*
X034089Y003289D02*
X033489Y003289D01*
X033489Y002289D02*
X034089Y002289D01*
X030982Y005206D02*
X030982Y005806D01*
X029982Y005806D02*
X029982Y005206D01*
X027832Y005285D02*
X027832Y005885D01*
X026832Y005885D02*
X026832Y005285D01*
X024683Y005245D02*
X024683Y005845D01*
X023683Y005845D02*
X023683Y005245D01*
X006979Y011081D02*
X006379Y011081D01*
X006379Y012081D02*
X006979Y012081D01*
X006979Y013081D02*
X006379Y013081D01*
D12*
X009883Y010264D03*
X009883Y010004D03*
X009883Y009744D03*
X009883Y009494D03*
X009883Y009234D03*
X009883Y008984D03*
X009883Y008724D03*
X009883Y008464D03*
X009191Y008268D03*
X009191Y008018D03*
X009191Y007758D03*
X009191Y007508D03*
X009191Y007248D03*
X009191Y006988D03*
X009191Y006738D03*
X009191Y006478D03*
X009191Y006228D03*
X009191Y005968D03*
X009191Y005708D03*
X009191Y005458D03*
X009191Y005198D03*
X009191Y004948D03*
X006891Y004948D03*
X006891Y005198D03*
X006891Y005458D03*
X006891Y005708D03*
X006891Y005968D03*
X006891Y006228D03*
X006891Y006478D03*
X006891Y006738D03*
X006891Y006988D03*
X006891Y007248D03*
X006891Y007508D03*
X006891Y007758D03*
X006891Y008018D03*
X006891Y008268D03*
X012183Y008464D03*
X012183Y008724D03*
X012183Y008984D03*
X012183Y009234D03*
X012183Y009494D03*
X012183Y009744D03*
X012183Y010004D03*
X012183Y010264D03*
X014804Y010303D03*
X014804Y010043D03*
X014804Y009783D03*
X014804Y009533D03*
X014804Y009273D03*
X014804Y009023D03*
X014804Y008763D03*
X014804Y008503D03*
X017104Y008503D03*
X017104Y008763D03*
X017104Y009023D03*
X017104Y009273D03*
X017104Y009533D03*
X017104Y009783D03*
X017104Y010043D03*
X017104Y010303D03*
X019529Y010303D03*
X019529Y010043D03*
X019529Y009783D03*
X019529Y009533D03*
X019529Y009273D03*
X019529Y009023D03*
X019529Y008763D03*
X019529Y008503D03*
X021829Y008503D03*
X021829Y008763D03*
X021829Y009023D03*
X021829Y009273D03*
X021829Y009533D03*
X021829Y009783D03*
X021829Y010043D03*
X021829Y010303D03*
X024017Y010225D03*
X024017Y009965D03*
X024017Y009705D03*
X024017Y009455D03*
X024017Y009195D03*
X024017Y008945D03*
X024017Y008685D03*
X024017Y008425D03*
X026317Y008425D03*
X026317Y008685D03*
X026317Y008945D03*
X026317Y009195D03*
X026317Y009455D03*
X026317Y009705D03*
X026317Y009965D03*
X026317Y010225D03*
X028466Y010185D03*
X028466Y009925D03*
X028466Y009665D03*
X028466Y009415D03*
X028466Y009155D03*
X028466Y008905D03*
X028466Y008645D03*
X028466Y008385D03*
X030766Y008385D03*
X030766Y008645D03*
X030766Y008905D03*
X030766Y009155D03*
X030766Y009415D03*
X030766Y009665D03*
X030766Y009925D03*
X030766Y010185D03*
D13*
X018819Y017034D03*
X018563Y017034D03*
X018307Y017034D03*
X018051Y017034D03*
X017795Y017034D03*
X017539Y017034D03*
X017283Y017034D03*
X017027Y017034D03*
X017027Y019332D03*
X017283Y019332D03*
X017539Y019332D03*
X017795Y019332D03*
X018051Y019332D03*
X018307Y019332D03*
X018563Y019332D03*
X018819Y019332D03*
D14*
X008411Y019677D03*
X007671Y019677D03*
X007671Y018657D03*
X008041Y018657D03*
X008411Y018657D03*
X008411Y015347D03*
X007671Y015347D03*
X007671Y014327D03*
X008041Y014327D03*
X008411Y014327D03*
X008411Y011016D03*
X007671Y011016D03*
X007671Y009996D03*
X008041Y009996D03*
X008411Y009996D03*
D15*
X026346Y018197D03*
X026846Y018197D03*
X027346Y018197D03*
X027846Y018197D03*
X027846Y020137D03*
X027346Y020137D03*
X026846Y020137D03*
X026346Y020137D03*
D16*
X026328Y017144D03*
X026328Y016632D03*
X019222Y018872D03*
X019222Y019384D03*
X036072Y007179D03*
X036072Y006667D03*
X036072Y005211D03*
X036072Y004699D03*
X036072Y003242D03*
X036072Y002730D03*
X032017Y005171D03*
X032017Y005683D03*
X028789Y005644D03*
X028789Y005132D03*
X025561Y005211D03*
X025561Y005722D03*
D17*
X008990Y003486D02*
X008430Y003486D01*
X007770Y003486D02*
X007210Y003486D01*
X006549Y003486D02*
X005989Y003486D01*
X005989Y002486D02*
X006549Y002486D01*
X007210Y002486D02*
X007770Y002486D01*
X008430Y002486D02*
X008990Y002486D01*
D18*
X035443Y002730D03*
X035443Y003478D03*
X035443Y004581D03*
X035443Y005329D03*
X035443Y006431D03*
X035443Y007179D03*
D19*
X008419Y011581D03*
X007907Y011581D03*
X007399Y008663D03*
X006887Y008663D03*
X007903Y016018D03*
X008415Y016018D03*
X008415Y020277D03*
X007903Y020277D03*
D20*
X007746Y020722D03*
X008415Y020722D03*
X008569Y016474D03*
X007899Y016474D03*
X007868Y012297D03*
X008537Y012297D03*
X009108Y010596D03*
X009777Y010596D03*
X014872Y010703D03*
X015541Y010703D03*
X019557Y010821D03*
X020226Y010821D03*
X024045Y010703D03*
X024714Y010703D03*
X028494Y010585D03*
X029163Y010585D03*
D21*
X004509Y003136D02*
X003684Y003136D01*
X003684Y005136D02*
X004509Y005136D01*
X004509Y007136D02*
X003684Y007136D01*
X003684Y009136D02*
X004509Y009136D01*
X004548Y012041D02*
X003723Y012041D01*
X003723Y014041D02*
X004548Y014041D01*
X004548Y016041D02*
X003723Y016041D01*
X003723Y018041D02*
X004548Y018041D01*
X004548Y020041D02*
X003723Y020041D01*
X003723Y022041D02*
X004548Y022041D01*
M02*
