G75*
G70*
%OFA0B0*%
%FSLAX24Y24*%
%IPPOS*%
%LPD*%
%AMOC8*
5,1,8,0,0,1.08239X$1,22.5*
%
%ADD10C,0.0000*%
%ADD11C,0.0120*%
%ADD12C,0.0040*%
%ADD13C,0.0060*%
%ADD14C,0.0030*%
%ADD15C,0.0050*%
%ADD16C,0.0316*%
%ADD17R,0.0059X0.0118*%
%ADD18R,0.0118X0.0118*%
%ADD19C,0.0080*%
%ADD20R,0.0118X0.0059*%
%ADD21C,0.0200*%
%ADD22R,0.0300X0.4200*%
%ADD23R,0.0200X0.0750*%
%ADD24R,0.0200X0.0300*%
%ADD25C,0.0070*%
%ADD26C,0.0100*%
%ADD27R,0.1440X0.0080*%
%ADD28R,0.0060X0.0090*%
%ADD29R,0.0591X0.0591*%
%ADD30C,0.0020*%
D10*
X001342Y006134D02*
X009334Y006134D01*
X009334Y005623D01*
X009335Y005623D02*
X009329Y005534D01*
X009327Y005445D01*
X009329Y005355D01*
X009336Y005266D01*
X009346Y005177D01*
X009361Y005089D01*
X009380Y005002D01*
X009403Y004916D01*
X009431Y004830D01*
X009462Y004747D01*
X009497Y004665D01*
X009536Y004584D01*
X009579Y004506D01*
X009626Y004430D01*
X009676Y004356D01*
X009730Y004284D01*
X009787Y004215D01*
X009847Y004149D01*
X009910Y004086D01*
X009976Y004026D01*
X010045Y003969D01*
X010117Y003915D01*
X010191Y003865D01*
X010267Y003819D01*
X010346Y003776D01*
X010426Y003737D01*
X010508Y003702D01*
X010592Y003671D01*
X010677Y003644D01*
X010764Y003621D01*
X010851Y003602D01*
X010939Y003587D01*
X011028Y003576D01*
X011027Y003575D02*
X017051Y003575D01*
X017149Y003580D01*
X017246Y003588D01*
X017342Y003602D01*
X017438Y003620D01*
X017533Y003642D01*
X017627Y003669D01*
X017719Y003701D01*
X017810Y003737D01*
X017898Y003777D01*
X017985Y003821D01*
X018070Y003869D01*
X018152Y003922D01*
X018232Y003978D01*
X018309Y004038D01*
X018383Y004101D01*
X018454Y004168D01*
X018521Y004238D01*
X018585Y004312D01*
X018646Y004388D01*
X018703Y004467D01*
X018756Y004549D01*
X018805Y004633D01*
X018850Y004720D01*
X018891Y004808D01*
X018928Y004899D01*
X018960Y004991D01*
X018988Y005084D01*
X019011Y005179D01*
X019030Y005274D01*
X019044Y005371D01*
X019054Y005468D01*
X019059Y005565D01*
X019060Y005662D01*
X019059Y005662D02*
X019059Y006134D01*
X019728Y006134D01*
X019728Y005623D01*
X019727Y005540D01*
X019730Y005456D01*
X019737Y005373D01*
X019748Y005290D01*
X019763Y005208D01*
X019782Y005127D01*
X019805Y005047D01*
X019832Y004968D01*
X019862Y004890D01*
X019896Y004814D01*
X019933Y004739D01*
X019974Y004666D01*
X020019Y004596D01*
X020066Y004527D01*
X020117Y004461D01*
X020171Y004398D01*
X020228Y004337D01*
X020288Y004279D01*
X020351Y004223D01*
X020416Y004171D01*
X020483Y004122D01*
X020553Y004076D01*
X020625Y004034D01*
X020698Y003995D01*
X020774Y003959D01*
X020851Y003928D01*
X020930Y003900D01*
X021010Y003875D01*
X021090Y003855D01*
X021172Y003838D01*
X021255Y003826D01*
X021338Y003817D01*
X021421Y003812D01*
X030358Y003812D01*
X032366Y005662D02*
X032366Y006134D01*
X037287Y006134D01*
X037287Y012434D01*
X032051Y012434D01*
X032051Y019520D01*
X039925Y019520D01*
X039925Y025032D01*
X037563Y026134D02*
X037565Y026184D01*
X037571Y026234D01*
X037581Y026283D01*
X037595Y026331D01*
X037612Y026378D01*
X037633Y026423D01*
X037658Y026467D01*
X037686Y026508D01*
X037718Y026547D01*
X037752Y026584D01*
X037789Y026618D01*
X037829Y026648D01*
X037871Y026675D01*
X037915Y026699D01*
X037961Y026720D01*
X038008Y026736D01*
X038056Y026749D01*
X038106Y026758D01*
X038155Y026763D01*
X038206Y026764D01*
X038256Y026761D01*
X038305Y026754D01*
X038354Y026743D01*
X038402Y026728D01*
X038448Y026710D01*
X038493Y026688D01*
X038536Y026662D01*
X038577Y026633D01*
X038616Y026601D01*
X038652Y026566D01*
X038684Y026528D01*
X038714Y026488D01*
X038741Y026445D01*
X038764Y026401D01*
X038783Y026355D01*
X038799Y026307D01*
X038811Y026258D01*
X038819Y026209D01*
X038823Y026159D01*
X038823Y026109D01*
X038819Y026059D01*
X038811Y026010D01*
X038799Y025961D01*
X038783Y025913D01*
X038764Y025867D01*
X038741Y025823D01*
X038714Y025780D01*
X038684Y025740D01*
X038652Y025702D01*
X038616Y025667D01*
X038577Y025635D01*
X038536Y025606D01*
X038493Y025580D01*
X038448Y025558D01*
X038402Y025540D01*
X038354Y025525D01*
X038305Y025514D01*
X038256Y025507D01*
X038206Y025504D01*
X038155Y025505D01*
X038106Y025510D01*
X038056Y025519D01*
X038008Y025532D01*
X037961Y025548D01*
X037915Y025569D01*
X037871Y025593D01*
X037829Y025620D01*
X037789Y025650D01*
X037752Y025684D01*
X037718Y025721D01*
X037686Y025760D01*
X037658Y025801D01*
X037633Y025845D01*
X037612Y025890D01*
X037595Y025937D01*
X037581Y025985D01*
X037571Y026034D01*
X037565Y026084D01*
X037563Y026134D01*
X037957Y027394D02*
X038060Y027382D01*
X038162Y027366D01*
X038263Y027344D01*
X038363Y027318D01*
X038462Y027287D01*
X038559Y027251D01*
X038654Y027211D01*
X038747Y027166D01*
X038838Y027117D01*
X038927Y027063D01*
X039013Y027006D01*
X039096Y026944D01*
X039176Y026878D01*
X039253Y026809D01*
X039327Y026736D01*
X039397Y026660D01*
X039463Y026581D01*
X039525Y026498D01*
X039584Y026413D01*
X039638Y026325D01*
X039688Y026234D01*
X039733Y026141D01*
X039775Y026046D01*
X039811Y025949D01*
X039843Y025851D01*
X039870Y025751D01*
X039893Y025650D01*
X039910Y025548D01*
X039923Y025445D01*
X039931Y025342D01*
X039934Y025239D01*
X039932Y025135D01*
X039925Y025032D01*
X037957Y027394D02*
X032248Y027394D01*
X032248Y028142D01*
X032249Y028225D01*
X032246Y028309D01*
X032239Y028392D01*
X032228Y028475D01*
X032213Y028557D01*
X032194Y028638D01*
X032171Y028718D01*
X032144Y028797D01*
X032114Y028875D01*
X032080Y028951D01*
X032043Y029026D01*
X032002Y029099D01*
X031957Y029169D01*
X031910Y029238D01*
X031859Y029304D01*
X031805Y029367D01*
X031748Y029428D01*
X031688Y029486D01*
X031625Y029542D01*
X031560Y029594D01*
X031493Y029643D01*
X031423Y029689D01*
X031351Y029731D01*
X031278Y029770D01*
X031202Y029806D01*
X031125Y029837D01*
X031046Y029865D01*
X030966Y029890D01*
X030886Y029910D01*
X030804Y029927D01*
X030721Y029939D01*
X030638Y029948D01*
X030555Y029953D01*
X021618Y029953D01*
X021526Y029955D01*
X021434Y029952D01*
X021342Y029945D01*
X021251Y029933D01*
X021161Y029918D01*
X021071Y029897D01*
X020982Y029873D01*
X020895Y029844D01*
X020809Y029812D01*
X020725Y029775D01*
X020643Y029734D01*
X020562Y029690D01*
X020484Y029641D01*
X020408Y029589D01*
X020335Y029534D01*
X020265Y029475D01*
X020197Y029412D01*
X020132Y029347D01*
X020071Y029279D01*
X020013Y029207D01*
X019958Y029133D01*
X019907Y029057D01*
X019860Y028978D01*
X019817Y028897D01*
X019777Y028814D01*
X019741Y028729D01*
X019710Y028643D01*
X019683Y028555D01*
X019659Y028466D01*
X019640Y028377D01*
X019626Y028286D01*
X019616Y028194D01*
X019610Y028103D01*
X019610Y027394D01*
X019059Y027394D01*
X019059Y027906D01*
X019065Y027995D01*
X019067Y028084D01*
X019065Y028174D01*
X019058Y028263D01*
X019048Y028352D01*
X019033Y028440D01*
X019014Y028527D01*
X018991Y028613D01*
X018963Y028699D01*
X018932Y028782D01*
X018897Y028864D01*
X018858Y028945D01*
X018815Y029023D01*
X018768Y029099D01*
X018718Y029173D01*
X018664Y029245D01*
X018607Y029314D01*
X018547Y029380D01*
X018484Y029443D01*
X018418Y029503D01*
X018349Y029560D01*
X018277Y029614D01*
X018203Y029664D01*
X018127Y029710D01*
X018048Y029753D01*
X017968Y029792D01*
X017886Y029827D01*
X017802Y029858D01*
X017717Y029885D01*
X017630Y029908D01*
X017543Y029927D01*
X017455Y029942D01*
X017366Y029953D01*
X011342Y029953D01*
X011343Y029954D02*
X011245Y029949D01*
X011148Y029941D01*
X011052Y029927D01*
X010956Y029909D01*
X010861Y029887D01*
X010767Y029860D01*
X010675Y029828D01*
X010584Y029792D01*
X010496Y029752D01*
X010409Y029708D01*
X010324Y029660D01*
X010242Y029607D01*
X010162Y029551D01*
X010085Y029491D01*
X010011Y029428D01*
X009940Y029361D01*
X009873Y029291D01*
X009809Y029217D01*
X009748Y029141D01*
X009691Y029062D01*
X009638Y028980D01*
X009589Y028896D01*
X009544Y028809D01*
X009503Y028721D01*
X009466Y028630D01*
X009434Y028538D01*
X009406Y028445D01*
X009383Y028350D01*
X009364Y028255D01*
X009350Y028158D01*
X009340Y028061D01*
X009335Y027964D01*
X009334Y027867D01*
X009334Y027394D01*
X001342Y027394D01*
X001342Y006134D01*
X030358Y003812D02*
X030450Y003810D01*
X030542Y003813D01*
X030634Y003820D01*
X030725Y003832D01*
X030815Y003847D01*
X030905Y003868D01*
X030994Y003892D01*
X031081Y003921D01*
X031167Y003953D01*
X031251Y003990D01*
X031333Y004031D01*
X031414Y004075D01*
X031492Y004124D01*
X031568Y004176D01*
X031641Y004231D01*
X031711Y004290D01*
X031779Y004353D01*
X031844Y004418D01*
X031905Y004486D01*
X031963Y004558D01*
X032018Y004632D01*
X032069Y004708D01*
X032116Y004787D01*
X032159Y004868D01*
X032199Y004951D01*
X032235Y005036D01*
X032266Y005122D01*
X032293Y005210D01*
X032317Y005299D01*
X032336Y005388D01*
X032350Y005479D01*
X032360Y005571D01*
X032366Y005662D01*
X033311Y026134D02*
X033313Y026184D01*
X033319Y026234D01*
X033329Y026283D01*
X033343Y026331D01*
X033360Y026378D01*
X033381Y026423D01*
X033406Y026467D01*
X033434Y026508D01*
X033466Y026547D01*
X033500Y026584D01*
X033537Y026618D01*
X033577Y026648D01*
X033619Y026675D01*
X033663Y026699D01*
X033709Y026720D01*
X033756Y026736D01*
X033804Y026749D01*
X033854Y026758D01*
X033903Y026763D01*
X033954Y026764D01*
X034004Y026761D01*
X034053Y026754D01*
X034102Y026743D01*
X034150Y026728D01*
X034196Y026710D01*
X034241Y026688D01*
X034284Y026662D01*
X034325Y026633D01*
X034364Y026601D01*
X034400Y026566D01*
X034432Y026528D01*
X034462Y026488D01*
X034489Y026445D01*
X034512Y026401D01*
X034531Y026355D01*
X034547Y026307D01*
X034559Y026258D01*
X034567Y026209D01*
X034571Y026159D01*
X034571Y026109D01*
X034567Y026059D01*
X034559Y026010D01*
X034547Y025961D01*
X034531Y025913D01*
X034512Y025867D01*
X034489Y025823D01*
X034462Y025780D01*
X034432Y025740D01*
X034400Y025702D01*
X034364Y025667D01*
X034325Y025635D01*
X034284Y025606D01*
X034241Y025580D01*
X034196Y025558D01*
X034150Y025540D01*
X034102Y025525D01*
X034053Y025514D01*
X034004Y025507D01*
X033954Y025504D01*
X033903Y025505D01*
X033854Y025510D01*
X033804Y025519D01*
X033756Y025532D01*
X033709Y025548D01*
X033663Y025569D01*
X033619Y025593D01*
X033577Y025620D01*
X033537Y025650D01*
X033500Y025684D01*
X033466Y025721D01*
X033434Y025760D01*
X033406Y025801D01*
X033381Y025845D01*
X033360Y025890D01*
X033343Y025937D01*
X033329Y025985D01*
X033319Y026034D01*
X033313Y026084D01*
X033311Y026134D01*
D11*
X023547Y013239D02*
X023547Y013009D01*
X023547Y012548D02*
X023547Y011628D01*
X023317Y011628D02*
X023777Y011628D01*
X024238Y011858D02*
X024468Y011628D01*
X025158Y011628D01*
X025619Y011858D02*
X025849Y012088D01*
X026540Y012088D01*
X026540Y012318D02*
X026540Y011628D01*
X025849Y011628D01*
X025619Y011858D01*
X025849Y012548D02*
X026309Y012548D01*
X026540Y012318D01*
X027000Y012548D02*
X027691Y012548D01*
X027921Y012318D01*
X027921Y011858D01*
X027691Y011628D01*
X027000Y011628D01*
X027000Y011167D02*
X027000Y012548D01*
X028381Y012318D02*
X028381Y011858D01*
X028611Y011628D01*
X029072Y011628D01*
X029302Y012088D02*
X028381Y012088D01*
X028381Y012318D02*
X028611Y012548D01*
X029072Y012548D01*
X029302Y012318D01*
X029302Y012088D01*
X025158Y012548D02*
X024468Y012548D01*
X024238Y012318D01*
X024238Y011858D01*
X023547Y012548D02*
X023317Y012548D01*
X022626Y013009D02*
X022626Y011628D01*
X022396Y011628D02*
X022857Y011628D01*
X021936Y011858D02*
X021706Y011628D01*
X021015Y011628D01*
X021015Y011167D02*
X021015Y012548D01*
X021706Y012548D01*
X021936Y012318D01*
X021936Y011858D01*
X022396Y013009D02*
X022626Y013009D01*
X020555Y012318D02*
X020555Y012088D01*
X019634Y012088D01*
X019634Y012318D02*
X019864Y012548D01*
X020324Y012548D01*
X020555Y012318D01*
X020324Y011628D02*
X019864Y011628D01*
X019634Y011858D01*
X019634Y012318D01*
X019174Y012318D02*
X019174Y012779D01*
X018943Y013009D01*
X018253Y013009D01*
X018253Y011628D01*
X018253Y012088D02*
X018943Y012088D01*
X019174Y012318D01*
X018713Y012088D02*
X019174Y011628D01*
D12*
X017681Y011135D02*
X017681Y010828D01*
X017374Y011135D01*
X017297Y011135D01*
X017220Y011058D01*
X017220Y010905D01*
X017297Y010828D01*
X017220Y010521D02*
X017681Y010521D01*
X017681Y010368D02*
X017681Y010674D01*
X017374Y010368D02*
X017220Y010521D01*
X017297Y010214D02*
X017220Y010137D01*
X017220Y009984D01*
X017297Y009907D01*
X017604Y009907D01*
X017681Y009984D01*
X017681Y010137D01*
X017604Y010214D01*
X023110Y006685D02*
X023350Y006325D01*
X023478Y006325D02*
X023719Y006325D01*
X023598Y006325D02*
X023598Y006685D01*
X023478Y006565D01*
X023350Y006685D02*
X023110Y006325D01*
X026639Y006325D02*
X026880Y006685D01*
X027008Y006565D02*
X027128Y006685D01*
X027128Y006325D01*
X027008Y006325D02*
X027248Y006325D01*
X027376Y006385D02*
X027436Y006325D01*
X027556Y006325D01*
X027616Y006385D01*
X027616Y006445D01*
X027556Y006505D01*
X027496Y006505D01*
X027556Y006505D02*
X027616Y006565D01*
X027616Y006625D01*
X027556Y006685D01*
X027436Y006685D01*
X027376Y006625D01*
X026880Y006325D02*
X026639Y006685D01*
X030694Y006645D02*
X030935Y006285D01*
X031063Y006285D02*
X031303Y006285D01*
X031183Y006285D02*
X031183Y006645D01*
X031063Y006525D01*
X030935Y006645D02*
X030694Y006285D01*
X031431Y006345D02*
X031491Y006285D01*
X031611Y006285D01*
X031671Y006345D01*
X031671Y006585D01*
X031611Y006645D01*
X031491Y006645D01*
X031431Y006585D01*
X031431Y006525D01*
X031491Y006465D01*
X031671Y006465D01*
X032390Y006546D02*
X032697Y006853D01*
X032697Y006930D01*
X032620Y007007D01*
X032467Y007007D01*
X032390Y006930D01*
X032390Y006546D02*
X032697Y006546D01*
X032697Y007546D02*
X032390Y007546D01*
X032544Y007546D02*
X032544Y008007D01*
X032390Y007853D01*
X036559Y007821D02*
X036559Y007591D01*
X037019Y007591D01*
X036866Y007591D02*
X036866Y007821D01*
X036789Y007898D01*
X036636Y007898D01*
X036559Y007821D01*
X036789Y008051D02*
X036943Y008051D01*
X037019Y008128D01*
X037019Y008281D01*
X036943Y008358D01*
X036789Y008358D01*
X036712Y008281D01*
X036712Y008128D01*
X036789Y008051D01*
X036712Y008511D02*
X036943Y008511D01*
X037019Y008588D01*
X036943Y008665D01*
X037019Y008742D01*
X036943Y008818D01*
X036712Y008818D01*
X036789Y008972D02*
X036712Y009048D01*
X036712Y009202D01*
X036789Y009279D01*
X036866Y009279D01*
X036866Y008972D01*
X036943Y008972D02*
X036789Y008972D01*
X036943Y008972D02*
X037019Y009048D01*
X037019Y009202D01*
X037019Y009432D02*
X036712Y009432D01*
X036712Y009586D02*
X036712Y009662D01*
X036712Y009586D02*
X036866Y009432D01*
X039169Y019895D02*
X039169Y020125D01*
X039246Y020202D01*
X039399Y020202D01*
X039476Y020125D01*
X039476Y019895D01*
X039476Y020048D02*
X039629Y020202D01*
X039553Y020355D02*
X039399Y020355D01*
X039323Y020432D01*
X039323Y020585D01*
X039399Y020662D01*
X039476Y020662D01*
X039476Y020355D01*
X039553Y020355D02*
X039629Y020432D01*
X039629Y020585D01*
X039323Y020815D02*
X039629Y020969D01*
X039323Y021122D01*
X039323Y021276D02*
X039323Y021352D01*
X039629Y021352D01*
X039629Y021276D02*
X039629Y021429D01*
X039629Y021583D02*
X039629Y021813D01*
X039553Y021889D01*
X039476Y021813D01*
X039476Y021659D01*
X039399Y021583D01*
X039323Y021659D01*
X039323Y021889D01*
X039323Y022043D02*
X039323Y022120D01*
X039629Y022120D01*
X039629Y022196D02*
X039629Y022043D01*
X039553Y022350D02*
X039629Y022427D01*
X039629Y022580D01*
X039553Y022657D01*
X039399Y022657D01*
X039323Y022580D01*
X039323Y022427D01*
X039399Y022350D01*
X039553Y022350D01*
X039169Y022120D02*
X039092Y022120D01*
X039092Y021352D02*
X039169Y021352D01*
X039169Y019895D02*
X039629Y019895D01*
X036382Y022430D02*
X036075Y022430D01*
X036382Y022737D01*
X036382Y022814D01*
X036305Y022890D01*
X036151Y022890D01*
X036075Y022814D01*
X035921Y022814D02*
X035844Y022890D01*
X035691Y022890D01*
X035614Y022814D01*
X035614Y022737D01*
X035691Y022660D01*
X035844Y022660D01*
X035921Y022584D01*
X035921Y022507D01*
X035844Y022430D01*
X035691Y022430D01*
X035614Y022507D01*
X039169Y023424D02*
X039629Y023424D01*
X039629Y023271D02*
X039629Y023577D01*
X039323Y023271D02*
X039169Y023424D01*
X039399Y023117D02*
X039629Y023117D01*
X039399Y023117D02*
X039323Y023040D01*
X039323Y022810D01*
X039629Y022810D01*
X032713Y025546D02*
X032406Y025546D01*
X032713Y025853D01*
X032713Y025930D01*
X032636Y026007D01*
X032483Y026007D01*
X032406Y025930D01*
X032406Y026546D02*
X032713Y026546D01*
X032559Y026546D02*
X032559Y027007D01*
X032406Y026853D01*
X031678Y022520D02*
X031525Y022520D01*
X031448Y022444D01*
X031295Y022367D02*
X031141Y022367D01*
X031218Y022444D02*
X031218Y022137D01*
X031295Y022060D01*
X031448Y022060D02*
X031755Y022367D01*
X031755Y022444D01*
X031678Y022520D01*
X031755Y022060D02*
X031448Y022060D01*
X030988Y022060D02*
X030681Y022367D01*
X030528Y022520D02*
X030221Y022520D01*
X030221Y022060D01*
X030528Y022060D01*
X030681Y022060D02*
X030988Y022367D01*
X030374Y022290D02*
X030221Y022290D01*
X027306Y022099D02*
X026999Y022099D01*
X026846Y022099D02*
X026769Y022176D01*
X026769Y022483D01*
X026693Y022406D02*
X026846Y022406D01*
X026999Y022406D02*
X027153Y022560D01*
X027153Y022099D01*
X026539Y022099D02*
X026232Y022406D01*
X026079Y022560D02*
X025772Y022560D01*
X025772Y022099D01*
X026079Y022099D01*
X026232Y022099D02*
X026539Y022406D01*
X025925Y022330D02*
X025772Y022330D01*
X021748Y022444D02*
X021441Y022137D01*
X021441Y022060D01*
X021748Y022060D01*
X021748Y022444D02*
X021748Y022520D01*
X021441Y022520D01*
X016905Y022444D02*
X016905Y022520D01*
X016905Y022444D02*
X016752Y022290D01*
X016752Y022060D01*
X016752Y022290D02*
X016599Y022444D01*
X016599Y022520D01*
X015424Y024855D02*
X015194Y024855D01*
X015270Y025009D02*
X015194Y025085D01*
X015270Y025162D01*
X015501Y025162D01*
X015424Y025009D02*
X015270Y025009D01*
X015424Y025009D02*
X015501Y024932D01*
X015424Y024855D01*
X015040Y025162D02*
X014963Y025162D01*
X014810Y025009D01*
X014810Y025162D02*
X014810Y024855D01*
X014657Y024932D02*
X014657Y025085D01*
X014580Y025162D01*
X014426Y025162D01*
X014350Y025085D01*
X014350Y024932D01*
X014426Y024855D01*
X014580Y024855D01*
X014657Y024932D01*
X014196Y024855D02*
X014119Y024932D01*
X014119Y025239D01*
X014043Y025162D02*
X014196Y025162D01*
X013889Y025085D02*
X013813Y025162D01*
X013659Y025162D01*
X013582Y025085D01*
X013582Y024932D01*
X013659Y024855D01*
X013813Y024855D01*
X013889Y024932D01*
X013889Y025085D01*
X013429Y025085D02*
X013352Y025162D01*
X013276Y025085D01*
X013276Y024855D01*
X013429Y024855D02*
X013429Y025085D01*
X013276Y025085D02*
X013199Y025162D01*
X013122Y025162D01*
X013122Y024855D01*
X012508Y025162D02*
X012432Y025162D01*
X012278Y025009D01*
X012278Y025162D02*
X012278Y024855D01*
X012125Y025009D02*
X011818Y025009D01*
X011818Y025085D02*
X011894Y025162D01*
X012048Y025162D01*
X012125Y025085D01*
X012125Y025009D01*
X012048Y024855D02*
X011894Y024855D01*
X011818Y024932D01*
X011818Y025085D01*
X011664Y025085D02*
X011664Y024932D01*
X011588Y024855D01*
X011357Y024855D01*
X011357Y024702D02*
X011357Y025162D01*
X011588Y025162D01*
X011664Y025085D01*
X011204Y025085D02*
X011204Y024932D01*
X011127Y024855D01*
X010897Y024855D01*
X010897Y024702D02*
X010897Y025162D01*
X011127Y025162D01*
X011204Y025085D01*
X010744Y025085D02*
X010667Y025162D01*
X010513Y025162D01*
X010437Y025085D01*
X010437Y024932D01*
X010513Y024855D01*
X010667Y024855D01*
X010744Y025009D02*
X010437Y025009D01*
X010283Y025162D02*
X010130Y025162D01*
X010206Y025239D02*
X010206Y024932D01*
X010283Y024855D01*
X009976Y024932D02*
X009900Y024855D01*
X009746Y024855D01*
X009669Y024932D01*
X009746Y025085D02*
X009900Y025085D01*
X009976Y025009D01*
X009976Y024932D01*
X009746Y025085D02*
X009669Y025162D01*
X009669Y025239D01*
X009746Y025316D01*
X009900Y025316D01*
X009976Y025239D01*
X010744Y025085D02*
X010744Y025009D01*
X008963Y025623D02*
X008963Y025700D01*
X008886Y025776D01*
X008656Y025776D01*
X008656Y025623D01*
X008733Y025546D01*
X008886Y025546D01*
X008963Y025623D01*
X008809Y025930D02*
X008656Y025776D01*
X008502Y025776D02*
X008196Y025776D01*
X008426Y026007D01*
X008426Y025546D01*
X008809Y025930D02*
X008963Y026007D01*
X008886Y026546D02*
X008733Y026546D01*
X008656Y026623D01*
X008656Y026776D02*
X008809Y026853D01*
X008886Y026853D01*
X008963Y026776D01*
X008963Y026623D01*
X008886Y026546D01*
X008656Y026776D02*
X008656Y027007D01*
X008963Y027007D01*
X008502Y026776D02*
X008196Y026776D01*
X008426Y027007D01*
X008426Y026546D01*
X007151Y023032D02*
X006997Y023032D01*
X006921Y022955D01*
X006767Y022879D02*
X006614Y022879D01*
X006690Y022955D02*
X006690Y022649D01*
X006767Y022572D01*
X006921Y022572D02*
X007228Y022879D01*
X007228Y022955D01*
X007151Y023032D01*
X007228Y022572D02*
X006921Y022572D01*
X006460Y022572D02*
X006153Y022879D01*
X006000Y023032D02*
X005693Y023032D01*
X005693Y022572D01*
X006000Y022572D01*
X006153Y022572D02*
X006460Y022879D01*
X005846Y022802D02*
X005693Y022802D01*
X005772Y020867D02*
X005772Y020406D01*
X005772Y020637D02*
X006079Y020637D01*
X006232Y020637D02*
X006462Y020637D01*
X006539Y020560D01*
X006539Y020483D01*
X006462Y020406D01*
X006232Y020406D01*
X006232Y020867D01*
X006462Y020867D01*
X006539Y020790D01*
X006539Y020713D01*
X006462Y020637D01*
X006693Y020560D02*
X006923Y020560D01*
X006999Y020637D01*
X006999Y020790D01*
X006923Y020867D01*
X006693Y020867D01*
X006693Y020406D01*
X006079Y020406D02*
X006079Y020867D01*
X011599Y022178D02*
X011905Y022638D01*
X011599Y022638D02*
X011905Y022178D01*
X007232Y013820D02*
X007232Y013359D01*
X007385Y013359D02*
X007078Y013359D01*
X006925Y013359D02*
X006848Y013436D01*
X006848Y013743D01*
X006771Y013666D02*
X006925Y013666D01*
X007078Y013666D02*
X007232Y013820D01*
X006618Y013666D02*
X006311Y013359D01*
X006157Y013359D02*
X005851Y013359D01*
X005851Y013820D01*
X006157Y013820D01*
X006311Y013666D02*
X006618Y013359D01*
X006004Y013589D02*
X005851Y013589D01*
X005496Y013517D02*
X005496Y013170D01*
X005149Y013517D01*
X005062Y013517D01*
X004975Y013430D01*
X004975Y013257D01*
X005062Y013170D01*
X004975Y012828D02*
X005496Y012828D01*
X005496Y013001D02*
X005496Y012654D01*
X005235Y012486D02*
X005235Y012139D01*
X005062Y012312D02*
X005409Y012312D01*
X005149Y012654D02*
X004975Y012828D01*
X004975Y013686D02*
X005322Y013686D01*
X005496Y013859D01*
X005322Y014033D01*
X004975Y014033D01*
X008799Y013087D02*
X008799Y012857D01*
X008876Y012781D01*
X008952Y012857D01*
X008952Y013011D01*
X009029Y013087D01*
X009106Y013011D01*
X009106Y012781D01*
X008799Y012627D02*
X008799Y012550D01*
X008952Y012397D01*
X008799Y012397D02*
X009106Y012397D01*
X008952Y012243D02*
X008952Y011937D01*
X008876Y011937D02*
X008799Y012013D01*
X008799Y012167D01*
X008876Y012243D01*
X008952Y012243D01*
X009106Y012167D02*
X009106Y012013D01*
X009029Y011937D01*
X008876Y011937D01*
X008799Y011783D02*
X008799Y011630D01*
X008722Y011706D02*
X009029Y011706D01*
X009106Y011783D01*
X009106Y011476D02*
X009106Y011246D01*
X009029Y011169D01*
X008952Y011246D01*
X008952Y011476D01*
X008876Y011476D02*
X009106Y011476D01*
X008876Y011476D02*
X008799Y011399D01*
X008799Y011246D01*
X008876Y011016D02*
X008799Y010939D01*
X008799Y010786D01*
X008876Y010709D01*
X009029Y010709D01*
X009106Y010786D01*
X009106Y010939D01*
X008952Y011016D02*
X008952Y010709D01*
X008876Y010555D02*
X008876Y010249D01*
X009106Y010249D02*
X008645Y010249D01*
X008645Y010555D02*
X009106Y010555D01*
X008952Y011016D02*
X008876Y011016D01*
X010179Y012167D02*
X010333Y012167D01*
X010256Y012167D02*
X010256Y012627D01*
X010179Y012627D02*
X010333Y012627D01*
X010486Y012551D02*
X010486Y012244D01*
X010563Y012167D01*
X010716Y012167D01*
X010793Y012244D01*
X010947Y012167D02*
X011253Y012167D01*
X011100Y012167D02*
X011100Y012627D01*
X010947Y012474D01*
X010793Y012551D02*
X010716Y012627D01*
X010563Y012627D01*
X010486Y012551D01*
X005574Y008029D02*
X005401Y008202D01*
X005054Y008202D01*
X005054Y007855D02*
X005401Y007855D01*
X005574Y008029D01*
X005488Y007686D02*
X005574Y007600D01*
X005574Y007426D01*
X005488Y007339D01*
X005314Y007339D02*
X005227Y007513D01*
X005227Y007600D01*
X005314Y007686D01*
X005488Y007686D01*
X005314Y007339D02*
X005054Y007339D01*
X005054Y007686D01*
X005314Y007171D02*
X005314Y006824D01*
X005141Y006997D02*
X005488Y006997D01*
X008180Y006776D02*
X008487Y006776D01*
X008640Y006776D02*
X008870Y006776D01*
X008947Y006700D01*
X008947Y006623D01*
X008870Y006546D01*
X008717Y006546D01*
X008640Y006623D01*
X008640Y006776D01*
X008794Y006930D01*
X008947Y007007D01*
X008410Y007007D02*
X008410Y006546D01*
X008180Y006776D02*
X008410Y007007D01*
X008410Y007546D02*
X008410Y008007D01*
X008180Y007776D01*
X008487Y007776D01*
X008640Y007776D02*
X008794Y007853D01*
X008870Y007853D01*
X008947Y007776D01*
X008947Y007623D01*
X008870Y007546D01*
X008717Y007546D01*
X008640Y007623D01*
X008640Y007776D02*
X008640Y008007D01*
X008947Y008007D01*
D13*
X000140Y007076D02*
X000140Y006026D01*
X001340Y006026D01*
X004890Y006026D01*
X004890Y007176D01*
X004890Y007676D02*
X004890Y009176D01*
X004890Y009676D02*
X004890Y011176D01*
X004890Y011676D02*
X004890Y013176D01*
X004890Y013676D02*
X004890Y014826D01*
X001340Y014826D01*
X000140Y014826D01*
X000140Y013776D01*
X000140Y013076D01*
X000140Y011776D01*
X000140Y011076D01*
X000140Y009776D01*
X000640Y009626D01*
X000640Y009226D01*
X000140Y009076D01*
X000140Y007776D01*
X000640Y007626D01*
X000640Y007226D01*
X000140Y007076D01*
X000140Y007776D01*
X000140Y009076D02*
X000140Y009776D01*
X000140Y011076D02*
X000640Y011226D01*
X000640Y011626D01*
X000140Y011776D01*
X000140Y013076D02*
X000640Y013226D01*
X000640Y013626D01*
X000140Y013776D01*
X000180Y014931D02*
X000180Y015981D01*
X000680Y016131D01*
X000680Y016531D01*
X000180Y016681D01*
X000180Y015981D01*
X000180Y016681D02*
X000180Y017981D01*
X000680Y018131D01*
X000680Y018531D01*
X000180Y018681D01*
X000180Y017981D01*
X000180Y018681D02*
X000180Y019981D01*
X000680Y020131D01*
X000680Y020531D01*
X000180Y020681D01*
X000180Y019981D01*
X000180Y020681D02*
X000180Y021981D01*
X000680Y022131D01*
X000680Y022531D01*
X000180Y022681D01*
X000180Y021981D01*
X000180Y022681D02*
X000180Y023981D01*
X000180Y024681D01*
X000680Y024531D01*
X000680Y024131D01*
X000180Y023981D01*
X000180Y024681D02*
X000180Y025981D01*
X000180Y026681D01*
X000680Y026531D01*
X000680Y026131D01*
X000180Y025981D01*
X000180Y026681D02*
X000180Y027731D01*
X001380Y027731D01*
X001380Y014931D01*
X000180Y014931D01*
X001340Y014826D02*
X001340Y006026D01*
X005764Y006376D02*
X005864Y006276D01*
X006664Y006276D01*
X006764Y006376D01*
X006764Y007176D01*
X006664Y007276D01*
X006764Y007376D01*
X006764Y008176D01*
X006664Y008276D01*
X005864Y008276D01*
X005764Y008176D01*
X005764Y007376D01*
X005864Y007276D01*
X005764Y007176D01*
X005764Y006376D01*
X006984Y006376D02*
X007084Y006276D01*
X007884Y006276D01*
X007984Y006376D01*
X007984Y007176D01*
X007884Y007276D01*
X007984Y007376D01*
X007984Y008176D01*
X007884Y008276D01*
X007084Y008276D01*
X006984Y008176D01*
X006984Y007376D01*
X007084Y007276D01*
X006984Y007176D01*
X006984Y006376D01*
X008205Y006376D02*
X008305Y006276D01*
X009105Y006276D01*
X009205Y006376D01*
X009205Y007176D01*
X009105Y007276D01*
X009205Y007376D01*
X009205Y008176D01*
X009105Y008276D01*
X008305Y008276D01*
X008205Y008176D01*
X008205Y007376D01*
X008305Y007276D01*
X008205Y007176D01*
X008205Y006376D01*
X009331Y006526D02*
X009581Y006276D01*
X010081Y006276D01*
X010331Y006526D01*
X010581Y006276D01*
X011081Y006276D01*
X011331Y006526D01*
X011581Y006276D01*
X012081Y006276D01*
X012331Y006526D01*
X012331Y008026D01*
X012081Y008276D01*
X011581Y008276D01*
X011331Y008026D01*
X011081Y008276D01*
X010581Y008276D01*
X010331Y008026D01*
X010081Y008276D01*
X009581Y008276D01*
X009331Y008026D01*
X009331Y006526D01*
X009453Y006174D02*
X009453Y009127D01*
X009334Y009127D01*
X009334Y014087D01*
X008642Y014205D01*
X008665Y027442D01*
X004964Y027316D01*
X004930Y027731D02*
X004930Y026581D01*
X004930Y026081D02*
X004930Y024581D01*
X004930Y024081D02*
X004930Y022581D01*
X004930Y022081D02*
X004930Y020581D01*
X004930Y020081D02*
X004930Y018581D01*
X004930Y018081D02*
X004930Y016581D01*
X004930Y016081D02*
X004930Y014931D01*
X001380Y014931D01*
X006005Y013095D02*
X007155Y013045D01*
X007255Y012945D01*
X007255Y009245D01*
X007155Y009145D01*
X006005Y009095D01*
X007317Y010413D02*
X007317Y010833D01*
X007787Y010283D02*
X008047Y010283D01*
X008517Y010413D02*
X008517Y010503D01*
X008517Y010743D01*
X008517Y010833D01*
X008517Y010743D02*
X008496Y010741D01*
X008476Y010736D01*
X008457Y010727D01*
X008440Y010715D01*
X008425Y010700D01*
X008413Y010683D01*
X008404Y010664D01*
X008399Y010644D01*
X008397Y010623D01*
X008399Y010602D01*
X008404Y010582D01*
X008413Y010563D01*
X008425Y010546D01*
X008440Y010531D01*
X008457Y010519D01*
X008476Y010510D01*
X008496Y010505D01*
X008517Y010503D01*
X010331Y008026D02*
X010331Y006526D01*
X011331Y006526D02*
X011331Y008026D01*
X012331Y008026D02*
X012581Y008276D01*
X013081Y008276D01*
X013331Y008026D01*
X013331Y006526D01*
X013081Y006276D01*
X012581Y006276D01*
X012331Y006526D01*
X013331Y006526D02*
X013581Y006276D01*
X014081Y006276D01*
X014331Y006526D01*
X014331Y008026D01*
X014581Y008276D01*
X015081Y008276D01*
X015331Y008026D01*
X015331Y006526D01*
X015081Y006276D01*
X014581Y006276D01*
X014331Y006526D01*
X015331Y006526D02*
X015581Y006276D01*
X016081Y006276D01*
X016331Y006526D01*
X016331Y008026D01*
X016581Y008276D01*
X017081Y008276D01*
X017331Y008026D01*
X017331Y006526D01*
X017081Y006276D01*
X016581Y006276D01*
X016331Y006526D01*
X017331Y006526D02*
X017581Y006276D01*
X018081Y006276D01*
X018331Y006526D01*
X018331Y008026D01*
X018581Y008276D01*
X019081Y008276D01*
X019331Y008026D01*
X019331Y006526D01*
X019081Y006276D01*
X018581Y006276D01*
X018331Y006526D01*
X019331Y006526D02*
X019581Y006276D01*
X020081Y006276D01*
X020331Y006526D01*
X020331Y008026D01*
X020581Y008276D01*
X021081Y008276D01*
X021331Y008026D01*
X021331Y006526D01*
X021081Y006276D01*
X020581Y006276D01*
X020331Y006526D01*
X021331Y006526D02*
X021581Y006276D01*
X022081Y006276D01*
X022331Y006526D01*
X022331Y008026D01*
X022581Y008276D01*
X023081Y008276D01*
X023331Y008026D01*
X023331Y006526D01*
X023081Y006276D01*
X022581Y006276D01*
X022331Y006526D01*
X023331Y006526D02*
X023581Y006276D01*
X024081Y006276D01*
X024331Y006526D01*
X024331Y008026D01*
X024581Y008276D01*
X025081Y008276D01*
X025331Y008026D01*
X025331Y006526D01*
X025081Y006276D01*
X024581Y006276D01*
X024331Y006526D01*
X025331Y006526D02*
X025581Y006276D01*
X026081Y006276D01*
X026331Y006526D01*
X026331Y008026D01*
X026081Y008276D01*
X025581Y008276D01*
X025331Y008026D01*
X026331Y008026D02*
X026581Y008276D01*
X027081Y008276D01*
X027331Y008026D01*
X027331Y006526D01*
X027081Y006276D01*
X026581Y006276D01*
X026331Y006526D01*
X027331Y006526D02*
X027581Y006276D01*
X028081Y006276D01*
X028331Y006526D01*
X028331Y008026D01*
X028081Y008276D01*
X027581Y008276D01*
X027331Y008026D01*
X028331Y008026D02*
X028581Y008276D01*
X029081Y008276D01*
X029331Y008026D01*
X029331Y006526D01*
X029081Y006276D01*
X028581Y006276D01*
X028331Y006526D01*
X029331Y006526D02*
X029581Y006276D01*
X030081Y006276D01*
X030331Y006526D01*
X030331Y008026D01*
X030081Y008276D01*
X029581Y008276D01*
X029331Y008026D01*
X029429Y008575D02*
X031209Y008575D01*
X031209Y008645D01*
X031081Y008276D02*
X030581Y008276D01*
X030331Y008026D01*
X031081Y008276D02*
X031331Y008026D01*
X031331Y006526D01*
X031081Y006276D01*
X030581Y006276D01*
X030331Y006526D01*
X031331Y006526D02*
X031581Y006276D01*
X032081Y006276D01*
X032331Y006526D01*
X032331Y008026D01*
X032081Y008276D01*
X031581Y008276D01*
X031331Y008026D01*
X033189Y007290D02*
X033189Y006790D01*
X033439Y006540D01*
X033939Y006540D01*
X034189Y006790D01*
X034439Y006540D01*
X034939Y006540D01*
X035189Y006790D01*
X035439Y006540D01*
X035939Y006540D01*
X036189Y006790D01*
X036189Y007290D01*
X035939Y007540D01*
X035439Y007540D01*
X035189Y007290D01*
X034939Y007540D01*
X034439Y007540D01*
X034189Y007290D01*
X033939Y007540D01*
X033439Y007540D01*
X033189Y007290D01*
X033439Y008823D02*
X033939Y008823D01*
X034189Y009073D01*
X034439Y008823D01*
X034939Y008823D01*
X035189Y009073D01*
X035439Y008823D01*
X035939Y008823D01*
X036189Y009073D01*
X036189Y009573D01*
X035939Y009823D01*
X035439Y009823D01*
X035189Y009573D01*
X034939Y009823D01*
X034439Y009823D01*
X034189Y009573D01*
X033939Y009823D01*
X033439Y009823D01*
X033189Y009573D01*
X033189Y009073D01*
X033439Y008823D01*
X032289Y010125D02*
X031889Y010125D01*
X033189Y011160D02*
X033439Y010910D01*
X033939Y010910D01*
X034189Y011160D01*
X034439Y010910D01*
X034939Y010910D01*
X035189Y011160D01*
X035439Y010910D01*
X035939Y010910D01*
X036189Y011160D01*
X036189Y011660D01*
X035939Y011910D01*
X035439Y011910D01*
X035189Y011660D01*
X034939Y011910D01*
X034439Y011910D01*
X034189Y011660D01*
X033939Y011910D01*
X033439Y011910D01*
X033189Y011660D01*
X033189Y011160D01*
X031209Y012365D02*
X031209Y012435D01*
X030439Y012435D01*
X030199Y012435D01*
X029429Y012435D01*
X029429Y012365D01*
X030199Y012435D02*
X030201Y012414D01*
X030206Y012394D01*
X030215Y012375D01*
X030227Y012358D01*
X030242Y012343D01*
X030259Y012331D01*
X030278Y012322D01*
X030298Y012317D01*
X030319Y012315D01*
X030340Y012317D01*
X030360Y012322D01*
X030379Y012331D01*
X030396Y012343D01*
X030411Y012358D01*
X030423Y012375D01*
X030432Y012394D01*
X030437Y012414D01*
X030439Y012435D01*
X030469Y015351D02*
X028751Y015351D01*
X028751Y019123D01*
X030469Y019123D01*
X030469Y015351D01*
X026021Y015351D02*
X026021Y019123D01*
X024302Y019123D01*
X024302Y015351D01*
X026021Y015351D01*
X021532Y015469D02*
X021532Y019241D01*
X019814Y019241D01*
X019814Y015469D01*
X021532Y015469D01*
X016808Y015430D02*
X016808Y019201D01*
X015089Y019201D01*
X015089Y015430D01*
X016808Y015430D01*
X011887Y015351D02*
X011887Y019123D01*
X010168Y019123D01*
X010168Y015351D01*
X011887Y015351D01*
X008399Y017342D02*
X008399Y017432D01*
X008399Y017672D01*
X008399Y017762D01*
X008399Y017672D02*
X008378Y017670D01*
X008358Y017665D01*
X008339Y017656D01*
X008322Y017644D01*
X008307Y017629D01*
X008295Y017612D01*
X008286Y017593D01*
X008281Y017573D01*
X008279Y017552D01*
X008281Y017531D01*
X008286Y017511D01*
X008295Y017492D01*
X008307Y017475D01*
X008322Y017460D01*
X008339Y017448D01*
X008358Y017439D01*
X008378Y017434D01*
X008399Y017432D01*
X007929Y017212D02*
X007669Y017212D01*
X007199Y017342D02*
X007199Y017762D01*
X007334Y016292D02*
X007234Y016192D01*
X006084Y016142D01*
X007334Y016292D02*
X007334Y019992D01*
X007234Y020092D01*
X006084Y020142D01*
X009610Y020268D02*
X031618Y020229D01*
X031618Y024796D01*
X009610Y024835D01*
X009610Y020268D01*
X010409Y020526D02*
X010409Y021026D01*
X010659Y021276D01*
X010409Y021526D01*
X010409Y022026D01*
X010659Y022276D01*
X010409Y022526D01*
X010409Y023026D01*
X010659Y023276D01*
X010409Y023526D01*
X010409Y024026D01*
X010659Y024276D01*
X011159Y024276D01*
X011409Y024026D01*
X011409Y023526D01*
X011159Y023276D01*
X011409Y023026D01*
X011409Y022526D01*
X011159Y022276D01*
X011409Y022026D01*
X011409Y021526D01*
X011159Y021276D01*
X011409Y021026D01*
X011409Y020526D01*
X011159Y020276D01*
X010659Y020276D01*
X010409Y020526D01*
X007294Y023458D02*
X007194Y023358D01*
X006044Y023308D01*
X007294Y023458D02*
X007294Y027158D01*
X007194Y027258D01*
X006044Y027308D01*
X004930Y027731D02*
X001380Y027731D01*
X007317Y024967D02*
X007317Y024547D01*
X007787Y024417D02*
X008047Y024417D01*
X008517Y024547D02*
X008517Y024637D01*
X008517Y024877D01*
X008517Y024967D01*
X008517Y024877D02*
X008496Y024875D01*
X008476Y024870D01*
X008457Y024861D01*
X008440Y024849D01*
X008425Y024834D01*
X008413Y024817D01*
X008404Y024798D01*
X008399Y024778D01*
X008397Y024757D01*
X008399Y024736D01*
X008404Y024716D01*
X008413Y024697D01*
X008425Y024680D01*
X008440Y024665D01*
X008457Y024653D01*
X008476Y024644D01*
X008496Y024639D01*
X008517Y024637D01*
X009346Y025526D02*
X009596Y025276D01*
X010096Y025276D01*
X010346Y025526D01*
X010596Y025276D01*
X011096Y025276D01*
X011346Y025526D01*
X011596Y025276D01*
X012096Y025276D01*
X012346Y025526D01*
X012346Y027026D01*
X012096Y027276D01*
X011596Y027276D01*
X011346Y027026D01*
X011096Y027276D01*
X010596Y027276D01*
X010346Y027026D01*
X010096Y027276D01*
X009596Y027276D01*
X009346Y027026D01*
X009346Y025526D01*
X010346Y025526D02*
X010346Y027026D01*
X011346Y027026D02*
X011346Y025526D01*
X012346Y025526D02*
X012596Y025276D01*
X013096Y025276D01*
X013346Y025526D01*
X013346Y027026D01*
X013096Y027276D01*
X012596Y027276D01*
X012346Y027026D01*
X013346Y027026D02*
X013596Y027276D01*
X014096Y027276D01*
X014346Y027026D01*
X014346Y025526D01*
X014096Y025276D01*
X013596Y025276D01*
X013346Y025526D01*
X014346Y025526D02*
X014596Y025276D01*
X015096Y025276D01*
X015346Y025526D01*
X015346Y027026D01*
X015596Y027276D01*
X016096Y027276D01*
X016346Y027026D01*
X016346Y025526D01*
X016096Y025276D01*
X015596Y025276D01*
X015346Y025526D01*
X016346Y025526D02*
X016596Y025276D01*
X017096Y025276D01*
X017346Y025526D01*
X017346Y027026D01*
X017596Y027276D01*
X018096Y027276D01*
X018346Y027026D01*
X018346Y025526D01*
X018096Y025276D01*
X017596Y025276D01*
X017346Y025526D01*
X018346Y025526D02*
X018596Y025276D01*
X019096Y025276D01*
X019346Y025526D01*
X019346Y027026D01*
X019596Y027276D01*
X020096Y027276D01*
X020346Y027026D01*
X020346Y025526D01*
X020096Y025276D01*
X019596Y025276D01*
X019346Y025526D01*
X020346Y025526D02*
X020596Y025276D01*
X021096Y025276D01*
X021346Y025526D01*
X021346Y027026D01*
X021596Y027276D01*
X022096Y027276D01*
X022346Y027026D01*
X022346Y025526D01*
X022096Y025276D01*
X021596Y025276D01*
X021346Y025526D01*
X022346Y025526D02*
X022596Y025276D01*
X023096Y025276D01*
X023346Y025526D01*
X023346Y027026D01*
X023596Y027276D01*
X024096Y027276D01*
X024346Y027026D01*
X024346Y025526D01*
X024096Y025276D01*
X023596Y025276D01*
X023346Y025526D01*
X024346Y025526D02*
X024596Y025276D01*
X025096Y025276D01*
X025346Y025526D01*
X025346Y027026D01*
X025596Y027276D01*
X026096Y027276D01*
X026346Y027026D01*
X026346Y025526D01*
X026096Y025276D01*
X025596Y025276D01*
X025346Y025526D01*
X026346Y025526D02*
X026596Y025276D01*
X027096Y025276D01*
X027346Y025526D01*
X027346Y027026D01*
X027096Y027276D01*
X026596Y027276D01*
X026346Y027026D01*
X025346Y027026D02*
X025096Y027276D01*
X024596Y027276D01*
X024346Y027026D01*
X023346Y027026D02*
X023096Y027276D01*
X022596Y027276D01*
X022346Y027026D01*
X021346Y027026D02*
X021096Y027276D01*
X020596Y027276D01*
X020346Y027026D01*
X019346Y027026D02*
X019096Y027276D01*
X018596Y027276D01*
X018346Y027026D01*
X017346Y027026D02*
X017096Y027276D01*
X016596Y027276D01*
X016346Y027026D01*
X015346Y027026D02*
X015096Y027276D01*
X014596Y027276D01*
X014346Y027026D01*
X015699Y024276D02*
X016199Y024276D01*
X016449Y024026D01*
X016449Y023526D01*
X016199Y023276D01*
X016449Y023026D01*
X016449Y022526D01*
X016199Y022276D01*
X016449Y022026D01*
X016449Y021526D01*
X016199Y021276D01*
X016449Y021026D01*
X016449Y020526D01*
X016199Y020276D01*
X015699Y020276D01*
X015449Y020526D01*
X015449Y021026D01*
X015699Y021276D01*
X015449Y021526D01*
X015449Y022026D01*
X015699Y022276D01*
X015449Y022526D01*
X015449Y023026D01*
X015699Y023276D01*
X015449Y023526D01*
X015449Y024026D01*
X015699Y024276D01*
X020173Y024026D02*
X020173Y023526D01*
X020423Y023276D01*
X020173Y023026D01*
X020173Y022526D01*
X020423Y022276D01*
X020173Y022026D01*
X020173Y021526D01*
X020423Y021276D01*
X020173Y021026D01*
X020173Y020526D01*
X020423Y020276D01*
X020923Y020276D01*
X021173Y020526D01*
X021173Y021026D01*
X020923Y021276D01*
X021173Y021526D01*
X021173Y022026D01*
X020923Y022276D01*
X021173Y022526D01*
X021173Y023026D01*
X020923Y023276D01*
X021173Y023526D01*
X021173Y024026D01*
X020923Y024276D01*
X020423Y024276D01*
X020173Y024026D01*
X024661Y024026D02*
X024661Y023526D01*
X024911Y023276D01*
X024661Y023026D01*
X024661Y022526D01*
X024911Y022276D01*
X024661Y022026D01*
X024661Y021526D01*
X024911Y021276D01*
X024661Y021026D01*
X024661Y020526D01*
X024911Y020276D01*
X025411Y020276D01*
X025661Y020526D01*
X025661Y021026D01*
X025411Y021276D01*
X025661Y021526D01*
X025661Y022026D01*
X025411Y022276D01*
X025661Y022526D01*
X025661Y023026D01*
X025411Y023276D01*
X025661Y023526D01*
X025661Y024026D01*
X025411Y024276D01*
X024911Y024276D01*
X024661Y024026D01*
X027346Y025526D02*
X027596Y025276D01*
X028096Y025276D01*
X028346Y025526D01*
X028346Y027026D01*
X028096Y027276D01*
X027596Y027276D01*
X027346Y027026D01*
X028346Y027026D02*
X028596Y027276D01*
X029096Y027276D01*
X029346Y027026D01*
X029346Y025526D01*
X029096Y025276D01*
X028596Y025276D01*
X028346Y025526D01*
X029346Y025526D02*
X029596Y025276D01*
X030096Y025276D01*
X030346Y025526D01*
X030346Y027026D01*
X030096Y027276D01*
X029596Y027276D01*
X029346Y027026D01*
X030346Y027026D02*
X030596Y027276D01*
X031096Y027276D01*
X031346Y027026D01*
X031346Y025526D01*
X031096Y025276D01*
X030596Y025276D01*
X030346Y025526D01*
X031346Y025526D02*
X031596Y025276D01*
X032096Y025276D01*
X032346Y025526D01*
X032346Y027026D01*
X032096Y027276D01*
X031596Y027276D01*
X031346Y027026D01*
X029860Y024237D02*
X029360Y024237D01*
X029110Y023987D01*
X029110Y023487D01*
X029360Y023237D01*
X029110Y022987D01*
X029110Y022487D01*
X029360Y022237D01*
X029110Y021987D01*
X029110Y021487D01*
X029360Y021237D01*
X029110Y020987D01*
X029110Y020487D01*
X029360Y020237D01*
X029860Y020237D01*
X030110Y020487D01*
X030110Y020987D01*
X029860Y021237D01*
X030110Y021487D01*
X030110Y021987D01*
X029860Y022237D01*
X030110Y022487D01*
X030110Y022987D01*
X029860Y023237D01*
X030110Y023487D01*
X030110Y023987D01*
X029860Y024237D01*
X032433Y022062D02*
X032433Y021472D01*
X032443Y021462D01*
X032443Y021352D01*
X032533Y021262D01*
X032543Y021262D01*
X032603Y021202D01*
X032603Y021582D01*
X032613Y021592D01*
X032593Y021592D01*
X032523Y021662D01*
X032523Y021852D01*
X032623Y021952D01*
X032623Y022082D01*
X032523Y022082D01*
X032493Y022112D01*
X032493Y022122D01*
X032433Y022062D01*
X032438Y022067D02*
X032623Y022067D01*
X032643Y022082D02*
X032653Y022072D01*
X032653Y021942D01*
X032723Y021942D01*
X032833Y021832D01*
X032833Y021822D01*
X032843Y021812D01*
X032843Y021692D01*
X032773Y021622D01*
X032773Y021612D01*
X032713Y021552D01*
X032643Y021552D01*
X032663Y021532D01*
X032663Y021432D01*
X032673Y021422D01*
X032913Y021422D01*
X032883Y021452D01*
X032883Y021492D01*
X032873Y021502D01*
X032873Y021562D01*
X032903Y021592D01*
X032903Y021602D01*
X032913Y021612D01*
X032913Y021982D01*
X032973Y022042D01*
X032973Y022062D01*
X032953Y022082D01*
X032643Y022082D01*
X032653Y022067D02*
X032968Y022067D01*
X032973Y022092D02*
X033053Y022082D01*
X033393Y022292D01*
X033333Y022292D02*
X033332Y022301D01*
X033089Y022301D01*
X033063Y022294D02*
X032994Y022259D01*
X032933Y022212D01*
X032916Y022200D01*
X032896Y022192D01*
X032875Y022189D01*
X032853Y022192D01*
X032583Y022192D01*
X032583Y022182D01*
X032573Y022182D01*
X033893Y022182D01*
X033533Y022182D01*
X033503Y022212D01*
X033501Y022227D01*
X033494Y022241D01*
X033483Y022252D01*
X033469Y022260D01*
X033453Y022262D01*
X033253Y022262D01*
X033255Y022271D01*
X033259Y022280D01*
X033266Y022286D01*
X033274Y022291D01*
X033283Y022292D01*
X033333Y022292D01*
X033332Y022301D02*
X033328Y022310D01*
X033321Y022316D01*
X033313Y022321D01*
X033303Y022322D01*
X033213Y022322D01*
X033137Y022315D01*
X033063Y022294D01*
X032973Y022243D02*
X033493Y022243D01*
X033543Y022222D02*
X033833Y022222D01*
X033923Y022102D02*
X033973Y022102D01*
X033973Y022092D01*
X033993Y022102D01*
X034013Y022102D01*
X034013Y022032D01*
X034043Y022032D01*
X034043Y022012D01*
X034063Y022012D01*
X034063Y021392D01*
X033873Y021392D01*
X033893Y021392D01*
X033899Y021393D01*
X033904Y021396D01*
X033907Y021401D01*
X033908Y021407D01*
X033907Y021413D01*
X033904Y021418D01*
X033899Y021421D01*
X033893Y021422D01*
X033903Y021422D01*
X033924Y021425D01*
X033944Y021433D01*
X033960Y021445D01*
X033973Y021461D01*
X033982Y021481D01*
X033985Y021501D01*
X033983Y021522D01*
X033993Y021522D01*
X033993Y021932D01*
X033983Y021932D01*
X033983Y022042D01*
X033933Y022042D01*
X033933Y022062D01*
X033923Y022062D01*
X033923Y022102D01*
X033923Y022067D02*
X034013Y022067D01*
X033983Y022008D02*
X034063Y022008D01*
X034083Y021972D02*
X034083Y021452D01*
X034063Y021423D02*
X033910Y021423D01*
X034093Y021432D02*
X034095Y021407D01*
X034094Y021382D01*
X034089Y021358D01*
X034080Y021335D01*
X034069Y021313D01*
X034054Y021293D01*
X034037Y021275D01*
X034017Y021260D01*
X033995Y021248D01*
X033972Y021239D01*
X033948Y021234D01*
X033923Y021232D01*
X033899Y021247D02*
X032603Y021247D01*
X032558Y021247D01*
X032603Y021192D02*
X032603Y021392D01*
X032613Y021402D01*
X032623Y021392D01*
X032623Y021402D01*
X032923Y021402D01*
X032963Y021362D01*
X033103Y021362D01*
X033113Y021372D01*
X034043Y021372D01*
X034043Y021342D01*
X033993Y021292D01*
X033943Y021292D01*
X033863Y021212D01*
X033863Y021182D01*
X033873Y021172D01*
X032623Y021172D01*
X032603Y021192D01*
X032607Y021189D02*
X033863Y021189D01*
X033843Y021142D02*
X033843Y021132D01*
X033783Y021072D01*
X033623Y021072D01*
X033623Y021112D01*
X033613Y021122D01*
X033613Y021152D01*
X033573Y021192D01*
X033563Y021192D01*
X033523Y021152D01*
X033603Y021152D01*
X033613Y021142D01*
X033843Y021142D01*
X033841Y021130D02*
X033613Y021130D01*
X033653Y021102D02*
X033603Y021052D01*
X033603Y021032D01*
X033273Y021022D01*
X033283Y021012D01*
X033563Y021012D01*
X033693Y020882D01*
X033703Y020882D01*
X033733Y020852D01*
X033733Y020772D01*
X033743Y020762D01*
X033793Y020762D01*
X033793Y021032D01*
X033843Y021032D01*
X033903Y020972D01*
X033903Y020912D01*
X033953Y020862D01*
X033953Y020772D01*
X033983Y020742D01*
X033983Y020512D01*
X033953Y020482D01*
X033933Y020482D01*
X033933Y020432D01*
X033953Y020412D01*
X033973Y020412D01*
X033993Y020392D01*
X034083Y020392D01*
X034113Y020422D01*
X034113Y020442D01*
X034093Y020462D01*
X034093Y020472D01*
X034063Y020502D01*
X034063Y020802D01*
X034013Y020852D01*
X034013Y020942D01*
X033963Y020992D01*
X033963Y021062D01*
X033903Y021122D01*
X033903Y021152D01*
X033853Y021102D01*
X033653Y021102D01*
X033623Y021072D02*
X033954Y021072D01*
X033963Y021013D02*
X033862Y021013D01*
X033843Y021002D02*
X033823Y021002D01*
X033823Y020672D01*
X033783Y020662D02*
X032693Y020662D01*
X032653Y020632D02*
X032643Y020642D01*
X032643Y020972D01*
X032653Y021012D02*
X032633Y021032D01*
X032633Y021122D01*
X032643Y021132D01*
X032653Y021132D01*
X033243Y021162D01*
X033223Y021162D01*
X033163Y021152D01*
X033023Y021012D01*
X032653Y021012D01*
X032652Y021013D02*
X033024Y021013D01*
X033073Y021013D02*
X032623Y021013D01*
X032623Y021012D02*
X032623Y021022D01*
X033073Y021022D01*
X033073Y020702D01*
X033343Y020702D01*
X033343Y020732D01*
X033473Y020732D01*
X033473Y020712D01*
X033783Y020712D01*
X033783Y020582D01*
X033753Y020582D01*
X033753Y020602D01*
X033733Y020602D01*
X033733Y020512D01*
X033663Y020512D01*
X033663Y020612D01*
X033653Y020612D01*
X033653Y020492D01*
X033623Y020492D01*
X033623Y020062D01*
X033673Y020062D01*
X033673Y019932D01*
X033713Y019932D01*
X033713Y019912D01*
X033573Y019912D01*
X033573Y019962D01*
X033513Y019962D01*
X033513Y020022D01*
X033493Y020022D01*
X033484Y020029D01*
X033477Y020038D01*
X033473Y020049D01*
X033473Y020061D01*
X033476Y020073D01*
X033483Y020082D01*
X033503Y020102D01*
X033533Y020102D01*
X033533Y020492D01*
X033523Y020502D01*
X032983Y020502D01*
X032943Y020462D01*
X032943Y020102D01*
X032973Y020072D01*
X032953Y020052D01*
X032953Y019952D01*
X032913Y019912D01*
X032773Y019912D01*
X032783Y019922D01*
X032783Y019962D01*
X032793Y019972D01*
X032793Y020002D01*
X032823Y020032D01*
X032823Y020052D01*
X032833Y020062D01*
X032833Y020072D01*
X032873Y020112D01*
X032873Y020502D01*
X032863Y020512D01*
X032803Y020512D01*
X032763Y020552D01*
X032743Y020552D01*
X032693Y020602D01*
X032693Y020982D01*
X032663Y021012D01*
X032623Y021012D01*
X032603Y021022D02*
X032603Y021132D01*
X032613Y021142D01*
X032573Y021142D01*
X032573Y021122D01*
X032553Y021122D01*
X032553Y021092D01*
X032533Y021092D01*
X032533Y021062D01*
X032523Y021062D01*
X032523Y021032D01*
X032503Y021032D01*
X032503Y020962D01*
X032473Y020932D01*
X032473Y020882D01*
X032463Y020872D01*
X032463Y020822D01*
X032423Y020782D01*
X032423Y020702D01*
X032403Y020682D01*
X032403Y020552D01*
X032423Y020532D01*
X032423Y020502D01*
X032393Y020472D01*
X032393Y020452D01*
X032373Y020432D01*
X032373Y020422D01*
X032393Y020402D01*
X032513Y020402D01*
X032513Y020412D01*
X032553Y020452D01*
X032543Y020452D01*
X032503Y020492D01*
X032503Y020862D01*
X032533Y020892D01*
X032533Y020952D01*
X032603Y021022D01*
X032594Y021013D02*
X032503Y021013D01*
X032483Y020982D02*
X032413Y020782D01*
X032423Y020779D02*
X032503Y020779D01*
X032503Y020838D02*
X032463Y020838D01*
X032473Y020896D02*
X032533Y020896D01*
X032536Y020955D02*
X032496Y020955D01*
X032533Y021072D02*
X032603Y021072D01*
X032633Y021072D02*
X033083Y021072D01*
X033113Y021072D02*
X033134Y021072D01*
X033133Y021072D02*
X033113Y021072D01*
X033113Y020832D01*
X033113Y020852D01*
X033243Y020982D01*
X033223Y020982D01*
X033133Y021072D01*
X033141Y021130D02*
X032641Y021130D01*
X032603Y021130D02*
X032573Y021130D01*
X032603Y021306D02*
X034007Y021306D01*
X034043Y021364D02*
X033106Y021364D01*
X033093Y021432D02*
X033833Y021432D01*
X033833Y021442D01*
X033823Y021442D02*
X033093Y021442D01*
X033093Y021382D02*
X033071Y021373D01*
X033048Y021367D01*
X033025Y021365D01*
X033001Y021367D01*
X032978Y021372D01*
X032956Y021380D01*
X032936Y021392D01*
X032917Y021407D01*
X032901Y021424D01*
X032888Y021444D01*
X032879Y021466D01*
X032872Y021488D01*
X032869Y021512D01*
X032870Y021535D01*
X032874Y021559D01*
X032882Y021581D01*
X032893Y021602D01*
X032903Y021599D02*
X032760Y021599D01*
X032808Y021657D02*
X032913Y021657D01*
X032913Y021716D02*
X032843Y021716D01*
X032843Y021774D02*
X032913Y021774D01*
X032913Y021833D02*
X032833Y021833D01*
X032774Y021891D02*
X032913Y021891D01*
X032933Y021922D02*
X032933Y021592D01*
X032873Y021540D02*
X032655Y021540D01*
X032603Y021540D02*
X032433Y021540D01*
X032433Y021481D02*
X032603Y021481D01*
X032603Y021423D02*
X032443Y021423D01*
X032393Y021422D02*
X032393Y021982D01*
X032433Y022008D02*
X032623Y022008D01*
X032623Y022212D02*
X032595Y022213D01*
X032567Y022210D01*
X032540Y022203D01*
X032513Y022194D01*
X032488Y022180D01*
X032465Y022164D01*
X032445Y022145D01*
X032426Y022124D01*
X032411Y022100D01*
X032399Y022074D01*
X032390Y022048D01*
X032385Y022020D01*
X032383Y021992D01*
X032433Y021950D02*
X032621Y021950D01*
X032653Y021950D02*
X032913Y021950D01*
X032933Y021922D02*
X032943Y021922D01*
X032940Y022008D02*
X032653Y022008D01*
X032563Y021891D02*
X032433Y021891D01*
X032433Y021833D02*
X032523Y021833D01*
X032523Y021774D02*
X032433Y021774D01*
X032433Y021716D02*
X032523Y021716D01*
X032528Y021657D02*
X032433Y021657D01*
X032433Y021599D02*
X032587Y021599D01*
X032663Y021481D02*
X032883Y021481D01*
X032912Y021423D02*
X032672Y021423D01*
X032543Y021212D02*
X032517Y021222D01*
X032492Y021234D01*
X032469Y021250D01*
X032449Y021269D01*
X032431Y021291D01*
X032417Y021315D01*
X032405Y021340D01*
X032398Y021367D01*
X032394Y021394D01*
X032393Y021422D01*
X032443Y021364D02*
X032603Y021364D01*
X032961Y021364D01*
X033094Y021442D02*
X033072Y021441D01*
X033050Y021443D01*
X033029Y021449D01*
X033009Y021457D01*
X032991Y021469D01*
X032974Y021483D01*
X032960Y021500D01*
X032949Y021519D01*
X032941Y021539D01*
X032936Y021560D01*
X032934Y021582D01*
X033133Y021722D02*
X033135Y021727D01*
X033139Y021731D01*
X033144Y021732D01*
X033150Y021730D01*
X033153Y021725D01*
X033153Y021719D01*
X033150Y021714D01*
X033144Y021712D01*
X033139Y021713D01*
X033135Y021717D01*
X033133Y021722D01*
X033093Y021722D02*
X033095Y021735D01*
X033100Y021748D01*
X033109Y021759D01*
X033120Y021766D01*
X033133Y021771D01*
X033146Y021772D01*
X033160Y021769D01*
X033172Y021763D01*
X033182Y021754D01*
X033189Y021742D01*
X033193Y021729D01*
X033193Y021715D01*
X033189Y021702D01*
X033182Y021690D01*
X033172Y021681D01*
X033160Y021675D01*
X033146Y021672D01*
X033133Y021673D01*
X033120Y021678D01*
X033109Y021685D01*
X033100Y021696D01*
X033095Y021709D01*
X033093Y021722D01*
X033143Y021902D02*
X033423Y021902D01*
X033463Y021902D01*
X033473Y021912D01*
X033473Y021782D01*
X033513Y021732D02*
X033423Y021732D01*
X033423Y021902D01*
X033513Y021902D02*
X033513Y021732D01*
X033513Y021622D02*
X033513Y021552D01*
X033423Y021552D02*
X033423Y021622D01*
X033313Y021622D02*
X033313Y021552D01*
X033623Y021552D02*
X033623Y021622D01*
X033713Y021732D02*
X033715Y021745D01*
X033720Y021758D01*
X033729Y021769D01*
X033740Y021776D01*
X033753Y021781D01*
X033766Y021782D01*
X033780Y021779D01*
X033792Y021773D01*
X033802Y021764D01*
X033809Y021752D01*
X033813Y021739D01*
X033813Y021725D01*
X033809Y021712D01*
X033802Y021700D01*
X033792Y021691D01*
X033780Y021685D01*
X033766Y021682D01*
X033753Y021683D01*
X033740Y021688D01*
X033729Y021695D01*
X033720Y021706D01*
X033715Y021719D01*
X033713Y021732D01*
X033763Y021722D02*
X033765Y021730D01*
X033770Y021737D01*
X033777Y021741D01*
X033785Y021742D01*
X033793Y021739D01*
X033799Y021734D01*
X033803Y021726D01*
X033803Y021718D01*
X033799Y021710D01*
X033793Y021705D01*
X033785Y021702D01*
X033777Y021703D01*
X033770Y021707D01*
X033765Y021714D01*
X033763Y021722D01*
X033953Y021582D02*
X033953Y021561D01*
X033949Y021541D01*
X033942Y021521D01*
X033931Y021503D01*
X033918Y021487D01*
X033902Y021474D01*
X033884Y021463D01*
X033864Y021456D01*
X033844Y021452D01*
X033823Y021452D01*
X033982Y021481D02*
X034063Y021481D01*
X034063Y021540D02*
X033993Y021540D01*
X033993Y021599D02*
X034063Y021599D01*
X034063Y021657D02*
X033993Y021657D01*
X033993Y021716D02*
X034063Y021716D01*
X034063Y021774D02*
X033993Y021774D01*
X033993Y021833D02*
X034063Y021833D01*
X034063Y021891D02*
X033993Y021891D01*
X033953Y021922D02*
X033953Y021592D01*
X033773Y021902D02*
X033513Y021902D01*
X033773Y021902D02*
X033773Y021942D01*
X033143Y021942D01*
X033103Y022062D02*
X033081Y022064D01*
X033058Y022062D01*
X033036Y022057D01*
X033015Y022049D01*
X032996Y022037D01*
X032978Y022023D01*
X032963Y022006D01*
X032951Y021987D01*
X032942Y021966D01*
X032936Y021945D01*
X032933Y021922D01*
X033083Y022062D02*
X033103Y022062D01*
X033793Y022062D01*
X033823Y022062D01*
X033843Y022222D02*
X033872Y022220D01*
X033900Y022215D01*
X033928Y022206D01*
X033955Y022195D01*
X033979Y022180D01*
X034002Y022162D01*
X034023Y022141D01*
X034041Y022118D01*
X034056Y022094D01*
X034067Y022067D01*
X034076Y022039D01*
X034081Y022011D01*
X034083Y021982D01*
X034063Y021950D02*
X033983Y021950D01*
X033953Y021922D02*
X033956Y021941D01*
X033955Y021961D01*
X033952Y021980D01*
X033945Y021998D01*
X033935Y022015D01*
X033922Y022030D01*
X033907Y022042D01*
X033890Y022052D01*
X033872Y022058D01*
X033853Y022062D01*
X033833Y022062D01*
X033793Y022062D02*
X033814Y022067D01*
X033835Y022069D01*
X033856Y022067D01*
X033876Y022063D01*
X033895Y022054D01*
X033913Y022043D01*
X033929Y022029D01*
X033942Y022012D01*
X033952Y021994D01*
X033959Y021974D01*
X033963Y021953D01*
X033963Y021932D01*
X033531Y022184D02*
X032583Y022184D01*
X032633Y022212D02*
X032873Y022212D01*
X032893Y022232D01*
X032883Y022232D02*
X032914Y022260D01*
X032948Y022285D01*
X032983Y022306D01*
X033021Y022324D01*
X033060Y022339D01*
X033100Y022350D01*
X033141Y022358D01*
X033182Y022362D01*
X033224Y022362D01*
X033265Y022358D01*
X033306Y022350D01*
X033346Y022339D01*
X033385Y022324D01*
X033423Y022306D01*
X033458Y022285D01*
X033492Y022260D01*
X033523Y022232D01*
X032653Y021912D02*
X032630Y021905D01*
X032608Y021894D01*
X032588Y021880D01*
X032570Y021862D01*
X032555Y021843D01*
X032544Y021821D01*
X032536Y021798D01*
X032532Y021773D01*
X032531Y021749D01*
X032535Y021725D01*
X032542Y021701D01*
X032553Y021679D01*
X032567Y021659D01*
X032584Y021641D01*
X032604Y021626D01*
X032626Y021615D01*
X032649Y021607D01*
X032673Y021603D01*
X032693Y021612D02*
X032716Y021620D01*
X032738Y021631D01*
X032757Y021645D01*
X032774Y021662D01*
X032788Y021682D01*
X032799Y021704D01*
X032806Y021727D01*
X032810Y021751D01*
X032809Y021775D01*
X032805Y021799D01*
X032797Y021822D01*
X032785Y021843D01*
X032770Y021862D01*
X032753Y021879D01*
X032733Y021892D01*
X032710Y021903D01*
X032687Y021909D01*
X032663Y021912D01*
X032603Y021306D02*
X032489Y021306D01*
X032693Y020955D02*
X033073Y020955D01*
X033113Y020955D02*
X033216Y020955D01*
X033192Y021013D02*
X033113Y021013D01*
X033113Y020896D02*
X033157Y020896D01*
X033073Y020896D02*
X032693Y020896D01*
X032693Y020838D02*
X033073Y020838D01*
X033073Y020779D02*
X032693Y020779D01*
X032693Y020720D02*
X033073Y020720D01*
X033123Y020742D02*
X033343Y020742D01*
X033343Y020720D02*
X033473Y020720D01*
X033473Y020742D02*
X033693Y020742D01*
X033701Y020744D01*
X033707Y020748D01*
X033711Y020754D01*
X033713Y020762D01*
X033711Y020770D01*
X033707Y020776D01*
X033701Y020780D01*
X033693Y020782D01*
X033733Y020779D02*
X033793Y020779D01*
X033793Y020838D02*
X033733Y020838D01*
X033679Y020896D02*
X033793Y020896D01*
X033793Y020955D02*
X033621Y020955D01*
X033500Y021092D02*
X033502Y021107D01*
X033507Y021121D01*
X033516Y021134D01*
X033527Y021144D01*
X033541Y021151D01*
X033555Y021155D01*
X033571Y021155D01*
X033585Y021151D01*
X033599Y021144D01*
X033610Y021134D01*
X033619Y021121D01*
X033624Y021107D01*
X033626Y021092D01*
X033624Y021077D01*
X033619Y021063D01*
X033610Y021050D01*
X033599Y021040D01*
X033585Y021033D01*
X033571Y021029D01*
X033555Y021029D01*
X033541Y021033D01*
X033527Y021040D01*
X033516Y021050D01*
X033507Y021063D01*
X033502Y021077D01*
X033500Y021092D01*
X033453Y021152D02*
X033463Y021162D01*
X033453Y021152D02*
X033353Y021152D01*
X033336Y021092D02*
X033338Y021108D01*
X033344Y021123D01*
X033353Y021136D01*
X033365Y021147D01*
X033379Y021155D01*
X033395Y021159D01*
X033411Y021159D01*
X033427Y021155D01*
X033441Y021147D01*
X033453Y021136D01*
X033462Y021123D01*
X033468Y021108D01*
X033470Y021092D01*
X033468Y021076D01*
X033462Y021061D01*
X033453Y021048D01*
X033441Y021037D01*
X033427Y021029D01*
X033411Y021025D01*
X033395Y021025D01*
X033379Y021029D01*
X033365Y021037D01*
X033353Y021048D01*
X033344Y021061D01*
X033338Y021076D01*
X033336Y021092D01*
X033176Y021092D02*
X033178Y021108D01*
X033184Y021123D01*
X033193Y021136D01*
X033205Y021147D01*
X033219Y021155D01*
X033235Y021159D01*
X033251Y021159D01*
X033267Y021155D01*
X033281Y021147D01*
X033293Y021136D01*
X033302Y021123D01*
X033308Y021108D01*
X033310Y021092D01*
X033308Y021076D01*
X033302Y021061D01*
X033293Y021048D01*
X033281Y021037D01*
X033267Y021029D01*
X033251Y021025D01*
X033235Y021025D01*
X033219Y021029D01*
X033205Y021037D01*
X033193Y021048D01*
X033184Y021061D01*
X033178Y021076D01*
X033176Y021092D01*
X033282Y021013D02*
X033793Y021013D01*
X033903Y020955D02*
X034001Y020955D01*
X034013Y020896D02*
X033919Y020896D01*
X033953Y020838D02*
X034028Y020838D01*
X034063Y020852D02*
X034093Y020512D01*
X034079Y020486D02*
X033958Y020486D01*
X033943Y020532D02*
X033929Y020524D01*
X033916Y020514D01*
X033906Y020501D01*
X033899Y020486D01*
X033895Y020470D01*
X033894Y020454D01*
X033897Y020438D01*
X033903Y020422D01*
X033912Y020409D01*
X033924Y020397D01*
X033938Y020388D01*
X033953Y020383D01*
X033938Y020428D02*
X034113Y020428D01*
X034123Y020392D02*
X034135Y020402D01*
X034145Y020416D01*
X034151Y020431D01*
X034153Y020447D01*
X034152Y020463D01*
X034147Y020478D01*
X034138Y020492D01*
X034127Y020504D01*
X034113Y020512D01*
X034063Y020545D02*
X033983Y020545D01*
X033983Y020603D02*
X034063Y020603D01*
X034063Y020662D02*
X033983Y020662D01*
X033983Y020720D02*
X034063Y020720D01*
X034063Y020779D02*
X033953Y020779D01*
X033783Y020603D02*
X033663Y020603D01*
X033653Y020603D02*
X032693Y020603D01*
X032771Y020545D02*
X033653Y020545D01*
X033663Y020545D02*
X033733Y020545D01*
X033653Y020452D02*
X033643Y020452D01*
X033643Y020112D01*
X033623Y020135D02*
X033533Y020135D01*
X033503Y020112D02*
X033503Y020452D01*
X032973Y020452D01*
X032973Y020112D01*
X032983Y020112D01*
X032969Y020076D02*
X032838Y020076D01*
X032813Y020112D02*
X032799Y020108D01*
X032787Y020101D01*
X032777Y020090D01*
X032769Y020078D01*
X032765Y020064D01*
X032764Y020050D01*
X032767Y020036D01*
X032773Y020022D01*
X032809Y020018D02*
X032953Y020018D01*
X032993Y020023D02*
X033003Y020031D01*
X033011Y020041D01*
X033016Y020053D01*
X033018Y020066D01*
X033016Y020079D01*
X033011Y020092D01*
X033003Y020102D01*
X032943Y020135D02*
X032873Y020135D01*
X032833Y020132D02*
X032833Y020482D01*
X032803Y020482D01*
X032873Y020486D02*
X032968Y020486D01*
X032943Y020428D02*
X032873Y020428D01*
X032873Y020369D02*
X032943Y020369D01*
X032943Y020311D02*
X032873Y020311D01*
X032873Y020252D02*
X032943Y020252D01*
X032943Y020194D02*
X032873Y020194D01*
X032993Y019992D02*
X032997Y019977D01*
X032998Y019962D01*
X032995Y019947D01*
X032990Y019932D01*
X032982Y019919D01*
X032971Y019908D01*
X032958Y019900D01*
X032944Y019894D01*
X032928Y019891D01*
X032913Y019892D01*
X032923Y019872D02*
X032933Y019882D01*
X032923Y019872D02*
X032793Y019872D01*
X032773Y019862D02*
X032760Y019864D01*
X032749Y019869D01*
X032739Y019877D01*
X032732Y019887D01*
X032727Y019899D01*
X032726Y019911D01*
X032728Y019924D01*
X032734Y019935D01*
X032742Y019945D01*
X032753Y019952D01*
X032783Y019959D02*
X032953Y019959D01*
X033479Y020076D02*
X033623Y020076D01*
X033673Y020112D02*
X033684Y020103D01*
X033693Y020091D01*
X033699Y020078D01*
X033702Y020064D01*
X033702Y020050D01*
X033698Y020036D01*
X033692Y020023D01*
X033683Y020012D01*
X033673Y020018D02*
X033513Y020018D01*
X033573Y019959D02*
X033673Y019959D01*
X033703Y019982D02*
X033717Y019975D01*
X033731Y019966D01*
X033742Y019955D01*
X033751Y019942D01*
X033758Y019928D01*
X033763Y019912D01*
X033773Y019892D02*
X033765Y019885D01*
X033755Y019880D01*
X033744Y019878D01*
X033733Y019879D01*
X033723Y019882D01*
X033733Y019862D02*
X033753Y019882D01*
X033733Y019862D02*
X033603Y019862D01*
X033613Y019862D02*
X033596Y019860D01*
X033579Y019862D01*
X033562Y019867D01*
X033547Y019876D01*
X033534Y019887D01*
X033524Y019901D01*
X033517Y019917D01*
X033513Y019935D01*
X033514Y019952D01*
X033533Y020194D02*
X033623Y020194D01*
X033623Y020252D02*
X033533Y020252D01*
X033533Y020311D02*
X033623Y020311D01*
X033623Y020369D02*
X033533Y020369D01*
X033533Y020428D02*
X033623Y020428D01*
X033623Y020486D02*
X033533Y020486D01*
X033663Y020472D02*
X033689Y020477D01*
X033713Y020486D01*
X033736Y020498D01*
X033758Y020514D01*
X033776Y020532D01*
X033792Y020553D01*
X033805Y020576D01*
X033815Y020600D01*
X033821Y020626D01*
X033823Y020652D01*
X034063Y020852D02*
X034056Y020897D01*
X034045Y020942D01*
X034031Y020986D01*
X034013Y021028D01*
X033993Y021070D01*
X033969Y021109D01*
X033943Y021147D01*
X033913Y021182D01*
X033903Y021130D02*
X033881Y021130D01*
X033577Y021189D02*
X033560Y021189D01*
X033463Y020882D02*
X033423Y020792D01*
X033413Y020802D02*
X033463Y020882D01*
X033453Y020752D02*
X033447Y020764D01*
X033438Y020773D01*
X033427Y020780D01*
X033415Y020784D01*
X033401Y020784D01*
X033389Y020780D01*
X033378Y020773D01*
X033369Y020764D01*
X033363Y020752D01*
X033124Y020782D02*
X033134Y020814D01*
X033148Y020844D01*
X033165Y020873D01*
X033185Y020899D01*
X033208Y020923D01*
X033234Y020945D01*
X033262Y020963D01*
X033291Y020978D01*
X033323Y020990D01*
X033355Y020998D01*
X033388Y021002D01*
X033421Y021003D01*
X033455Y021000D01*
X033487Y020993D01*
X033519Y020982D01*
X033549Y020968D01*
X033578Y020951D01*
X033604Y020930D01*
X033628Y020907D01*
X033649Y020881D01*
X033667Y020853D01*
X033682Y020823D01*
X033694Y020792D01*
X034073Y020771D02*
X034080Y020728D01*
X034085Y020684D01*
X034087Y020640D01*
X034086Y020596D01*
X034083Y020552D01*
X034143Y020242D02*
X034152Y020259D01*
X034157Y020278D01*
X034159Y020297D01*
X034157Y020317D01*
X034152Y020335D01*
X034143Y020353D01*
X034131Y020368D01*
X034116Y020381D01*
X034099Y020390D01*
X034081Y020397D01*
X034062Y020400D01*
X034042Y020399D01*
X034023Y020395D01*
X034006Y020387D01*
X033990Y020376D01*
X033976Y020362D01*
X033965Y020346D01*
X033958Y020328D01*
X033954Y020309D01*
X033953Y020289D01*
X033957Y020270D01*
X033963Y020252D01*
X032523Y020532D02*
X032517Y020585D01*
X032515Y020639D01*
X032517Y020693D01*
X032522Y020747D01*
X032531Y020800D01*
X032544Y020852D01*
X032560Y020903D01*
X032580Y020953D01*
X032603Y021002D01*
X032503Y020720D02*
X032423Y020720D01*
X032383Y020732D02*
X032383Y020512D01*
X032408Y020486D02*
X032509Y020486D01*
X032533Y020512D02*
X032546Y020505D01*
X032557Y020494D01*
X032566Y020481D01*
X032571Y020467D01*
X032573Y020452D01*
X032571Y020437D01*
X032566Y020423D01*
X032557Y020410D01*
X032546Y020399D01*
X032533Y020392D01*
X032529Y020428D02*
X032373Y020428D01*
X032373Y020382D02*
X032359Y020393D01*
X032347Y020406D01*
X032339Y020421D01*
X032333Y020438D01*
X032332Y020455D01*
X032334Y020472D01*
X032340Y020489D01*
X032350Y020504D01*
X032362Y020516D01*
X032377Y020525D01*
X032393Y020532D01*
X032411Y020545D02*
X032503Y020545D01*
X032503Y020603D02*
X032403Y020603D01*
X032403Y020662D02*
X032503Y020662D01*
X032663Y020652D02*
X032660Y020630D01*
X032661Y020607D01*
X032666Y020584D01*
X032674Y020563D01*
X032686Y020543D01*
X032700Y020526D01*
X032717Y020510D01*
X032737Y020498D01*
X032758Y020489D01*
X032780Y020484D01*
X032803Y020482D01*
X033953Y020532D02*
X033952Y020592D01*
X033948Y020651D01*
X033940Y020710D01*
X033929Y020768D01*
X033915Y020826D01*
X033897Y020882D01*
X033877Y020938D01*
X033853Y020992D01*
X032553Y021182D02*
X032520Y021139D01*
X032490Y021093D01*
X032464Y021045D01*
X032441Y020996D01*
X032422Y020945D01*
X032407Y020893D01*
X032395Y020840D01*
X032387Y020786D01*
X032383Y020732D01*
X032384Y020262D02*
X032375Y020279D01*
X032370Y020297D01*
X032369Y020315D01*
X032372Y020334D01*
X032378Y020351D01*
X032387Y020367D01*
X032400Y020381D01*
X032415Y020392D01*
X032432Y020400D01*
X032450Y020404D01*
X032468Y020405D01*
X032487Y020402D01*
X032504Y020395D01*
X032520Y020385D01*
X032533Y020372D01*
X032543Y020357D01*
X032551Y020340D01*
X032555Y020321D01*
X032555Y020303D01*
X032551Y020285D01*
X032544Y020267D01*
X032533Y020252D01*
X033123Y020742D02*
X033116Y020743D01*
X033111Y020748D01*
X033108Y020754D01*
X033108Y020760D01*
X033111Y020766D01*
X033116Y020771D01*
X033123Y020772D01*
X028749Y009865D02*
X028349Y009865D01*
X029429Y008645D02*
X029429Y008575D01*
X024331Y008026D02*
X024081Y008276D01*
X023581Y008276D01*
X023331Y008026D01*
X023232Y008654D02*
X023193Y008694D01*
X023193Y008812D01*
X023153Y008851D01*
X022331Y008026D02*
X022081Y008276D01*
X021581Y008276D01*
X021331Y008026D01*
X020331Y008026D02*
X020081Y008276D01*
X019581Y008276D01*
X019331Y008026D01*
X018331Y008026D02*
X018081Y008276D01*
X017581Y008276D01*
X017331Y008026D01*
X016331Y008026D02*
X016081Y008276D01*
X015581Y008276D01*
X015331Y008026D01*
X014331Y008026D02*
X014081Y008276D01*
X013581Y008276D01*
X013331Y008026D01*
X013031Y004915D02*
X012711Y004915D01*
X012711Y004275D01*
X013031Y004275D01*
X013138Y004381D01*
X013138Y004488D01*
X013031Y004595D01*
X012711Y004595D01*
X013031Y004595D02*
X013138Y004702D01*
X013138Y004809D01*
X013031Y004915D01*
X015506Y004848D02*
X015506Y004421D01*
X015613Y004314D01*
X015826Y004314D01*
X015933Y004421D01*
X015933Y004848D02*
X015826Y004955D01*
X015613Y004955D01*
X015506Y004848D01*
X010303Y004702D02*
X010303Y004275D01*
X010303Y004595D02*
X009876Y004595D01*
X009876Y004702D02*
X009876Y004275D01*
X009876Y004702D02*
X010090Y004915D01*
X010303Y004702D01*
D14*
X009903Y004920D02*
X009903Y005113D01*
X009903Y005214D02*
X009903Y005408D01*
X009903Y005509D02*
X009903Y005654D01*
X009855Y005702D01*
X009661Y005702D01*
X009613Y005654D01*
X009613Y005509D01*
X009903Y005509D01*
X009758Y005311D02*
X009758Y005214D01*
X009613Y005214D02*
X009903Y005214D01*
X009613Y005214D02*
X009613Y005408D01*
X009758Y005804D02*
X009758Y005949D01*
X009807Y005997D01*
X009855Y005997D01*
X009903Y005949D01*
X009903Y005852D01*
X009855Y005804D01*
X009758Y005804D01*
X009661Y005900D01*
X009613Y005997D01*
X009613Y004920D02*
X009903Y004920D01*
X011417Y005182D02*
X011707Y005376D01*
X011659Y005477D02*
X011707Y005525D01*
X011707Y005622D01*
X011659Y005670D01*
X011562Y005670D01*
X011514Y005622D01*
X011514Y005574D01*
X011562Y005477D01*
X011417Y005477D01*
X011417Y005670D01*
X011417Y005376D02*
X011707Y005182D01*
X012526Y005254D02*
X012817Y005254D01*
X012817Y005447D01*
X012817Y005548D02*
X012817Y005694D01*
X012768Y005742D01*
X012575Y005742D01*
X012526Y005694D01*
X012526Y005548D01*
X012817Y005548D01*
X012672Y005350D02*
X012672Y005254D01*
X012526Y005254D02*
X012526Y005447D01*
X012526Y005843D02*
X012526Y006036D01*
X012575Y006036D01*
X012768Y005843D01*
X012817Y005843D01*
X012817Y005153D02*
X012817Y004959D01*
X012526Y004959D01*
X014252Y005222D02*
X014542Y005415D01*
X014494Y005516D02*
X014542Y005565D01*
X014542Y005661D01*
X014494Y005710D01*
X014445Y005710D01*
X014397Y005661D01*
X014397Y005516D01*
X014494Y005516D01*
X014397Y005516D02*
X014300Y005613D01*
X014252Y005710D01*
X014252Y005415D02*
X014542Y005222D01*
X015479Y005293D02*
X015769Y005293D01*
X015769Y005487D01*
X015769Y005588D02*
X015769Y005733D01*
X015721Y005781D01*
X015528Y005781D01*
X015479Y005733D01*
X015479Y005588D01*
X015769Y005588D01*
X015624Y005390D02*
X015624Y005293D01*
X015479Y005293D02*
X015479Y005487D01*
X015479Y005882D02*
X015624Y005882D01*
X015576Y005979D01*
X015576Y006028D01*
X015624Y006076D01*
X015721Y006076D01*
X015769Y006028D01*
X015769Y005931D01*
X015721Y005882D01*
X015479Y005882D02*
X015479Y006076D01*
X015769Y005192D02*
X015769Y004998D01*
X015479Y004998D01*
X017086Y005261D02*
X017377Y005454D01*
X017231Y005556D02*
X017231Y005749D01*
X017086Y005701D02*
X017377Y005701D01*
X017231Y005556D02*
X017086Y005701D01*
X017086Y005454D02*
X017377Y005261D01*
X018444Y005172D02*
X018444Y004929D01*
X018808Y004929D01*
X018626Y004929D02*
X018626Y005050D01*
X018747Y005291D02*
X018686Y005352D01*
X018686Y005534D01*
X018626Y005534D02*
X018808Y005534D01*
X018808Y005352D01*
X018747Y005291D01*
X018565Y005352D02*
X018565Y005473D01*
X018626Y005534D01*
X018565Y005654D02*
X018565Y005836D01*
X018626Y005897D01*
X018808Y005897D01*
X018808Y006016D02*
X018808Y006198D01*
X018747Y006259D01*
X018686Y006198D01*
X018686Y006077D01*
X018626Y006016D01*
X018565Y006077D01*
X018565Y006259D01*
X018565Y005654D02*
X018808Y005654D01*
X019974Y005477D02*
X019974Y005283D01*
X020264Y005283D01*
X020264Y005477D01*
X020264Y005578D02*
X020071Y005578D01*
X020071Y005723D01*
X020119Y005771D01*
X020264Y005771D01*
X020216Y005873D02*
X020119Y005873D01*
X020071Y005921D01*
X020071Y006066D01*
X019974Y006066D02*
X020264Y006066D01*
X020264Y005921D01*
X020216Y005873D01*
X020543Y005900D02*
X020543Y006045D01*
X020640Y005997D02*
X020688Y006045D01*
X020737Y005997D01*
X020737Y005852D01*
X020640Y005900D02*
X020592Y005852D01*
X020543Y005900D01*
X020640Y005900D02*
X020640Y005997D01*
X020688Y005751D02*
X020737Y005702D01*
X020737Y005557D01*
X020834Y005557D02*
X020543Y005557D01*
X020543Y005702D01*
X020592Y005751D01*
X020688Y005751D01*
X020688Y005456D02*
X020592Y005456D01*
X020543Y005408D01*
X020543Y005311D01*
X020592Y005263D01*
X020688Y005263D01*
X020737Y005311D01*
X020737Y005408D01*
X020688Y005456D01*
X020737Y005163D02*
X020688Y005115D01*
X020495Y005115D01*
X020543Y005163D02*
X020543Y005066D01*
X020543Y004965D02*
X020543Y004820D01*
X020592Y004772D01*
X020640Y004820D01*
X020640Y004917D01*
X020688Y004965D01*
X020737Y004917D01*
X020737Y004772D01*
X020119Y005283D02*
X020119Y005380D01*
X020495Y006441D02*
X020447Y006490D01*
X020447Y006586D01*
X020495Y006635D01*
X020543Y006635D01*
X020737Y006441D01*
X020737Y006635D01*
X021698Y008998D02*
X021650Y009047D01*
X021650Y009240D01*
X021698Y009289D01*
X021795Y009289D01*
X021843Y009240D01*
X021843Y009047D01*
X021795Y008998D01*
X021698Y008998D01*
X021747Y009095D02*
X021843Y008998D01*
X021945Y009047D02*
X021993Y008998D01*
X022090Y008998D01*
X022138Y009047D01*
X022138Y009144D01*
X022090Y009192D01*
X022041Y009192D01*
X021945Y009144D01*
X021945Y009289D01*
X022138Y009289D01*
X025233Y009280D02*
X025281Y009328D01*
X025378Y009328D01*
X025426Y009280D01*
X025426Y009086D01*
X025378Y009038D01*
X025281Y009038D01*
X025233Y009086D01*
X025233Y009280D01*
X025329Y009135D02*
X025426Y009038D01*
X025527Y009086D02*
X025576Y009038D01*
X025672Y009038D01*
X025721Y009086D01*
X025721Y009135D01*
X025672Y009183D01*
X025527Y009183D01*
X025527Y009086D01*
X025527Y009183D02*
X025624Y009280D01*
X025721Y009328D01*
X028854Y012348D02*
X029167Y012662D01*
X029011Y012662D02*
X029011Y012348D01*
X029167Y012348D02*
X028854Y012662D01*
X028854Y012505D02*
X029167Y012505D01*
X029486Y012542D02*
X029486Y012784D01*
X029679Y012784D02*
X029679Y012542D01*
X029631Y012494D01*
X029534Y012494D01*
X029486Y012542D01*
X029780Y012494D02*
X029974Y012494D01*
X029877Y012494D02*
X029877Y012784D01*
X029780Y012687D01*
X030075Y012687D02*
X030172Y012784D01*
X030172Y012494D01*
X030268Y012494D02*
X030075Y012494D01*
X031785Y011791D02*
X031785Y011597D01*
X031833Y011549D01*
X031930Y011549D01*
X031978Y011597D01*
X032079Y011549D02*
X032273Y011549D01*
X032176Y011549D02*
X032176Y011839D01*
X032079Y011743D01*
X031978Y011791D02*
X031930Y011839D01*
X031833Y011839D01*
X031785Y011791D01*
X032374Y011839D02*
X032567Y011839D01*
X032567Y011791D01*
X032374Y011597D01*
X032374Y011549D01*
X028590Y014225D02*
X028590Y014322D01*
X028542Y014370D01*
X028445Y014472D02*
X028300Y014617D01*
X028590Y014617D01*
X028445Y014665D02*
X028445Y014472D01*
X028348Y014370D02*
X028300Y014322D01*
X028300Y014225D01*
X028348Y014177D01*
X028542Y014177D01*
X028590Y014225D01*
X028125Y013839D02*
X027834Y013839D01*
X027979Y013694D01*
X027979Y013887D01*
X027931Y013592D02*
X027979Y013544D01*
X028028Y013592D01*
X028076Y013592D01*
X028125Y013544D01*
X028125Y013447D01*
X028076Y013399D01*
X028125Y013298D02*
X028028Y013201D01*
X028028Y013249D02*
X028028Y013104D01*
X028125Y013104D02*
X027834Y013104D01*
X027834Y013249D01*
X027883Y013298D01*
X027979Y013298D01*
X028028Y013249D01*
X027883Y013399D02*
X027834Y013447D01*
X027834Y013544D01*
X027883Y013592D01*
X027931Y013592D01*
X027979Y013544D02*
X027979Y013496D01*
X028445Y014766D02*
X028300Y014911D01*
X028590Y014911D01*
X028657Y014957D02*
X028753Y014957D01*
X028802Y015005D01*
X028802Y015247D01*
X028903Y015150D02*
X029000Y015247D01*
X029000Y014957D01*
X029096Y014957D02*
X028903Y014957D01*
X028657Y014957D02*
X028608Y015005D01*
X028608Y015247D01*
X028445Y014960D02*
X028445Y014766D01*
X029198Y014957D02*
X029198Y015005D01*
X029391Y015199D01*
X029391Y015247D01*
X029198Y015247D01*
X026856Y018616D02*
X026662Y018616D01*
X026614Y018664D01*
X026614Y018761D01*
X026662Y018809D01*
X026711Y018911D02*
X026614Y019007D01*
X026904Y019007D01*
X026904Y018911D02*
X026904Y019104D01*
X026856Y019205D02*
X026807Y019205D01*
X026759Y019254D01*
X026759Y019350D01*
X026807Y019399D01*
X026856Y019399D01*
X026904Y019350D01*
X026904Y019254D01*
X026856Y019205D01*
X026759Y019254D02*
X026711Y019205D01*
X026662Y019205D01*
X026614Y019254D01*
X026614Y019350D01*
X026662Y019399D01*
X026711Y019399D01*
X026759Y019350D01*
X026856Y018809D02*
X026904Y018761D01*
X026904Y018664D01*
X026856Y018616D01*
X027416Y019352D02*
X027512Y019352D01*
X027561Y019401D01*
X027662Y019352D02*
X027855Y019352D01*
X027759Y019352D02*
X027759Y019642D01*
X027662Y019546D01*
X027561Y019594D02*
X027512Y019642D01*
X027416Y019642D01*
X027367Y019594D01*
X027367Y019401D01*
X027416Y019352D01*
X027956Y019401D02*
X028005Y019352D01*
X028102Y019352D01*
X028150Y019401D01*
X028150Y019594D01*
X028102Y019642D01*
X028005Y019642D01*
X027956Y019594D01*
X027956Y019546D01*
X028005Y019497D01*
X028150Y019497D01*
X028745Y019755D02*
X028745Y019948D01*
X028794Y019997D01*
X028890Y019997D01*
X028939Y019948D01*
X029040Y019948D02*
X029040Y019900D01*
X029088Y019852D01*
X029233Y019852D01*
X029233Y019948D02*
X029185Y019997D01*
X029088Y019997D01*
X029040Y019948D01*
X029040Y019755D02*
X029088Y019707D01*
X029185Y019707D01*
X029233Y019755D01*
X029233Y019948D01*
X028939Y019755D02*
X028890Y019707D01*
X028794Y019707D01*
X028745Y019755D01*
X028092Y020771D02*
X027802Y020771D01*
X027802Y020916D01*
X027850Y020964D01*
X027947Y020964D01*
X027996Y020916D01*
X027996Y020771D01*
X027996Y020868D02*
X028092Y020964D01*
X028044Y021065D02*
X028092Y021114D01*
X028092Y021211D01*
X028044Y021259D01*
X027850Y021259D01*
X027802Y021211D01*
X027802Y021114D01*
X027850Y021065D01*
X027899Y021065D01*
X027947Y021114D01*
X027947Y021259D01*
X027573Y021174D02*
X027380Y021367D01*
X027332Y021367D01*
X027283Y021319D01*
X027283Y021222D01*
X027332Y021174D01*
X027332Y021073D02*
X027380Y021073D01*
X027428Y021024D01*
X027477Y021073D01*
X027525Y021073D01*
X027573Y021024D01*
X027573Y020928D01*
X027525Y020879D01*
X027573Y020778D02*
X027477Y020681D01*
X027477Y020730D02*
X027477Y020585D01*
X027573Y020585D02*
X027283Y020585D01*
X027283Y020730D01*
X027332Y020778D01*
X027428Y020778D01*
X027477Y020730D01*
X027332Y020879D02*
X027283Y020928D01*
X027283Y021024D01*
X027332Y021073D01*
X027428Y021024D02*
X027428Y020976D01*
X027573Y021174D02*
X027573Y021367D01*
X027029Y021132D02*
X027029Y021035D01*
X026981Y020987D01*
X026933Y020987D01*
X026884Y021035D01*
X026884Y021132D01*
X026933Y021180D01*
X026981Y021180D01*
X027029Y021132D01*
X026884Y021132D02*
X026836Y021180D01*
X026787Y021180D01*
X026739Y021132D01*
X026739Y021035D01*
X026787Y020987D01*
X026836Y020987D01*
X026884Y021035D01*
X026884Y020886D02*
X026933Y020837D01*
X026933Y020692D01*
X027029Y020692D02*
X026739Y020692D01*
X026739Y020837D01*
X026787Y020886D01*
X026884Y020886D01*
X026933Y020789D02*
X027029Y020886D01*
X026123Y019988D02*
X026123Y019939D01*
X026075Y019891D01*
X025978Y019891D01*
X025930Y019939D01*
X025930Y019988D01*
X025978Y020036D01*
X026075Y020036D01*
X026123Y019988D01*
X026075Y019891D02*
X026123Y019843D01*
X026123Y019794D01*
X026075Y019746D01*
X025978Y019746D01*
X025930Y019794D01*
X025930Y019843D01*
X025978Y019891D01*
X025828Y019794D02*
X025780Y019746D01*
X025683Y019746D01*
X025635Y019794D01*
X025635Y019988D01*
X025683Y020036D01*
X025780Y020036D01*
X025828Y019988D01*
X024863Y019988D02*
X024670Y019794D01*
X024670Y019746D01*
X024569Y019794D02*
X024520Y019746D01*
X024423Y019746D01*
X024375Y019794D01*
X024375Y019988D01*
X024423Y020036D01*
X024520Y020036D01*
X024569Y019988D01*
X024670Y020036D02*
X024863Y020036D01*
X024863Y019988D01*
X023859Y019870D02*
X023859Y019676D01*
X023810Y019628D01*
X023714Y019628D01*
X023665Y019676D01*
X023714Y019773D02*
X023859Y019773D01*
X023859Y019870D02*
X023810Y019918D01*
X023714Y019918D01*
X023665Y019870D01*
X023665Y019821D01*
X023714Y019773D01*
X023564Y019821D02*
X023564Y019870D01*
X023516Y019918D01*
X023419Y019918D01*
X023371Y019870D01*
X023269Y019870D02*
X023221Y019918D01*
X023124Y019918D01*
X023076Y019870D01*
X023076Y019676D01*
X023124Y019628D01*
X023221Y019628D01*
X023269Y019676D01*
X023371Y019628D02*
X023564Y019821D01*
X023564Y019628D02*
X023371Y019628D01*
X022534Y019608D02*
X022486Y019560D01*
X022437Y019560D01*
X022389Y019608D01*
X022389Y019705D01*
X022437Y019753D01*
X022486Y019753D01*
X022534Y019705D01*
X022534Y019608D01*
X022389Y019608D02*
X022341Y019560D01*
X022292Y019560D01*
X022244Y019608D01*
X022244Y019705D01*
X022292Y019753D01*
X022341Y019753D01*
X022389Y019705D01*
X022341Y019458D02*
X022292Y019458D01*
X022244Y019410D01*
X022244Y019313D01*
X022292Y019265D01*
X022292Y019164D02*
X022244Y019115D01*
X022244Y019019D01*
X022292Y018970D01*
X022486Y018970D01*
X022534Y019019D01*
X022534Y019115D01*
X022486Y019164D01*
X022534Y019265D02*
X022341Y019458D01*
X022534Y019458D02*
X022534Y019265D01*
X021635Y019873D02*
X021635Y019921D01*
X021586Y019970D01*
X021441Y019970D01*
X021441Y019873D01*
X021490Y019825D01*
X021586Y019825D01*
X021635Y019873D01*
X021538Y020067D02*
X021635Y020115D01*
X021538Y020067D02*
X021441Y019970D01*
X021340Y020067D02*
X021292Y020115D01*
X021195Y020115D01*
X021147Y020067D01*
X021147Y019873D01*
X021195Y019825D01*
X021292Y019825D01*
X021340Y019873D01*
X022408Y020850D02*
X022408Y020995D01*
X022457Y021043D01*
X022553Y021043D01*
X022602Y020995D01*
X022602Y020850D01*
X022602Y020946D02*
X022699Y021043D01*
X022650Y021144D02*
X022699Y021193D01*
X022699Y021289D01*
X022650Y021338D01*
X022602Y021338D01*
X022553Y021289D01*
X022553Y021144D01*
X022650Y021144D01*
X022553Y021144D02*
X022457Y021241D01*
X022408Y021338D01*
X022408Y020850D02*
X022699Y020850D01*
X023314Y020810D02*
X023314Y020955D01*
X023362Y021004D01*
X023459Y021004D01*
X023507Y020955D01*
X023507Y020810D01*
X023507Y020907D02*
X023604Y021004D01*
X023604Y021105D02*
X023556Y021105D01*
X023362Y021298D01*
X023314Y021298D01*
X023314Y021105D01*
X023314Y020810D02*
X023604Y020810D01*
X024206Y023480D02*
X024496Y023674D01*
X024496Y023775D02*
X024496Y023968D01*
X024496Y023872D02*
X024206Y023872D01*
X024303Y023775D01*
X024206Y023674D02*
X024496Y023480D01*
X024496Y024069D02*
X024448Y024069D01*
X024254Y024263D01*
X024206Y024263D01*
X024206Y024069D01*
X027997Y024327D02*
X027997Y024617D01*
X028142Y024617D01*
X028191Y024569D01*
X028191Y024472D01*
X028142Y024423D01*
X027997Y024423D01*
X028094Y024423D02*
X028191Y024327D01*
X028292Y024327D02*
X028485Y024520D01*
X028485Y024569D01*
X028437Y024617D01*
X028340Y024617D01*
X028292Y024569D01*
X028292Y024327D02*
X028485Y024327D01*
X028586Y024327D02*
X028780Y024520D01*
X028780Y024569D01*
X028732Y024617D01*
X028635Y024617D01*
X028586Y024569D01*
X028586Y024327D02*
X028780Y024327D01*
X028821Y024184D02*
X028870Y024184D01*
X028918Y024136D01*
X028918Y024039D01*
X028870Y023991D01*
X028821Y023991D01*
X028773Y024039D01*
X028773Y024136D01*
X028821Y024184D01*
X028918Y024136D02*
X028966Y024184D01*
X029015Y024184D01*
X029063Y024136D01*
X029063Y024039D01*
X029015Y023991D01*
X028966Y023991D01*
X028918Y024039D01*
X029063Y023890D02*
X029063Y023696D01*
X029063Y023793D02*
X028773Y023793D01*
X028870Y023696D01*
X028889Y023593D02*
X028937Y023545D01*
X028937Y023496D01*
X028889Y023448D01*
X028937Y023400D01*
X028937Y023351D01*
X028889Y023303D01*
X028792Y023303D01*
X028744Y023351D01*
X028773Y023401D02*
X029063Y023595D01*
X028889Y023593D02*
X028792Y023593D01*
X028744Y023545D01*
X028773Y023595D02*
X029063Y023401D01*
X028889Y023448D02*
X028841Y023448D01*
X028643Y023496D02*
X028449Y023303D01*
X028643Y023303D01*
X028643Y023496D02*
X028643Y023545D01*
X028594Y023593D01*
X028498Y023593D01*
X028449Y023545D01*
X028348Y023545D02*
X028348Y023448D01*
X028300Y023400D01*
X028155Y023400D01*
X028251Y023400D02*
X028348Y023303D01*
X028155Y023303D02*
X028155Y023593D01*
X028300Y023593D01*
X028348Y023545D01*
X028419Y022983D02*
X028371Y022935D01*
X028419Y022983D02*
X028516Y022983D01*
X028564Y022935D01*
X028564Y022886D01*
X028371Y022693D01*
X028564Y022693D01*
X028665Y022838D02*
X028859Y022838D01*
X028810Y022693D02*
X028810Y022983D01*
X028665Y022838D01*
X028269Y022838D02*
X028221Y022790D01*
X028076Y022790D01*
X028173Y022790D02*
X028269Y022693D01*
X028269Y022838D02*
X028269Y022935D01*
X028221Y022983D01*
X028076Y022983D01*
X028076Y022693D01*
X031188Y021329D02*
X031236Y021377D01*
X031430Y021184D01*
X031478Y021232D01*
X031478Y021329D01*
X031430Y021377D01*
X031236Y021377D01*
X031188Y021329D02*
X031188Y021232D01*
X031236Y021184D01*
X031430Y021184D01*
X031478Y021082D02*
X031478Y020889D01*
X031478Y020986D02*
X031188Y020986D01*
X031285Y020889D01*
X031333Y020788D02*
X031236Y020788D01*
X031188Y020739D01*
X031188Y020594D01*
X031478Y020594D01*
X031381Y020594D02*
X031381Y020739D01*
X031333Y020788D01*
X031381Y020691D02*
X031478Y020788D01*
X030739Y019997D02*
X030788Y019948D01*
X030594Y019755D01*
X030643Y019707D01*
X030739Y019707D01*
X030788Y019755D01*
X030788Y019948D01*
X030739Y019997D02*
X030643Y019997D01*
X030594Y019948D01*
X030594Y019755D01*
X030493Y019707D02*
X030300Y019707D01*
X030396Y019707D02*
X030396Y019997D01*
X030300Y019900D01*
X030198Y019948D02*
X030150Y019997D01*
X030053Y019997D01*
X030005Y019948D01*
X030005Y019755D01*
X030053Y019707D01*
X030150Y019707D01*
X030198Y019755D01*
X025060Y015208D02*
X024964Y015159D01*
X024867Y015063D01*
X025012Y015063D01*
X025060Y015014D01*
X025060Y014966D01*
X025012Y014917D01*
X024915Y014917D01*
X024867Y014966D01*
X024867Y015063D01*
X024766Y014917D02*
X024572Y014917D01*
X024669Y014917D02*
X024669Y015208D01*
X024572Y015111D01*
X024471Y015208D02*
X024471Y014966D01*
X024423Y014917D01*
X024326Y014917D01*
X024278Y014966D01*
X024278Y015208D01*
X023984Y015029D02*
X023984Y014933D01*
X023936Y014884D01*
X023839Y014981D02*
X023839Y015029D01*
X023887Y015078D01*
X023936Y015078D01*
X023984Y015029D01*
X023839Y015029D02*
X023791Y015078D01*
X023742Y015078D01*
X023694Y015029D01*
X023694Y014933D01*
X023742Y014884D01*
X023839Y014783D02*
X023839Y014590D01*
X023694Y014735D01*
X023984Y014735D01*
X023936Y014489D02*
X023984Y014440D01*
X023984Y014343D01*
X023936Y014295D01*
X023742Y014295D01*
X023694Y014343D01*
X023694Y014440D01*
X023742Y014489D01*
X023706Y013848D02*
X023755Y013799D01*
X023755Y013702D01*
X023706Y013654D01*
X023706Y013553D02*
X023755Y013505D01*
X023755Y013408D01*
X023706Y013359D01*
X023755Y013258D02*
X023658Y013162D01*
X023658Y013210D02*
X023658Y013065D01*
X023755Y013065D02*
X023464Y013065D01*
X023464Y013210D01*
X023513Y013258D01*
X023609Y013258D01*
X023658Y013210D01*
X023513Y013359D02*
X023464Y013408D01*
X023464Y013505D01*
X023513Y013553D01*
X023561Y013553D01*
X023609Y013505D01*
X023658Y013553D01*
X023706Y013553D01*
X023609Y013505D02*
X023609Y013456D01*
X023513Y013654D02*
X023464Y013702D01*
X023464Y013799D01*
X023513Y013848D01*
X023561Y013848D01*
X023609Y013799D01*
X023658Y013848D01*
X023706Y013848D01*
X023609Y013799D02*
X023609Y013751D01*
X020611Y014966D02*
X020563Y014917D01*
X020466Y014917D01*
X020418Y014966D01*
X020418Y015063D02*
X020515Y015111D01*
X020563Y015111D01*
X020611Y015063D01*
X020611Y014966D01*
X020418Y015063D02*
X020418Y015208D01*
X020611Y015208D01*
X020220Y015208D02*
X020220Y014917D01*
X020123Y014917D02*
X020317Y014917D01*
X020123Y015111D02*
X020220Y015208D01*
X020022Y015208D02*
X020022Y014966D01*
X019974Y014917D01*
X019877Y014917D01*
X019829Y014966D01*
X019829Y015208D01*
X019417Y015235D02*
X019417Y015042D01*
X019224Y015235D01*
X019175Y015235D01*
X019127Y015187D01*
X019127Y015090D01*
X019175Y015042D01*
X019272Y014941D02*
X019272Y014747D01*
X019127Y014892D01*
X019417Y014892D01*
X019369Y014646D02*
X019417Y014598D01*
X019417Y014501D01*
X019369Y014453D01*
X019175Y014453D01*
X019127Y014501D01*
X019127Y014598D01*
X019175Y014646D01*
X019170Y013926D02*
X019121Y013878D01*
X019121Y013733D01*
X019218Y013733D01*
X019266Y013781D01*
X019266Y013878D01*
X019218Y013926D01*
X019170Y013926D01*
X019024Y013830D02*
X019121Y013733D01*
X019073Y013632D02*
X019121Y013583D01*
X019170Y013632D01*
X019218Y013632D01*
X019266Y013583D01*
X019266Y013487D01*
X019218Y013438D01*
X019266Y013337D02*
X019170Y013240D01*
X019170Y013289D02*
X019170Y013144D01*
X019266Y013144D02*
X018976Y013144D01*
X018976Y013289D01*
X019024Y013337D01*
X019121Y013337D01*
X019170Y013289D01*
X019024Y013438D02*
X018976Y013487D01*
X018976Y013583D01*
X019024Y013632D01*
X019073Y013632D01*
X019121Y013583D02*
X019121Y013535D01*
X019024Y013830D02*
X018976Y013926D01*
X015848Y015023D02*
X015654Y015023D01*
X015799Y015168D01*
X015799Y014878D01*
X015553Y014878D02*
X015360Y014878D01*
X015456Y014878D02*
X015456Y015168D01*
X015360Y015072D01*
X015258Y015168D02*
X015258Y014926D01*
X015210Y014878D01*
X015113Y014878D01*
X015065Y014926D01*
X015065Y015168D01*
X014456Y015189D02*
X014408Y015141D01*
X014456Y015189D02*
X014456Y015286D01*
X014408Y015334D01*
X014360Y015334D01*
X014311Y015286D01*
X014311Y015238D01*
X014311Y015286D02*
X014263Y015334D01*
X014215Y015334D01*
X014166Y015286D01*
X014166Y015189D01*
X014215Y015141D01*
X014215Y015040D02*
X014166Y014991D01*
X014166Y014895D01*
X014215Y014846D01*
X014408Y014846D01*
X014456Y014895D01*
X014456Y014991D01*
X014408Y015040D01*
X014408Y015436D02*
X014360Y015436D01*
X014311Y015484D01*
X014311Y015581D01*
X014360Y015629D01*
X014408Y015629D01*
X014456Y015581D01*
X014456Y015484D01*
X014408Y015436D01*
X014311Y015484D02*
X014263Y015436D01*
X014215Y015436D01*
X014166Y015484D01*
X014166Y015581D01*
X014215Y015629D01*
X014263Y015629D01*
X014311Y015581D01*
X014527Y013926D02*
X014527Y013733D01*
X014672Y013733D01*
X014624Y013830D01*
X014624Y013878D01*
X014672Y013926D01*
X014769Y013926D01*
X014818Y013878D01*
X014818Y013781D01*
X014769Y013733D01*
X014769Y013632D02*
X014818Y013583D01*
X014818Y013487D01*
X014769Y013438D01*
X014818Y013337D02*
X014721Y013240D01*
X014721Y013289D02*
X014721Y013144D01*
X014818Y013144D02*
X014527Y013144D01*
X014527Y013289D01*
X014576Y013337D01*
X014672Y013337D01*
X014721Y013289D01*
X014576Y013438D02*
X014527Y013487D01*
X014527Y013583D01*
X014576Y013632D01*
X014624Y013632D01*
X014672Y013583D01*
X014721Y013632D01*
X014769Y013632D01*
X014672Y013583D02*
X014672Y013535D01*
X010926Y015045D02*
X010878Y014996D01*
X010781Y014996D01*
X010733Y015045D01*
X010632Y014996D02*
X010438Y014996D01*
X010535Y014996D02*
X010535Y015286D01*
X010438Y015190D01*
X010337Y015286D02*
X010337Y015045D01*
X010289Y014996D01*
X010192Y014996D01*
X010144Y015045D01*
X010144Y015286D01*
X009771Y014963D02*
X009723Y014963D01*
X009530Y015157D01*
X009481Y015157D01*
X009481Y014963D01*
X009530Y014862D02*
X009481Y014814D01*
X009481Y014717D01*
X009530Y014668D01*
X009530Y014567D02*
X009481Y014519D01*
X009481Y014422D01*
X009530Y014374D01*
X009723Y014374D01*
X009771Y014422D01*
X009771Y014519D01*
X009723Y014567D01*
X009771Y014668D02*
X009578Y014862D01*
X009530Y014862D01*
X009771Y014862D02*
X009771Y014668D01*
X010078Y014350D02*
X010078Y014254D01*
X010127Y014205D01*
X010078Y014350D02*
X010127Y014399D01*
X010175Y014399D01*
X010369Y014205D01*
X010369Y014399D01*
X010369Y014104D02*
X010369Y013911D01*
X010369Y014007D02*
X010078Y014007D01*
X010175Y013911D01*
X010127Y013809D02*
X010224Y013809D01*
X010272Y013761D01*
X010272Y013616D01*
X010369Y013616D02*
X010078Y013616D01*
X010078Y013761D01*
X010127Y013809D01*
X010272Y013713D02*
X010369Y013809D01*
X010926Y015045D02*
X010926Y015093D01*
X010878Y015141D01*
X010830Y015141D01*
X010878Y015141D02*
X010926Y015190D01*
X010926Y015238D01*
X010878Y015286D01*
X010781Y015286D01*
X010733Y015238D01*
X009262Y016170D02*
X009069Y016170D01*
X009262Y016364D01*
X009262Y016412D01*
X009214Y016460D01*
X009117Y016460D01*
X009069Y016412D01*
X008967Y016412D02*
X008919Y016460D01*
X008822Y016460D01*
X008774Y016412D01*
X008673Y016412D02*
X008624Y016460D01*
X008528Y016460D01*
X008479Y016412D01*
X008479Y016218D01*
X008528Y016170D01*
X008624Y016170D01*
X008673Y016218D01*
X008774Y016170D02*
X008967Y016364D01*
X008967Y016412D01*
X008967Y016170D02*
X008774Y016170D01*
X008797Y015885D02*
X008700Y015885D01*
X008652Y015837D01*
X008551Y015837D02*
X008502Y015885D01*
X008406Y015885D01*
X008357Y015837D01*
X008357Y015644D01*
X008406Y015595D01*
X008502Y015595D01*
X008551Y015644D01*
X008652Y015595D02*
X008845Y015789D01*
X008845Y015837D01*
X008797Y015885D01*
X008947Y015837D02*
X008995Y015885D01*
X009092Y015885D01*
X009140Y015837D01*
X009140Y015789D01*
X009092Y015740D01*
X009140Y015692D01*
X009140Y015644D01*
X009092Y015595D01*
X008995Y015595D01*
X008947Y015644D01*
X008845Y015595D02*
X008652Y015595D01*
X009043Y015740D02*
X009092Y015740D01*
X008171Y015154D02*
X008171Y014864D01*
X008075Y014864D02*
X008268Y014864D01*
X008075Y015058D02*
X008171Y015154D01*
X007973Y015106D02*
X007973Y015058D01*
X007925Y015009D01*
X007973Y014961D01*
X007973Y014912D01*
X007925Y014864D01*
X007828Y014864D01*
X007780Y014912D01*
X007679Y014864D02*
X007582Y014961D01*
X007630Y014961D02*
X007485Y014961D01*
X007485Y014864D02*
X007485Y015154D01*
X007630Y015154D01*
X007679Y015106D01*
X007679Y015009D01*
X007630Y014961D01*
X007780Y015106D02*
X007828Y015154D01*
X007925Y015154D01*
X007973Y015106D01*
X007925Y015009D02*
X007877Y015009D01*
X007446Y013808D02*
X007495Y013760D01*
X007495Y013663D01*
X007446Y013615D01*
X007253Y013808D01*
X007446Y013808D01*
X007253Y013808D02*
X007204Y013760D01*
X007204Y013663D01*
X007253Y013615D01*
X007446Y013615D01*
X007350Y013514D02*
X007350Y013320D01*
X007204Y013465D01*
X007495Y013465D01*
X007495Y013219D02*
X007398Y013122D01*
X007398Y013171D02*
X007398Y013025D01*
X007495Y013025D02*
X007204Y013025D01*
X007204Y013171D01*
X007253Y013219D01*
X007350Y013219D01*
X007398Y013171D01*
X007534Y013021D02*
X007680Y013021D01*
X007728Y012973D01*
X007728Y012876D01*
X007680Y012828D01*
X007534Y012828D01*
X007534Y012731D02*
X007534Y013021D01*
X007631Y012828D02*
X007728Y012731D01*
X007829Y012731D02*
X008023Y012731D01*
X007926Y012731D02*
X007926Y013021D01*
X007829Y012925D01*
X008124Y012876D02*
X008220Y012925D01*
X008269Y012925D01*
X008317Y012876D01*
X008317Y012779D01*
X008269Y012731D01*
X008172Y012731D01*
X008124Y012779D01*
X008124Y012876D02*
X008124Y013021D01*
X008317Y013021D01*
X008361Y012313D02*
X008410Y012264D01*
X008410Y012216D01*
X008361Y012168D01*
X008410Y012119D01*
X008410Y012071D01*
X008361Y012022D01*
X008265Y012022D01*
X008216Y012071D01*
X008115Y012071D02*
X008115Y012264D01*
X008067Y012313D01*
X007922Y012313D01*
X007922Y012022D01*
X008067Y012022D01*
X008115Y012071D01*
X008216Y012264D02*
X008265Y012313D01*
X008361Y012313D01*
X008361Y012168D02*
X008313Y012168D01*
X007820Y012313D02*
X007627Y012313D01*
X007627Y012022D01*
X007820Y012022D01*
X007724Y012168D02*
X007627Y012168D01*
X007526Y012022D02*
X007332Y012022D01*
X007332Y012313D01*
X008551Y011448D02*
X008864Y011134D01*
X008707Y011134D02*
X008707Y011448D01*
X008864Y011448D02*
X008551Y011134D01*
X008551Y011291D02*
X008864Y011291D01*
X008857Y010472D02*
X008809Y010472D01*
X008760Y010423D01*
X008760Y010278D01*
X008857Y010278D01*
X008905Y010326D01*
X008905Y010423D01*
X008857Y010472D01*
X008663Y010375D02*
X008760Y010278D01*
X008712Y010177D02*
X008663Y010177D01*
X008615Y010129D01*
X008615Y010032D01*
X008663Y009983D01*
X008663Y009882D02*
X008615Y009834D01*
X008615Y009737D01*
X008663Y009689D01*
X008857Y009689D01*
X008905Y009737D01*
X008905Y009834D01*
X008857Y009882D01*
X008905Y009983D02*
X008712Y010177D01*
X008905Y010177D02*
X008905Y009983D01*
X008884Y009559D02*
X008787Y009559D01*
X008739Y009510D01*
X008637Y009510D02*
X008589Y009559D01*
X008492Y009559D01*
X008444Y009510D01*
X008444Y009317D01*
X008492Y009268D01*
X008589Y009268D01*
X008637Y009317D01*
X008739Y009268D02*
X008932Y009462D01*
X008932Y009510D01*
X008884Y009559D01*
X009033Y009414D02*
X009227Y009414D01*
X009178Y009559D02*
X009178Y009268D01*
X009112Y009157D02*
X009112Y009012D01*
X009209Y009060D01*
X009257Y009060D01*
X009305Y009012D01*
X009305Y008915D01*
X009257Y008867D01*
X009160Y008867D01*
X009112Y008915D01*
X009011Y008867D02*
X008817Y008867D01*
X009011Y009060D01*
X009011Y009109D01*
X008962Y009157D01*
X008866Y009157D01*
X008817Y009109D01*
X008716Y009109D02*
X008668Y009157D01*
X008571Y009157D01*
X008523Y009109D01*
X008523Y008915D01*
X008571Y008867D01*
X008668Y008867D01*
X008716Y008915D01*
X008678Y008605D02*
X008629Y008557D01*
X008629Y008315D01*
X008581Y008460D02*
X008678Y008460D01*
X008778Y008363D02*
X008826Y008412D01*
X008971Y008412D01*
X008971Y008460D02*
X008971Y008315D01*
X008826Y008315D01*
X008778Y008363D01*
X008826Y008508D02*
X008923Y008508D01*
X008971Y008460D01*
X009072Y008508D02*
X009217Y008508D01*
X009266Y008460D01*
X009266Y008315D01*
X009367Y008315D02*
X009512Y008315D01*
X009560Y008363D01*
X009512Y008412D01*
X009415Y008412D01*
X009367Y008460D01*
X009415Y008508D01*
X009560Y008508D01*
X009072Y008508D02*
X009072Y008315D01*
X008480Y008412D02*
X008480Y008605D01*
X008480Y008412D02*
X008383Y008315D01*
X008286Y008412D01*
X008286Y008605D01*
X008025Y008605D02*
X008025Y008315D01*
X007880Y008315D01*
X007832Y008363D01*
X007832Y008460D01*
X007880Y008508D01*
X008025Y008508D01*
X007731Y008460D02*
X007731Y008315D01*
X007634Y008315D02*
X007634Y008460D01*
X007682Y008508D01*
X007731Y008460D01*
X007634Y008460D02*
X007586Y008508D01*
X007537Y008508D01*
X007537Y008315D01*
X007436Y008363D02*
X007388Y008412D01*
X007291Y008412D01*
X007243Y008460D01*
X007291Y008508D01*
X007436Y008508D01*
X007436Y008363D02*
X007388Y008315D01*
X007243Y008315D01*
X007141Y008412D02*
X007141Y008605D01*
X007003Y008508D02*
X006906Y008508D01*
X006954Y008557D02*
X006954Y008363D01*
X007003Y008315D01*
X007045Y008315D02*
X007141Y008412D01*
X007045Y008315D02*
X006948Y008412D01*
X006948Y008605D01*
X006805Y008460D02*
X006805Y008315D01*
X006660Y008315D01*
X006611Y008363D01*
X006660Y008412D01*
X006805Y008412D01*
X006805Y008460D02*
X006756Y008508D01*
X006660Y008508D01*
X006510Y008460D02*
X006510Y008412D01*
X006317Y008412D01*
X006317Y008460D02*
X006365Y008508D01*
X006462Y008508D01*
X006510Y008460D01*
X006462Y008315D02*
X006365Y008315D01*
X006317Y008363D01*
X006317Y008460D01*
X006216Y008460D02*
X006216Y008315D01*
X006216Y008460D02*
X006167Y008508D01*
X006070Y008508D01*
X006022Y008460D01*
X005921Y008412D02*
X005824Y008315D01*
X005727Y008412D01*
X005727Y008605D01*
X005921Y008605D02*
X005921Y008412D01*
X006022Y008315D02*
X006022Y008605D01*
X006453Y009360D02*
X006405Y009408D01*
X006405Y009602D01*
X006453Y009650D01*
X006550Y009650D01*
X006598Y009602D01*
X006598Y009408D01*
X006550Y009360D01*
X006453Y009360D01*
X006501Y009457D02*
X006598Y009360D01*
X006699Y009360D02*
X006893Y009360D01*
X006796Y009360D02*
X006796Y009650D01*
X006699Y009554D01*
X006763Y010518D02*
X006715Y010567D01*
X006715Y010615D01*
X006763Y010663D01*
X006860Y010663D01*
X006908Y010615D01*
X006908Y010567D01*
X006860Y010518D01*
X006763Y010518D01*
X006763Y010663D02*
X006715Y010712D01*
X006715Y010760D01*
X006763Y010808D01*
X006860Y010808D01*
X006908Y010760D01*
X006908Y010712D01*
X006860Y010663D01*
X007010Y010760D02*
X007010Y010518D01*
X007203Y010518D02*
X007203Y010760D01*
X007155Y010808D01*
X007058Y010808D01*
X007010Y010760D01*
X008615Y010472D02*
X008663Y010375D01*
X009178Y009559D02*
X009033Y009414D01*
X008932Y009268D02*
X008739Y009268D01*
X009112Y009157D02*
X009305Y009157D01*
X008822Y007399D02*
X008725Y007399D01*
X008677Y007350D01*
X008576Y007399D02*
X008479Y007399D01*
X008527Y007399D02*
X008527Y007157D01*
X008479Y007109D01*
X008431Y007109D01*
X008382Y007157D01*
X008677Y007157D02*
X008725Y007109D01*
X008822Y007109D01*
X008870Y007157D01*
X008870Y007205D01*
X008822Y007254D01*
X008774Y007254D01*
X008822Y007254D02*
X008870Y007302D01*
X008870Y007350D01*
X008822Y007399D01*
X007689Y007350D02*
X007641Y007399D01*
X007544Y007399D01*
X007496Y007350D01*
X007395Y007399D02*
X007298Y007399D01*
X007346Y007399D02*
X007346Y007157D01*
X007298Y007109D01*
X007249Y007109D01*
X007201Y007157D01*
X007496Y007109D02*
X007689Y007302D01*
X007689Y007350D01*
X007689Y007109D02*
X007496Y007109D01*
X006429Y007109D02*
X006236Y007109D01*
X006333Y007109D02*
X006333Y007399D01*
X006236Y007302D01*
X006135Y007399D02*
X006038Y007399D01*
X006086Y007399D02*
X006086Y007157D01*
X006038Y007109D01*
X005990Y007109D01*
X005941Y007157D01*
X004808Y014464D02*
X004614Y014464D01*
X004808Y014658D01*
X004808Y014706D01*
X004759Y014755D01*
X004663Y014755D01*
X004614Y014706D01*
X004513Y014755D02*
X004320Y014464D01*
X004513Y014464D02*
X004320Y014755D01*
X006483Y016456D02*
X006532Y016407D01*
X006628Y016407D01*
X006677Y016456D01*
X006677Y016649D01*
X006628Y016698D01*
X006532Y016698D01*
X006483Y016649D01*
X006483Y016456D01*
X006580Y016504D02*
X006677Y016407D01*
X006778Y016456D02*
X006826Y016407D01*
X006923Y016407D01*
X006971Y016456D01*
X006971Y016504D01*
X006923Y016552D01*
X006875Y016552D01*
X006923Y016552D02*
X006971Y016601D01*
X006971Y016649D01*
X006923Y016698D01*
X006826Y016698D01*
X006778Y016649D01*
X008506Y017432D02*
X008506Y017480D01*
X008700Y017674D01*
X008700Y017722D01*
X008801Y017674D02*
X008801Y017432D01*
X008700Y017432D02*
X008506Y017432D01*
X008801Y017674D02*
X008849Y017722D01*
X008946Y017722D01*
X008994Y017674D01*
X008994Y017432D01*
X008746Y018063D02*
X008432Y018377D01*
X008432Y018220D02*
X008746Y018220D01*
X008746Y018377D02*
X008432Y018063D01*
X008589Y018063D02*
X008589Y018377D01*
X008749Y018498D02*
X008942Y018498D01*
X008991Y018546D01*
X008991Y018643D01*
X008942Y018691D01*
X008942Y018793D02*
X008991Y018841D01*
X008991Y018938D01*
X008942Y018986D01*
X008894Y018986D01*
X008846Y018938D01*
X008846Y018889D01*
X008846Y018938D02*
X008797Y018986D01*
X008749Y018986D01*
X008701Y018938D01*
X008701Y018841D01*
X008749Y018793D01*
X008749Y018691D02*
X008701Y018643D01*
X008701Y018546D01*
X008749Y018498D01*
X008449Y018952D02*
X008256Y018952D01*
X008449Y019145D01*
X008449Y019193D01*
X008401Y019242D01*
X008304Y019242D01*
X008256Y019193D01*
X008154Y019193D02*
X008106Y019242D01*
X007961Y019242D01*
X007961Y018952D01*
X008106Y018952D01*
X008154Y019000D01*
X008154Y019193D01*
X007860Y019242D02*
X007666Y019242D01*
X007666Y018952D01*
X007860Y018952D01*
X007763Y019097D02*
X007666Y019097D01*
X007565Y018952D02*
X007372Y018952D01*
X007372Y019242D01*
X007603Y019878D02*
X007603Y020168D01*
X007749Y020168D01*
X007797Y020120D01*
X007797Y020023D01*
X007749Y019975D01*
X007603Y019975D01*
X007700Y019975D02*
X007797Y019878D01*
X007898Y019878D02*
X008092Y019878D01*
X007995Y019878D02*
X007995Y020168D01*
X007898Y020071D01*
X008193Y020023D02*
X008289Y020120D01*
X008386Y020168D01*
X008338Y020023D02*
X008193Y020023D01*
X008193Y019926D01*
X008241Y019878D01*
X008338Y019878D01*
X008386Y019926D01*
X008386Y019975D01*
X008338Y020023D01*
X008740Y019983D02*
X008740Y020079D01*
X008788Y020128D01*
X008837Y020128D01*
X008885Y020079D01*
X008933Y020128D01*
X008982Y020128D01*
X009030Y020079D01*
X009030Y019983D01*
X008982Y019934D01*
X008982Y019833D02*
X009030Y019785D01*
X009030Y019688D01*
X008982Y019640D01*
X008788Y019640D01*
X008740Y019688D01*
X008740Y019785D01*
X008788Y019833D01*
X008788Y019934D02*
X008740Y019983D01*
X008885Y020031D02*
X008885Y020079D01*
X008788Y020229D02*
X008740Y020277D01*
X008740Y020374D01*
X008788Y020422D01*
X008982Y020229D01*
X009030Y020277D01*
X009030Y020374D01*
X008982Y020422D01*
X008788Y020422D01*
X008788Y020229D02*
X008982Y020229D01*
X008991Y019281D02*
X008991Y019087D01*
X008991Y019184D02*
X008701Y019184D01*
X008797Y019087D01*
X010064Y019853D02*
X010112Y019805D01*
X010209Y019805D01*
X010258Y019853D01*
X010359Y019805D02*
X010552Y019805D01*
X010455Y019805D02*
X010455Y020095D01*
X010359Y019998D01*
X010258Y020047D02*
X010209Y020095D01*
X010112Y020095D01*
X010064Y020047D01*
X010064Y019853D01*
X011540Y019834D02*
X011589Y019785D01*
X011686Y019785D01*
X011734Y019834D01*
X011835Y019785D02*
X012029Y019979D01*
X012029Y020027D01*
X011980Y020076D01*
X011883Y020076D01*
X011835Y020027D01*
X011734Y020027D02*
X011686Y020076D01*
X011589Y020076D01*
X011540Y020027D01*
X011540Y019834D01*
X011835Y019785D02*
X012029Y019785D01*
X012716Y019469D02*
X012716Y019372D01*
X012765Y019323D01*
X012765Y019222D02*
X012813Y019222D01*
X012861Y019174D01*
X012910Y019222D01*
X012958Y019222D01*
X013006Y019174D01*
X013006Y019077D01*
X012958Y019029D01*
X012958Y018928D02*
X013006Y018879D01*
X013006Y018782D01*
X012958Y018734D01*
X012765Y018734D01*
X012716Y018782D01*
X012716Y018879D01*
X012765Y018928D01*
X012765Y019029D02*
X012716Y019077D01*
X012716Y019174D01*
X012765Y019222D01*
X012861Y019174D02*
X012861Y019126D01*
X013006Y019323D02*
X012813Y019517D01*
X012765Y019517D01*
X012716Y019469D01*
X013006Y019517D02*
X013006Y019323D01*
X013706Y019519D02*
X013754Y019470D01*
X013851Y019470D01*
X013899Y019519D01*
X014000Y019519D02*
X014049Y019470D01*
X014146Y019470D01*
X014194Y019519D01*
X014194Y019567D01*
X014146Y019615D01*
X014097Y019615D01*
X014146Y019615D02*
X014194Y019664D01*
X014194Y019712D01*
X014146Y019761D01*
X014049Y019761D01*
X014000Y019712D01*
X013899Y019712D02*
X013851Y019761D01*
X013754Y019761D01*
X013706Y019712D01*
X013706Y019519D01*
X014295Y019519D02*
X014343Y019470D01*
X014440Y019470D01*
X014489Y019519D01*
X014489Y019567D01*
X014440Y019615D01*
X014392Y019615D01*
X014440Y019615D02*
X014489Y019664D01*
X014489Y019712D01*
X014440Y019761D01*
X014343Y019761D01*
X014295Y019712D01*
X014876Y019919D02*
X014925Y019871D01*
X015021Y019871D01*
X015070Y019919D01*
X015171Y019919D02*
X015219Y019871D01*
X015316Y019871D01*
X015364Y019919D01*
X015364Y019968D01*
X015316Y020016D01*
X015268Y020016D01*
X015316Y020016D02*
X015364Y020064D01*
X015364Y020113D01*
X015316Y020161D01*
X015219Y020161D01*
X015171Y020113D01*
X015070Y020113D02*
X015021Y020161D01*
X014925Y020161D01*
X014876Y020113D01*
X014876Y019919D01*
X014352Y020850D02*
X014062Y020850D01*
X014062Y020995D01*
X014110Y021043D01*
X014207Y021043D01*
X014255Y020995D01*
X014255Y020850D01*
X014255Y020946D02*
X014352Y021043D01*
X014304Y021144D02*
X014352Y021193D01*
X014352Y021289D01*
X014304Y021338D01*
X014255Y021338D01*
X014207Y021289D01*
X014207Y021241D01*
X014207Y021289D02*
X014159Y021338D01*
X014110Y021338D01*
X014062Y021289D01*
X014062Y021193D01*
X014110Y021144D01*
X012756Y021155D02*
X012563Y021348D01*
X012515Y021348D01*
X012466Y021300D01*
X012466Y021203D01*
X012515Y021155D01*
X012515Y021054D02*
X012611Y021054D01*
X012660Y021005D01*
X012660Y020860D01*
X012756Y020860D02*
X012466Y020860D01*
X012466Y021005D01*
X012515Y021054D01*
X012660Y020957D02*
X012756Y021054D01*
X012756Y021155D02*
X012756Y021348D01*
X010040Y021884D02*
X009750Y021884D01*
X009750Y022029D01*
X009798Y022077D01*
X009895Y022077D01*
X009943Y022029D01*
X009943Y021884D01*
X009943Y021980D02*
X010040Y022077D01*
X010040Y022178D02*
X010040Y022372D01*
X010040Y022275D02*
X009750Y022275D01*
X009846Y022178D01*
X009252Y021951D02*
X009059Y021951D01*
X009156Y021951D02*
X009156Y022241D01*
X009059Y022144D01*
X008958Y022096D02*
X008764Y022096D01*
X008909Y022241D01*
X008909Y021951D01*
X008663Y021951D02*
X008566Y022047D01*
X008615Y022047D02*
X008470Y022047D01*
X008470Y021951D02*
X008470Y022241D01*
X008615Y022241D01*
X008663Y022193D01*
X008663Y022096D01*
X008615Y022047D01*
X008636Y022915D02*
X008733Y022915D01*
X008781Y022964D01*
X008882Y022915D02*
X009076Y023109D01*
X009076Y023157D01*
X009027Y023205D01*
X008931Y023205D01*
X008882Y023157D01*
X008781Y023157D02*
X008733Y023205D01*
X008636Y023205D01*
X008588Y023157D01*
X008588Y022964D01*
X008636Y022915D01*
X008882Y022915D02*
X009076Y022915D01*
X009177Y022915D02*
X009370Y022915D01*
X009274Y022915D02*
X009274Y023205D01*
X009177Y023109D01*
X009174Y023485D02*
X009078Y023485D01*
X009029Y023533D01*
X009223Y023727D01*
X009223Y023533D01*
X009174Y023485D01*
X009029Y023533D02*
X009029Y023727D01*
X009078Y023775D01*
X009174Y023775D01*
X009223Y023727D01*
X008928Y023727D02*
X008880Y023775D01*
X008783Y023775D01*
X008735Y023727D01*
X008633Y023727D02*
X008585Y023775D01*
X008488Y023775D01*
X008440Y023727D01*
X008440Y023533D01*
X008488Y023485D01*
X008585Y023485D01*
X008633Y023533D01*
X008735Y023485D02*
X008928Y023678D01*
X008928Y023727D01*
X008928Y023485D02*
X008735Y023485D01*
X009993Y023441D02*
X010284Y023634D01*
X010284Y023735D02*
X010284Y023929D01*
X010284Y023832D02*
X009993Y023832D01*
X010090Y023735D01*
X009993Y023634D02*
X010284Y023441D01*
X010139Y024030D02*
X010139Y024224D01*
X010284Y024175D02*
X009993Y024175D01*
X010139Y024030D01*
X008864Y025268D02*
X008551Y025582D01*
X008707Y025582D02*
X008707Y025268D01*
X008551Y025268D02*
X008864Y025582D01*
X008864Y025425D02*
X008551Y025425D01*
X008410Y026156D02*
X008216Y026156D01*
X008313Y026156D02*
X008313Y026446D01*
X008216Y026350D01*
X008115Y026398D02*
X008067Y026446D01*
X007922Y026446D01*
X007922Y026156D01*
X008067Y026156D01*
X008115Y026205D01*
X008115Y026398D01*
X007820Y026446D02*
X007627Y026446D01*
X007627Y026156D01*
X007820Y026156D01*
X007724Y026301D02*
X007627Y026301D01*
X007526Y026156D02*
X007332Y026156D01*
X007332Y026446D01*
X007495Y026983D02*
X007495Y027273D01*
X007640Y027273D01*
X007689Y027225D01*
X007689Y027128D01*
X007640Y027080D01*
X007495Y027080D01*
X007592Y027080D02*
X007689Y026983D01*
X007790Y026983D02*
X007983Y026983D01*
X007886Y026983D02*
X007886Y027273D01*
X007790Y027176D01*
X008084Y027128D02*
X008278Y027128D01*
X008229Y026983D02*
X008229Y027273D01*
X008084Y027128D01*
X009940Y027803D02*
X009940Y028046D01*
X009940Y028166D02*
X010304Y028166D01*
X010122Y028166D02*
X010061Y028226D01*
X010061Y028347D01*
X010122Y028408D01*
X010304Y028408D01*
X010243Y028528D02*
X010122Y028528D01*
X010061Y028589D01*
X010061Y028710D01*
X010122Y028771D01*
X010182Y028771D01*
X010182Y028528D01*
X010243Y028528D02*
X010304Y028589D01*
X010304Y028710D01*
X010304Y028890D02*
X010061Y028890D01*
X010182Y028890D02*
X010061Y029012D01*
X010061Y029072D01*
X010061Y029193D02*
X010061Y029253D01*
X010122Y029314D01*
X010061Y029375D01*
X010122Y029435D01*
X010304Y029435D01*
X010304Y029314D02*
X010122Y029314D01*
X010061Y029193D02*
X010304Y029193D01*
X010304Y027924D02*
X009940Y027924D01*
X011607Y027902D02*
X011897Y027709D01*
X011897Y027902D02*
X011607Y027709D01*
X011656Y028003D02*
X011607Y028051D01*
X011607Y028148D01*
X011656Y028197D01*
X011849Y028197D01*
X011897Y028148D01*
X011897Y028051D01*
X011849Y028003D01*
X011752Y028051D02*
X011752Y028197D01*
X011752Y028051D02*
X011704Y028003D01*
X011656Y028003D01*
X012656Y027809D02*
X012656Y027567D01*
X013020Y027567D01*
X013020Y027809D01*
X013020Y027929D02*
X012778Y028172D01*
X012778Y028292D02*
X012778Y028413D01*
X012717Y028352D02*
X012960Y028352D01*
X013020Y028413D01*
X013020Y028533D02*
X013020Y028776D01*
X013020Y028655D02*
X012656Y028655D01*
X012778Y028533D01*
X013020Y028172D02*
X012778Y027929D01*
X012838Y027688D02*
X012838Y027567D01*
X014166Y027748D02*
X014456Y027941D01*
X014456Y028043D02*
X014408Y028043D01*
X014215Y028236D01*
X014166Y028236D01*
X014166Y028043D01*
X014166Y027941D02*
X014456Y027748D01*
X015609Y027685D02*
X015973Y027685D01*
X015791Y027685D02*
X015791Y027928D01*
X015791Y028047D02*
X015791Y028229D01*
X015852Y028290D01*
X015912Y028290D01*
X015973Y028229D01*
X015973Y028047D01*
X015609Y028047D01*
X015609Y028229D01*
X015670Y028290D01*
X015730Y028290D01*
X015791Y028229D01*
X015852Y028410D02*
X015852Y028592D01*
X015791Y028653D01*
X015670Y028653D01*
X015609Y028592D01*
X015609Y028410D01*
X015973Y028410D01*
X015973Y027928D02*
X015609Y027928D01*
X016843Y027941D02*
X017134Y027748D01*
X017134Y027941D02*
X016843Y027748D01*
X016892Y028043D02*
X016940Y028043D01*
X016989Y028091D01*
X016989Y028188D01*
X017037Y028236D01*
X017085Y028236D01*
X017134Y028188D01*
X017134Y028091D01*
X017085Y028043D01*
X017037Y028043D01*
X016989Y028091D01*
X016989Y028188D02*
X016940Y028236D01*
X016892Y028236D01*
X016843Y028188D01*
X016843Y028091D01*
X016892Y028043D01*
X017932Y027691D02*
X017932Y027449D01*
X018296Y027449D01*
X018296Y027691D01*
X018296Y027811D02*
X018053Y028054D01*
X018053Y028174D02*
X018053Y028295D01*
X017993Y028234D02*
X018235Y028234D01*
X018296Y028295D01*
X018296Y028415D02*
X018053Y028658D01*
X017993Y028658D01*
X017932Y028597D01*
X017932Y028476D01*
X017993Y028415D01*
X018296Y028415D02*
X018296Y028658D01*
X018296Y028054D02*
X018053Y027811D01*
X018114Y027570D02*
X018114Y027449D01*
X019861Y027527D02*
X020225Y027527D01*
X020225Y027770D01*
X020225Y027890D02*
X019982Y027890D01*
X019982Y028072D01*
X020043Y028133D01*
X020225Y028133D01*
X020164Y028252D02*
X020043Y028252D01*
X019982Y028313D01*
X019982Y028495D01*
X019861Y028495D02*
X020225Y028495D01*
X020225Y028313D01*
X020164Y028252D01*
X020529Y028203D02*
X020591Y028141D01*
X020714Y028141D01*
X020776Y028203D01*
X020776Y028326D01*
X020714Y028388D01*
X020591Y028388D01*
X020529Y028326D01*
X020529Y028203D01*
X020529Y028019D02*
X020529Y027896D01*
X020468Y027957D02*
X020714Y027957D01*
X020776Y028019D01*
X020714Y027774D02*
X020653Y027713D01*
X020653Y027589D01*
X020591Y027527D01*
X020529Y027589D01*
X020529Y027774D01*
X020714Y027774D02*
X020776Y027713D01*
X020776Y027527D01*
X020043Y027527D02*
X020043Y027649D01*
X019861Y027770D02*
X019861Y027527D01*
X020529Y028510D02*
X020529Y028695D01*
X020591Y028756D01*
X020714Y028756D01*
X020776Y028695D01*
X020776Y028510D01*
X020900Y028510D02*
X020529Y028510D01*
X020591Y028878D02*
X020529Y028940D01*
X020529Y029125D01*
X020653Y029063D02*
X020653Y028940D01*
X020591Y028878D01*
X020776Y028878D02*
X020776Y029063D01*
X020714Y029125D01*
X020653Y029063D01*
X020776Y029614D02*
X020776Y029861D01*
X020776Y029738D02*
X020406Y029738D01*
X020529Y029614D01*
X022101Y029570D02*
X022295Y029280D01*
X022396Y029280D02*
X022590Y029280D01*
X022493Y029280D02*
X022493Y029570D01*
X022396Y029474D01*
X022295Y029570D02*
X022101Y029280D01*
X022691Y029280D02*
X022884Y029280D01*
X022787Y029280D02*
X022787Y029570D01*
X022691Y029474D01*
X023877Y028046D02*
X024241Y027803D01*
X024241Y028046D02*
X023877Y027803D01*
X025566Y029320D02*
X025759Y029610D01*
X025861Y029513D02*
X025957Y029610D01*
X025957Y029320D01*
X025861Y029320D02*
X026054Y029320D01*
X026155Y029320D02*
X026349Y029513D01*
X026349Y029561D01*
X026300Y029610D01*
X026204Y029610D01*
X026155Y029561D01*
X026155Y029320D02*
X026349Y029320D01*
X025759Y029320D02*
X025566Y029610D01*
X027381Y028085D02*
X027441Y028085D01*
X027563Y027964D01*
X027745Y027964D01*
X027563Y027964D02*
X027441Y027842D01*
X027381Y027842D01*
X029031Y029359D02*
X029224Y029649D01*
X029325Y029552D02*
X029422Y029649D01*
X029422Y029359D01*
X029325Y029359D02*
X029519Y029359D01*
X029620Y029407D02*
X029813Y029601D01*
X029813Y029407D01*
X029765Y029359D01*
X029668Y029359D01*
X029620Y029407D01*
X029620Y029601D01*
X029668Y029649D01*
X029765Y029649D01*
X029813Y029601D01*
X029224Y029359D02*
X029031Y029649D01*
X030885Y028046D02*
X030945Y028046D01*
X031188Y027803D01*
X031249Y027803D01*
X031249Y028046D01*
X030885Y028046D02*
X030885Y027803D01*
X035058Y026217D02*
X035305Y026031D01*
X035426Y026217D02*
X035673Y026217D01*
X035795Y026278D02*
X035856Y026217D01*
X035980Y026217D01*
X036042Y026155D01*
X036042Y026093D01*
X035980Y026031D01*
X035856Y026031D01*
X035795Y026093D01*
X035795Y026278D02*
X035795Y026340D01*
X035856Y026402D01*
X035980Y026402D01*
X036042Y026340D01*
X036163Y026278D02*
X036286Y026278D01*
X036225Y026340D02*
X036225Y026093D01*
X036286Y026031D01*
X036409Y026031D02*
X036409Y026278D01*
X036409Y026155D02*
X036532Y026278D01*
X036594Y026278D01*
X036715Y026278D02*
X036777Y026278D01*
X036777Y026031D01*
X036715Y026031D02*
X036839Y026031D01*
X036961Y026031D02*
X037146Y026031D01*
X037208Y026093D01*
X037208Y026217D01*
X037146Y026278D01*
X036961Y026278D01*
X036961Y025908D01*
X037329Y026217D02*
X037576Y026217D01*
X037698Y026402D02*
X037944Y026217D01*
X037698Y026031D01*
X036777Y026402D02*
X036777Y026463D01*
X035305Y026402D02*
X035058Y026217D01*
X020008Y024136D02*
X019960Y024184D01*
X019911Y024184D01*
X019863Y024136D01*
X019863Y023991D01*
X019960Y023991D01*
X020008Y024039D01*
X020008Y024136D01*
X019863Y023991D02*
X019766Y024087D01*
X019718Y024184D01*
X020008Y023890D02*
X020008Y023696D01*
X020008Y023793D02*
X019718Y023793D01*
X019815Y023696D01*
X019718Y023595D02*
X020008Y023401D01*
X020008Y023595D02*
X019718Y023401D01*
X019086Y021388D02*
X019134Y021339D01*
X019134Y021242D01*
X019086Y021194D01*
X018989Y021194D02*
X018941Y021291D01*
X018941Y021339D01*
X018989Y021388D01*
X019086Y021388D01*
X018989Y021194D02*
X018844Y021194D01*
X018844Y021388D01*
X018893Y021093D02*
X018989Y021093D01*
X019038Y021045D01*
X019038Y020899D01*
X019134Y020899D02*
X018844Y020899D01*
X018844Y021045D01*
X018893Y021093D01*
X019038Y020996D02*
X019134Y021093D01*
X019502Y020115D02*
X019454Y020067D01*
X019454Y019873D01*
X019502Y019825D01*
X019599Y019825D01*
X019647Y019873D01*
X019748Y019873D02*
X019797Y019825D01*
X019894Y019825D01*
X019942Y019873D01*
X019942Y019970D01*
X019894Y020018D01*
X019845Y020018D01*
X019748Y019970D01*
X019748Y020115D01*
X019942Y020115D01*
X019647Y020067D02*
X019599Y020115D01*
X019502Y020115D01*
X019252Y019957D02*
X019059Y019957D01*
X019059Y019812D01*
X019156Y019861D01*
X019204Y019861D01*
X019252Y019812D01*
X019252Y019716D01*
X019204Y019667D01*
X019107Y019667D01*
X019059Y019716D01*
X018958Y019716D02*
X018909Y019667D01*
X018813Y019667D01*
X018764Y019716D01*
X018663Y019716D02*
X018615Y019667D01*
X018518Y019667D01*
X018470Y019716D01*
X018470Y019909D01*
X018518Y019957D01*
X018615Y019957D01*
X018663Y019909D01*
X018764Y019909D02*
X018813Y019957D01*
X018909Y019957D01*
X018958Y019909D01*
X018958Y019861D01*
X018909Y019812D01*
X018958Y019764D01*
X018958Y019716D01*
X018909Y019812D02*
X018861Y019812D01*
X017928Y019626D02*
X017638Y019626D01*
X017783Y019481D01*
X017783Y019674D01*
X017831Y019380D02*
X017879Y019380D01*
X017928Y019331D01*
X017928Y019235D01*
X017879Y019186D01*
X017879Y019085D02*
X017928Y019037D01*
X017928Y018940D01*
X017879Y018892D01*
X017686Y018892D01*
X017638Y018940D01*
X017638Y019037D01*
X017686Y019085D01*
X017686Y019186D02*
X017638Y019235D01*
X017638Y019331D01*
X017686Y019380D01*
X017734Y019380D01*
X017783Y019331D01*
X017831Y019380D01*
X017783Y019331D02*
X017783Y019283D01*
X016891Y019871D02*
X016891Y020161D01*
X016746Y020016D01*
X016939Y020016D01*
X016645Y020113D02*
X016596Y020161D01*
X016499Y020161D01*
X016451Y020113D01*
X016451Y019919D01*
X016499Y019871D01*
X016596Y019871D01*
X016645Y019919D01*
X017487Y020810D02*
X017487Y020955D01*
X017535Y021004D01*
X017632Y021004D01*
X017681Y020955D01*
X017681Y020810D01*
X017777Y020810D02*
X017487Y020810D01*
X017681Y020907D02*
X017777Y021004D01*
X017632Y021105D02*
X017632Y021298D01*
X017777Y021250D02*
X017487Y021250D01*
X017632Y021105D01*
X015323Y023480D02*
X015033Y023674D01*
X015130Y023775D02*
X015033Y023872D01*
X015323Y023872D01*
X015323Y023968D02*
X015323Y023775D01*
X015323Y023674D02*
X015033Y023480D01*
X015033Y024069D02*
X015178Y024069D01*
X015130Y024166D01*
X015130Y024215D01*
X015178Y024263D01*
X015275Y024263D01*
X015323Y024215D01*
X015323Y024118D01*
X015275Y024069D01*
X015033Y024069D02*
X015033Y024263D01*
X007215Y024554D02*
X007215Y024796D01*
X007167Y024844D01*
X007070Y024844D01*
X007021Y024796D01*
X007021Y024554D01*
X006920Y024602D02*
X006920Y024650D01*
X006872Y024699D01*
X006727Y024699D01*
X006727Y024796D02*
X006727Y024602D01*
X006775Y024554D01*
X006872Y024554D01*
X006920Y024602D01*
X006920Y024796D02*
X006872Y024844D01*
X006775Y024844D01*
X006727Y024796D01*
X006748Y023824D02*
X006699Y023775D01*
X006748Y023824D02*
X006844Y023824D01*
X006893Y023775D01*
X006893Y023727D01*
X006699Y023533D01*
X006893Y023533D01*
X006598Y023533D02*
X006501Y023630D01*
X006405Y023582D02*
X006453Y023533D01*
X006550Y023533D01*
X006598Y023582D01*
X006598Y023775D01*
X006550Y023824D01*
X006453Y023824D01*
X006405Y023775D01*
X006405Y023582D01*
X004846Y026984D02*
X004749Y026984D01*
X004701Y027032D01*
X004600Y026984D02*
X004406Y027274D01*
X004600Y027274D02*
X004406Y026984D01*
X004701Y027226D02*
X004749Y027274D01*
X004846Y027274D01*
X004894Y027226D01*
X004894Y027178D01*
X004846Y027129D01*
X004894Y027081D01*
X004894Y027032D01*
X004846Y026984D01*
X004846Y027129D02*
X004798Y027129D01*
X017525Y009210D02*
X017622Y009210D01*
X017670Y009162D01*
X017670Y008968D01*
X017622Y008920D01*
X017525Y008920D01*
X017477Y008968D01*
X017477Y009162D01*
X017525Y009210D01*
X017573Y009016D02*
X017670Y008920D01*
X017771Y009065D02*
X017965Y009065D01*
X017916Y009210D02*
X017771Y009065D01*
X017916Y008920D02*
X017916Y009210D01*
X023680Y005360D02*
X023741Y005360D01*
X023983Y005118D01*
X024044Y005118D01*
X024044Y005360D01*
X023680Y005360D02*
X023680Y005118D01*
X027578Y005039D02*
X027638Y005039D01*
X027760Y005160D01*
X027942Y005160D01*
X027760Y005160D02*
X027638Y005282D01*
X027578Y005282D01*
X031672Y005360D02*
X032036Y005118D01*
X032036Y005360D02*
X031672Y005118D01*
X036732Y010073D02*
X036732Y010218D01*
X036780Y010266D01*
X036877Y010266D01*
X036926Y010218D01*
X036926Y010073D01*
X037022Y010073D02*
X036732Y010073D01*
X036926Y010169D02*
X037022Y010266D01*
X037022Y010367D02*
X037022Y010561D01*
X037022Y010464D02*
X036732Y010464D01*
X036829Y010367D01*
X036829Y010662D02*
X036732Y010759D01*
X037022Y010759D01*
X037022Y010855D02*
X037022Y010662D01*
X037048Y011083D02*
X036758Y011083D01*
X037048Y011083D02*
X037048Y011276D01*
X037048Y011377D02*
X037048Y011571D01*
X037048Y011672D02*
X037048Y011817D01*
X036999Y011865D01*
X036806Y011865D01*
X036758Y011817D01*
X036758Y011672D01*
X037048Y011672D01*
X036903Y011474D02*
X036903Y011377D01*
X036758Y011377D02*
X037048Y011377D01*
X036758Y011377D02*
X036758Y011571D01*
X036903Y011966D02*
X036903Y012160D01*
X037048Y012112D02*
X036758Y012112D01*
X036903Y011966D01*
D15*
X034435Y012085D02*
X034135Y012085D01*
X034285Y012085D02*
X034285Y012535D01*
X034135Y012385D01*
X033974Y012235D02*
X033974Y012535D01*
X033974Y012235D02*
X033824Y012085D01*
X033674Y012235D01*
X033674Y012535D01*
X033514Y012460D02*
X033439Y012535D01*
X033289Y012535D01*
X033214Y012460D01*
X033214Y012385D01*
X033289Y012310D01*
X033439Y012310D01*
X033514Y012235D01*
X033514Y012160D01*
X033439Y012085D01*
X033289Y012085D01*
X033214Y012160D01*
X032864Y011635D02*
X032714Y011485D01*
X032864Y011635D02*
X032864Y011185D01*
X032714Y011185D02*
X033014Y011185D01*
X033289Y010449D02*
X033214Y010374D01*
X033214Y010299D01*
X033289Y010224D01*
X033439Y010224D01*
X033514Y010149D01*
X033514Y010074D01*
X033439Y009998D01*
X033289Y009998D01*
X033214Y010074D01*
X033289Y010449D02*
X033439Y010449D01*
X033514Y010374D01*
X033674Y010449D02*
X033674Y010149D01*
X033824Y009998D01*
X033974Y010149D01*
X033974Y010449D01*
X034135Y010374D02*
X034210Y010449D01*
X034360Y010449D01*
X034435Y010374D01*
X034435Y010299D01*
X034135Y009998D01*
X034435Y009998D01*
X032864Y009549D02*
X032864Y009098D01*
X032714Y009098D02*
X033014Y009098D01*
X032714Y009399D02*
X032864Y009549D01*
X033289Y008165D02*
X033214Y008090D01*
X033214Y008015D01*
X033289Y007940D01*
X033439Y007940D01*
X033514Y007865D01*
X033514Y007790D01*
X033439Y007715D01*
X033289Y007715D01*
X033214Y007790D01*
X033289Y008165D02*
X033439Y008165D01*
X033514Y008090D01*
X033674Y008165D02*
X033674Y007865D01*
X033824Y007715D01*
X033974Y007865D01*
X033974Y008165D01*
X034135Y008090D02*
X034210Y008165D01*
X034360Y008165D01*
X034435Y008090D01*
X034435Y008015D01*
X034360Y007940D01*
X034435Y007865D01*
X034435Y007790D01*
X034360Y007715D01*
X034210Y007715D01*
X034135Y007790D01*
X034285Y007940D02*
X034360Y007940D01*
X032864Y007265D02*
X032864Y006815D01*
X032714Y006815D02*
X033014Y006815D01*
X032714Y007115D02*
X032864Y007265D01*
X032045Y006002D02*
X032045Y005551D01*
X031895Y005551D02*
X032195Y005551D01*
X031895Y005851D02*
X032045Y006002D01*
X031735Y005851D02*
X031735Y005551D01*
X031735Y005776D02*
X031434Y005776D01*
X031434Y005851D02*
X031584Y006002D01*
X031735Y005851D01*
X031434Y005851D02*
X031434Y005551D01*
X031274Y005476D02*
X030974Y005476D01*
X030814Y005551D02*
X030814Y006002D01*
X030514Y006002D02*
X030814Y005551D01*
X030514Y005551D02*
X030514Y006002D01*
X030353Y005927D02*
X030353Y005626D01*
X030278Y005551D01*
X030128Y005551D01*
X030053Y005626D01*
X030053Y005927D01*
X030128Y006002D01*
X030278Y006002D01*
X030353Y005927D01*
X029896Y006002D02*
X029746Y006002D01*
X029821Y006002D02*
X029821Y005551D01*
X029746Y005551D02*
X029896Y005551D01*
X029586Y005626D02*
X029586Y005701D01*
X029511Y005776D01*
X029361Y005776D01*
X029286Y005851D01*
X029286Y005927D01*
X029361Y006002D01*
X029511Y006002D01*
X029586Y005927D01*
X029586Y005626D02*
X029511Y005551D01*
X029361Y005551D01*
X029286Y005626D01*
X029126Y005551D02*
X029126Y006002D01*
X028826Y006002D02*
X028826Y005551D01*
X028666Y005551D02*
X028666Y005851D01*
X028515Y006002D01*
X028365Y005851D01*
X028365Y005551D01*
X028365Y005776D02*
X028666Y005776D01*
X028826Y006002D02*
X029126Y005551D01*
X028205Y005776D02*
X028130Y005701D01*
X027905Y005701D01*
X027905Y005551D02*
X027905Y006002D01*
X028130Y006002D01*
X028205Y005927D01*
X028205Y005776D01*
X027745Y005551D02*
X027445Y006002D01*
X027284Y006002D02*
X026984Y006002D01*
X026984Y005551D01*
X027284Y005551D01*
X027445Y005551D02*
X027745Y006002D01*
X027134Y005776D02*
X026984Y005776D01*
X026824Y005776D02*
X026524Y005776D01*
X026364Y005776D02*
X026139Y005776D01*
X026064Y005851D01*
X026064Y005927D01*
X026139Y006002D01*
X026289Y006002D01*
X026364Y005927D01*
X026364Y005626D01*
X026289Y005551D01*
X026139Y005551D01*
X026064Y005626D01*
X025903Y005776D02*
X025828Y005701D01*
X025603Y005701D01*
X025603Y005551D02*
X025603Y006002D01*
X025828Y006002D01*
X025903Y005927D01*
X025903Y005776D01*
X025035Y003544D02*
X027185Y003544D01*
X029090Y003505D02*
X031240Y003505D01*
X023287Y003544D02*
X021137Y003544D01*
X004315Y008116D02*
X003865Y008116D01*
X004090Y007890D01*
X004090Y008191D01*
X003940Y009890D02*
X003865Y009966D01*
X003865Y010116D01*
X003940Y010191D01*
X004015Y010191D01*
X004090Y010116D01*
X004165Y010191D01*
X004240Y010191D01*
X004315Y010116D01*
X004315Y009966D01*
X004240Y009890D01*
X004090Y010041D02*
X004090Y010116D01*
X003940Y011890D02*
X003865Y011966D01*
X003865Y012116D01*
X003940Y012191D01*
X004015Y012191D01*
X004315Y011890D01*
X004315Y012191D01*
X004315Y013790D02*
X004315Y014091D01*
X004315Y013941D02*
X003865Y013941D01*
X004015Y013790D01*
X004130Y016796D02*
X003979Y016946D01*
X003904Y017096D01*
X004130Y017021D02*
X004130Y016796D01*
X004280Y016796D01*
X004355Y016871D01*
X004355Y017021D01*
X004280Y017096D01*
X004205Y017096D01*
X004130Y017021D01*
X004130Y018796D02*
X003904Y018796D01*
X003904Y019096D01*
X004055Y019021D02*
X004130Y019096D01*
X004280Y019096D01*
X004355Y019021D01*
X004355Y018871D01*
X004280Y018796D01*
X004130Y018796D02*
X004055Y018946D01*
X004055Y019021D01*
X004130Y020796D02*
X003904Y021021D01*
X004355Y021021D01*
X004130Y021096D02*
X004130Y020796D01*
X004280Y022796D02*
X004355Y022871D01*
X004355Y023021D01*
X004280Y023096D01*
X004205Y023096D01*
X004130Y023021D01*
X004130Y022946D01*
X004130Y023021D02*
X004055Y023096D01*
X003979Y023096D01*
X003904Y023021D01*
X003904Y022871D01*
X003979Y022796D01*
X003979Y024796D02*
X003904Y024871D01*
X003904Y025021D01*
X003979Y025096D01*
X004055Y025096D01*
X004355Y024796D01*
X004355Y025096D01*
X004355Y026696D02*
X004355Y026996D01*
X004355Y026846D02*
X003904Y026846D01*
X004055Y026696D01*
X010684Y024626D02*
X010909Y024401D01*
X010909Y024701D01*
X011134Y024626D02*
X010684Y024626D01*
X011134Y020151D02*
X011134Y019851D01*
X011134Y020001D02*
X010684Y020001D01*
X010834Y019851D01*
X015723Y020001D02*
X016174Y020001D01*
X016174Y019851D02*
X016174Y020151D01*
X015873Y019851D02*
X015723Y020001D01*
X020448Y020001D02*
X020898Y020001D01*
X020898Y019851D02*
X020898Y020151D01*
X020598Y019851D02*
X020448Y020001D01*
X024936Y020001D02*
X025386Y020001D01*
X025386Y019851D02*
X025386Y020151D01*
X025086Y019851D02*
X024936Y020001D01*
X029385Y019962D02*
X029835Y019962D01*
X029835Y019812D02*
X029835Y020112D01*
X029535Y019812D02*
X029385Y019962D01*
X029610Y024362D02*
X029610Y024662D01*
X029835Y024587D02*
X029385Y024587D01*
X029610Y024362D01*
X025386Y024626D02*
X024936Y024626D01*
X025161Y024401D01*
X025161Y024701D01*
X020898Y024626D02*
X020448Y024626D01*
X020673Y024401D01*
X020673Y024701D01*
X016174Y024626D02*
X015723Y024626D01*
X015949Y024401D01*
X015949Y024701D01*
X021445Y030024D02*
X023595Y030024D01*
X024949Y030024D02*
X027099Y030024D01*
X028374Y030024D02*
X030524Y030024D01*
D16*
X029081Y018782D03*
X024632Y018782D03*
X020144Y018900D03*
X015419Y018861D03*
X010498Y018782D03*
D17*
X010309Y005642D03*
X010014Y005642D03*
X012927Y005642D03*
X013222Y005642D03*
X015998Y005642D03*
X016293Y005642D03*
X036352Y011627D03*
X036647Y011627D03*
D18*
X036500Y011627D03*
X016146Y005642D03*
X013075Y005642D03*
X010161Y005642D03*
X007858Y011804D03*
X007897Y018694D03*
X007897Y025898D03*
D19*
X013744Y011843D02*
X013173Y011272D01*
X013173Y010760D01*
X013744Y011843D02*
X016992Y011843D01*
X016992Y010760D01*
X018241Y011440D02*
X018241Y008860D01*
X019641Y008860D01*
X019641Y011440D01*
X018241Y011440D01*
X016992Y009619D02*
X016992Y008536D01*
X013744Y008536D01*
X013173Y009107D01*
X013173Y009619D01*
X013646Y010741D02*
X013676Y010813D01*
X013709Y010882D01*
X013745Y010950D01*
X013785Y011017D01*
X013828Y011081D01*
X013874Y011143D01*
X013924Y011202D01*
X013976Y011259D01*
X014031Y011313D01*
X014088Y011364D01*
X014149Y011413D01*
X014211Y011458D01*
X014276Y011500D01*
X014343Y011539D01*
X014411Y011575D01*
X014482Y011607D01*
X014553Y011635D01*
X014627Y011660D01*
X014701Y011681D01*
X014776Y011698D01*
X014852Y011712D01*
X014929Y011721D01*
X015006Y011727D01*
X015083Y011729D01*
X015160Y011727D01*
X015237Y011721D01*
X015314Y011712D01*
X015390Y011698D01*
X015465Y011681D01*
X015539Y011660D01*
X015613Y011635D01*
X015684Y011607D01*
X015755Y011575D01*
X015823Y011539D01*
X015890Y011500D01*
X015955Y011458D01*
X016017Y011413D01*
X016078Y011364D01*
X016135Y011313D01*
X016190Y011259D01*
X016242Y011202D01*
X016292Y011143D01*
X016338Y011081D01*
X016381Y011017D01*
X016421Y010950D01*
X016457Y010882D01*
X016490Y010813D01*
X016520Y010741D01*
X016520Y009639D02*
X016490Y009567D01*
X016457Y009498D01*
X016421Y009430D01*
X016381Y009363D01*
X016338Y009299D01*
X016292Y009237D01*
X016242Y009178D01*
X016190Y009121D01*
X016135Y009067D01*
X016078Y009016D01*
X016017Y008967D01*
X015955Y008922D01*
X015890Y008880D01*
X015823Y008841D01*
X015755Y008805D01*
X015684Y008773D01*
X015613Y008745D01*
X015539Y008720D01*
X015465Y008699D01*
X015390Y008682D01*
X015314Y008668D01*
X015237Y008659D01*
X015160Y008653D01*
X015083Y008651D01*
X015006Y008653D01*
X014929Y008659D01*
X014852Y008668D01*
X014776Y008682D01*
X014701Y008699D01*
X014627Y008720D01*
X014553Y008745D01*
X014482Y008773D01*
X014411Y008805D01*
X014343Y008841D01*
X014276Y008880D01*
X014211Y008922D01*
X014149Y008967D01*
X014088Y009016D01*
X014031Y009067D01*
X013976Y009121D01*
X013924Y009178D01*
X013874Y009237D01*
X013828Y009299D01*
X013785Y009363D01*
X013745Y009430D01*
X013709Y009498D01*
X013676Y009567D01*
X013646Y009639D01*
X022375Y008899D02*
X022375Y011480D01*
X023775Y011480D01*
X023775Y008899D01*
X022375Y008899D01*
X025997Y008939D02*
X025997Y011519D01*
X027397Y011519D01*
X027397Y008939D01*
X025997Y008939D01*
X035506Y019806D02*
X038045Y019806D01*
X038045Y020298D01*
X037563Y019816D01*
X037563Y020260D02*
X035988Y020260D01*
X035988Y020851D01*
X037563Y020851D01*
X037563Y020260D01*
X038045Y020298D02*
X038045Y020024D01*
X038045Y021024D02*
X038045Y021077D01*
X037563Y021260D02*
X035988Y021260D01*
X035988Y021851D01*
X037563Y021851D01*
X037563Y021260D01*
X038045Y022077D02*
X038045Y022296D01*
X035506Y022296D01*
X035506Y022077D01*
X035506Y021077D02*
X035506Y021024D01*
X035506Y020024D02*
X035506Y019806D01*
D20*
X007897Y018841D03*
X007897Y018546D03*
X007858Y011951D03*
X007858Y011656D03*
X007897Y025751D03*
X007897Y026046D03*
D21*
X007054Y023538D03*
X007094Y016372D03*
X007015Y009325D03*
D22*
X005705Y011095D03*
X005784Y018142D03*
X005744Y025308D03*
D23*
X005994Y027033D03*
X005994Y023583D03*
X006034Y019867D03*
X006034Y016417D03*
X005955Y012820D03*
X005955Y009370D03*
D24*
X005955Y010595D03*
X005955Y011595D03*
X006034Y017642D03*
X006034Y018642D03*
X005994Y024808D03*
X005994Y025808D03*
D25*
X010961Y029503D02*
X011392Y029503D01*
X011392Y029646D02*
X011392Y029359D01*
X011105Y029359D02*
X010961Y029503D01*
X011941Y029524D02*
X011941Y029381D01*
X012013Y029309D01*
X011941Y029524D02*
X012013Y029596D01*
X012085Y029596D01*
X012372Y029309D01*
X012372Y029596D01*
X013520Y029542D02*
X013951Y029542D01*
X013951Y029399D02*
X013951Y029686D01*
X013664Y029399D02*
X013520Y029542D01*
X014500Y029564D02*
X014500Y029420D01*
X014572Y029349D01*
X014500Y029564D02*
X014572Y029636D01*
X014644Y029636D01*
X014931Y029349D01*
X014931Y029636D01*
X016237Y029542D02*
X016380Y029399D01*
X016237Y029542D02*
X016667Y029542D01*
X016667Y029399D02*
X016667Y029686D01*
X017217Y029564D02*
X017217Y029420D01*
X017289Y029349D01*
X017217Y029564D02*
X017289Y029636D01*
X017360Y029636D01*
X017647Y029349D01*
X017647Y029636D01*
X021170Y029542D02*
X021600Y029542D01*
X021600Y029399D02*
X021600Y029686D01*
X021313Y029399D02*
X021170Y029542D01*
X023150Y029564D02*
X023150Y029420D01*
X023222Y029349D01*
X023365Y029492D02*
X023365Y029564D01*
X023437Y029636D01*
X023509Y029636D01*
X023580Y029564D01*
X023580Y029420D01*
X023509Y029349D01*
X023365Y029564D02*
X023293Y029636D01*
X023222Y029636D01*
X023150Y029564D01*
X024674Y029542D02*
X024817Y029399D01*
X024674Y029542D02*
X025104Y029542D01*
X025104Y029399D02*
X025104Y029686D01*
X026654Y029564D02*
X026654Y029420D01*
X026726Y029349D01*
X026869Y029492D02*
X026869Y029564D01*
X026941Y029636D01*
X027013Y029636D01*
X027084Y029564D01*
X027084Y029420D01*
X027013Y029349D01*
X026869Y029564D02*
X026797Y029636D01*
X026726Y029636D01*
X026654Y029564D01*
X028099Y029542D02*
X028243Y029399D01*
X028099Y029542D02*
X028529Y029542D01*
X028529Y029399D02*
X028529Y029686D01*
X030079Y029564D02*
X030079Y029420D01*
X030151Y029349D01*
X030294Y029492D02*
X030294Y029564D01*
X030366Y029636D01*
X030438Y029636D01*
X030509Y029564D01*
X030509Y029420D01*
X030438Y029349D01*
X030294Y029564D02*
X030223Y029636D01*
X030151Y029636D01*
X030079Y029564D01*
X029463Y004077D02*
X029534Y004005D01*
X029534Y003861D01*
X029463Y003790D01*
X029319Y003933D02*
X029319Y004005D01*
X029391Y004077D01*
X029463Y004077D01*
X029319Y004005D02*
X029248Y004077D01*
X029176Y004077D01*
X029104Y004005D01*
X029104Y003861D01*
X029176Y003790D01*
X027459Y003779D02*
X027459Y004066D01*
X027459Y003923D02*
X027029Y003923D01*
X027172Y003779D01*
X025479Y003901D02*
X025408Y003829D01*
X025479Y003901D02*
X025479Y004044D01*
X025408Y004116D01*
X025336Y004116D01*
X025264Y004044D01*
X025264Y003973D01*
X025264Y004044D02*
X025192Y004116D01*
X025121Y004116D01*
X025049Y004044D01*
X025049Y003901D01*
X025121Y003829D01*
X023562Y003779D02*
X023562Y004066D01*
X023562Y003923D02*
X023131Y003923D01*
X023275Y003779D01*
X021582Y003901D02*
X021510Y003829D01*
X021582Y003901D02*
X021582Y004044D01*
X021510Y004116D01*
X021438Y004116D01*
X021366Y004044D01*
X021366Y003973D01*
X021366Y004044D02*
X021295Y004116D01*
X021223Y004116D01*
X021151Y004044D01*
X021151Y003901D01*
X021223Y003829D01*
X018022Y003779D02*
X018022Y004066D01*
X018022Y003923D02*
X017592Y003923D01*
X017735Y003779D01*
X017042Y003829D02*
X016755Y004116D01*
X016684Y004116D01*
X016612Y004044D01*
X016612Y003901D01*
X016684Y003829D01*
X017042Y003829D02*
X017042Y004116D01*
X015188Y004066D02*
X015188Y003779D01*
X015188Y003923D02*
X014757Y003923D01*
X014901Y003779D01*
X014208Y003829D02*
X013921Y004116D01*
X013849Y004116D01*
X013777Y004044D01*
X013777Y003901D01*
X013849Y003829D01*
X014208Y003829D02*
X014208Y004116D01*
X012353Y004066D02*
X012353Y003779D01*
X012353Y003923D02*
X011923Y003923D01*
X012066Y003779D01*
X011373Y003829D02*
X011086Y004116D01*
X011014Y004116D01*
X010943Y004044D01*
X010943Y003901D01*
X011014Y003829D01*
X011373Y003829D02*
X011373Y004116D01*
X031084Y003883D02*
X031514Y003883D01*
X031514Y003740D02*
X031514Y004027D01*
X031228Y003740D02*
X031084Y003883D01*
D26*
X031240Y003505D02*
X031240Y000355D01*
X031140Y000155D01*
X029720Y000155D01*
X029760Y000155D02*
X029340Y000155D01*
X029240Y000355D01*
X029240Y003505D01*
X029090Y003505D02*
X029090Y001055D01*
X029220Y000915D01*
X027335Y001094D02*
X027205Y000954D01*
X027335Y001094D02*
X027335Y003544D01*
X027185Y003544D02*
X027185Y000394D01*
X027085Y000194D01*
X025665Y000194D01*
X025705Y000194D02*
X025285Y000194D01*
X025185Y000394D01*
X025185Y003544D01*
X025035Y003544D02*
X025035Y001094D01*
X025165Y000954D01*
X023437Y001094D02*
X023307Y000954D01*
X023437Y001094D02*
X023437Y003544D01*
X023287Y003544D02*
X023287Y000394D01*
X023187Y000194D01*
X021767Y000194D01*
X021807Y000194D02*
X021387Y000194D01*
X021287Y000394D01*
X021287Y003544D01*
X021137Y003544D02*
X021137Y001094D01*
X021267Y000954D01*
X021137Y003544D02*
X020787Y003544D01*
X020787Y004794D01*
X021037Y004794D01*
X021037Y004544D01*
X021537Y004544D01*
X021537Y004794D01*
X022037Y004794D01*
X022037Y004544D01*
X022537Y004544D01*
X022537Y004794D01*
X023037Y004794D01*
X023037Y004544D01*
X023537Y004544D01*
X023537Y004794D01*
X023787Y004794D01*
X023787Y003544D01*
X023287Y003544D01*
X024685Y003544D02*
X025035Y003544D01*
X024685Y003544D02*
X024685Y004794D01*
X024935Y004794D01*
X024935Y004544D01*
X025435Y004544D01*
X025435Y004794D01*
X025935Y004794D01*
X025935Y004544D01*
X026435Y004544D01*
X026435Y004794D01*
X026935Y004794D01*
X026935Y004544D01*
X027435Y004544D01*
X027435Y004794D01*
X027685Y004794D01*
X027685Y003544D01*
X027185Y003544D01*
X028740Y003505D02*
X028740Y004755D01*
X028990Y004755D01*
X028990Y004505D01*
X029490Y004505D01*
X029490Y004755D01*
X029990Y004755D01*
X029990Y004505D01*
X030490Y004505D01*
X030490Y004755D01*
X030990Y004755D01*
X030990Y004505D01*
X031490Y004505D01*
X031490Y004755D01*
X031740Y004755D01*
X031740Y003505D01*
X031240Y003505D01*
X031390Y003505D02*
X031390Y001055D01*
X031260Y000915D01*
X029090Y003505D02*
X028740Y003505D01*
X018248Y003544D02*
X017748Y003544D01*
X017748Y000394D01*
X017648Y000194D01*
X017228Y000194D01*
X017268Y000194D01*
X017228Y000194D02*
X016848Y000194D01*
X016748Y000394D01*
X016748Y003544D01*
X016598Y003544D02*
X016598Y001094D01*
X016728Y000954D01*
X017768Y000954D02*
X017898Y001094D01*
X017898Y003544D01*
X017748Y003544D02*
X016598Y003544D01*
X016248Y003544D01*
X016248Y004794D01*
X016498Y004794D01*
X016498Y004544D01*
X016998Y004544D01*
X016998Y004794D01*
X017498Y004794D01*
X017498Y004544D01*
X017998Y004544D01*
X017998Y004794D01*
X018248Y004794D01*
X018248Y003544D01*
X015413Y003544D02*
X014913Y003544D01*
X014913Y000394D01*
X014813Y000194D01*
X014393Y000194D01*
X014433Y000194D01*
X014393Y000194D02*
X014013Y000194D01*
X013913Y000394D01*
X013913Y003544D01*
X013763Y003544D02*
X013763Y001094D01*
X013893Y000954D01*
X014933Y000954D02*
X015063Y001094D01*
X015063Y003544D01*
X014913Y003544D02*
X013763Y003544D01*
X013413Y003544D01*
X013413Y004794D01*
X013663Y004794D01*
X013663Y004544D01*
X014163Y004544D01*
X014163Y004794D01*
X014663Y004794D01*
X014663Y004544D01*
X015163Y004544D01*
X015163Y004794D01*
X015413Y004794D01*
X015413Y003544D01*
X012579Y003544D02*
X012079Y003544D01*
X012079Y000394D01*
X011979Y000194D01*
X011559Y000194D01*
X011599Y000194D01*
X011559Y000194D02*
X011179Y000194D01*
X011079Y000394D01*
X011079Y003544D01*
X010929Y003544D02*
X010929Y001094D01*
X011059Y000954D01*
X012099Y000954D02*
X012229Y001094D01*
X012229Y003544D01*
X012079Y003544D02*
X010929Y003544D01*
X010579Y003544D01*
X010579Y004794D01*
X010829Y004794D01*
X010829Y004544D01*
X011329Y004544D01*
X011329Y004794D01*
X011829Y004794D01*
X011829Y004544D01*
X012329Y004544D01*
X012329Y004794D01*
X012579Y004794D01*
X012579Y003544D01*
X012486Y028735D02*
X012736Y028735D01*
X012736Y029985D01*
X012386Y029985D01*
X012386Y032435D01*
X012256Y032575D01*
X012236Y033135D02*
X012136Y033335D01*
X011756Y033335D01*
X011716Y033335D01*
X011756Y033335D02*
X011336Y033335D01*
X011236Y033135D01*
X011236Y029985D01*
X010736Y029985D01*
X010736Y028735D01*
X010986Y028735D01*
X010986Y028985D01*
X011486Y028985D01*
X011486Y028735D01*
X011986Y028735D01*
X011986Y028985D01*
X012486Y028985D01*
X012486Y028735D01*
X013295Y028774D02*
X013545Y028774D01*
X013545Y029024D01*
X014045Y029024D01*
X014045Y028774D01*
X014545Y028774D01*
X014545Y029024D01*
X015045Y029024D01*
X015045Y028774D01*
X015295Y028774D01*
X015295Y030024D01*
X014945Y030024D01*
X014945Y032474D01*
X014815Y032614D01*
X014795Y033174D02*
X014695Y033374D01*
X014315Y033374D01*
X014275Y033374D01*
X014315Y033374D02*
X013895Y033374D01*
X013795Y033174D01*
X013795Y030024D01*
X013295Y030024D01*
X013295Y028774D01*
X013645Y030024D02*
X013645Y032474D01*
X013775Y032614D01*
X014795Y033174D02*
X014795Y030024D01*
X014945Y030024D02*
X013795Y030024D01*
X012386Y029985D02*
X011236Y029985D01*
X011086Y029985D02*
X011086Y032435D01*
X011216Y032575D01*
X012236Y033135D02*
X012236Y029985D01*
X016012Y030024D02*
X016012Y028774D01*
X016262Y028774D01*
X016262Y029024D01*
X016762Y029024D01*
X016762Y028774D01*
X017262Y028774D01*
X017262Y029024D01*
X017762Y029024D01*
X017762Y028774D01*
X018012Y028774D01*
X018012Y030024D01*
X017662Y030024D01*
X017662Y032474D01*
X017532Y032614D01*
X017512Y033174D02*
X017412Y033374D01*
X017032Y033374D01*
X016992Y033374D01*
X017032Y033374D02*
X016612Y033374D01*
X016512Y033174D01*
X016512Y030024D01*
X016012Y030024D01*
X016362Y030024D02*
X016362Y032474D01*
X016492Y032614D01*
X017512Y033174D02*
X017512Y030024D01*
X017662Y030024D02*
X016512Y030024D01*
X020945Y030024D02*
X020945Y028774D01*
X021195Y028774D01*
X021195Y029024D01*
X021695Y029024D01*
X021695Y028774D01*
X022195Y028774D01*
X022195Y029024D01*
X022695Y029024D01*
X022695Y028774D01*
X023195Y028774D01*
X023195Y029024D01*
X023695Y029024D01*
X023695Y028774D01*
X023945Y028774D01*
X023945Y030024D01*
X023595Y030024D01*
X023595Y032474D01*
X023465Y032614D01*
X023445Y033174D02*
X023345Y033374D01*
X022925Y033374D01*
X022965Y033374D02*
X021545Y033374D01*
X021445Y033174D01*
X021445Y030024D01*
X020945Y030024D01*
X021295Y030024D02*
X021295Y032474D01*
X021425Y032614D01*
X023445Y033174D02*
X023445Y030024D01*
X024449Y030024D02*
X024949Y030024D01*
X024949Y033174D01*
X025049Y033374D01*
X026469Y033374D01*
X026429Y033374D02*
X026849Y033374D01*
X026949Y033174D01*
X026949Y030024D01*
X027099Y030024D02*
X027099Y032474D01*
X026969Y032614D01*
X028224Y032474D02*
X028354Y032614D01*
X028224Y032474D02*
X028224Y030024D01*
X028374Y030024D02*
X028374Y033174D01*
X028474Y033374D01*
X029894Y033374D01*
X029854Y033374D02*
X030274Y033374D01*
X030374Y033174D01*
X030374Y030024D01*
X030524Y030024D02*
X030524Y032474D01*
X030394Y032614D01*
X030524Y030024D02*
X030874Y030024D01*
X030874Y028774D01*
X030624Y028774D01*
X030624Y029024D01*
X030124Y029024D01*
X030124Y028774D01*
X029624Y028774D01*
X029624Y029024D01*
X029124Y029024D01*
X029124Y028774D01*
X028624Y028774D01*
X028624Y029024D01*
X028124Y029024D01*
X028124Y028774D01*
X027874Y028774D01*
X027874Y030024D01*
X028374Y030024D01*
X027449Y030024D02*
X027099Y030024D01*
X027449Y030024D02*
X027449Y028774D01*
X027199Y028774D01*
X027199Y029024D01*
X026699Y029024D01*
X026699Y028774D01*
X026199Y028774D01*
X026199Y029024D01*
X025699Y029024D01*
X025699Y028774D01*
X025199Y028774D01*
X025199Y029024D01*
X024699Y029024D01*
X024699Y028774D01*
X024449Y028774D01*
X024449Y030024D01*
X024799Y030024D02*
X024799Y032474D01*
X024929Y032614D01*
D27*
X033273Y022132D03*
D28*
X032533Y022127D03*
D29*
X037268Y021556D03*
X037268Y020556D03*
D30*
X037667Y020560D02*
X037887Y020560D01*
X037887Y020487D02*
X037887Y020634D01*
X037741Y020487D02*
X037667Y020560D01*
X037704Y021487D02*
X037667Y021524D01*
X037667Y021597D01*
X037704Y021634D01*
X037741Y021634D01*
X037887Y021487D01*
X037887Y021634D01*
X035870Y020737D02*
X035650Y020737D01*
X035650Y020590D02*
X035870Y020737D01*
X035870Y020590D02*
X035650Y020590D01*
X035686Y020516D02*
X035650Y020479D01*
X035650Y020406D01*
X035686Y020369D01*
X035833Y020369D01*
X035870Y020406D01*
X035870Y020479D01*
X035833Y020516D01*
X035686Y020516D01*
M02*
