%
M48
M72
T01C0.0118
T02C0.0236
T03C0.0360
T04C0.0400
T05C0.0550
T06C0.1260
%
T01
X2209Y7237
X6460Y8890
X7004Y8914
X7917Y10111
X9098Y9520
X9177Y8733
X10358Y8339
X11303Y9048
X11854Y8457
X11303Y9520
X11342Y9875
X10476Y9835
X10555Y11016
X10791Y11410
X11224Y11843
X10673Y12512
X10358Y12473
X10358Y13260
X10673Y13536
X10476Y13930
X11027Y14284
X11421Y13772
X11185Y13536
X11342Y13103
X12720Y12788
X13035Y13300
X13468Y14048
X13232Y14284
X13075Y14560
X12051Y15032
X11027Y15032
X10988Y15583
X10634Y15583
X10319Y14914
X10319Y14560
X9394Y13812
X9177Y13339
X8862Y12512
X8547Y12158
X9216Y12119
X9256Y11331
X9138Y10780
X11224Y10859
X12878Y11056
X12878Y11646
X13350Y11764
X13626Y11174
X14728Y12316
X15279Y12867
X15870Y13930
X15870Y14323
X15949Y15032
X15988Y15367
X15516Y15347
X15555Y16056
X15949Y16056
X15949Y16489
X15949Y16804
X15949Y17119
X15949Y17473
X15949Y17788
X15949Y18103
X16342Y18103
X16342Y17788
X16342Y17473
X16342Y17119
X16342Y16804
X16342Y16489
X15555Y16489
X15555Y16804
X15555Y17119
X15555Y17473
X15555Y17788
X15555Y18103
X15712Y18772
X15673Y19087
X16224Y19009
X16382Y18694
X16106Y18536
X15122Y19205
X14334Y18339
X14374Y17946
X14295Y17434
X13783Y17197
X13783Y16843
X14295Y16804
X14295Y16410
X13783Y16331
X15161Y17001
X17051Y15111
X17957Y14560
X18271Y14323
X18508Y14087
X18980Y14048
X19531Y14599
X20083Y13851
X20516Y14284
X21382Y13851
X21303Y13536
X22366Y13300
X22405Y13733
X22838Y14323
X22681Y14599
X23075Y14087
X23429Y13969
X23429Y12946
X24571Y12985
X24689Y13930
X24531Y14481
X25279Y14245
X25870Y13812
X25831Y13497
X25752Y12906
X24925Y12001
X25201Y11174
X26382Y11764
X26894Y11883
X27012Y11174
X28311Y11607
X28586Y11410
X28586Y11095
X28626Y10662
X28586Y9757
X28114Y8890
X28547Y8733
X27287Y9087
X26657Y8615
X25516Y8654
X24964Y8969
X24295Y8024
X24138Y7394
X23311Y8898
X23468Y9363
X22957Y9796
X22563Y10190
X22957Y10623
X23547Y10190
X21972Y11430
X21342Y11410
X20712Y11725
X20791Y10662
X19453Y10544
X19453Y9560
X19059Y8910
X18586Y8654
X17720Y8654
X17366Y7237
X18390Y5190
X17760Y4363
X16736Y4757
X15634Y5347
X14925Y4363
X13429Y5426
X12366Y6410
X10358Y6528
X10201Y6174
X9768Y5111
X10831Y4363
X12090Y4363
X13350Y8260
X13114Y9009
X12878Y9442
X15043Y10071
X13980Y12670
X13980Y13812
X15201Y14599
X16460Y13536
X16657Y13812
X17720Y13300
X17957Y13772
X18980Y13103
X19964Y12985
X18114Y11489
X18390Y10544
X21303Y7276
X22327Y8182
X20634Y4560
X23271Y4323
X27169Y4323
X29177Y4048
X31067Y4323
X31775Y5977
X32445Y7276
X34689Y8024
X36500Y8654
X32169Y11449
X31972Y12158
X31775Y12512
X31303Y13221
X31775Y13497
X31579Y13851
X31579Y14205
X31342Y14481
X30870Y15190
X29768Y14993
X29531Y15347
X29807Y15623
X30004Y16449
X30004Y16764
X29964Y17079
X29964Y17394
X30004Y17709
X30004Y18024
X29610Y18024
X29610Y17709
X29610Y17394
X29610Y17079
X29610Y16764
X29610Y16449
X29216Y16449
X29216Y16764
X29216Y17079
X29216Y17394
X29216Y17709
X29216Y18024
X29334Y18654
X29138Y19087
X29807Y19087
X29886Y18654
X30240Y18536
X30437Y18772
X31185Y19205
X31579Y18930
X31579Y18615
X31264Y18615
X31303Y17394
X30437Y17237
X28744Y16843
X28823Y16095
X27996Y16213
X27744Y16386
X27720Y16686
X28039Y16564
X27523Y16174
X27642Y15859
X27642Y15347
X26972Y14520
X27130Y14245
X27350Y14009
X27405Y13497
X26972Y13221
X27405Y12670
X27760Y12670
X27957Y12906
X28350Y12079
X28665Y11883
X29256Y12749
X28980Y13182
X29098Y13733
X29531Y14205
X29256Y14481
X28468Y14481
X30279Y13733
X30240Y13379
X30988Y11922
X30791Y11607
X30949Y11134
X31972Y10623
X31972Y10308
X29649Y10190
X29649Y11371
X29925Y8969
X28153Y7276
X27051Y9914
X26421Y15229
X25279Y15190
X24964Y15505
X25161Y15741
X25161Y16489
X25161Y16764
X25161Y17079
X25161Y17434
X25161Y17749
X25161Y18064
X24768Y18064
X24768Y17749
X24768Y17434
X24768Y17079
X24768Y16764
X24768Y16489
X24334Y16883
X23586Y16646
X23311Y16489
X23468Y16174
X23429Y15623
X23350Y16883
X23626Y17394
X23547Y17749
X23508Y18064
X22366Y19048
X21264Y19127
X20949Y19205
X20949Y18575
X21067Y18142
X21067Y17827
X21067Y17512
X21067Y17197
X21067Y16883
X21067Y16568
X20673Y16568
X20673Y16883
X20673Y17197
X20673Y17512
X20673Y17827
X20673Y18142
X20279Y18142
X20279Y17827
X20279Y17512
X20279Y17197
X20319Y16883
X20279Y16568
X19886Y16686
X19846Y17001
X19020Y16725
X18744Y16568
X18744Y16883
X19020Y16371
X18862Y15780
X20279Y15820
X20673Y15820
X20634Y15386
X22012Y15426
X18980Y17473
X19059Y17946
X19020Y18260
X20319Y18851
X20319Y19205
X20043Y20111
X21854Y20032
X22327Y19993
X22799Y20032
X22720Y20505
X23075Y21607
X23075Y22040
X22445Y22040
X23586Y23182
X23783Y23772
X24059Y22788
X24610Y22276
X25752Y21292
X26460Y19993
X26933Y19914
X28232Y20111
X28508Y19914
X28941Y20347
X29295Y19914
X30122Y20268
X31146Y20190
X32051Y20190
X30712Y23064
X31303Y24835
X32563Y25859
X34138Y24323
X34413Y24087
X28390Y24816
X28153Y24245
X27484Y23812
X27090Y23930
X26579Y23890
X26264Y23733
X26264Y23260
X26579Y23024
X27051Y23300
X27563Y23064
X28390Y22434
X28153Y22119
X27878Y21627
X25397Y19009
X25634Y18694
X25358Y18457
X24925Y18733
X24768Y19087
X24216Y20111
X25555Y18064
X25555Y17749
X25555Y17434
X25555Y17079
X25555Y16764
X25555Y16489
X26775Y16725
X26775Y17631
X27760Y17394
X27878Y17906
X28055Y18201
X25870Y24796
X26224Y25465
X25358Y26056
X25319Y26528
X25476Y27473
X24334Y26528
X23350Y26016
X22957Y24638
X19649Y24363
X19216Y24796
X19649Y23615
X19256Y22709
X18980Y22079
X18980Y21764
X18508Y22040
X17327Y22709
X17327Y23221
X17248Y24009
X17799Y24284
X17366Y25111
X15516Y26331
X14610Y26253
X15083Y27276
X15594Y27355
X16146Y27237
X16027Y27946
X16027Y28536
X15516Y29009
X15358Y29402
X15712Y29717
X13311Y28575
X13035Y29402
X12799Y27670
X10555Y28615
X10279Y27749
X9728Y27591
X11185Y29678
X9413Y25032
X9531Y24560
X9295Y24323
X7917Y24678
X7602Y21568
X7878Y21134
X7957Y20386
X6027Y21764
X10201Y19127
X10791Y18969
X10752Y18654
X11264Y18457
X11539Y18654
X11382Y18969
X11421Y18024
X11421Y17709
X11421Y17394
X11421Y17079
X11421Y16764
X11421Y16449
X11027Y16449
X11027Y16764
X11027Y17079
X11027Y17394
X11027Y17709
X11027Y18024
X10634Y18024
X10634Y17709
X10634Y17394
X10634Y17079
X10634Y16764
X10634Y16449
X10240Y16804
X9453Y16331
X9453Y15898
X9413Y15583
X8783Y16174
X9098Y16686
X9020Y17040
X9413Y17355
X9413Y17906
X7917Y17473
X7051Y15741
X7169Y14599
X7917Y14127
X7996Y13772
X8429Y14323
X8508Y14953
X12760Y17631
X13744Y20229
X13390Y21253
X14610Y21961
X14886Y22709
X15831Y22276
X17051Y22079
X18035Y20347
X14886Y23772
X13744Y23300
X11815Y24560
X18626Y27670
X27720Y27316
X27720Y29009
X28429Y29284
X2484Y14009
T02
X1854Y8418
X4964Y8418
T03
X6264Y6776
X6264Y7776
X7484Y7776
X7484Y6776
X8705Y6776
X8705Y7776
T04
X9831Y7776
X10831Y7776
X11831Y7776
X12831Y7776
X13831Y7776
X14831Y7776
X15831Y7776
X16831Y7776
X17831Y7776
X18831Y7776
X19831Y7776
X20831Y7776
X21831Y7776
X22831Y7776
X23831Y7776
X24831Y7776
X25831Y7776
X26831Y7776
X27831Y7776
X28831Y7776
X29831Y7776
X30831Y7776
X31831Y7776
X31831Y6776
X30831Y6776
X29831Y6776
X28831Y6776
X27831Y6776
X26831Y6776
X25831Y6776
X24831Y6776
X23831Y6776
X22831Y6776
X21831Y6776
X20831Y6776
X19831Y6776
X18831Y6776
X17831Y6776
X16831Y6776
X15831Y6776
X14831Y6776
X13831Y6776
X12831Y6776
X11831Y6776
X10831Y6776
X9831Y6776
X11079Y5544
X12079Y5544
X13913Y5544
X14913Y5544
X16748Y5544
X17748Y5544
X21287Y5544
X22287Y5544
X23287Y5544
X25185Y5544
X26185Y5544
X27185Y5544
X29240Y5505
X30240Y5505
X31240Y5505
X33689Y7040
X34689Y7040
X35689Y7040
X35689Y9323
X34689Y9323
X33689Y9323
X33689Y11410
X34689Y11410
X35689Y11410
X29610Y20737
X29610Y21737
X29610Y22737
X29610Y23737
X29846Y25776
X28846Y25776
X27846Y25776
X26846Y25776
X25846Y25776
X24846Y25776
X23846Y25776
X22846Y25776
X21846Y25776
X20846Y25776
X19846Y25776
X18846Y25776
X17846Y25776
X16846Y25776
X15846Y25776
X14846Y25776
X13846Y25776
X12846Y25776
X11846Y25776
X10846Y25776
X9846Y25776
X9846Y26776
X10846Y26776
X11846Y26776
X12846Y26776
X13846Y26776
X14846Y26776
X15846Y26776
X16846Y26776
X17846Y26776
X18846Y26776
X19846Y26776
X20846Y26776
X21846Y26776
X22846Y26776
X23846Y26776
X24846Y26776
X25846Y26776
X26846Y26776
X27846Y26776
X28846Y26776
X29846Y26776
X30846Y26776
X30846Y25776
X31846Y25776
X31846Y26776
X30374Y28024
X29374Y28024
X28374Y28024
X26949Y28024
X25949Y28024
X24949Y28024
X23445Y28024
X22445Y28024
X21445Y28024
X17512Y28024
X16512Y28024
X14795Y28024
X13795Y28024
X12236Y27985
X11236Y27985
X6594Y26308
X6594Y25308
X6594Y24308
X10909Y23776
X10909Y22776
X10909Y21776
X10909Y20776
X6634Y19142
X6634Y18142
X6634Y17142
X6555Y12095
X6555Y11095
X6555Y10095
X15949Y20776
X15949Y21776
X15949Y22776
X15949Y23776
X20673Y23776
X20673Y22776
X20673Y21776
X20673Y20776
X25161Y20776
X25161Y21776
X25161Y22776
X25161Y23776
T05
X4130Y24331
X4130Y22331
X4130Y20331
X4130Y18331
X4130Y16331
X4090Y13426
X4090Y11426
X4090Y9426
X4090Y7426
X4130Y26331
T06
X33941Y26134
X38193Y26134
M30
