G75*
G70*
%OFA0B0*%
%FSLAX24Y24*%
%IPPOS*%
%LPD*%
%AMOC8*
5,1,8,0,0,1.08239X$1,22.5*
%
%ADD10C,0.1300*%
%ADD11OC8,0.0640*%
%ADD12C,0.0640*%
%ADD13R,0.0620X0.0180*%
%ADD14R,0.0160X0.0430*%
%ADD15R,0.0250X0.0820*%
%ADD16R,0.0394X0.0316*%
%ADD17C,0.0600*%
%ADD18R,0.0552X0.0631*%
%ADD19R,0.0316X0.0394*%
%ADD20R,0.0473X0.0434*%
%ADD21C,0.0865*%
D10*
X033941Y026134D03*
X038193Y026134D03*
D11*
X031846Y025776D03*
X030846Y025776D03*
X029846Y025776D03*
X028846Y025776D03*
X027846Y025776D03*
X026846Y025776D03*
X025846Y025776D03*
X024846Y025776D03*
X023846Y025776D03*
X022846Y025776D03*
X021846Y025776D03*
X020846Y025776D03*
X019846Y025776D03*
X018846Y025776D03*
X017846Y025776D03*
X016846Y025776D03*
X015846Y025776D03*
X014846Y025776D03*
X013846Y025776D03*
X012846Y025776D03*
X011846Y025776D03*
X010846Y025776D03*
X009846Y025776D03*
X009846Y026776D03*
X010846Y026776D03*
X011846Y026776D03*
X012846Y026776D03*
X013846Y026776D03*
X014846Y026776D03*
X015846Y026776D03*
X016846Y026776D03*
X017846Y026776D03*
X018846Y026776D03*
X019846Y026776D03*
X020846Y026776D03*
X021846Y026776D03*
X022846Y026776D03*
X023846Y026776D03*
X024846Y026776D03*
X025846Y026776D03*
X026846Y026776D03*
X027846Y026776D03*
X028846Y026776D03*
X029846Y026776D03*
X030846Y026776D03*
X031846Y026776D03*
X031831Y007776D03*
X031831Y006776D03*
X030831Y006776D03*
X029831Y006776D03*
X029831Y007776D03*
X030831Y007776D03*
X028831Y007776D03*
X027831Y007776D03*
X027831Y006776D03*
X028831Y006776D03*
X026831Y006776D03*
X025831Y006776D03*
X025831Y007776D03*
X026831Y007776D03*
X024831Y007776D03*
X023831Y007776D03*
X023831Y006776D03*
X024831Y006776D03*
X022831Y006776D03*
X021831Y006776D03*
X021831Y007776D03*
X022831Y007776D03*
X020831Y007776D03*
X019831Y007776D03*
X018831Y007776D03*
X018831Y006776D03*
X019831Y006776D03*
X020831Y006776D03*
X017831Y006776D03*
X016831Y006776D03*
X016831Y007776D03*
X017831Y007776D03*
X015831Y007776D03*
X014831Y007776D03*
X014831Y006776D03*
X015831Y006776D03*
X013831Y006776D03*
X012831Y006776D03*
X012831Y007776D03*
X013831Y007776D03*
X011831Y007776D03*
X010831Y007776D03*
X010831Y006776D03*
X011831Y006776D03*
X009831Y006776D03*
X009831Y007776D03*
D12*
X011079Y005844D02*
X011079Y005244D01*
X012079Y005244D02*
X012079Y005844D01*
X013913Y005844D02*
X013913Y005244D01*
X014913Y005244D02*
X014913Y005844D01*
X016748Y005844D02*
X016748Y005244D01*
X017748Y005244D02*
X017748Y005844D01*
X021287Y005844D02*
X021287Y005244D01*
X022287Y005244D02*
X022287Y005844D01*
X023287Y005844D02*
X023287Y005244D01*
X025185Y005244D02*
X025185Y005844D01*
X026185Y005844D02*
X026185Y005244D01*
X027185Y005244D02*
X027185Y005844D01*
X029240Y005805D02*
X029240Y005205D01*
X030240Y005205D02*
X030240Y005805D01*
X031240Y005805D02*
X031240Y005205D01*
X033689Y006740D02*
X033689Y007340D01*
X034689Y007340D02*
X034689Y006740D01*
X035689Y006740D02*
X035689Y007340D01*
X035689Y009023D02*
X035689Y009623D01*
X034689Y009623D02*
X034689Y009023D01*
X033689Y009023D02*
X033689Y009623D01*
X033689Y011110D02*
X033689Y011710D01*
X034689Y011710D02*
X034689Y011110D01*
X035689Y011110D02*
X035689Y011710D01*
X029910Y020737D02*
X029310Y020737D01*
X029310Y021737D02*
X029910Y021737D01*
X029910Y022737D02*
X029310Y022737D01*
X029310Y023737D02*
X029910Y023737D01*
X025461Y023776D02*
X024861Y023776D01*
X024861Y022776D02*
X025461Y022776D01*
X025461Y021776D02*
X024861Y021776D01*
X024861Y020776D02*
X025461Y020776D01*
X020973Y020776D02*
X020373Y020776D01*
X020373Y021776D02*
X020973Y021776D01*
X020973Y022776D02*
X020373Y022776D01*
X020373Y023776D02*
X020973Y023776D01*
X021445Y027724D02*
X021445Y028324D01*
X022445Y028324D02*
X022445Y027724D01*
X023445Y027724D02*
X023445Y028324D01*
X024949Y028324D02*
X024949Y027724D01*
X025949Y027724D02*
X025949Y028324D01*
X026949Y028324D02*
X026949Y027724D01*
X028374Y027724D02*
X028374Y028324D01*
X029374Y028324D02*
X029374Y027724D01*
X030374Y027724D02*
X030374Y028324D01*
X017512Y028324D02*
X017512Y027724D01*
X016512Y027724D02*
X016512Y028324D01*
X014795Y028324D02*
X014795Y027724D01*
X013795Y027724D02*
X013795Y028324D01*
X012236Y028285D02*
X012236Y027685D01*
X011236Y027685D02*
X011236Y028285D01*
X006894Y026308D02*
X006294Y026308D01*
X006294Y025308D02*
X006894Y025308D01*
X006894Y024308D02*
X006294Y024308D01*
X010609Y023776D02*
X011209Y023776D01*
X011209Y022776D02*
X010609Y022776D01*
X010609Y021776D02*
X011209Y021776D01*
X011209Y020776D02*
X010609Y020776D01*
X006934Y019142D02*
X006334Y019142D01*
X006334Y018142D02*
X006934Y018142D01*
X006934Y017142D02*
X006334Y017142D01*
X006255Y012095D02*
X006855Y012095D01*
X006855Y011095D02*
X006255Y011095D01*
X006255Y010095D02*
X006855Y010095D01*
X015649Y020776D02*
X016249Y020776D01*
X016249Y021776D02*
X015649Y021776D01*
X015649Y022776D02*
X016249Y022776D01*
X016249Y023776D02*
X015649Y023776D01*
D13*
X014799Y014594D03*
X014799Y014334D03*
X014799Y014074D03*
X014799Y013824D03*
X014799Y013564D03*
X014799Y013314D03*
X014799Y013054D03*
X014799Y012794D03*
X017099Y012794D03*
X017099Y013054D03*
X017099Y013314D03*
X017099Y013564D03*
X017099Y013824D03*
X017099Y014074D03*
X017099Y014334D03*
X017099Y014594D03*
X019523Y014594D03*
X019523Y014334D03*
X019523Y014074D03*
X019523Y013824D03*
X019523Y013564D03*
X019523Y013314D03*
X019523Y013054D03*
X019523Y012794D03*
X021823Y012794D03*
X021823Y013054D03*
X021823Y013314D03*
X021823Y013564D03*
X021823Y013824D03*
X021823Y014074D03*
X021823Y014334D03*
X021823Y014594D03*
X024011Y014515D03*
X024011Y014255D03*
X024011Y013995D03*
X024011Y013745D03*
X024011Y013485D03*
X024011Y013235D03*
X024011Y012975D03*
X024011Y012715D03*
X026311Y012715D03*
X026311Y012975D03*
X026311Y013235D03*
X026311Y013485D03*
X026311Y013745D03*
X026311Y013995D03*
X026311Y014255D03*
X026311Y014515D03*
X028460Y014475D03*
X028460Y014215D03*
X028460Y013955D03*
X028460Y013705D03*
X028460Y013445D03*
X028460Y013195D03*
X028460Y012935D03*
X028460Y012675D03*
X030760Y012675D03*
X030760Y012935D03*
X030760Y013195D03*
X030760Y013445D03*
X030760Y013705D03*
X030760Y013955D03*
X030760Y014215D03*
X030760Y014475D03*
X012177Y014554D03*
X012177Y014294D03*
X012177Y014034D03*
X012177Y013784D03*
X012177Y013524D03*
X012177Y013274D03*
X012177Y013014D03*
X012177Y012754D03*
X009877Y012754D03*
X009877Y013014D03*
X009877Y013274D03*
X009877Y013524D03*
X009877Y013784D03*
X009877Y014034D03*
X009877Y014294D03*
X009877Y014554D03*
D14*
X017021Y021324D03*
X017277Y021324D03*
X017533Y021324D03*
X017789Y021324D03*
X018045Y021324D03*
X018301Y021324D03*
X018557Y021324D03*
X018813Y021324D03*
X018813Y023622D03*
X018557Y023622D03*
X018301Y023622D03*
X018045Y023622D03*
X017789Y023622D03*
X017533Y023622D03*
X017277Y023622D03*
X017021Y023622D03*
D15*
X026340Y024427D03*
X026840Y024427D03*
X027340Y024427D03*
X027840Y024427D03*
X027840Y022487D03*
X027340Y022487D03*
X026840Y022487D03*
X026340Y022487D03*
D16*
X026323Y021434D03*
X026323Y020922D03*
X019216Y023162D03*
X019216Y023674D03*
X015516Y027729D03*
X015516Y028241D03*
X013232Y028201D03*
X013232Y027690D03*
X010673Y027650D03*
X010673Y028162D03*
X010949Y010406D03*
X010949Y009894D03*
X010949Y009501D03*
X010949Y008989D03*
X009768Y005957D03*
X009768Y005446D03*
X013035Y005327D03*
X013035Y005839D03*
X016185Y005918D03*
X016185Y005406D03*
D17*
X006544Y006776D02*
X005984Y006776D01*
X005984Y007776D02*
X006544Y007776D01*
X007204Y007776D02*
X007764Y007776D01*
X008425Y007776D02*
X008985Y007776D01*
X008985Y006776D02*
X008425Y006776D01*
X007764Y006776D02*
X007204Y006776D01*
D18*
X011520Y029166D03*
X012268Y029166D03*
X013882Y029087D03*
X014630Y029087D03*
X016362Y029166D03*
X017110Y029166D03*
D19*
X027386Y012079D03*
X027897Y012079D03*
X027897Y011646D03*
X027901Y011209D03*
X027390Y011209D03*
X027386Y011646D03*
X027386Y010717D03*
X027897Y010717D03*
X029705Y010587D03*
X030216Y010587D03*
X031374Y011131D03*
X031886Y011131D03*
D20*
X029157Y014875D03*
X028488Y014875D03*
X024709Y014993D03*
X024039Y014993D03*
X020220Y015111D03*
X019551Y015111D03*
X015535Y014993D03*
X014866Y014993D03*
X009771Y014886D03*
X009102Y014886D03*
D21*
X004542Y016331D02*
X003717Y016331D01*
X003717Y018331D02*
X004542Y018331D01*
X004542Y020331D02*
X003717Y020331D01*
X003717Y022331D02*
X004542Y022331D01*
X004542Y024331D02*
X003717Y024331D01*
X003717Y026331D02*
X004542Y026331D01*
X004503Y013426D02*
X003678Y013426D01*
X003678Y011426D02*
X004503Y011426D01*
X004503Y009426D02*
X003678Y009426D01*
X003678Y007426D02*
X004503Y007426D01*
M02*
