G75*
G70*
%OFA0B0*%
%FSLAX24Y24*%
%IPPOS*%
%LPD*%
%AMOC8*
5,1,8,0,0,1.08239X$1,22.5*
%
%ADD10C,0.1300*%
%ADD11OC8,0.0640*%
%ADD12C,0.0640*%
%ADD13R,0.0434X0.0178*%
%ADD14R,0.1221X0.2009*%
%ADD15R,0.0473X0.0434*%
%ADD16R,0.0631X0.0552*%
%ADD17R,0.0355X0.0355*%
%ADD18R,0.0920X0.0520*%
%ADD19R,0.0906X0.1457*%
%ADD20R,0.0316X0.0394*%
%ADD21R,0.0260X0.0540*%
%ADD22R,0.0620X0.0180*%
%ADD23C,0.0600*%
%ADD24R,0.0434X0.0473*%
%ADD25R,0.0394X0.0316*%
%ADD26C,0.0865*%
%ADD27R,0.1001X0.0485*%
%ADD28R,0.0906X0.0276*%
%ADD29R,0.1418X0.1024*%
D10*
X033941Y026134D03*
X038193Y026134D03*
D11*
X031846Y025776D03*
X030846Y025776D03*
X029846Y025776D03*
X028846Y025776D03*
X027846Y025776D03*
X026846Y025776D03*
X025846Y025776D03*
X024846Y025776D03*
X023846Y025776D03*
X022846Y025776D03*
X021846Y025776D03*
X020846Y025776D03*
X019846Y025776D03*
X018846Y025776D03*
X017846Y025776D03*
X016846Y025776D03*
X015846Y025776D03*
X014846Y025776D03*
X013846Y025776D03*
X012846Y025776D03*
X011846Y025776D03*
X010846Y025776D03*
X009846Y025776D03*
X009846Y026776D03*
X010846Y026776D03*
X011846Y026776D03*
X012846Y026776D03*
X013846Y026776D03*
X014846Y026776D03*
X015846Y026776D03*
X016846Y026776D03*
X017846Y026776D03*
X018846Y026776D03*
X019846Y026776D03*
X020846Y026776D03*
X021846Y026776D03*
X022846Y026776D03*
X023846Y026776D03*
X024846Y026776D03*
X025846Y026776D03*
X026846Y026776D03*
X027846Y026776D03*
X028846Y026776D03*
X029846Y026776D03*
X030846Y026776D03*
X031846Y026776D03*
X031831Y007776D03*
X031831Y006776D03*
X030831Y006776D03*
X029831Y006776D03*
X029831Y007776D03*
X030831Y007776D03*
X028831Y007776D03*
X027831Y007776D03*
X027831Y006776D03*
X028831Y006776D03*
X026831Y006776D03*
X025831Y006776D03*
X025831Y007776D03*
X026831Y007776D03*
X024831Y007776D03*
X023831Y007776D03*
X023831Y006776D03*
X024831Y006776D03*
X022831Y006776D03*
X021831Y006776D03*
X021831Y007776D03*
X022831Y007776D03*
X020831Y007776D03*
X019831Y007776D03*
X018831Y007776D03*
X018831Y006776D03*
X019831Y006776D03*
X020831Y006776D03*
X017831Y006776D03*
X016831Y006776D03*
X016831Y007776D03*
X017831Y007776D03*
X015831Y007776D03*
X014831Y007776D03*
X014831Y006776D03*
X015831Y006776D03*
X013831Y006776D03*
X012831Y006776D03*
X012831Y007776D03*
X013831Y007776D03*
X011831Y007776D03*
X010831Y007776D03*
X010831Y006776D03*
X011831Y006776D03*
X009831Y006776D03*
X009831Y007776D03*
D12*
X011079Y005844D02*
X011079Y005244D01*
X012079Y005244D02*
X012079Y005844D01*
X013913Y005844D02*
X013913Y005244D01*
X014913Y005244D02*
X014913Y005844D01*
X016748Y005844D02*
X016748Y005244D01*
X017748Y005244D02*
X017748Y005844D01*
X021287Y005844D02*
X021287Y005244D01*
X022287Y005244D02*
X022287Y005844D01*
X023287Y005844D02*
X023287Y005244D01*
X025185Y005244D02*
X025185Y005844D01*
X026185Y005844D02*
X026185Y005244D01*
X027185Y005244D02*
X027185Y005844D01*
X029240Y005805D02*
X029240Y005205D01*
X030240Y005205D02*
X030240Y005805D01*
X031240Y005805D02*
X031240Y005205D01*
X033689Y006740D02*
X033689Y007340D01*
X034689Y007340D02*
X034689Y006740D01*
X035689Y006740D02*
X035689Y007340D01*
X035689Y009023D02*
X035689Y009623D01*
X034689Y009623D02*
X034689Y009023D01*
X033689Y009023D02*
X033689Y009623D01*
X033689Y011110D02*
X033689Y011710D01*
X034689Y011710D02*
X034689Y011110D01*
X035689Y011110D02*
X035689Y011710D01*
X029910Y020737D02*
X029310Y020737D01*
X029310Y021737D02*
X029910Y021737D01*
X029910Y022737D02*
X029310Y022737D01*
X029310Y023737D02*
X029910Y023737D01*
X025461Y023776D02*
X024861Y023776D01*
X024861Y022776D02*
X025461Y022776D01*
X025461Y021776D02*
X024861Y021776D01*
X024861Y020776D02*
X025461Y020776D01*
X020973Y020776D02*
X020373Y020776D01*
X020373Y021776D02*
X020973Y021776D01*
X020973Y022776D02*
X020373Y022776D01*
X020373Y023776D02*
X020973Y023776D01*
X021445Y027724D02*
X021445Y028324D01*
X022445Y028324D02*
X022445Y027724D01*
X023445Y027724D02*
X023445Y028324D01*
X024949Y028324D02*
X024949Y027724D01*
X025949Y027724D02*
X025949Y028324D01*
X026949Y028324D02*
X026949Y027724D01*
X028374Y027724D02*
X028374Y028324D01*
X029374Y028324D02*
X029374Y027724D01*
X030374Y027724D02*
X030374Y028324D01*
X017512Y028324D02*
X017512Y027724D01*
X016512Y027724D02*
X016512Y028324D01*
X014795Y028324D02*
X014795Y027724D01*
X013795Y027724D02*
X013795Y028324D01*
X012236Y028285D02*
X012236Y027685D01*
X011236Y027685D02*
X011236Y028285D01*
X006894Y026308D02*
X006294Y026308D01*
X006294Y025308D02*
X006894Y025308D01*
X006894Y024308D02*
X006294Y024308D01*
X010609Y023776D02*
X011209Y023776D01*
X011209Y022776D02*
X010609Y022776D01*
X010609Y021776D02*
X011209Y021776D01*
X011209Y020776D02*
X010609Y020776D01*
X006934Y019142D02*
X006334Y019142D01*
X006334Y018142D02*
X006934Y018142D01*
X006934Y017142D02*
X006334Y017142D01*
X006255Y012095D02*
X006855Y012095D01*
X006855Y011095D02*
X006255Y011095D01*
X006255Y010095D02*
X006855Y010095D01*
X015649Y020776D02*
X016249Y020776D01*
X016249Y021776D02*
X015649Y021776D01*
X015649Y022776D02*
X016249Y022776D01*
X016249Y023776D02*
X015649Y023776D01*
D13*
X014733Y018979D03*
X014733Y018723D03*
X014733Y018467D03*
X014733Y018211D03*
X014733Y017955D03*
X014733Y017699D03*
X014733Y017444D03*
X014733Y017188D03*
X014733Y016932D03*
X014733Y016676D03*
X014733Y016420D03*
X014733Y016164D03*
X014733Y015908D03*
X014733Y015652D03*
X017164Y015652D03*
X017164Y015908D03*
X017164Y016164D03*
X017164Y016420D03*
X017164Y016676D03*
X017164Y016932D03*
X017164Y017188D03*
X017164Y017444D03*
X017164Y017699D03*
X017164Y017955D03*
X017164Y018211D03*
X017164Y018467D03*
X017164Y018723D03*
X017164Y018979D03*
X019458Y019018D03*
X019458Y018762D03*
X019458Y018507D03*
X019458Y018251D03*
X019458Y017995D03*
X019458Y017739D03*
X019458Y017483D03*
X019458Y017227D03*
X019458Y016971D03*
X019458Y016715D03*
X019458Y016459D03*
X019458Y016203D03*
X019458Y015947D03*
X019458Y015692D03*
X021889Y015692D03*
X021889Y015947D03*
X021889Y016203D03*
X021889Y016459D03*
X021889Y016715D03*
X021889Y016971D03*
X021889Y017227D03*
X021889Y017483D03*
X021889Y017739D03*
X021889Y017995D03*
X021889Y018251D03*
X021889Y018507D03*
X021889Y018762D03*
X021889Y019018D03*
X023946Y018900D03*
X023946Y018644D03*
X023946Y018388D03*
X023946Y018133D03*
X023946Y017877D03*
X023946Y017621D03*
X023946Y017365D03*
X023946Y017109D03*
X023946Y016853D03*
X023946Y016597D03*
X023946Y016341D03*
X023946Y016085D03*
X023946Y015829D03*
X023946Y015573D03*
X026377Y015573D03*
X026377Y015829D03*
X026377Y016085D03*
X026377Y016341D03*
X026377Y016597D03*
X026377Y016853D03*
X026377Y017109D03*
X026377Y017365D03*
X026377Y017621D03*
X026377Y017877D03*
X026377Y018133D03*
X026377Y018388D03*
X026377Y018644D03*
X026377Y018900D03*
X028395Y018900D03*
X028395Y018644D03*
X028395Y018388D03*
X028395Y018133D03*
X028395Y017877D03*
X028395Y017621D03*
X028395Y017365D03*
X028395Y017109D03*
X028395Y016853D03*
X028395Y016597D03*
X028395Y016341D03*
X028395Y016085D03*
X028395Y015829D03*
X028395Y015573D03*
X030826Y015573D03*
X030826Y015829D03*
X030826Y016085D03*
X030826Y016341D03*
X030826Y016597D03*
X030826Y016853D03*
X030826Y017109D03*
X030826Y017365D03*
X030826Y017621D03*
X030826Y017877D03*
X030826Y018133D03*
X030826Y018388D03*
X030826Y018644D03*
X030826Y018900D03*
X012243Y018900D03*
X012243Y018644D03*
X012243Y018388D03*
X012243Y018133D03*
X012243Y017877D03*
X012243Y017621D03*
X012243Y017365D03*
X012243Y017109D03*
X012243Y016853D03*
X012243Y016597D03*
X012243Y016341D03*
X012243Y016085D03*
X012243Y015829D03*
X012243Y015573D03*
X009812Y015573D03*
X009812Y015829D03*
X009812Y016085D03*
X009812Y016341D03*
X009812Y016597D03*
X009812Y016853D03*
X009812Y017109D03*
X009812Y017365D03*
X009812Y017621D03*
X009812Y017877D03*
X009812Y018133D03*
X009812Y018388D03*
X009812Y018644D03*
X009812Y018900D03*
D14*
X011027Y017237D03*
X015949Y017316D03*
X020673Y017355D03*
X025161Y017237D03*
X029610Y017237D03*
D15*
X029157Y019481D03*
X028488Y019481D03*
X030063Y019481D03*
X030732Y019481D03*
X026244Y019520D03*
X025575Y019520D03*
X024709Y019520D03*
X024039Y019520D03*
X021756Y019599D03*
X021086Y019599D03*
X020181Y019599D03*
X019512Y019599D03*
X017071Y019599D03*
X016401Y019599D03*
X015496Y019599D03*
X014827Y019599D03*
X012110Y019560D03*
X011441Y019560D03*
X010594Y019579D03*
X009925Y019579D03*
X008291Y023005D03*
X007622Y023005D03*
X007460Y015717D03*
X008130Y015717D03*
X008295Y008949D03*
X007626Y008949D03*
D16*
X009886Y020682D03*
X009886Y021430D03*
X012090Y021509D03*
X012090Y020760D03*
X014768Y020721D03*
X014768Y021469D03*
X017051Y021548D03*
X017051Y020800D03*
X019492Y020800D03*
X019492Y021548D03*
X021894Y021548D03*
X021894Y020800D03*
X023980Y020721D03*
X023980Y021469D03*
X026303Y021312D03*
X026303Y020564D03*
X028429Y020721D03*
X028429Y021469D03*
X030791Y021430D03*
X030791Y020682D03*
D17*
X036500Y011863D03*
X036500Y011272D03*
X016146Y005879D03*
X016146Y005288D03*
X013075Y005288D03*
X013075Y005879D03*
X010161Y005879D03*
X010161Y005288D03*
X008212Y011804D03*
X007622Y011804D03*
X007661Y018694D03*
X008252Y018694D03*
X008252Y025898D03*
X007661Y025898D03*
D18*
X024295Y011099D03*
X024295Y010190D03*
X024295Y009280D03*
X027917Y009319D03*
X027917Y010229D03*
X027917Y011139D03*
X020161Y011060D03*
X020161Y010150D03*
X020161Y009240D03*
D19*
X021855Y010190D03*
X025477Y010229D03*
X017721Y010150D03*
D20*
X008295Y009469D03*
X007783Y009469D03*
X007661Y012552D03*
X008173Y012552D03*
X008212Y013339D03*
X007701Y013339D03*
X007583Y014599D03*
X008094Y014599D03*
X008173Y016331D03*
X007661Y016331D03*
X007740Y019560D03*
X008252Y019560D03*
X008094Y022079D03*
X007583Y022079D03*
X007779Y023686D03*
X008291Y023686D03*
X008173Y026764D03*
X007661Y026764D03*
X027228Y024520D03*
X027740Y024520D03*
X027937Y023457D03*
X027425Y023457D03*
X027346Y022729D03*
X027858Y022729D03*
X032315Y012111D03*
X032827Y012111D03*
D21*
X008287Y011133D03*
X007917Y011133D03*
X007547Y011133D03*
X007547Y010113D03*
X008287Y010113D03*
X008169Y017042D03*
X007429Y017042D03*
X007429Y018062D03*
X007799Y018062D03*
X008169Y018062D03*
X008287Y024247D03*
X007547Y024247D03*
X007547Y025267D03*
X007917Y025267D03*
X008287Y025267D03*
D22*
X029169Y012165D03*
X029169Y011915D03*
X029169Y011655D03*
X029169Y011405D03*
X029169Y011145D03*
X029169Y010885D03*
X029169Y010635D03*
X029169Y010375D03*
X029169Y010125D03*
X029169Y009865D03*
X029169Y009605D03*
X029169Y009355D03*
X029169Y009095D03*
X029169Y008845D03*
X031469Y008845D03*
X031469Y009095D03*
X031469Y009355D03*
X031469Y009605D03*
X031469Y009865D03*
X031469Y010125D03*
X031469Y010375D03*
X031469Y010635D03*
X031469Y010885D03*
X031469Y011145D03*
X031469Y011405D03*
X031469Y011655D03*
X031469Y011915D03*
X031469Y012165D03*
D23*
X006544Y006776D02*
X005984Y006776D01*
X005984Y007776D02*
X006544Y007776D01*
X007204Y007776D02*
X007764Y007776D01*
X008425Y007776D02*
X008985Y007776D01*
X008985Y006776D02*
X008425Y006776D01*
X007764Y006776D02*
X007204Y006776D01*
D24*
X009216Y014501D03*
X009216Y015170D03*
X009256Y018516D03*
X009256Y019186D03*
X009256Y019737D03*
X009256Y020406D03*
X013311Y019422D03*
X013941Y019068D03*
X013311Y018753D03*
X013941Y018398D03*
X013901Y015800D03*
X013901Y015131D03*
X018232Y018949D03*
X018823Y018674D03*
X018823Y019343D03*
X018232Y019619D03*
X022799Y019540D03*
X023311Y019264D03*
X022799Y018871D03*
X023311Y018595D03*
X027130Y018713D03*
X027681Y019028D03*
X027130Y019383D03*
X027681Y018359D03*
X028035Y015131D03*
X028035Y014461D03*
X023429Y014579D03*
X023429Y015249D03*
X018862Y015406D03*
X018862Y014737D03*
D25*
X019531Y013871D03*
X019531Y013359D03*
X015083Y013241D03*
X015083Y013753D03*
X009886Y013949D03*
X009886Y014461D03*
X009098Y010446D03*
X009098Y009934D03*
X024020Y013320D03*
X024020Y013831D03*
X028390Y013753D03*
X028390Y013241D03*
X036500Y010682D03*
X036500Y010170D03*
X027405Y021548D03*
X027405Y022060D03*
D26*
X004542Y022331D02*
X003717Y022331D01*
X003717Y020331D02*
X004542Y020331D01*
X004542Y018331D02*
X003717Y018331D01*
X003717Y016331D02*
X004542Y016331D01*
X004503Y013426D02*
X003678Y013426D01*
X003678Y011426D02*
X004503Y011426D01*
X004503Y009426D02*
X003678Y009426D01*
X003678Y007426D02*
X004503Y007426D01*
X004542Y024331D02*
X003717Y024331D01*
X003717Y026331D02*
X004542Y026331D01*
D27*
X035083Y021556D03*
X035083Y020556D03*
X038468Y020556D03*
X038468Y021556D03*
D28*
X011933Y011847D03*
X011933Y011347D03*
X011933Y010847D03*
X011933Y010347D03*
X011933Y009847D03*
X011933Y009347D03*
X011933Y008847D03*
X009886Y008847D03*
X009886Y009347D03*
X009886Y009847D03*
X009886Y010347D03*
X009886Y010847D03*
X009886Y011347D03*
X009886Y011847D03*
D29*
X013803Y010190D03*
X016362Y010190D03*
M02*
