%
M48
M72
T01C0.0120
T02C0.0120
T03C0.0157
T04C0.0197
T05C0.0236
T06C0.0400
T07C0.0550
T08C0.0630
%
T01
X15003Y5776
X15003Y6189
X19334Y8807
X19669Y8630
X23822Y7469
X23940Y6878
X23999Y6150
X28921Y10205
X33054Y9201
X33094Y8689
X34452Y8925
X34019Y10894
X36007Y11701
X36598Y12154
X35613Y12449
X35279Y12409
X33409Y14358
X33684Y14654
X33645Y15008
X32149Y14791
X31637Y14831
X31145Y14870
X29039Y14457
X28822Y14831
X27405Y14791
X26873Y14831
X26204Y15205
X24590Y15067
X23960Y15087
X24019Y14594
X22720Y14870
X22090Y14811
X21440Y14831
X19728Y14654
X19393Y14909
X17444Y14811
X16972Y14909
X15082Y14811
X14649Y14555
X14117Y13571
X13271Y14811
X12759Y14791
X12070Y14831
X12503Y17626
X12277Y18591
X13015Y18610
X13861Y17902
X15968Y17705
X16480Y18610
X17001Y18591
X17759Y18571
X18625Y17902
X18861Y17350
X17228Y17626
X19255Y19969
X19787Y20559
X20299Y20008
X20338Y18650
X21204Y18591
X21696Y18551
X22484Y18591
X23409Y17882
X24216Y18827
X23212Y20028
X23665Y20854
X22247Y20500
X22011Y21287
X23291Y22606
X23487Y23335
X20987Y25126
X20043Y24535
X19511Y24831
X19295Y25126
X20299Y23650
X20318Y22744
X19550Y21307
X20673Y17665
X21972Y17606
X25397Y17646
X25928Y18591
X26440Y18571
X27208Y18591
X28074Y17921
X28389Y18669
X29767Y19850
X30633Y18610
X31342Y18669
X31932Y18669
X32385Y19476
X32444Y19929
X32917Y19969
X32858Y18807
X32799Y17902
X32936Y17528
X31401Y17626
X30141Y17646
X26676Y17626
X31834Y22882
X31224Y25283
X31696Y29457
X29511Y29732
X38015Y27055
X38054Y24634
X41125Y24594
X35358Y18295
X34649Y18276
X34531Y17626
X34472Y16976
X35653Y17272
X36027Y17626
X39314Y12449
X18291Y12567
X14787Y10343
X11224Y17685
X11460Y18827
X11361Y19122
X11066Y19181
X10633Y19181
X9806Y19142
X11795Y19969
X12680Y20185
X12858Y20972
X12523Y20992
X11814Y21996
X11106Y22055
X12011Y22783
X11814Y23118
X12661Y22980
X13153Y23157
X13889Y22519
X14157Y22941
X14413Y20185
X14924Y20028
X10613Y23079
X9541Y22911
X17936Y26711
X16460Y30057
X20987Y30286
T02
X26450Y22872
X26460Y17114
X26460Y16819
X26145Y16819
X26145Y17114
X24909Y17124
X21736Y17104
X21726Y16819
X21430Y16819
X21430Y17114
X20210Y17114
X17001Y17114
X16706Y17114
X16706Y16819
X17001Y16819
X15564Y17114
X12277Y17114
X12277Y16819
X11982Y16819
X11982Y17114
X10820Y17094
X8734Y16504
X8202Y17567
X8586Y19083
X9029Y19083
X9029Y19575
X8586Y19575
X8586Y20067
X9029Y20067
X8458Y21327
X8576Y22528
X8143Y23433
X10702Y23748
X12867Y22449
X13281Y22449
X13871Y20224
X8478Y15323
X8537Y13965
X8930Y13965
X8930Y13472
X8537Y13472
X8537Y12980
X8930Y12980
X10663Y13866
X11037Y13866
X11588Y13669
X11588Y13374
X11588Y13079
X11588Y12783
X11982Y12783
X11982Y13079
X11982Y13374
X11982Y13669
X12375Y13669
X12375Y13374
X12375Y13079
X12375Y12783
X12769Y12783
X12769Y13079
X12769Y13374
X12769Y13669
X13163Y13669
X13163Y13374
X13163Y13079
X13163Y12783
X14019Y12852
X14019Y12537
X15486Y13886
X15781Y13886
X16312Y13669
X16312Y13374
X16312Y13079
X16312Y12783
X16706Y12783
X16706Y13079
X16706Y13374
X16706Y13669
X17100Y13669
X17100Y13374
X17100Y13079
X17100Y12783
X17493Y12783
X17493Y13079
X17493Y13374
X17493Y13669
X17887Y13669
X17887Y13374
X17887Y13079
X17887Y12783
X18783Y12872
X18783Y12577
X20131Y13886
X20407Y13886
X21037Y13669
X21037Y13374
X21037Y13079
X21037Y12783
X21430Y12783
X21430Y13079
X21430Y13374
X21430Y13669
X21824Y13669
X21824Y13374
X21824Y13079
X21824Y12783
X22218Y12783
X22218Y13079
X22218Y13374
X22218Y13669
X22611Y13669
X22611Y13374
X22611Y13079
X22611Y12783
X23478Y12862
X23478Y12567
X24993Y13906
X25269Y13906
X25761Y13669
X25761Y13374
X25761Y13079
X25761Y12783
X26155Y12783
X26155Y13079
X26155Y13374
X26155Y13669
X26549Y13669
X26549Y13374
X26549Y13079
X26549Y12783
X26942Y12783
X26942Y13079
X26942Y13374
X26942Y13669
X27336Y13669
X27336Y13374
X27336Y13079
X27336Y12783
X28182Y12862
X28182Y12567
X29619Y13866
X29895Y13866
X30486Y13669
X30486Y13374
X30486Y13079
X30486Y12783
X30879Y12783
X30879Y13079
X30879Y13374
X30879Y13669
X31273Y13669
X31273Y13374
X31273Y13079
X31273Y12783
X31667Y12783
X31667Y13079
X31667Y13374
X31667Y13669
X32060Y13669
X32060Y13374
X32060Y13079
X32060Y12783
X32946Y12823
X32946Y12547
X34993Y13315
X35033Y13610
X32799Y10343
X32799Y10028
X32799Y9713
X32799Y9378
X32188Y8807
X31913Y8807
X30673Y8768
X30299Y8768
X29619Y9496
X29619Y9811
X29619Y10146
X29619Y10441
X28438Y10126
X28438Y9831
X28104Y9811
X28104Y10126
X27336Y8807
X26962Y8807
X25938Y8807
X25564Y8807
X24875Y9831
X24600Y9831
X24600Y10126
X24875Y10126
X23556Y10146
X23241Y10126
X23241Y9811
X23556Y9831
X22513Y8807
X22159Y8807
X20938Y8787
X20643Y8787
X20151Y9850
X20151Y10126
X20151Y10421
X19245Y10382
X18635Y10539
X18419Y8807
X18104Y8787
X16588Y8748
X16234Y8748
X15505Y9339
X15505Y9654
X15505Y9988
X15505Y10303
X14501Y10106
X14501Y9831
X14226Y9831
X14226Y10106
X13340Y8591
X13005Y8591
X13005Y8256
X13340Y8256
X11942Y8295
X11942Y8630
X11588Y8630
X11568Y8295
X10919Y9280
X10919Y9594
X10919Y9909
X10919Y10224
X10387Y8335
X10387Y8000
X10033Y8000
X10033Y8335
X29633Y17115
X30869Y17124
X30869Y16809
X31184Y16809
X31184Y17124
X35515Y21248
X38960Y20589
X39984Y20589
X35594Y24319
X35820Y10146
X38596Y10224
X38763Y8541
X41322Y8502
X41352Y10224
X9029Y26120
X8586Y26120
X8586Y26612
X9029Y26612
X9029Y27104
X8586Y27104
X8478Y28433
X8596Y29713
T03
X23448Y24831
X25141Y19614
X33153Y15618
T04
X38704Y25953
X10062Y19575
T05
X10564Y11356
X13360Y11356
X16066Y11356
X18084Y11356
X20840Y11356
X22808Y11425
X25560Y11343
X27523Y11307
X30281Y11348
X32287Y11346
X33881Y11337
X34777Y19860
X35171Y19860
X35171Y20254
X34777Y20254
X35185Y21543
X35810Y22232
X34856Y22734
X35786Y23177
X35604Y24860
X35604Y25274
X33970Y24624
X33576Y24624
X32690Y22557
X32297Y22557
X32297Y22144
X32690Y22144
X29304Y21199
X28861Y21199
X27228Y21140
X27228Y20687
X26755Y20687
X26755Y21140
X24905Y21041
X24265Y21012
X23704Y22301
X21499Y22872
X20692Y22498
X26539Y24663
X36878Y20559
T06
X36466Y26161
X35466Y26161
X34466Y26161
X33466Y26161
X32466Y26161
X31466Y26161
X30466Y26161
X29466Y26161
X28466Y26161
X27466Y26161
X26466Y26161
X25466Y26161
X24466Y26161
X23466Y26161
X22466Y26161
X21466Y26161
X20466Y26161
X19466Y26161
X18466Y26161
X17466Y26161
X16466Y26161
X15466Y26161
X14466Y26161
X14466Y27161
X15466Y27161
X16466Y27161
X17466Y27161
X18466Y27161
X19466Y27161
X20466Y27161
X21466Y27161
X22466Y27161
X23466Y27161
X24466Y27161
X25466Y27161
X26466Y27161
X27466Y27161
X28466Y27161
X29466Y27161
X30466Y27161
X31466Y27161
X32466Y27161
X33466Y27161
X34466Y27161
X35466Y27161
X36466Y27161
X36905Y28709
X37905Y28709
X39415Y28709
X40415Y28709
X35395Y28709
X34395Y28709
X32885Y28709
X31885Y28709
X30375Y28709
X29375Y28709
X27865Y28709
X26865Y28709
X24871Y28709
X23871Y28709
X22871Y28709
X20472Y28709
X19472Y28709
X18472Y28709
X16751Y28669
X15751Y28669
X14751Y28669
X13070Y28650
X12070Y28650
X11070Y28650
X16373Y24862
X16373Y23862
X16373Y22862
X16373Y21862
X16373Y20862
X17373Y20862
X17373Y21862
X17373Y22862
X17373Y23862
X17373Y24862
X17466Y8116
X18466Y8116
X19466Y8116
X20466Y8116
X21466Y8116
X22466Y8116
X23466Y8116
X24466Y8116
X25466Y8116
X26466Y8116
X27466Y8116
X28466Y8116
X29466Y8116
X30466Y8116
X31466Y8116
X32466Y8116
X33466Y8116
X34466Y8116
X35466Y8116
X36466Y8116
X36466Y7116
X35466Y7116
X34466Y7116
X33466Y7116
X32466Y7116
X31466Y7116
X30466Y7116
X29466Y7116
X28466Y7116
X27466Y7116
X26466Y7116
X25466Y7116
X24466Y7116
X23466Y7116
X22466Y7116
X21466Y7116
X20466Y7116
X19466Y7116
X18466Y7116
X17466Y7116
X16466Y7116
X16466Y8116
X15466Y8116
X14466Y8116
X14466Y7116
X15466Y7116
X15728Y5500
X16728Y5500
X17728Y5500
X18728Y5500
X20216Y5500
X21216Y5500
X22216Y5500
X23216Y5500
X24704Y5500
X25704Y5500
X26704Y5500
X27704Y5500
X29192Y5539
X30192Y5539
X31192Y5539
X32192Y5539
X34602Y5539
X35602Y5539
X37318Y5539
X38318Y5539
X40035Y5500
X41035Y5500
X14239Y5500
X13239Y5500
X12239Y5500
X11239Y5500
T07
X4080Y4862
X4080Y6862
X4080Y8862
X4080Y10862
X4080Y13713
X4080Y15713
X4080Y18563
X4080Y20563
X4080Y22563
X4080Y24563
X4080Y27413
X4080Y29413
T08
X5692Y10520
X7031Y10520
X7031Y5638
X5692Y5638
M30
