G75*
G70*
%OFA0B0*%
%FSLAX24Y24*%
%IPPOS*%
%LPD*%
%AMOC8*
5,1,8,0,0,1.08239X$1,22.5*
%
%ADD10C,0.0000*%
%ADD11C,0.0100*%
%ADD12C,0.0040*%
%ADD13C,0.0030*%
%ADD14C,0.0118*%
%ADD15C,0.0060*%
%ADD16C,0.0316*%
%ADD17C,0.0020*%
%ADD18C,0.0050*%
%ADD19R,0.0059X0.0118*%
%ADD20R,0.0118X0.0118*%
%ADD21C,0.0080*%
%ADD22C,0.0070*%
%ADD23R,0.0118X0.0059*%
%ADD24R,0.1440X0.0080*%
%ADD25R,0.0060X0.0090*%
%ADD26R,0.0591X0.0591*%
%ADD27R,0.0197X0.0295*%
%ADD28R,0.0295X0.0197*%
%ADD29C,0.0010*%
D10*
X000474Y003346D02*
X006615Y003346D01*
X006616Y003346D02*
X006657Y003350D01*
X006699Y003358D01*
X006739Y003369D01*
X006778Y003384D01*
X006815Y003403D01*
X006851Y003425D01*
X006884Y003450D01*
X006915Y003478D01*
X006944Y003509D01*
X006969Y003542D01*
X006991Y003577D01*
X007010Y003615D01*
X007025Y003654D01*
X007037Y003694D01*
X007044Y003735D01*
X007048Y003777D01*
X007049Y003819D01*
X007049Y004626D01*
X007324Y004626D01*
X007324Y003858D01*
X007323Y003821D01*
X007327Y003784D01*
X007334Y003748D01*
X007344Y003713D01*
X007358Y003679D01*
X007376Y003646D01*
X007396Y003616D01*
X007419Y003587D01*
X007445Y003561D01*
X007474Y003538D01*
X007504Y003517D01*
X007536Y003500D01*
X007570Y003485D01*
X007606Y003475D01*
X007642Y003467D01*
X007678Y003464D01*
X029686Y003464D01*
X029714Y003466D01*
X029742Y003471D01*
X029770Y003479D01*
X029796Y003491D01*
X029820Y003506D01*
X029842Y003523D01*
X029863Y003544D01*
X029880Y003566D01*
X029895Y003590D01*
X029907Y003616D01*
X029915Y003644D01*
X029920Y003672D01*
X029922Y003700D01*
X029923Y003700D02*
X029923Y004527D01*
X030237Y004527D01*
X030237Y003700D01*
X030238Y003700D02*
X030240Y003672D01*
X030245Y003644D01*
X030253Y003616D01*
X030265Y003590D01*
X030280Y003566D01*
X030297Y003544D01*
X030318Y003523D01*
X030340Y003506D01*
X030364Y003491D01*
X030390Y003479D01*
X030418Y003471D01*
X030446Y003466D01*
X030474Y003464D01*
X038249Y003464D01*
X038249Y003465D02*
X038290Y003461D01*
X038332Y003462D01*
X038373Y003465D01*
X038414Y003473D01*
X038454Y003484D01*
X038493Y003498D01*
X038531Y003516D01*
X038566Y003537D01*
X038600Y003561D01*
X038632Y003588D01*
X038661Y003618D01*
X038688Y003650D01*
X038711Y003684D01*
X038732Y003720D01*
X038749Y003758D01*
X038763Y003797D01*
X038773Y003837D01*
X038780Y003878D01*
X038781Y003878D02*
X038781Y012795D01*
X033545Y012795D01*
X033545Y019882D01*
X038663Y019882D01*
X038663Y030511D01*
X038662Y030512D02*
X038658Y030548D01*
X038649Y030584D01*
X038637Y030618D01*
X038622Y030651D01*
X038603Y030683D01*
X038581Y030712D01*
X038556Y030739D01*
X038528Y030763D01*
X038498Y030784D01*
X038466Y030802D01*
X038433Y030816D01*
X038398Y030827D01*
X038362Y030834D01*
X038325Y030837D01*
X038288Y030836D01*
X038289Y030836D02*
X022964Y030836D01*
X022963Y030836D02*
X022935Y030831D01*
X022907Y030823D01*
X022880Y030811D01*
X022854Y030797D01*
X022831Y030779D01*
X022810Y030759D01*
X022792Y030736D01*
X022776Y030712D01*
X022763Y030685D01*
X022754Y030657D01*
X022748Y030629D01*
X022746Y030600D01*
X022747Y030570D01*
X022747Y030571D02*
X022747Y029645D01*
X022491Y029645D01*
X022491Y030551D01*
X022492Y030551D02*
X022493Y030582D01*
X022490Y030613D01*
X022483Y030643D01*
X022472Y030673D01*
X022458Y030700D01*
X022441Y030726D01*
X022421Y030750D01*
X022398Y030771D01*
X022373Y030789D01*
X022345Y030804D01*
X022316Y030815D01*
X022286Y030823D01*
X022256Y030827D01*
X022255Y030826D02*
X019273Y030826D01*
X019245Y030819D01*
X019217Y030809D01*
X019192Y030796D01*
X019168Y030780D01*
X019146Y030762D01*
X019126Y030740D01*
X019109Y030717D01*
X019096Y030692D01*
X019085Y030665D01*
X019078Y030637D01*
X019074Y030608D01*
X019073Y030579D01*
X019076Y030551D01*
X019076Y029626D01*
X018820Y029626D01*
X018820Y030551D01*
X018823Y030579D01*
X018822Y030608D01*
X018818Y030637D01*
X018811Y030665D01*
X018800Y030692D01*
X018787Y030717D01*
X018770Y030740D01*
X018750Y030762D01*
X018728Y030780D01*
X018704Y030796D01*
X018679Y030809D01*
X018651Y030819D01*
X018623Y030826D01*
X007797Y030826D01*
X007756Y030824D01*
X007715Y030819D01*
X007675Y030810D01*
X007636Y030798D01*
X007598Y030782D01*
X007561Y030763D01*
X007526Y030741D01*
X007494Y030716D01*
X007463Y030688D01*
X007435Y030657D01*
X007410Y030625D01*
X007388Y030590D01*
X007369Y030553D01*
X007353Y030515D01*
X007341Y030476D01*
X007332Y030436D01*
X007327Y030395D01*
X007325Y030354D01*
X007324Y030354D02*
X007324Y029409D01*
X007009Y029409D01*
X007009Y030354D01*
X007010Y030354D02*
X007006Y030397D01*
X006999Y030439D01*
X006988Y030481D01*
X006973Y030521D01*
X006955Y030560D01*
X006934Y030597D01*
X006909Y030633D01*
X006882Y030666D01*
X006851Y030696D01*
X006819Y030724D01*
X006783Y030749D01*
X006746Y030770D01*
X006707Y030789D01*
X006667Y030804D01*
X006625Y030815D01*
X006583Y030823D01*
X006540Y030826D01*
X006497Y030827D01*
X006497Y030826D02*
X000474Y030826D01*
X000474Y003346D01*
D11*
X007647Y003511D02*
X007997Y003511D01*
X007997Y001061D01*
X008127Y000921D01*
X008147Y000361D02*
X008247Y000161D01*
X009667Y000161D01*
X009627Y000161D02*
X011047Y000161D01*
X011147Y000361D01*
X011147Y003511D01*
X011647Y003511D01*
X011647Y004761D01*
X011397Y004761D01*
X011397Y004511D01*
X010897Y004511D01*
X010897Y004761D01*
X010397Y004761D01*
X010397Y004511D01*
X009897Y004511D01*
X009897Y004761D01*
X009397Y004761D01*
X009397Y004511D01*
X008897Y004511D01*
X008897Y004761D01*
X008397Y004761D01*
X008397Y004511D01*
X007897Y004511D01*
X007897Y004761D01*
X007647Y004761D01*
X007647Y003511D01*
X007997Y003511D02*
X011147Y003511D01*
X011297Y003511D02*
X011297Y001061D01*
X011167Y000921D01*
X012485Y001061D02*
X012615Y000921D01*
X012485Y001061D02*
X012485Y003511D01*
X015635Y003511D01*
X015635Y000361D01*
X015535Y000161D01*
X014115Y000161D01*
X014155Y000161D02*
X012735Y000161D01*
X012635Y000361D01*
X012635Y003511D01*
X012485Y003511D02*
X012135Y003511D01*
X012135Y004761D01*
X012385Y004761D01*
X012385Y004511D01*
X012885Y004511D01*
X012885Y004761D01*
X013385Y004761D01*
X013385Y004511D01*
X013885Y004511D01*
X013885Y004761D01*
X014385Y004761D01*
X014385Y004511D01*
X014885Y004511D01*
X014885Y004761D01*
X015385Y004761D01*
X015385Y004511D01*
X015885Y004511D01*
X015885Y004761D01*
X016135Y004761D01*
X016135Y003511D01*
X015635Y003511D01*
X015785Y003511D02*
X015785Y001061D01*
X015655Y000921D01*
X016973Y001061D02*
X017103Y000921D01*
X016973Y001061D02*
X016973Y003511D01*
X020123Y003511D01*
X020123Y000361D01*
X020023Y000161D01*
X018603Y000161D01*
X018643Y000161D02*
X017223Y000161D01*
X017123Y000361D01*
X017123Y003511D01*
X016973Y003511D02*
X016623Y003511D01*
X016623Y004761D01*
X016873Y004761D01*
X016873Y004511D01*
X017373Y004511D01*
X017373Y004761D01*
X017873Y004761D01*
X017873Y004511D01*
X018373Y004511D01*
X018373Y004761D01*
X018873Y004761D01*
X018873Y004511D01*
X019373Y004511D01*
X019373Y004761D01*
X019873Y004761D01*
X019873Y004511D01*
X020373Y004511D01*
X020373Y004761D01*
X020623Y004761D01*
X020623Y003511D01*
X020123Y003511D01*
X020273Y003511D02*
X020273Y001061D01*
X020143Y000921D01*
X021461Y001061D02*
X021591Y000921D01*
X021461Y001061D02*
X021461Y003511D01*
X024611Y003511D01*
X024611Y000361D01*
X024511Y000161D01*
X023091Y000161D01*
X023131Y000161D02*
X021711Y000161D01*
X021611Y000361D01*
X021611Y003511D01*
X021461Y003511D02*
X021111Y003511D01*
X021111Y004761D01*
X021361Y004761D01*
X021361Y004511D01*
X021861Y004511D01*
X021861Y004761D01*
X022361Y004761D01*
X022361Y004511D01*
X022861Y004511D01*
X022861Y004761D01*
X023361Y004761D01*
X023361Y004511D01*
X023861Y004511D01*
X023861Y004761D01*
X024361Y004761D01*
X024361Y004511D01*
X024861Y004511D01*
X024861Y004761D01*
X025111Y004761D01*
X025111Y003511D01*
X024611Y003511D01*
X024761Y003511D02*
X024761Y001061D01*
X024631Y000921D01*
X025950Y001101D02*
X026080Y000961D01*
X025950Y001101D02*
X025950Y003551D01*
X029100Y003551D01*
X029100Y000401D01*
X029000Y000201D01*
X027580Y000201D01*
X027620Y000201D02*
X026200Y000201D01*
X026100Y000401D01*
X026100Y003551D01*
X025950Y003551D02*
X025600Y003551D01*
X025600Y004801D01*
X025850Y004801D01*
X025850Y004551D01*
X026350Y004551D01*
X026350Y004801D01*
X026850Y004801D01*
X026850Y004551D01*
X027350Y004551D01*
X027350Y004801D01*
X027850Y004801D01*
X027850Y004551D01*
X028350Y004551D01*
X028350Y004801D01*
X028850Y004801D01*
X028850Y004551D01*
X029350Y004551D01*
X029350Y004801D01*
X029600Y004801D01*
X029600Y003551D01*
X029100Y003551D01*
X029250Y003551D02*
X029250Y001101D01*
X029120Y000961D01*
X031359Y001101D02*
X031489Y000961D01*
X031359Y001101D02*
X031359Y003551D01*
X032509Y003551D01*
X032509Y000401D01*
X032409Y000201D01*
X031989Y000201D01*
X032029Y000201D01*
X031989Y000201D02*
X031609Y000201D01*
X031509Y000401D01*
X031509Y003551D01*
X031359Y003551D02*
X031009Y003551D01*
X031009Y004801D01*
X031259Y004801D01*
X031259Y004551D01*
X031759Y004551D01*
X031759Y004801D01*
X032259Y004801D01*
X032259Y004551D01*
X032759Y004551D01*
X032759Y004801D01*
X033009Y004801D01*
X033009Y003551D01*
X032509Y003551D01*
X032659Y003551D02*
X032659Y001101D01*
X032529Y000961D01*
X034036Y001061D02*
X034166Y000921D01*
X034036Y001061D02*
X034036Y003511D01*
X035186Y003511D01*
X035186Y000361D01*
X035086Y000161D01*
X034666Y000161D01*
X034706Y000161D01*
X034666Y000161D02*
X034286Y000161D01*
X034186Y000361D01*
X034186Y003511D01*
X034036Y003511D02*
X033686Y003511D01*
X033686Y004761D01*
X033936Y004761D01*
X033936Y004511D01*
X034436Y004511D01*
X034436Y004761D01*
X034936Y004761D01*
X034936Y004511D01*
X035436Y004511D01*
X035436Y004761D01*
X035686Y004761D01*
X035686Y003511D01*
X035186Y003511D01*
X035336Y003511D02*
X035336Y001061D01*
X035206Y000921D01*
X036713Y001101D02*
X036843Y000961D01*
X036713Y001101D02*
X036713Y003551D01*
X037863Y003551D01*
X037863Y000401D01*
X037763Y000201D01*
X037343Y000201D01*
X037383Y000201D01*
X037343Y000201D02*
X036963Y000201D01*
X036863Y000401D01*
X036863Y003551D01*
X036713Y003551D02*
X036363Y003551D01*
X036363Y004801D01*
X036613Y004801D01*
X036613Y004551D01*
X037113Y004551D01*
X037113Y004801D01*
X037613Y004801D01*
X037613Y004551D01*
X038113Y004551D01*
X038113Y004801D01*
X038363Y004801D01*
X038363Y003551D01*
X037863Y003551D01*
X038013Y003551D02*
X038013Y001101D01*
X037883Y000961D01*
X013279Y021397D02*
X013052Y021397D01*
X013279Y021397D02*
X013279Y023169D01*
X013052Y023169D01*
X012068Y023169D02*
X011842Y023169D01*
X011842Y021397D01*
X009834Y019291D02*
X009834Y017519D01*
X009608Y017519D01*
X008623Y017519D02*
X008397Y017519D01*
X008397Y019291D01*
X008623Y019291D01*
X008584Y015905D02*
X008358Y015905D01*
X008358Y014134D01*
X009568Y014134D02*
X009795Y014134D01*
X009795Y015905D01*
X009568Y015905D01*
X011842Y021397D02*
X012068Y021397D01*
X010336Y025994D02*
X008564Y025994D01*
X008564Y026220D01*
X009608Y019291D02*
X009834Y019291D01*
X010336Y025994D02*
X010336Y026220D01*
X010336Y027204D02*
X010336Y027431D01*
X008564Y027431D01*
X008728Y029411D02*
X008228Y029411D01*
X008228Y029661D01*
X007728Y029661D01*
X007728Y029411D01*
X007478Y029411D01*
X007478Y030661D01*
X007978Y030661D01*
X007978Y033811D01*
X008078Y034011D01*
X009498Y034011D01*
X009458Y034011D02*
X009878Y034011D01*
X009978Y033811D01*
X009978Y030661D01*
X010128Y030661D02*
X010128Y033111D01*
X009998Y033251D01*
X011509Y033131D02*
X011639Y033271D01*
X011509Y033131D02*
X011509Y030681D01*
X011659Y030681D02*
X011659Y033831D01*
X011759Y034031D01*
X013179Y034031D01*
X013139Y034031D02*
X013559Y034031D01*
X013659Y033831D01*
X013659Y030681D01*
X013809Y030681D02*
X013809Y033131D01*
X013679Y033271D01*
X015229Y033170D02*
X015359Y033310D01*
X015229Y033170D02*
X015229Y030720D01*
X015379Y030720D02*
X014879Y030720D01*
X014879Y029470D01*
X015129Y029470D01*
X015129Y029720D01*
X015629Y029720D01*
X015629Y029470D01*
X016129Y029470D01*
X016129Y029720D01*
X016629Y029720D01*
X016629Y029470D01*
X017129Y029470D01*
X017129Y029720D01*
X017629Y029720D01*
X017629Y029470D01*
X017879Y029470D01*
X017879Y030720D01*
X017529Y030720D01*
X017529Y033170D01*
X017399Y033310D01*
X017379Y033870D02*
X017279Y034070D01*
X016859Y034070D01*
X016899Y034070D02*
X015479Y034070D01*
X015379Y033870D01*
X015379Y030720D01*
X014159Y030681D02*
X013809Y030681D01*
X014159Y030681D02*
X014159Y029431D01*
X013909Y029431D01*
X013909Y029681D01*
X013409Y029681D01*
X013409Y029431D01*
X012909Y029431D01*
X012909Y029681D01*
X012409Y029681D01*
X012409Y029431D01*
X011909Y029431D01*
X011909Y029681D01*
X011409Y029681D01*
X011409Y029431D01*
X011159Y029431D01*
X011159Y030681D01*
X011659Y030681D01*
X010478Y030661D02*
X010128Y030661D01*
X010478Y030661D02*
X010478Y029411D01*
X010228Y029411D01*
X010228Y029661D01*
X009728Y029661D01*
X009728Y029411D01*
X009228Y029411D01*
X009228Y029661D01*
X008728Y029661D01*
X008728Y029411D01*
X007828Y030661D02*
X007828Y033111D01*
X007958Y033251D01*
X008564Y027431D02*
X008564Y027205D01*
X017334Y024515D02*
X017336Y024537D01*
X017342Y024559D01*
X017351Y024579D01*
X017364Y024597D01*
X017380Y024613D01*
X017398Y024626D01*
X017418Y024635D01*
X017440Y024641D01*
X017462Y024643D01*
X017484Y024641D01*
X017506Y024635D01*
X017526Y024626D01*
X017544Y024613D01*
X017560Y024597D01*
X017573Y024579D01*
X017582Y024559D01*
X017588Y024537D01*
X017590Y024515D01*
X017588Y024493D01*
X017582Y024471D01*
X017573Y024451D01*
X017560Y024433D01*
X017544Y024417D01*
X017526Y024404D01*
X017506Y024395D01*
X017484Y024389D01*
X017462Y024387D01*
X017440Y024389D01*
X017418Y024395D01*
X017398Y024404D01*
X017380Y024417D01*
X017364Y024433D01*
X017351Y024451D01*
X017342Y024471D01*
X017336Y024493D01*
X017334Y024515D01*
X021114Y024590D02*
X021695Y024590D01*
X021888Y024784D01*
X021888Y025171D01*
X021695Y025364D01*
X021114Y025364D01*
X021114Y024203D01*
X021501Y024590D02*
X021888Y024203D01*
X022274Y024397D02*
X022274Y024784D01*
X022468Y024977D01*
X022855Y024977D01*
X023048Y024784D01*
X023048Y024590D01*
X022274Y024590D01*
X022274Y024397D02*
X022468Y024203D01*
X022855Y024203D01*
X023434Y024203D02*
X024015Y024203D01*
X024208Y024397D01*
X024208Y024784D01*
X024015Y024977D01*
X023434Y024977D01*
X023434Y023816D01*
X024594Y024203D02*
X024981Y024203D01*
X024788Y024203D02*
X024788Y025364D01*
X024594Y025364D01*
X025368Y024977D02*
X025561Y024977D01*
X025561Y024203D01*
X025368Y024203D02*
X025755Y024203D01*
X026141Y024397D02*
X026335Y024203D01*
X026915Y024203D01*
X027301Y024397D02*
X027495Y024590D01*
X028075Y024590D01*
X028075Y024784D02*
X028075Y024203D01*
X027495Y024203D01*
X027301Y024397D01*
X027495Y024977D02*
X027881Y024977D01*
X028075Y024784D01*
X028461Y024977D02*
X029042Y024977D01*
X029235Y024784D01*
X029235Y024397D01*
X029042Y024203D01*
X028461Y024203D01*
X028461Y023816D02*
X028461Y024977D01*
X029621Y024784D02*
X029621Y024397D01*
X029815Y024203D01*
X030202Y024203D01*
X030395Y024590D02*
X029621Y024590D01*
X029621Y024784D02*
X029815Y024977D01*
X030202Y024977D01*
X030395Y024784D01*
X030395Y024590D01*
X026915Y024977D02*
X026335Y024977D01*
X026141Y024784D01*
X026141Y024397D01*
X025561Y025364D02*
X025561Y025558D01*
X025273Y029323D02*
X025023Y029323D01*
X025023Y029573D01*
X024523Y029573D01*
X024523Y029323D01*
X024023Y029323D01*
X024023Y029573D01*
X023523Y029573D01*
X023523Y029323D01*
X023273Y029323D01*
X023273Y030573D01*
X023773Y030573D01*
X023773Y033723D01*
X023873Y033923D01*
X024293Y033923D01*
X024253Y033923D01*
X024293Y033923D02*
X024673Y033923D01*
X024773Y033723D01*
X024773Y030573D01*
X024923Y030573D02*
X024923Y033023D01*
X024793Y033163D01*
X023753Y033163D02*
X023623Y033023D01*
X023623Y030573D01*
X023773Y030573D02*
X024923Y030573D01*
X025273Y030573D01*
X025273Y029323D01*
X025822Y029332D02*
X026072Y029332D01*
X026072Y029582D01*
X026572Y029582D01*
X026572Y029332D01*
X027072Y029332D01*
X027072Y029582D01*
X027572Y029582D01*
X027572Y029332D01*
X027822Y029332D01*
X027822Y030582D01*
X027472Y030582D01*
X027472Y033032D01*
X027342Y033172D01*
X027322Y033732D02*
X027222Y033932D01*
X026842Y033932D01*
X026802Y033932D01*
X026842Y033932D02*
X026422Y033932D01*
X026322Y033732D01*
X026322Y030582D01*
X025822Y030582D01*
X025822Y029332D01*
X026172Y030582D02*
X026172Y033032D01*
X026302Y033172D01*
X027322Y033732D02*
X027322Y030582D01*
X027472Y030582D02*
X026322Y030582D01*
X028361Y030582D02*
X028361Y029332D01*
X028611Y029332D01*
X028611Y029582D01*
X029111Y029582D01*
X029111Y029332D01*
X029611Y029332D01*
X029611Y029582D01*
X030111Y029582D01*
X030111Y029332D01*
X030361Y029332D01*
X030361Y030582D01*
X030011Y030582D01*
X030011Y033032D01*
X029881Y033172D01*
X029861Y033732D02*
X029761Y033932D01*
X029381Y033932D01*
X029341Y033932D01*
X029381Y033932D02*
X028961Y033932D01*
X028861Y033732D01*
X028861Y030582D01*
X028361Y030582D01*
X028711Y030582D02*
X028711Y033032D01*
X028841Y033172D01*
X029861Y033732D02*
X029861Y030582D01*
X030011Y030582D02*
X028861Y030582D01*
X030881Y030592D02*
X030881Y029342D01*
X031131Y029342D01*
X031131Y029592D01*
X031631Y029592D01*
X031631Y029342D01*
X032131Y029342D01*
X032131Y029592D01*
X032631Y029592D01*
X032631Y029342D01*
X032881Y029342D01*
X032881Y030592D01*
X032531Y030592D01*
X032531Y033042D01*
X032401Y033182D01*
X032381Y033742D02*
X032281Y033942D01*
X031901Y033942D01*
X031861Y033942D01*
X031901Y033942D02*
X031481Y033942D01*
X031381Y033742D01*
X031381Y030592D01*
X030881Y030592D01*
X031231Y030592D02*
X031231Y033042D01*
X031361Y033182D01*
X032381Y033742D02*
X032381Y030592D01*
X032531Y030592D02*
X031381Y030592D01*
X033489Y030582D02*
X033489Y029332D01*
X033739Y029332D01*
X033739Y029582D01*
X034239Y029582D01*
X034239Y029332D01*
X034739Y029332D01*
X034739Y029582D01*
X035239Y029582D01*
X035239Y029332D01*
X035489Y029332D01*
X035489Y030582D01*
X035139Y030582D01*
X035139Y033032D01*
X035009Y033172D01*
X034989Y033732D02*
X034889Y033932D01*
X034509Y033932D01*
X034469Y033932D01*
X034509Y033932D02*
X034089Y033932D01*
X033989Y033732D01*
X033989Y030582D01*
X033489Y030582D01*
X033839Y030582D02*
X033839Y033032D01*
X033969Y033172D01*
X034989Y033732D02*
X034989Y030582D01*
X035139Y030582D02*
X033989Y030582D01*
X035980Y030592D02*
X035980Y029342D01*
X036230Y029342D01*
X036230Y029592D01*
X036730Y029592D01*
X036730Y029342D01*
X037230Y029342D01*
X037230Y029592D01*
X037730Y029592D01*
X037730Y029342D01*
X037980Y029342D01*
X037980Y030592D01*
X037630Y030592D01*
X037630Y033042D01*
X037500Y033182D01*
X037480Y033742D02*
X037380Y033942D01*
X037000Y033942D01*
X036960Y033942D01*
X037000Y033942D02*
X036580Y033942D01*
X036480Y033742D01*
X036480Y030592D01*
X035980Y030592D01*
X036330Y030592D02*
X036330Y033042D01*
X036460Y033182D01*
X037480Y033742D02*
X037480Y030592D01*
X037630Y030592D02*
X036480Y030592D01*
X022279Y030730D02*
X022279Y029480D01*
X022029Y029480D01*
X022029Y029730D01*
X021529Y029730D01*
X021529Y029480D01*
X021029Y029480D01*
X021029Y029730D01*
X020529Y029730D01*
X020529Y029480D01*
X020029Y029480D01*
X020029Y029730D01*
X019529Y029730D01*
X019529Y029480D01*
X019279Y029480D01*
X019279Y030730D01*
X019779Y030730D01*
X019779Y033880D01*
X019879Y034080D01*
X021299Y034080D01*
X021259Y034080D02*
X021679Y034080D01*
X021779Y033880D01*
X021779Y030730D01*
X021929Y030730D02*
X021929Y033180D01*
X021799Y033320D01*
X019759Y033320D02*
X019629Y033180D01*
X019629Y030730D01*
X021929Y030730D02*
X022279Y030730D01*
X017379Y030720D02*
X017379Y033870D01*
X008584Y014133D02*
X008358Y014133D01*
X008147Y003511D02*
X008147Y000361D01*
D12*
X010966Y005896D02*
X011273Y006356D01*
X010966Y006356D02*
X011273Y005896D01*
X011005Y008528D02*
X010698Y008528D01*
X010621Y008604D01*
X010621Y008758D01*
X010698Y008834D01*
X010775Y008988D02*
X010621Y009141D01*
X011082Y009141D01*
X011082Y008988D02*
X011082Y009295D01*
X011082Y009448D02*
X010775Y009755D01*
X010698Y009755D01*
X010621Y009678D01*
X010621Y009525D01*
X010698Y009448D01*
X011082Y009448D02*
X011082Y009755D01*
X011005Y008834D02*
X011082Y008758D01*
X011082Y008604D01*
X011005Y008528D01*
X010037Y010610D02*
X010210Y010784D01*
X010210Y011131D01*
X009863Y011131D02*
X009863Y010784D01*
X010037Y010610D01*
X009608Y010610D02*
X009608Y011131D01*
X009348Y010870D01*
X009694Y010870D01*
X009179Y010957D02*
X009179Y011044D01*
X009092Y011131D01*
X008919Y011131D01*
X008832Y011044D01*
X009179Y010957D02*
X008832Y010610D01*
X009179Y010610D01*
X008661Y010610D02*
X008661Y010697D01*
X008574Y010697D01*
X008574Y010610D01*
X008661Y010610D01*
X008403Y010610D02*
X008403Y010697D01*
X008316Y010697D01*
X008316Y010610D01*
X008403Y010610D01*
X008148Y010610D02*
X007801Y010610D01*
X008148Y010957D01*
X008148Y011044D01*
X008061Y011131D01*
X007887Y011131D01*
X007801Y011044D01*
X007459Y011131D02*
X007459Y010610D01*
X007632Y010610D02*
X007285Y010610D01*
X007285Y010957D02*
X007459Y011131D01*
X015474Y006366D02*
X015474Y006289D01*
X015627Y006136D01*
X015627Y005906D01*
X015627Y006136D02*
X015781Y006289D01*
X015781Y006366D01*
X020021Y006425D02*
X020328Y006425D01*
X020328Y006348D01*
X020021Y006041D01*
X020021Y005965D01*
X020328Y005965D01*
X024076Y005935D02*
X024383Y005935D01*
X024537Y005935D02*
X024844Y006242D01*
X024997Y006242D02*
X025151Y006242D01*
X025074Y006319D02*
X025074Y006012D01*
X025151Y005935D01*
X025304Y005935D02*
X025611Y005935D01*
X025457Y005935D02*
X025457Y006395D01*
X025304Y006242D01*
X024844Y005935D02*
X024537Y006242D01*
X024383Y006395D02*
X024076Y006395D01*
X024076Y005935D01*
X024076Y006165D02*
X024230Y006165D01*
X028309Y006254D02*
X028462Y006254D01*
X028309Y006484D02*
X028309Y006024D01*
X028616Y006024D01*
X028769Y006024D02*
X029076Y006331D01*
X029229Y006331D02*
X029383Y006331D01*
X029306Y006407D02*
X029306Y006100D01*
X029383Y006024D01*
X029536Y006024D02*
X029843Y006331D01*
X029843Y006407D01*
X029766Y006484D01*
X029613Y006484D01*
X029536Y006407D01*
X029536Y006024D02*
X029843Y006024D01*
X029076Y006024D02*
X028769Y006331D01*
X028616Y006484D02*
X028309Y006484D01*
X032246Y006302D02*
X032246Y005955D01*
X032246Y006215D02*
X032593Y006215D01*
X032593Y006302D02*
X032593Y005955D01*
X032593Y006302D02*
X032419Y006475D01*
X032246Y006302D01*
X034933Y006176D02*
X035193Y006176D01*
X035280Y006089D01*
X035280Y006002D01*
X035193Y005915D01*
X034933Y005915D01*
X034933Y006436D01*
X035193Y006436D01*
X035280Y006349D01*
X035280Y006262D01*
X035193Y006176D01*
X037580Y006061D02*
X037667Y005974D01*
X037841Y005974D01*
X037927Y006061D01*
X037580Y006061D02*
X037580Y006408D01*
X037667Y006495D01*
X037841Y006495D01*
X037927Y006408D01*
X038015Y021230D02*
X038015Y021460D01*
X038092Y021537D01*
X038245Y021537D01*
X038322Y021460D01*
X038322Y021230D01*
X038475Y021230D02*
X038015Y021230D01*
X038245Y021691D02*
X038399Y021691D01*
X038475Y021767D01*
X038475Y021921D01*
X038399Y021998D01*
X038245Y021998D01*
X038168Y021921D01*
X038168Y021767D01*
X038245Y021691D01*
X038168Y022151D02*
X038399Y022151D01*
X038475Y022228D01*
X038399Y022304D01*
X038475Y022381D01*
X038399Y022458D01*
X038168Y022458D01*
X038245Y022611D02*
X038168Y022688D01*
X038168Y022842D01*
X038245Y022918D01*
X038322Y022918D01*
X038322Y022611D01*
X038399Y022611D02*
X038245Y022611D01*
X038399Y022611D02*
X038475Y022688D01*
X038475Y022842D01*
X038475Y023072D02*
X038168Y023072D01*
X038168Y023225D02*
X038168Y023302D01*
X038168Y023225D02*
X038322Y023072D01*
X037126Y029571D02*
X036766Y029811D01*
X036886Y029939D02*
X036766Y030059D01*
X037126Y030059D01*
X037126Y029939D02*
X037126Y030179D01*
X037126Y030307D02*
X037126Y030548D01*
X037126Y030428D02*
X036766Y030428D01*
X036886Y030307D01*
X037126Y029811D02*
X036766Y029571D01*
X034636Y029522D02*
X034276Y029762D01*
X034396Y029890D02*
X034276Y030010D01*
X034636Y030010D01*
X034636Y029890D02*
X034636Y030130D01*
X034576Y030258D02*
X034336Y030498D01*
X034576Y030498D01*
X034636Y030438D01*
X034636Y030318D01*
X034576Y030258D01*
X034336Y030258D01*
X034276Y030318D01*
X034276Y030438D01*
X034336Y030498D01*
X034636Y029762D02*
X034276Y029522D01*
X032028Y029522D02*
X031667Y029762D01*
X031787Y029890D02*
X031667Y030010D01*
X032028Y030010D01*
X032028Y029890D02*
X032028Y030130D01*
X031968Y030258D02*
X032028Y030318D01*
X032028Y030438D01*
X031968Y030498D01*
X031727Y030498D01*
X031667Y030438D01*
X031667Y030318D01*
X031727Y030258D01*
X031787Y030258D01*
X031848Y030318D01*
X031848Y030498D01*
X032028Y029762D02*
X031667Y029522D01*
X029528Y029541D02*
X029167Y029781D01*
X029287Y029910D02*
X029167Y030030D01*
X029528Y030030D01*
X029528Y029910D02*
X029528Y030150D01*
X029468Y030278D02*
X029528Y030338D01*
X029528Y030458D01*
X029468Y030518D01*
X029408Y030518D01*
X029348Y030458D01*
X029348Y030398D01*
X029348Y030458D02*
X029287Y030518D01*
X029227Y030518D01*
X029167Y030458D01*
X029167Y030338D01*
X029227Y030278D01*
X029528Y029781D02*
X029167Y029541D01*
X026929Y029758D02*
X026569Y029998D01*
X026689Y030126D02*
X026569Y030246D01*
X026929Y030246D01*
X026929Y030126D02*
X026929Y030366D01*
X026929Y029998D02*
X026569Y029758D01*
X024410Y029762D02*
X024049Y029522D01*
X024049Y029762D02*
X024410Y029522D01*
X024410Y029890D02*
X024169Y030130D01*
X024109Y030130D01*
X024049Y030070D01*
X024049Y029950D01*
X024109Y029890D01*
X024410Y029890D02*
X024410Y030130D01*
X024350Y030258D02*
X024410Y030318D01*
X024410Y030438D01*
X024350Y030498D01*
X024289Y030498D01*
X024229Y030438D01*
X024229Y030378D01*
X024229Y030438D02*
X024169Y030498D01*
X024109Y030498D01*
X024049Y030438D01*
X024049Y030318D01*
X024109Y030258D01*
X021319Y030320D02*
X021319Y030380D01*
X021259Y030440D01*
X021139Y030440D01*
X021079Y030380D01*
X021319Y030320D02*
X021079Y030080D01*
X021319Y030080D01*
X020951Y030080D02*
X020710Y030080D01*
X020830Y030080D02*
X020830Y030440D01*
X020710Y030320D01*
X020582Y030440D02*
X020342Y030080D01*
X020582Y030080D02*
X020342Y030440D01*
X024342Y023925D02*
X024572Y023925D01*
X024649Y023848D01*
X024649Y023695D01*
X024572Y023618D01*
X024342Y023618D01*
X024342Y023465D02*
X024342Y023925D01*
X024496Y023618D02*
X024649Y023465D01*
X024802Y023541D02*
X024802Y023695D01*
X024879Y023771D01*
X025033Y023771D01*
X025109Y023695D01*
X025109Y023618D01*
X024802Y023618D01*
X024802Y023541D02*
X024879Y023465D01*
X025033Y023465D01*
X025263Y023771D02*
X025416Y023465D01*
X025570Y023771D01*
X026184Y023771D02*
X026184Y023465D01*
X026184Y023695D02*
X026490Y023695D01*
X026490Y023771D02*
X026490Y023465D01*
X026644Y023541D02*
X026721Y023465D01*
X026874Y023465D01*
X026951Y023541D01*
X026951Y023618D01*
X026874Y023695D01*
X026797Y023695D01*
X026874Y023695D02*
X026951Y023771D01*
X026951Y023848D01*
X026874Y023925D01*
X026721Y023925D01*
X026644Y023848D01*
X026490Y023771D02*
X026337Y023925D01*
X026184Y023771D01*
X027104Y023771D02*
X027104Y023465D01*
X027104Y023695D02*
X027411Y023695D01*
X027411Y023771D02*
X027411Y023465D01*
X027411Y023771D02*
X027258Y023925D01*
X027104Y023771D01*
D13*
X028515Y025198D02*
X028467Y025246D01*
X028515Y025198D02*
X028612Y025198D01*
X028661Y025246D01*
X028661Y025343D01*
X028612Y025392D01*
X028564Y025392D01*
X028467Y025343D01*
X028467Y025488D01*
X028661Y025488D01*
X028762Y025488D02*
X028762Y025295D01*
X028858Y025198D01*
X028955Y025295D01*
X028955Y025488D01*
X028988Y027751D02*
X028988Y028115D01*
X028866Y027994D01*
X028746Y028054D02*
X028504Y027812D01*
X028504Y027751D01*
X028746Y027751D01*
X028866Y027751D02*
X029109Y027751D01*
X028746Y028054D02*
X028746Y028115D01*
X028504Y028115D01*
X026530Y027751D02*
X026288Y027751D01*
X026409Y027751D02*
X026409Y028115D01*
X026288Y027994D01*
X026168Y028054D02*
X026168Y028115D01*
X026168Y028054D02*
X026046Y027933D01*
X026046Y027751D01*
X026046Y027933D02*
X025925Y028054D01*
X025925Y028115D01*
X024079Y027721D02*
X023837Y027721D01*
X023717Y027721D02*
X023474Y028085D01*
X023717Y028085D02*
X023474Y027721D01*
X023837Y027964D02*
X023958Y028085D01*
X023958Y027721D01*
X022115Y027692D02*
X021921Y027692D01*
X022018Y027692D02*
X022018Y027982D01*
X021921Y027885D01*
X021820Y027982D02*
X021820Y027692D01*
X021723Y027789D01*
X021626Y027692D01*
X021626Y027982D01*
X021231Y027885D02*
X021085Y027885D01*
X021037Y027837D01*
X021085Y027789D01*
X021182Y027789D01*
X021231Y027740D01*
X021182Y027692D01*
X021037Y027692D01*
X020936Y027692D02*
X020791Y027692D01*
X020742Y027740D01*
X020791Y027789D01*
X020936Y027789D01*
X020936Y027837D02*
X020936Y027692D01*
X020936Y027837D02*
X020888Y027885D01*
X020791Y027885D01*
X020594Y027982D02*
X020594Y027692D01*
X020546Y027692D02*
X020643Y027692D01*
X020446Y027692D02*
X020350Y027692D01*
X020398Y027692D02*
X020398Y027982D01*
X020350Y027982D01*
X020248Y027837D02*
X020248Y027692D01*
X020103Y027692D01*
X020055Y027740D01*
X020103Y027789D01*
X020248Y027789D01*
X020248Y027837D02*
X020200Y027885D01*
X020103Y027885D01*
X019954Y027934D02*
X019905Y027982D01*
X019760Y027982D01*
X019760Y027692D01*
X019905Y027692D01*
X019954Y027740D01*
X019954Y027934D01*
X020546Y027982D02*
X020594Y027982D01*
X015909Y028051D02*
X015716Y028051D01*
X015909Y028244D01*
X015909Y028293D01*
X015861Y028341D01*
X015764Y028341D01*
X015716Y028293D01*
X015616Y028244D02*
X015519Y028244D01*
X015568Y028293D02*
X015568Y028099D01*
X015616Y028051D01*
X015418Y028051D02*
X015225Y028244D01*
X015123Y028341D02*
X014930Y028341D01*
X014930Y028051D01*
X015123Y028051D01*
X015225Y028051D02*
X015418Y028244D01*
X015027Y028196D02*
X014930Y028196D01*
X014663Y027866D02*
X014518Y027866D01*
X014469Y027817D01*
X014518Y027769D01*
X014614Y027769D01*
X014663Y027721D01*
X014614Y027672D01*
X014469Y027672D01*
X014369Y027866D02*
X014320Y027866D01*
X014224Y027769D01*
X014224Y027672D02*
X014224Y027866D01*
X014122Y027817D02*
X014122Y027721D01*
X014074Y027672D01*
X013977Y027672D01*
X013929Y027721D01*
X013929Y027817D01*
X013977Y027866D01*
X014074Y027866D01*
X014122Y027817D01*
X013829Y027866D02*
X013733Y027866D01*
X013781Y027914D02*
X013781Y027721D01*
X013829Y027672D01*
X013631Y027721D02*
X013583Y027769D01*
X013486Y027769D01*
X013438Y027817D01*
X013486Y027866D01*
X013631Y027866D01*
X013631Y027721D02*
X013583Y027672D01*
X013438Y027672D01*
X013338Y027672D02*
X013242Y027672D01*
X013290Y027672D02*
X013290Y027866D01*
X013242Y027866D01*
X013290Y027962D02*
X013290Y028011D01*
X013140Y027817D02*
X013140Y027672D01*
X013044Y027672D02*
X013044Y027817D01*
X013092Y027866D01*
X013140Y027817D01*
X013044Y027817D02*
X012995Y027866D01*
X012947Y027866D01*
X012947Y027672D01*
X012846Y027866D02*
X012798Y027866D01*
X012701Y027769D01*
X012701Y027672D02*
X012701Y027866D01*
X012600Y027817D02*
X012600Y027769D01*
X012407Y027769D01*
X012407Y027817D02*
X012455Y027866D01*
X012552Y027866D01*
X012600Y027817D01*
X012552Y027672D02*
X012455Y027672D01*
X012407Y027721D01*
X012407Y027817D01*
X012306Y027817D02*
X012306Y027672D01*
X012306Y027817D02*
X012257Y027866D01*
X012160Y027866D01*
X012112Y027817D01*
X012112Y027962D02*
X012112Y027672D01*
X011914Y027672D02*
X011914Y027962D01*
X011907Y028002D02*
X011907Y028292D01*
X012052Y028292D01*
X012100Y028244D01*
X012100Y028147D01*
X012052Y028099D01*
X011907Y028099D01*
X011805Y028099D02*
X011805Y028050D01*
X011757Y028002D01*
X011612Y028002D01*
X011612Y028292D01*
X011757Y028292D01*
X011805Y028244D01*
X011805Y028195D01*
X011757Y028147D01*
X011612Y028147D01*
X011511Y028147D02*
X011317Y028147D01*
X011317Y028002D02*
X011317Y028292D01*
X011511Y028292D02*
X011511Y028002D01*
X011757Y028147D02*
X011805Y028099D01*
X011817Y027962D02*
X012011Y027962D01*
X008409Y027962D02*
X008216Y027962D01*
X008312Y027962D02*
X008312Y028253D01*
X008216Y028156D01*
X008116Y028156D02*
X008019Y028156D01*
X008068Y028204D02*
X008068Y028011D01*
X008116Y027962D01*
X007918Y027962D02*
X007725Y028156D01*
X007623Y028253D02*
X007430Y028253D01*
X007430Y027962D01*
X007623Y027962D01*
X007725Y027962D02*
X007918Y028156D01*
X007527Y028108D02*
X007430Y028108D01*
X007749Y027533D02*
X007687Y027471D01*
X007687Y027348D01*
X007749Y027286D01*
X007810Y027164D02*
X007810Y027041D01*
X007749Y027102D02*
X007995Y027102D01*
X008057Y027164D01*
X008057Y027286D02*
X007810Y027533D01*
X007749Y027533D01*
X008057Y027533D02*
X008057Y027286D01*
X008057Y026919D02*
X007810Y026672D01*
X007687Y026551D02*
X007687Y026304D01*
X008057Y026304D01*
X008057Y026551D01*
X008057Y026672D02*
X007810Y026919D01*
X007872Y026427D02*
X007872Y026304D01*
X007835Y020945D02*
X007932Y020945D01*
X007980Y020897D01*
X007980Y020752D01*
X008077Y020752D02*
X007787Y020752D01*
X007787Y020897D01*
X007835Y020945D01*
X007835Y020650D02*
X007883Y020650D01*
X007932Y020602D01*
X007932Y020457D01*
X007932Y020356D02*
X007932Y020162D01*
X008077Y020162D02*
X007787Y020162D01*
X007787Y020356D02*
X008077Y020356D01*
X008077Y020457D02*
X008077Y020602D01*
X008028Y020650D01*
X007980Y020650D01*
X007932Y020602D01*
X007835Y020650D02*
X007787Y020602D01*
X007787Y020457D01*
X008077Y020457D01*
X008043Y017571D02*
X007995Y017523D01*
X007995Y017426D01*
X007947Y017377D01*
X007898Y017426D01*
X007898Y017571D01*
X008043Y017571D02*
X008092Y017523D01*
X008092Y017377D01*
X007898Y017277D02*
X007898Y017229D01*
X007995Y017132D01*
X008092Y017132D02*
X007898Y017132D01*
X007947Y017031D02*
X007995Y017031D01*
X007995Y016837D01*
X008043Y016837D02*
X007947Y016837D01*
X007898Y016886D01*
X007898Y016982D01*
X007947Y017031D01*
X008092Y016982D02*
X008092Y016886D01*
X008043Y016837D01*
X008092Y016738D02*
X008043Y016689D01*
X007850Y016689D01*
X007898Y016641D02*
X007898Y016738D01*
X007947Y016540D02*
X008092Y016540D01*
X008092Y016395D01*
X008043Y016346D01*
X007995Y016395D01*
X007995Y016540D01*
X007947Y016540D02*
X007898Y016491D01*
X007898Y016395D01*
X007947Y016245D02*
X007995Y016245D01*
X007995Y016052D01*
X008043Y016052D02*
X007947Y016052D01*
X007898Y016100D01*
X007898Y016197D01*
X007947Y016245D01*
X008092Y016197D02*
X008092Y016100D01*
X008043Y016052D01*
X008092Y015950D02*
X007801Y015950D01*
X007947Y015950D02*
X007947Y015757D01*
X008092Y015757D02*
X007801Y015757D01*
X008047Y015299D02*
X008047Y015052D01*
X008047Y014930D02*
X007986Y014868D01*
X007739Y014868D01*
X007800Y014806D02*
X007800Y014930D01*
X007800Y015052D02*
X007677Y015175D01*
X008047Y015175D01*
X008047Y014685D02*
X007800Y014438D01*
X007677Y014317D02*
X007677Y014070D01*
X008047Y014070D01*
X008047Y014317D01*
X008047Y014438D02*
X007800Y014685D01*
X007862Y014193D02*
X007862Y014070D01*
X001789Y012087D02*
X001789Y011894D01*
X001596Y012087D01*
X001548Y012087D01*
X001499Y012039D01*
X001499Y011942D01*
X001548Y011894D01*
X001499Y011792D02*
X001789Y011599D01*
X001789Y011792D02*
X001499Y011599D01*
X001481Y016432D02*
X001771Y016625D01*
X001722Y016726D02*
X001771Y016775D01*
X001771Y016871D01*
X001722Y016920D01*
X001674Y016920D01*
X001626Y016871D01*
X001626Y016823D01*
X001626Y016871D02*
X001577Y016920D01*
X001529Y016920D01*
X001481Y016871D01*
X001481Y016775D01*
X001529Y016726D01*
X001481Y016625D02*
X001771Y016432D01*
X001750Y025103D02*
X001460Y025296D01*
X001508Y025398D02*
X001460Y025446D01*
X001460Y025543D01*
X001508Y025591D01*
X001557Y025591D01*
X001750Y025398D01*
X001750Y025591D01*
X001702Y025692D02*
X001508Y025886D01*
X001702Y025886D01*
X001750Y025837D01*
X001750Y025741D01*
X001702Y025692D01*
X001508Y025692D01*
X001460Y025741D01*
X001460Y025837D01*
X001508Y025886D01*
X001750Y025296D02*
X001460Y025103D01*
X001420Y029997D02*
X001711Y030190D01*
X001711Y030291D02*
X001517Y030485D01*
X001469Y030485D01*
X001420Y030436D01*
X001420Y030340D01*
X001469Y030291D01*
X001420Y030190D02*
X001711Y029997D01*
X001711Y030291D02*
X001711Y030485D01*
X001711Y030586D02*
X001711Y030779D01*
X001711Y030683D02*
X001420Y030683D01*
X001517Y030586D01*
X017689Y022409D02*
X017786Y022506D01*
X017786Y022216D01*
X017689Y022216D02*
X017883Y022216D01*
X017984Y022216D02*
X018178Y022409D01*
X018178Y022458D01*
X018129Y022506D01*
X018032Y022506D01*
X017984Y022458D01*
X017984Y022216D02*
X018178Y022216D01*
X018279Y022313D02*
X018376Y022216D01*
X018472Y022313D01*
X018472Y022506D01*
X018279Y022506D02*
X018279Y022313D01*
X030984Y027751D02*
X031227Y028115D01*
X031347Y028054D02*
X031407Y028115D01*
X031529Y028115D01*
X031589Y028054D01*
X031589Y027994D01*
X031347Y027751D01*
X031589Y027751D01*
X031227Y027751D02*
X030984Y028115D01*
X033612Y028095D02*
X033612Y028035D01*
X033733Y027913D01*
X033733Y027731D01*
X033733Y027913D02*
X033855Y028035D01*
X033855Y028095D01*
X033975Y028035D02*
X034035Y028095D01*
X034157Y028095D01*
X034217Y028035D01*
X034217Y027974D01*
X033975Y027731D01*
X034217Y027731D01*
X034869Y027480D02*
X034869Y027190D01*
X035062Y027190D01*
X035163Y027190D02*
X035163Y027383D01*
X035308Y027383D01*
X035357Y027335D01*
X035357Y027190D01*
X035458Y027238D02*
X035458Y027335D01*
X035506Y027383D01*
X035651Y027383D01*
X035651Y027480D02*
X035651Y027190D01*
X035506Y027190D01*
X035458Y027238D01*
X035062Y027480D02*
X034869Y027480D01*
X034869Y027335D02*
X034965Y027335D01*
X036047Y027335D02*
X036096Y027383D01*
X036241Y027383D01*
X036342Y027383D02*
X036439Y027383D01*
X036390Y027432D02*
X036390Y027238D01*
X036439Y027190D01*
X036538Y027238D02*
X036587Y027190D01*
X036683Y027190D01*
X036732Y027238D01*
X036732Y027335D01*
X036683Y027383D01*
X036587Y027383D01*
X036538Y027335D01*
X036538Y027238D01*
X036241Y027238D02*
X036192Y027287D01*
X036096Y027287D01*
X036047Y027335D01*
X036047Y027190D02*
X036192Y027190D01*
X036241Y027238D01*
X036315Y027721D02*
X036073Y027721D01*
X036073Y027782D01*
X036315Y028025D01*
X036315Y028085D01*
X036073Y028085D01*
X036435Y028025D02*
X036496Y028085D01*
X036617Y028085D01*
X036678Y028025D01*
X036678Y027964D01*
X036435Y027721D01*
X036678Y027721D01*
X036833Y027383D02*
X036978Y027383D01*
X037026Y027335D01*
X037026Y027238D01*
X036978Y027190D01*
X036833Y027190D01*
X036833Y027093D02*
X036833Y027383D01*
X037128Y027335D02*
X037176Y027383D01*
X037321Y027383D01*
X037273Y027287D02*
X037321Y027238D01*
X037273Y027190D01*
X037128Y027190D01*
X037176Y027287D02*
X037128Y027335D01*
X037176Y027287D02*
X037273Y027287D01*
X033196Y018038D02*
X033196Y017844D01*
X033100Y017747D01*
X033003Y017844D01*
X033003Y018038D01*
X032902Y017989D02*
X032902Y017941D01*
X032853Y017892D01*
X032902Y017844D01*
X032902Y017796D01*
X032853Y017747D01*
X032757Y017747D01*
X032708Y017796D01*
X032609Y017796D02*
X032609Y017747D01*
X032561Y017747D01*
X032561Y017796D01*
X032609Y017796D01*
X032460Y017796D02*
X032460Y017844D01*
X032411Y017892D01*
X032363Y017892D01*
X032411Y017892D02*
X032460Y017941D01*
X032460Y017989D01*
X032411Y018038D01*
X032315Y018038D01*
X032266Y017989D01*
X032266Y017796D02*
X032315Y017747D01*
X032411Y017747D01*
X032460Y017796D01*
X032708Y017989D02*
X032757Y018038D01*
X032853Y018038D01*
X032902Y017989D01*
X032853Y017892D02*
X032805Y017892D01*
X032784Y016945D02*
X032687Y016945D01*
X032638Y016897D01*
X032784Y016945D02*
X032832Y016897D01*
X032832Y016848D01*
X032638Y016655D01*
X032832Y016655D01*
X032933Y016800D02*
X033126Y016800D01*
X033228Y016752D02*
X033228Y016945D01*
X033078Y016945D02*
X032933Y016800D01*
X033078Y016655D02*
X033078Y016945D01*
X033228Y016752D02*
X033324Y016655D01*
X033421Y016752D01*
X033421Y016945D01*
X032539Y016703D02*
X032539Y016655D01*
X032491Y016655D01*
X032491Y016703D01*
X032539Y016703D01*
X032392Y016703D02*
X032392Y016655D01*
X032344Y016655D01*
X032344Y016703D01*
X032392Y016703D01*
X032243Y016655D02*
X032049Y016655D01*
X032243Y016848D01*
X032243Y016897D01*
X032194Y016945D01*
X032097Y016945D01*
X032049Y016897D01*
X031851Y016945D02*
X031851Y016655D01*
X031754Y016655D02*
X031948Y016655D01*
X031754Y016848D02*
X031851Y016945D01*
X034736Y012152D02*
X034736Y011910D01*
X034784Y011862D01*
X034881Y011862D01*
X034929Y011910D01*
X034929Y012152D01*
X035030Y012055D02*
X035127Y012152D01*
X035127Y011862D01*
X035030Y011862D02*
X035224Y011862D01*
X035325Y011862D02*
X035519Y012055D01*
X035519Y012104D01*
X035470Y012152D01*
X035373Y012152D01*
X035325Y012104D01*
X035325Y011862D02*
X035519Y011862D01*
X037876Y010487D02*
X037876Y010293D01*
X037925Y010245D01*
X038022Y010245D01*
X038070Y010293D01*
X038171Y010245D02*
X038365Y010245D01*
X038268Y010245D02*
X038268Y010535D01*
X038171Y010438D01*
X038070Y010487D02*
X038022Y010535D01*
X037925Y010535D01*
X037876Y010487D01*
X038466Y010438D02*
X038563Y010535D01*
X038563Y010245D01*
X038659Y010245D02*
X038466Y010245D01*
X034742Y006379D02*
X034560Y006379D01*
X034499Y006319D01*
X034560Y006258D01*
X034681Y006258D01*
X034742Y006197D01*
X034681Y006137D01*
X034499Y006137D01*
X034380Y006137D02*
X034380Y006319D01*
X034319Y006379D01*
X034137Y006379D01*
X034137Y006137D01*
X034017Y006137D02*
X033835Y006137D01*
X033774Y006197D01*
X033835Y006258D01*
X034017Y006258D01*
X034017Y006319D02*
X034017Y006137D01*
X034017Y006319D02*
X033956Y006379D01*
X033835Y006379D01*
X033655Y006501D02*
X033412Y006501D01*
X033412Y006137D01*
X033412Y006319D02*
X033533Y006319D01*
D14*
X030041Y006634D02*
X038673Y006634D01*
X029982Y006634D02*
X029982Y004576D01*
X029982Y006634D02*
X007226Y006614D01*
X007226Y004783D01*
X008190Y011260D02*
X004923Y011260D01*
X008190Y011260D02*
X008171Y027559D01*
X018958Y027578D01*
X038564Y027578D01*
X022649Y027647D02*
X022649Y029685D01*
X018958Y029616D02*
X018958Y027578D01*
D15*
X018202Y024842D02*
X017234Y024842D01*
X017131Y024740D02*
X017135Y023523D01*
X017138Y023516D02*
X017138Y023498D01*
X017141Y023481D01*
X017147Y023464D01*
X017156Y023449D01*
X017167Y023435D01*
X017180Y023424D01*
X017195Y023415D01*
X017212Y023409D01*
X017229Y023405D01*
X017230Y023405D02*
X018202Y023405D01*
X018222Y023409D01*
X018241Y023417D01*
X018258Y023427D01*
X018273Y023441D01*
X018286Y023457D01*
X018296Y023475D01*
X018302Y023494D01*
X018305Y023514D01*
X018304Y023535D01*
X018304Y023539D02*
X018300Y024740D01*
X010832Y023780D02*
X010062Y023780D01*
X009822Y023780D01*
X009052Y023780D01*
X009052Y023710D01*
X009822Y023780D02*
X009824Y023759D01*
X009829Y023739D01*
X009838Y023720D01*
X009850Y023703D01*
X009865Y023688D01*
X009882Y023676D01*
X009901Y023667D01*
X009921Y023662D01*
X009942Y023660D01*
X009963Y023662D01*
X009983Y023667D01*
X010002Y023676D01*
X010019Y023688D01*
X010034Y023703D01*
X010046Y023720D01*
X010055Y023739D01*
X010060Y023759D01*
X010062Y023780D01*
X010832Y023780D02*
X010832Y023710D01*
X010832Y019990D02*
X010832Y019920D01*
X009052Y019920D01*
X009052Y019990D01*
X011249Y017634D02*
X011869Y017634D01*
X012109Y017634D01*
X012729Y017634D01*
X012109Y017634D02*
X012107Y017613D01*
X012102Y017593D01*
X012093Y017574D01*
X012081Y017557D01*
X012066Y017542D01*
X012049Y017530D01*
X012030Y017521D01*
X012010Y017516D01*
X011989Y017514D01*
X011968Y017516D01*
X011948Y017521D01*
X011929Y017530D01*
X011912Y017542D01*
X011897Y017557D01*
X011885Y017574D01*
X011876Y017593D01*
X011871Y017613D01*
X011869Y017634D01*
X011249Y015634D02*
X012729Y015634D01*
X012750Y013893D02*
X011032Y013893D01*
X011032Y010122D01*
X012750Y010122D01*
X012750Y013893D01*
X015559Y013893D02*
X015559Y010122D01*
X017278Y010122D01*
X017278Y013893D01*
X015559Y013893D01*
X015777Y015752D02*
X017257Y015752D01*
X017257Y017752D02*
X016637Y017752D01*
X016397Y017752D01*
X015777Y017752D01*
X016397Y017752D02*
X016399Y017731D01*
X016404Y017711D01*
X016413Y017692D01*
X016425Y017675D01*
X016440Y017660D01*
X016457Y017648D01*
X016476Y017639D01*
X016496Y017634D01*
X016517Y017632D01*
X016538Y017634D01*
X016558Y017639D01*
X016577Y017648D01*
X016594Y017660D01*
X016609Y017675D01*
X016621Y017692D01*
X016630Y017711D01*
X016635Y017731D01*
X016637Y017752D01*
X020364Y017752D02*
X020984Y017752D01*
X021224Y017752D01*
X021844Y017752D01*
X021224Y017752D02*
X021222Y017731D01*
X021217Y017711D01*
X021208Y017692D01*
X021196Y017675D01*
X021181Y017660D01*
X021164Y017648D01*
X021145Y017639D01*
X021125Y017634D01*
X021104Y017632D01*
X021083Y017634D01*
X021063Y017639D01*
X021044Y017648D01*
X021027Y017660D01*
X021012Y017675D01*
X021000Y017692D01*
X020991Y017711D01*
X020986Y017731D01*
X020984Y017752D01*
X020364Y015752D02*
X021844Y015752D01*
X021963Y013854D02*
X020244Y013854D01*
X020244Y010083D01*
X021963Y010083D01*
X021963Y013854D01*
X024496Y013893D02*
X024496Y010122D01*
X026215Y010122D01*
X026215Y013893D01*
X024496Y013893D01*
X024596Y015771D02*
X026076Y015771D01*
X026076Y017771D02*
X025456Y017771D01*
X025216Y017771D01*
X024596Y017771D01*
X025216Y017771D02*
X025218Y017750D01*
X025223Y017730D01*
X025232Y017711D01*
X025244Y017694D01*
X025259Y017679D01*
X025276Y017667D01*
X025295Y017658D01*
X025315Y017653D01*
X025336Y017651D01*
X025357Y017653D01*
X025377Y017658D01*
X025396Y017667D01*
X025413Y017679D01*
X025428Y017694D01*
X025440Y017711D01*
X025449Y017730D01*
X025454Y017750D01*
X025456Y017771D01*
X029064Y017771D02*
X029684Y017771D01*
X029924Y017771D01*
X030544Y017771D01*
X029924Y017771D02*
X029922Y017750D01*
X029917Y017730D01*
X029908Y017711D01*
X029896Y017694D01*
X029881Y017679D01*
X029864Y017667D01*
X029845Y017658D01*
X029825Y017653D01*
X029804Y017651D01*
X029783Y017653D01*
X029763Y017658D01*
X029744Y017667D01*
X029727Y017679D01*
X029712Y017694D01*
X029700Y017711D01*
X029691Y017730D01*
X029686Y017750D01*
X029684Y017771D01*
X029064Y015771D02*
X030544Y015771D01*
X030624Y013854D02*
X028906Y013854D01*
X028906Y010083D01*
X030624Y010083D01*
X030624Y013854D01*
X035343Y011738D02*
X035343Y009758D01*
X037140Y009758D01*
X037140Y011738D01*
X035343Y011738D01*
X035581Y011388D02*
X035583Y011414D01*
X035589Y011440D01*
X035598Y011464D01*
X035611Y011487D01*
X035627Y011508D01*
X035646Y011526D01*
X035667Y011542D01*
X035691Y011554D01*
X035715Y011562D01*
X035741Y011567D01*
X035768Y011568D01*
X035794Y011565D01*
X035819Y011558D01*
X035843Y011548D01*
X035866Y011534D01*
X035886Y011518D01*
X035903Y011498D01*
X035918Y011476D01*
X035929Y011452D01*
X035937Y011427D01*
X035941Y011401D01*
X035941Y011375D01*
X035937Y011349D01*
X035929Y011324D01*
X035918Y011300D01*
X035903Y011278D01*
X035886Y011258D01*
X035866Y011242D01*
X035843Y011228D01*
X035819Y011218D01*
X035794Y011211D01*
X035768Y011208D01*
X035741Y011209D01*
X035715Y011214D01*
X035691Y011222D01*
X035667Y011234D01*
X035646Y011250D01*
X035627Y011268D01*
X035611Y011289D01*
X035598Y011312D01*
X035589Y011336D01*
X035583Y011362D01*
X035581Y011388D01*
X037307Y009586D02*
X037384Y009593D01*
X037474Y009593D01*
X037483Y009591D01*
X037492Y009587D01*
X037498Y009580D01*
X037503Y009572D01*
X037504Y009563D01*
X037454Y009563D01*
X037445Y009561D01*
X037436Y009557D01*
X037430Y009550D01*
X037425Y009542D01*
X037424Y009533D01*
X037624Y009533D01*
X037639Y009530D01*
X037653Y009523D01*
X037664Y009512D01*
X037672Y009498D01*
X037674Y009483D01*
X037704Y009453D01*
X038064Y009453D01*
X036744Y009453D01*
X036754Y009453D01*
X036754Y009463D01*
X037024Y009463D01*
X037045Y009460D01*
X037067Y009462D01*
X037087Y009470D01*
X037104Y009483D01*
X037165Y009530D01*
X037234Y009564D01*
X037307Y009586D01*
X037209Y009552D02*
X037431Y009552D01*
X037564Y009563D02*
X037224Y009353D01*
X037144Y009363D01*
X037124Y009353D02*
X037144Y009333D01*
X037144Y009313D01*
X037084Y009253D01*
X037084Y008883D01*
X037074Y008873D01*
X037074Y008863D01*
X037044Y008833D01*
X037044Y008773D01*
X037054Y008763D01*
X037054Y008723D01*
X037084Y008693D01*
X036844Y008693D01*
X036834Y008703D01*
X036834Y008803D01*
X036814Y008823D01*
X036884Y008823D01*
X036944Y008883D01*
X036944Y008893D01*
X037014Y008963D01*
X037014Y009083D01*
X037004Y009093D01*
X037004Y009103D01*
X036894Y009213D01*
X036824Y009213D01*
X036824Y009343D01*
X036814Y009353D01*
X037124Y009353D01*
X037144Y009318D02*
X036824Y009318D01*
X036794Y009318D02*
X036604Y009318D01*
X036604Y009333D02*
X036604Y008743D01*
X036614Y008733D01*
X036614Y008623D01*
X036704Y008533D01*
X036714Y008533D01*
X036774Y008473D01*
X036774Y008853D01*
X036784Y008863D01*
X036764Y008863D01*
X036694Y008933D01*
X036694Y009123D01*
X036794Y009223D01*
X036794Y009353D01*
X036694Y009353D01*
X036664Y009383D01*
X036664Y009393D01*
X036604Y009333D01*
X036647Y009376D02*
X036671Y009376D01*
X036604Y009259D02*
X036794Y009259D01*
X036794Y009483D02*
X036766Y009484D01*
X036738Y009481D01*
X036711Y009474D01*
X036684Y009465D01*
X036659Y009451D01*
X036636Y009435D01*
X036616Y009416D01*
X036597Y009395D01*
X036582Y009371D01*
X036570Y009345D01*
X036561Y009319D01*
X036556Y009291D01*
X036554Y009263D01*
X036564Y009253D02*
X036564Y008693D01*
X036614Y008674D02*
X036774Y008674D01*
X036714Y008483D02*
X036688Y008493D01*
X036663Y008505D01*
X036640Y008521D01*
X036620Y008540D01*
X036602Y008562D01*
X036588Y008586D01*
X036576Y008611D01*
X036569Y008638D01*
X036565Y008665D01*
X036564Y008693D01*
X036614Y008732D02*
X036774Y008732D01*
X036774Y008791D02*
X036604Y008791D01*
X036604Y008849D02*
X036774Y008849D01*
X036719Y008908D02*
X036604Y008908D01*
X036604Y008966D02*
X036694Y008966D01*
X036694Y009025D02*
X036604Y009025D01*
X036604Y009083D02*
X036694Y009083D01*
X036713Y009142D02*
X036604Y009142D01*
X036604Y009200D02*
X036772Y009200D01*
X036824Y009259D02*
X037090Y009259D01*
X037084Y009200D02*
X036906Y009200D01*
X036965Y009142D02*
X037084Y009142D01*
X037104Y009193D02*
X037104Y008863D01*
X037060Y008849D02*
X036910Y008849D01*
X036959Y008908D02*
X037084Y008908D01*
X037084Y008966D02*
X037014Y008966D01*
X037014Y009025D02*
X037084Y009025D01*
X037084Y009083D02*
X037013Y009083D01*
X037104Y009193D02*
X037114Y009193D01*
X037104Y009193D02*
X037107Y009216D01*
X037113Y009237D01*
X037122Y009258D01*
X037134Y009277D01*
X037149Y009294D01*
X037167Y009308D01*
X037186Y009320D01*
X037207Y009328D01*
X037229Y009333D01*
X037252Y009335D01*
X037274Y009333D01*
X037964Y009333D01*
X037994Y009333D01*
X038014Y009493D02*
X038043Y009491D01*
X038071Y009486D01*
X038099Y009477D01*
X038126Y009466D01*
X038150Y009451D01*
X038173Y009433D01*
X038194Y009412D01*
X038212Y009389D01*
X038227Y009365D01*
X038238Y009338D01*
X038247Y009310D01*
X038252Y009282D01*
X038254Y009253D01*
X038254Y009243D02*
X038254Y008723D01*
X038234Y008732D02*
X038144Y008732D01*
X038153Y008751D01*
X038156Y008772D01*
X038154Y008793D01*
X038164Y008793D01*
X038164Y009203D01*
X038154Y009203D01*
X038154Y009313D01*
X038104Y009313D01*
X038104Y009333D01*
X038094Y009333D01*
X038094Y009373D01*
X038144Y009373D01*
X038144Y009363D01*
X038164Y009373D01*
X038184Y009373D01*
X038184Y009303D01*
X038214Y009303D01*
X038214Y009283D01*
X038234Y009283D01*
X038234Y008663D01*
X038044Y008663D01*
X038064Y008663D01*
X038070Y008664D01*
X038075Y008667D01*
X038078Y008672D01*
X038079Y008678D01*
X038078Y008684D01*
X038075Y008688D01*
X038070Y008692D01*
X038064Y008693D01*
X038074Y008693D01*
X038095Y008695D01*
X038114Y008703D01*
X038131Y008716D01*
X038144Y008732D01*
X038154Y008791D02*
X038234Y008791D01*
X038234Y008849D02*
X038164Y008849D01*
X038124Y008863D02*
X038124Y009193D01*
X038164Y009200D02*
X038234Y009200D01*
X038234Y009142D02*
X038164Y009142D01*
X038164Y009083D02*
X038234Y009083D01*
X038234Y009025D02*
X038164Y009025D01*
X038164Y008966D02*
X038234Y008966D01*
X038234Y008908D02*
X038164Y008908D01*
X038124Y008853D02*
X038124Y008832D01*
X038120Y008812D01*
X038113Y008792D01*
X038102Y008774D01*
X038089Y008758D01*
X038073Y008745D01*
X038055Y008734D01*
X038035Y008727D01*
X038015Y008723D01*
X037994Y008723D01*
X037994Y008713D02*
X037264Y008713D01*
X037264Y008703D02*
X038004Y008703D01*
X038004Y008713D01*
X038078Y008674D02*
X038234Y008674D01*
X038214Y008643D02*
X038214Y008613D01*
X038164Y008563D01*
X038114Y008563D01*
X038034Y008483D01*
X038034Y008453D01*
X038044Y008443D01*
X036794Y008443D01*
X036774Y008463D01*
X036774Y008663D01*
X036784Y008673D01*
X036794Y008663D01*
X036794Y008673D01*
X037094Y008673D01*
X037134Y008633D01*
X037274Y008633D01*
X037284Y008643D01*
X038214Y008643D01*
X038214Y008615D02*
X036774Y008615D01*
X036622Y008615D01*
X036680Y008556D02*
X036774Y008556D01*
X038108Y008556D01*
X038049Y008498D02*
X036774Y008498D01*
X036749Y008498D01*
X036744Y008413D02*
X036744Y008393D01*
X036724Y008393D01*
X036724Y008363D01*
X036704Y008363D01*
X036704Y008333D01*
X036694Y008333D01*
X036694Y008303D01*
X036674Y008303D01*
X036674Y008233D01*
X036644Y008203D01*
X036644Y008153D01*
X036634Y008143D01*
X036634Y008093D01*
X036594Y008053D01*
X036594Y007973D01*
X036574Y007953D01*
X036574Y007823D01*
X036594Y007803D01*
X036594Y007773D01*
X036564Y007743D01*
X036564Y007723D01*
X036544Y007703D01*
X036544Y007693D01*
X036564Y007673D01*
X036684Y007673D01*
X036684Y007683D01*
X036724Y007723D01*
X036714Y007723D01*
X036674Y007763D01*
X036674Y008133D01*
X036704Y008163D01*
X036704Y008223D01*
X036774Y008293D01*
X036774Y008403D01*
X036784Y008413D01*
X036744Y008413D01*
X036724Y008381D02*
X036774Y008381D01*
X036804Y008381D02*
X037292Y008381D01*
X037284Y008343D02*
X037304Y008343D01*
X037394Y008253D01*
X037414Y008253D01*
X037284Y008123D01*
X037284Y008103D01*
X037284Y008343D01*
X037284Y008322D02*
X037324Y008322D01*
X037284Y008264D02*
X037383Y008264D01*
X037366Y008205D02*
X037284Y008205D01*
X037244Y008205D02*
X036864Y008205D01*
X036864Y008253D02*
X036864Y007873D01*
X036914Y007823D01*
X036934Y007823D01*
X036974Y007783D01*
X037034Y007783D01*
X037044Y007773D01*
X037044Y007383D01*
X037004Y007343D01*
X037004Y007333D01*
X036994Y007323D01*
X036994Y007303D01*
X036964Y007273D01*
X036964Y007243D01*
X036954Y007233D01*
X036954Y007193D01*
X036944Y007183D01*
X037084Y007183D01*
X037124Y007223D01*
X037124Y007323D01*
X037144Y007343D01*
X037114Y007373D01*
X037114Y007733D01*
X037154Y007773D01*
X037694Y007773D01*
X037704Y007763D01*
X037704Y007373D01*
X037674Y007373D01*
X037654Y007353D01*
X037647Y007343D01*
X037644Y007332D01*
X037644Y007320D01*
X037647Y007309D01*
X037654Y007300D01*
X037664Y007293D01*
X037684Y007293D01*
X037684Y007233D01*
X037744Y007233D01*
X037744Y007183D01*
X037884Y007183D01*
X037884Y007203D01*
X037844Y007203D01*
X037844Y007333D01*
X037794Y007333D01*
X037794Y007763D01*
X037824Y007763D01*
X037824Y007883D01*
X037834Y007883D01*
X037834Y007783D01*
X037904Y007783D01*
X037904Y007873D01*
X037924Y007873D01*
X037924Y007853D01*
X037954Y007853D01*
X037954Y007983D01*
X037644Y007983D01*
X037644Y008003D01*
X037514Y008003D01*
X037514Y007973D01*
X037244Y007973D01*
X037244Y008293D01*
X036794Y008293D01*
X036794Y008283D01*
X036834Y008283D01*
X036864Y008253D01*
X036853Y008264D02*
X037244Y008264D01*
X037194Y008283D02*
X036824Y008283D01*
X036804Y008303D01*
X036804Y008393D01*
X036814Y008403D01*
X036824Y008403D01*
X037414Y008433D01*
X037394Y008433D01*
X037334Y008423D01*
X037194Y008283D01*
X037234Y008322D02*
X036804Y008322D01*
X036774Y008322D02*
X036694Y008322D01*
X036674Y008264D02*
X036745Y008264D01*
X036704Y008205D02*
X036646Y008205D01*
X036654Y008253D02*
X036584Y008053D01*
X036594Y008030D02*
X036674Y008030D01*
X036674Y008088D02*
X036629Y008088D01*
X036638Y008147D02*
X036688Y008147D01*
X036814Y008243D02*
X036814Y007913D01*
X036824Y007903D01*
X036864Y007913D02*
X037954Y007913D01*
X037994Y007943D02*
X037994Y008273D01*
X038014Y008273D01*
X038014Y008303D02*
X037964Y008303D01*
X037964Y008033D01*
X037914Y008033D01*
X037904Y008043D01*
X037904Y008123D01*
X037874Y008153D01*
X037864Y008153D01*
X037734Y008283D01*
X037454Y008283D01*
X037444Y008293D01*
X037774Y008303D01*
X037774Y008323D01*
X037824Y008373D01*
X038024Y008373D01*
X038074Y008423D01*
X038074Y008393D01*
X038134Y008333D01*
X038134Y008263D01*
X038184Y008213D01*
X038184Y008123D01*
X038234Y008073D01*
X038234Y007773D01*
X038264Y007743D01*
X038264Y007733D01*
X038284Y007713D01*
X038284Y007693D01*
X038254Y007663D01*
X038164Y007663D01*
X038144Y007683D01*
X038124Y007683D01*
X038104Y007703D01*
X038104Y007753D01*
X038124Y007753D01*
X038154Y007783D01*
X038154Y008013D01*
X038124Y008043D01*
X038124Y008133D01*
X038074Y008183D01*
X038074Y008243D01*
X038014Y008303D01*
X038053Y008264D02*
X038134Y008264D01*
X038134Y008322D02*
X037774Y008322D01*
X037794Y008343D02*
X037954Y008343D01*
X038014Y008403D01*
X038014Y008413D01*
X037784Y008413D01*
X037774Y008423D01*
X037694Y008423D01*
X037734Y008463D01*
X037744Y008463D01*
X037784Y008423D01*
X037784Y008393D01*
X037794Y008383D01*
X037794Y008343D01*
X037794Y008381D02*
X037992Y008381D01*
X038032Y008381D02*
X038086Y008381D01*
X037964Y008264D02*
X037753Y008264D01*
X037812Y008205D02*
X037964Y008205D01*
X037964Y008147D02*
X037880Y008147D01*
X037904Y008088D02*
X037964Y008088D01*
X037864Y008053D02*
X037872Y008051D01*
X037878Y008047D01*
X037882Y008041D01*
X037884Y008033D01*
X037882Y008025D01*
X037878Y008019D01*
X037872Y008015D01*
X037864Y008013D01*
X037644Y008013D01*
X038234Y008123D02*
X038227Y008168D01*
X038216Y008213D01*
X038202Y008257D01*
X038184Y008299D01*
X038164Y008341D01*
X038140Y008380D01*
X038114Y008418D01*
X038084Y008453D01*
X038094Y008503D02*
X038119Y008505D01*
X038143Y008510D01*
X038166Y008519D01*
X038188Y008531D01*
X038208Y008546D01*
X038225Y008564D01*
X038240Y008584D01*
X038251Y008606D01*
X038260Y008629D01*
X038265Y008653D01*
X038266Y008678D01*
X038264Y008703D01*
X037934Y008993D02*
X037936Y009001D01*
X037941Y009008D01*
X037948Y009012D01*
X037956Y009013D01*
X037964Y009010D01*
X037970Y009005D01*
X037974Y008997D01*
X037974Y008989D01*
X037970Y008981D01*
X037964Y008976D01*
X037956Y008973D01*
X037948Y008974D01*
X037941Y008978D01*
X037936Y008985D01*
X037934Y008993D01*
X037884Y009003D02*
X037886Y009016D01*
X037891Y009029D01*
X037900Y009040D01*
X037911Y009047D01*
X037924Y009052D01*
X037937Y009053D01*
X037951Y009050D01*
X037963Y009044D01*
X037973Y009035D01*
X037980Y009023D01*
X037984Y009010D01*
X037984Y008996D01*
X037980Y008983D01*
X037973Y008971D01*
X037963Y008962D01*
X037951Y008956D01*
X037937Y008953D01*
X037924Y008954D01*
X037911Y008959D01*
X037900Y008966D01*
X037891Y008977D01*
X037886Y008990D01*
X037884Y009003D01*
X037794Y008893D02*
X037794Y008823D01*
X037684Y008823D02*
X037684Y008893D01*
X037594Y008893D02*
X037594Y008823D01*
X037484Y008823D02*
X037484Y008893D01*
X037594Y009003D02*
X037594Y009173D01*
X037634Y009173D01*
X037644Y009183D01*
X037644Y009053D01*
X037684Y009003D02*
X037594Y009003D01*
X037684Y009003D02*
X037684Y009173D01*
X037944Y009173D01*
X037944Y009213D01*
X037314Y009213D01*
X037314Y009173D02*
X037594Y009173D01*
X037694Y009503D02*
X037663Y009531D01*
X037629Y009556D01*
X037594Y009577D01*
X037556Y009595D01*
X037517Y009610D01*
X037477Y009621D01*
X037436Y009629D01*
X037395Y009633D01*
X037353Y009633D01*
X037312Y009629D01*
X037271Y009621D01*
X037231Y009610D01*
X037192Y009595D01*
X037154Y009577D01*
X037119Y009556D01*
X037085Y009531D01*
X037054Y009503D01*
X037064Y009503D02*
X037044Y009483D01*
X036804Y009483D01*
X037118Y009493D02*
X037672Y009493D01*
X037714Y009493D02*
X038004Y009493D01*
X038104Y009318D02*
X038184Y009318D01*
X038154Y009259D02*
X038234Y009259D01*
X038124Y009193D02*
X038127Y009212D01*
X038126Y009232D01*
X038123Y009251D01*
X038116Y009269D01*
X038106Y009286D01*
X038093Y009301D01*
X038078Y009313D01*
X038061Y009323D01*
X038043Y009329D01*
X038024Y009333D01*
X038004Y009333D01*
X037964Y009333D02*
X037985Y009338D01*
X038006Y009340D01*
X038027Y009338D01*
X038047Y009334D01*
X038066Y009325D01*
X038084Y009314D01*
X038100Y009300D01*
X038113Y009283D01*
X038123Y009265D01*
X038130Y009245D01*
X038134Y009224D01*
X038134Y009203D01*
X037304Y008993D02*
X037306Y008998D01*
X037310Y009002D01*
X037315Y009003D01*
X037321Y009001D01*
X037324Y008996D01*
X037324Y008990D01*
X037321Y008985D01*
X037315Y008983D01*
X037310Y008984D01*
X037306Y008988D01*
X037304Y008993D01*
X037264Y008993D02*
X037266Y009006D01*
X037271Y009019D01*
X037280Y009030D01*
X037291Y009037D01*
X037304Y009042D01*
X037317Y009043D01*
X037331Y009040D01*
X037343Y009034D01*
X037353Y009025D01*
X037360Y009013D01*
X037364Y009000D01*
X037364Y008986D01*
X037360Y008973D01*
X037353Y008961D01*
X037343Y008952D01*
X037331Y008946D01*
X037317Y008943D01*
X037304Y008944D01*
X037291Y008949D01*
X037280Y008956D01*
X037271Y008967D01*
X037266Y008980D01*
X037264Y008993D01*
X037104Y008853D02*
X037106Y008831D01*
X037111Y008810D01*
X037119Y008790D01*
X037130Y008771D01*
X037144Y008754D01*
X037161Y008740D01*
X037179Y008728D01*
X037199Y008720D01*
X037220Y008714D01*
X037242Y008712D01*
X037264Y008713D01*
X037264Y008653D02*
X037242Y008644D01*
X037219Y008638D01*
X037196Y008636D01*
X037172Y008638D01*
X037149Y008643D01*
X037127Y008651D01*
X037107Y008663D01*
X037088Y008678D01*
X037072Y008695D01*
X037059Y008715D01*
X037050Y008737D01*
X037043Y008759D01*
X037040Y008783D01*
X037041Y008806D01*
X037045Y008830D01*
X037053Y008852D01*
X037064Y008873D01*
X037044Y008791D02*
X036834Y008791D01*
X036834Y008732D02*
X037054Y008732D01*
X036844Y008873D02*
X036820Y008877D01*
X036797Y008885D01*
X036775Y008896D01*
X036755Y008911D01*
X036738Y008929D01*
X036724Y008949D01*
X036713Y008971D01*
X036706Y008995D01*
X036702Y009019D01*
X036703Y009043D01*
X036707Y009068D01*
X036715Y009091D01*
X036726Y009113D01*
X036741Y009132D01*
X036759Y009150D01*
X036779Y009164D01*
X036801Y009175D01*
X036824Y009182D01*
X036834Y009183D02*
X036858Y009180D01*
X036881Y009174D01*
X036904Y009163D01*
X036924Y009150D01*
X036941Y009133D01*
X036956Y009114D01*
X036968Y009093D01*
X036976Y009070D01*
X036980Y009046D01*
X036981Y009022D01*
X036977Y008998D01*
X036970Y008975D01*
X036959Y008953D01*
X036945Y008933D01*
X036928Y008916D01*
X036909Y008902D01*
X036887Y008891D01*
X036864Y008883D01*
X036326Y008451D02*
X036326Y008191D01*
X036026Y008141D01*
X035983Y008147D02*
X035552Y008147D01*
X035596Y008191D02*
X035596Y008441D01*
X035446Y008691D01*
X035196Y008741D01*
X034896Y008641D01*
X034946Y008641D01*
X034796Y008391D01*
X034896Y008091D01*
X034996Y007991D01*
X034846Y007591D01*
X034746Y007641D01*
X034546Y007491D01*
X034396Y007641D01*
X034546Y007891D01*
X034446Y008141D01*
X034146Y008241D01*
X034146Y008191D01*
X034146Y008441D01*
X034446Y008491D01*
X034546Y008791D01*
X035921Y008791D01*
X035916Y008761D02*
X036096Y009021D01*
X035906Y009201D01*
X035646Y009021D01*
X035646Y008991D02*
X035896Y009141D01*
X036046Y009041D01*
X035896Y008741D01*
X035996Y008491D01*
X036296Y008441D01*
X036296Y008191D01*
X035996Y008191D01*
X035896Y007841D01*
X036046Y007641D01*
X035896Y007491D01*
X035696Y007641D01*
X035596Y007591D01*
X035396Y007991D01*
X035596Y008191D01*
X035596Y008205D02*
X036296Y008205D01*
X036296Y008264D02*
X035596Y008264D01*
X035596Y008322D02*
X036296Y008322D01*
X036296Y008381D02*
X035596Y008381D01*
X035596Y008439D02*
X036296Y008439D01*
X036326Y008451D02*
X036026Y008511D01*
X035993Y008498D02*
X035561Y008498D01*
X035526Y008556D02*
X035969Y008556D01*
X035946Y008615D02*
X035491Y008615D01*
X035456Y008674D02*
X035923Y008674D01*
X035899Y008732D02*
X035238Y008732D01*
X035170Y008732D02*
X034526Y008732D01*
X034506Y008761D02*
X034326Y009021D01*
X034516Y009201D01*
X034776Y009021D01*
X034796Y008991D02*
X035096Y009141D01*
X035046Y009141D01*
X035096Y009391D01*
X035346Y009391D01*
X035346Y009091D01*
X035646Y008991D01*
X035703Y009025D02*
X036038Y009025D01*
X036009Y008966D02*
X034370Y008966D01*
X034346Y008991D02*
X034496Y009141D01*
X034796Y008991D01*
X034864Y009025D02*
X035543Y009025D01*
X035396Y009121D02*
X035346Y009441D01*
X035076Y009441D01*
X035026Y009121D01*
X035046Y009142D02*
X035346Y009142D01*
X035346Y009200D02*
X035058Y009200D01*
X035069Y009259D02*
X035346Y009259D01*
X035346Y009318D02*
X035081Y009318D01*
X035093Y009376D02*
X035346Y009376D01*
X035367Y009083D02*
X034981Y009083D01*
X034727Y009025D02*
X034380Y009025D01*
X034346Y008991D02*
X034546Y008791D01*
X034487Y008849D02*
X035950Y008849D01*
X035979Y008908D02*
X034429Y008908D01*
X034439Y009083D02*
X034610Y009083D01*
X034507Y008674D02*
X034995Y008674D01*
X034930Y008615D02*
X034487Y008615D01*
X034468Y008556D02*
X034895Y008556D01*
X034860Y008498D02*
X034448Y008498D01*
X034396Y008511D02*
X034096Y008451D01*
X034096Y008191D01*
X034396Y008141D01*
X034428Y008147D02*
X034877Y008147D01*
X034858Y008205D02*
X034252Y008205D01*
X034146Y008264D02*
X034838Y008264D01*
X034819Y008322D02*
X034146Y008322D01*
X034146Y008381D02*
X034799Y008381D01*
X034825Y008439D02*
X034146Y008439D01*
X034467Y008088D02*
X034898Y008088D01*
X034957Y008030D02*
X034490Y008030D01*
X034514Y007971D02*
X034988Y007971D01*
X034966Y007913D02*
X034537Y007913D01*
X034496Y007871D02*
X034336Y007631D01*
X034516Y007441D01*
X034756Y007611D01*
X034856Y007551D01*
X035056Y008001D01*
X034945Y007854D02*
X034524Y007854D01*
X034489Y007795D02*
X034923Y007795D01*
X034901Y007737D02*
X034454Y007737D01*
X034418Y007678D02*
X034879Y007678D01*
X034857Y007620D02*
X034787Y007620D01*
X034718Y007620D02*
X034417Y007620D01*
X034475Y007561D02*
X034640Y007561D01*
X034562Y007503D02*
X034534Y007503D01*
X035376Y008001D02*
X035566Y007551D01*
X035666Y007611D01*
X035906Y007441D01*
X036096Y007631D01*
X035926Y007871D01*
X035900Y007854D02*
X035464Y007854D01*
X035435Y007913D02*
X035916Y007913D01*
X035933Y007971D02*
X035406Y007971D01*
X035435Y008030D02*
X035950Y008030D01*
X035966Y008088D02*
X035493Y008088D01*
X035493Y007795D02*
X035930Y007795D01*
X035974Y007737D02*
X035523Y007737D01*
X035552Y007678D02*
X036017Y007678D01*
X036025Y007620D02*
X035724Y007620D01*
X035654Y007620D02*
X035581Y007620D01*
X035802Y007561D02*
X035966Y007561D01*
X035908Y007503D02*
X035880Y007503D01*
X036558Y007678D02*
X036684Y007678D01*
X036704Y007663D02*
X036717Y007670D01*
X036728Y007681D01*
X036737Y007694D01*
X036742Y007708D01*
X036744Y007723D01*
X036742Y007738D01*
X036737Y007752D01*
X036728Y007765D01*
X036717Y007776D01*
X036704Y007783D01*
X036674Y007795D02*
X036594Y007795D01*
X036554Y007783D02*
X036554Y008003D01*
X036592Y007971D02*
X036674Y007971D01*
X036674Y007913D02*
X036574Y007913D01*
X036574Y007854D02*
X036674Y007854D01*
X036700Y007737D02*
X036564Y007737D01*
X036564Y007803D02*
X036548Y007796D01*
X036533Y007787D01*
X036521Y007775D01*
X036511Y007760D01*
X036505Y007743D01*
X036503Y007726D01*
X036504Y007709D01*
X036510Y007692D01*
X036518Y007677D01*
X036530Y007664D01*
X036544Y007653D01*
X036555Y007533D02*
X036546Y007550D01*
X036541Y007568D01*
X036540Y007586D01*
X036543Y007605D01*
X036549Y007622D01*
X036558Y007638D01*
X036571Y007652D01*
X036586Y007663D01*
X036603Y007671D01*
X036621Y007675D01*
X036639Y007676D01*
X036658Y007673D01*
X036675Y007666D01*
X036691Y007656D01*
X036704Y007643D01*
X036714Y007628D01*
X036722Y007611D01*
X036726Y007592D01*
X036726Y007574D01*
X036722Y007556D01*
X036715Y007538D01*
X036704Y007523D01*
X037004Y007403D02*
X037004Y007753D01*
X036974Y007753D01*
X036961Y007795D02*
X037824Y007795D01*
X037834Y007795D02*
X037904Y007795D01*
X037904Y007854D02*
X037834Y007854D01*
X037824Y007854D02*
X036883Y007854D01*
X036834Y007922D02*
X036831Y007900D01*
X036832Y007877D01*
X036837Y007854D01*
X036845Y007833D01*
X036857Y007813D01*
X036871Y007796D01*
X036888Y007780D01*
X036908Y007768D01*
X036929Y007759D01*
X036951Y007754D01*
X036974Y007752D01*
X037044Y007737D02*
X037118Y007737D01*
X037144Y007723D02*
X037144Y007383D01*
X037154Y007383D01*
X037114Y007386D02*
X037044Y007386D01*
X037044Y007444D02*
X037114Y007444D01*
X037114Y007503D02*
X037044Y007503D01*
X037044Y007561D02*
X037114Y007561D01*
X037114Y007620D02*
X037044Y007620D01*
X037044Y007678D02*
X037114Y007678D01*
X037144Y007723D02*
X037674Y007723D01*
X037674Y007383D01*
X037704Y007386D02*
X037794Y007386D01*
X037814Y007383D02*
X037814Y007723D01*
X037824Y007723D01*
X037794Y007737D02*
X037704Y007737D01*
X037704Y007678D02*
X037794Y007678D01*
X037794Y007620D02*
X037704Y007620D01*
X037704Y007561D02*
X037794Y007561D01*
X037794Y007503D02*
X037704Y007503D01*
X037704Y007444D02*
X037794Y007444D01*
X037844Y007383D02*
X037855Y007374D01*
X037864Y007362D01*
X037870Y007349D01*
X037873Y007335D01*
X037873Y007321D01*
X037869Y007307D01*
X037863Y007294D01*
X037854Y007283D01*
X037844Y007269D02*
X037684Y007269D01*
X037644Y007327D02*
X037844Y007327D01*
X037844Y007210D02*
X037744Y007210D01*
X037685Y007223D02*
X037684Y007206D01*
X037688Y007188D01*
X037695Y007172D01*
X037705Y007158D01*
X037718Y007147D01*
X037733Y007138D01*
X037750Y007133D01*
X037767Y007131D01*
X037784Y007133D01*
X037774Y007133D02*
X037904Y007133D01*
X037924Y007153D01*
X037944Y007163D02*
X037936Y007156D01*
X037926Y007151D01*
X037915Y007149D01*
X037904Y007150D01*
X037894Y007153D01*
X037934Y007182D02*
X037929Y007198D01*
X037922Y007212D01*
X037913Y007225D01*
X037902Y007236D01*
X037888Y007245D01*
X037874Y007252D01*
X038134Y007523D02*
X038128Y007541D01*
X038124Y007560D01*
X038125Y007580D01*
X038129Y007599D01*
X038136Y007617D01*
X038147Y007633D01*
X038161Y007647D01*
X038177Y007658D01*
X038194Y007666D01*
X038213Y007670D01*
X038233Y007671D01*
X038252Y007668D01*
X038270Y007661D01*
X038287Y007652D01*
X038302Y007639D01*
X038314Y007624D01*
X038323Y007606D01*
X038328Y007588D01*
X038330Y007568D01*
X038328Y007549D01*
X038323Y007530D01*
X038314Y007513D01*
X038270Y007678D02*
X038148Y007678D01*
X038124Y007653D02*
X038109Y007658D01*
X038095Y007667D01*
X038083Y007679D01*
X038074Y007692D01*
X038068Y007708D01*
X038065Y007724D01*
X038066Y007740D01*
X038070Y007756D01*
X038077Y007771D01*
X038087Y007784D01*
X038100Y007794D01*
X038114Y007802D01*
X038154Y007795D02*
X038234Y007795D01*
X038264Y007783D02*
X038234Y008123D01*
X038219Y008088D02*
X038124Y008088D01*
X038137Y008030D02*
X038234Y008030D01*
X038234Y007971D02*
X038154Y007971D01*
X038154Y007913D02*
X038234Y007913D01*
X038234Y007854D02*
X038154Y007854D01*
X038104Y007737D02*
X038264Y007737D01*
X038284Y007783D02*
X038298Y007775D01*
X038309Y007763D01*
X038318Y007749D01*
X038323Y007734D01*
X038324Y007718D01*
X038322Y007702D01*
X038316Y007687D01*
X038306Y007673D01*
X038294Y007663D01*
X037954Y007854D02*
X037924Y007854D01*
X037954Y007971D02*
X036864Y007971D01*
X036864Y008030D02*
X037244Y008030D01*
X037294Y008043D02*
X037287Y008042D01*
X037282Y008037D01*
X037279Y008031D01*
X037279Y008025D01*
X037282Y008019D01*
X037287Y008014D01*
X037294Y008013D01*
X037514Y008013D01*
X037534Y008023D02*
X037540Y008035D01*
X037549Y008044D01*
X037560Y008051D01*
X037572Y008055D01*
X037586Y008055D01*
X037598Y008051D01*
X037609Y008044D01*
X037618Y008035D01*
X037624Y008023D01*
X037594Y008063D02*
X037634Y008153D01*
X037584Y008073D01*
X037864Y008063D02*
X037852Y008094D01*
X037837Y008124D01*
X037819Y008152D01*
X037798Y008178D01*
X037774Y008201D01*
X037748Y008222D01*
X037719Y008239D01*
X037689Y008253D01*
X037657Y008264D01*
X037625Y008271D01*
X037591Y008274D01*
X037558Y008273D01*
X037525Y008269D01*
X037493Y008261D01*
X037461Y008249D01*
X037432Y008234D01*
X037404Y008216D01*
X037378Y008194D01*
X037355Y008170D01*
X037335Y008144D01*
X037318Y008115D01*
X037304Y008085D01*
X037294Y008053D01*
X037244Y008088D02*
X036864Y008088D01*
X036864Y008147D02*
X037244Y008147D01*
X037284Y008147D02*
X037308Y008147D01*
X036724Y008453D02*
X036691Y008410D01*
X036661Y008364D01*
X036635Y008316D01*
X036612Y008267D01*
X036593Y008216D01*
X036578Y008164D01*
X036566Y008111D01*
X036558Y008057D01*
X036554Y008003D01*
X038024Y008262D02*
X038048Y008208D01*
X038068Y008152D01*
X038086Y008096D01*
X038100Y008038D01*
X038111Y007980D01*
X038119Y007921D01*
X038123Y007862D01*
X038124Y007802D01*
X037994Y007923D02*
X037992Y007897D01*
X037986Y007871D01*
X037976Y007847D01*
X037963Y007824D01*
X037947Y007803D01*
X037929Y007785D01*
X037907Y007769D01*
X037884Y007757D01*
X037860Y007748D01*
X037834Y007743D01*
X038254Y007823D02*
X038257Y007867D01*
X038258Y007911D01*
X038256Y007955D01*
X038251Y007999D01*
X038244Y008042D01*
X038184Y008147D02*
X038110Y008147D01*
X038074Y008205D02*
X038184Y008205D01*
X037671Y008363D02*
X037673Y008378D01*
X037678Y008392D01*
X037687Y008405D01*
X037698Y008415D01*
X037712Y008422D01*
X037726Y008426D01*
X037742Y008426D01*
X037756Y008422D01*
X037770Y008415D01*
X037781Y008405D01*
X037790Y008392D01*
X037795Y008378D01*
X037797Y008363D01*
X037795Y008348D01*
X037790Y008334D01*
X037781Y008321D01*
X037770Y008311D01*
X037756Y008304D01*
X037742Y008300D01*
X037726Y008300D01*
X037712Y008304D01*
X037698Y008311D01*
X037687Y008321D01*
X037678Y008334D01*
X037673Y008348D01*
X037671Y008363D01*
X037624Y008423D02*
X037634Y008433D01*
X037624Y008423D02*
X037524Y008423D01*
X037507Y008363D02*
X037509Y008379D01*
X037515Y008394D01*
X037524Y008407D01*
X037536Y008418D01*
X037550Y008426D01*
X037566Y008430D01*
X037582Y008430D01*
X037598Y008426D01*
X037612Y008418D01*
X037624Y008407D01*
X037633Y008394D01*
X037639Y008379D01*
X037641Y008363D01*
X037639Y008347D01*
X037633Y008332D01*
X037624Y008319D01*
X037612Y008308D01*
X037598Y008300D01*
X037582Y008296D01*
X037566Y008296D01*
X037550Y008300D01*
X037536Y008308D01*
X037524Y008319D01*
X037515Y008332D01*
X037509Y008347D01*
X037507Y008363D01*
X037347Y008363D02*
X037349Y008379D01*
X037355Y008394D01*
X037364Y008407D01*
X037376Y008418D01*
X037390Y008426D01*
X037406Y008430D01*
X037422Y008430D01*
X037438Y008426D01*
X037452Y008418D01*
X037464Y008407D01*
X037473Y008394D01*
X037479Y008379D01*
X037481Y008363D01*
X037479Y008347D01*
X037473Y008332D01*
X037464Y008319D01*
X037452Y008308D01*
X037438Y008300D01*
X037422Y008296D01*
X037406Y008296D01*
X037390Y008300D01*
X037376Y008308D01*
X037364Y008319D01*
X037355Y008332D01*
X037349Y008347D01*
X037347Y008363D01*
X037711Y008439D02*
X037767Y008439D01*
X036774Y008273D02*
X036751Y008224D01*
X036731Y008174D01*
X036715Y008123D01*
X036702Y008071D01*
X036693Y008018D01*
X036688Y007964D01*
X036686Y007910D01*
X036688Y007856D01*
X036694Y007803D01*
X036984Y007382D02*
X036970Y007378D01*
X036958Y007371D01*
X036948Y007360D01*
X036940Y007348D01*
X036936Y007334D01*
X036935Y007320D01*
X036938Y007306D01*
X036944Y007292D01*
X036964Y007269D02*
X037124Y007269D01*
X037164Y007263D02*
X037168Y007248D01*
X037169Y007233D01*
X037166Y007218D01*
X037161Y007203D01*
X037153Y007190D01*
X037142Y007179D01*
X037129Y007171D01*
X037115Y007165D01*
X037099Y007162D01*
X037084Y007163D01*
X037094Y007143D02*
X037104Y007153D01*
X037094Y007143D02*
X036964Y007143D01*
X036944Y007133D02*
X036931Y007135D01*
X036920Y007140D01*
X036910Y007148D01*
X036903Y007158D01*
X036898Y007170D01*
X036897Y007182D01*
X036899Y007195D01*
X036905Y007206D01*
X036913Y007216D01*
X036924Y007223D01*
X036954Y007210D02*
X037111Y007210D01*
X037128Y007327D02*
X036998Y007327D01*
X037164Y007293D02*
X037174Y007301D01*
X037182Y007311D01*
X037187Y007323D01*
X037189Y007336D01*
X037187Y007349D01*
X037182Y007362D01*
X037174Y007372D01*
X035982Y009083D02*
X035800Y009083D01*
X035376Y008011D02*
X035409Y008029D01*
X035439Y008050D01*
X035468Y008074D01*
X035494Y008101D01*
X035516Y008130D01*
X035536Y008162D01*
X035553Y008195D01*
X035566Y008230D01*
X035575Y008266D01*
X035581Y008303D01*
X035583Y008340D01*
X035581Y008377D01*
X035576Y008414D01*
X035566Y008450D01*
X035554Y008485D01*
X035537Y008519D01*
X035518Y008550D01*
X035495Y008580D01*
X035469Y008607D01*
X035441Y008631D01*
X035410Y008652D01*
X035378Y008670D01*
X035344Y008685D01*
X035308Y008696D01*
X035272Y008704D01*
X035235Y008708D01*
X035197Y008708D01*
X035160Y008704D01*
X035124Y008696D01*
X035088Y008685D01*
X035054Y008670D01*
X035022Y008652D01*
X034991Y008631D01*
X034963Y008607D01*
X034937Y008580D01*
X034914Y008550D01*
X034895Y008519D01*
X034878Y008485D01*
X034866Y008450D01*
X034856Y008414D01*
X034851Y008377D01*
X034849Y008340D01*
X034851Y008303D01*
X034857Y008266D01*
X034866Y008230D01*
X034879Y008195D01*
X034896Y008162D01*
X034916Y008130D01*
X034938Y008101D01*
X034964Y008074D01*
X034993Y008050D01*
X035023Y008029D01*
X035056Y008011D01*
X035926Y007871D02*
X035949Y007912D01*
X035970Y007955D01*
X035988Y008000D01*
X036003Y008045D01*
X036016Y008091D01*
X036026Y008138D01*
X036025Y008511D02*
X036010Y008563D01*
X035991Y008614D01*
X035969Y008664D01*
X035944Y008712D01*
X035915Y008759D01*
X035650Y009022D02*
X035603Y009049D01*
X035554Y009072D01*
X035504Y009092D01*
X035453Y009109D01*
X035401Y009123D01*
X035018Y009121D02*
X034968Y009108D01*
X034919Y009091D01*
X034871Y009072D01*
X034824Y009049D01*
X034779Y009024D01*
X034507Y008756D02*
X034480Y008710D01*
X034456Y008662D01*
X034435Y008613D01*
X034417Y008562D01*
X034403Y008511D01*
X034396Y008140D02*
X034409Y008084D01*
X034426Y008029D01*
X034447Y007976D01*
X034471Y007924D01*
X034499Y007874D01*
X037254Y009333D02*
X037274Y009333D01*
X036516Y023705D02*
X036076Y023705D01*
X035836Y023705D01*
X035396Y023705D01*
X035836Y023705D02*
X035838Y023726D01*
X035843Y023746D01*
X035852Y023765D01*
X035864Y023782D01*
X035879Y023797D01*
X035896Y023809D01*
X035915Y023818D01*
X035935Y023823D01*
X035956Y023825D01*
X035977Y023823D01*
X035997Y023818D01*
X036016Y023809D01*
X036033Y023797D01*
X036048Y023782D01*
X036060Y023765D01*
X036069Y023746D01*
X036074Y023726D01*
X036076Y023705D01*
X036074Y023726D01*
X036069Y023746D01*
X036060Y023765D01*
X036048Y023782D01*
X036033Y023797D01*
X036016Y023809D01*
X035997Y023818D01*
X035977Y023823D01*
X035956Y023825D01*
X035935Y023823D01*
X035915Y023818D01*
X035896Y023809D01*
X035879Y023797D01*
X035864Y023782D01*
X035852Y023765D01*
X035843Y023746D01*
X035838Y023726D01*
X035836Y023705D01*
X035396Y025665D02*
X036516Y025665D01*
X010395Y028287D02*
X010080Y027972D01*
X010395Y028287D02*
X010395Y028326D01*
X004888Y027675D02*
X004888Y029175D01*
X004888Y029675D02*
X004888Y030825D01*
X001338Y030825D01*
X000138Y030825D01*
X000138Y029775D01*
X000138Y029075D01*
X000138Y027775D01*
X000138Y027075D01*
X000138Y026025D01*
X001338Y026025D01*
X004888Y026025D01*
X004888Y027175D01*
X004888Y025974D02*
X004888Y024824D01*
X004888Y024324D02*
X004888Y022824D01*
X004888Y022324D02*
X004888Y020824D01*
X004888Y020324D02*
X004888Y018824D01*
X004888Y018324D02*
X004888Y017174D01*
X001338Y017174D01*
X000138Y017174D01*
X000138Y018224D01*
X000638Y018374D01*
X000638Y018774D01*
X000138Y018924D01*
X000138Y018224D01*
X000138Y018924D02*
X000138Y020224D01*
X000638Y020374D01*
X000638Y020774D01*
X000138Y020924D01*
X000138Y020224D01*
X000138Y020924D02*
X000138Y022224D01*
X000138Y022924D01*
X000638Y022774D01*
X000638Y022374D01*
X000138Y022224D01*
X000138Y022924D02*
X000138Y024224D01*
X000138Y024924D01*
X000638Y024774D01*
X000638Y024374D01*
X000138Y024224D01*
X000138Y024924D02*
X000138Y025974D01*
X001338Y025974D01*
X001338Y017174D01*
X001338Y017124D02*
X000138Y017124D01*
X000138Y016074D01*
X000138Y015374D01*
X000138Y014074D01*
X000138Y013374D01*
X000138Y012324D01*
X001338Y012324D01*
X004888Y012324D01*
X004888Y013474D01*
X004888Y013974D02*
X004888Y015474D01*
X004888Y015974D02*
X004888Y017124D01*
X001338Y017124D01*
X001338Y012324D01*
X001338Y012274D02*
X000138Y012274D01*
X000138Y011224D01*
X000138Y010524D01*
X000138Y009224D01*
X000138Y008524D01*
X000138Y007224D01*
X000638Y007074D01*
X000638Y006674D01*
X000138Y006524D01*
X000138Y005224D01*
X000638Y005074D01*
X000638Y004674D01*
X000138Y004524D01*
X000138Y003474D01*
X001338Y003474D01*
X004888Y003474D01*
X004888Y004624D01*
X004888Y005124D02*
X004888Y006624D01*
X004888Y007124D02*
X004888Y008624D01*
X004888Y009124D02*
X004888Y010624D01*
X004888Y011124D02*
X004888Y012274D01*
X001338Y012274D01*
X001338Y003474D01*
X000138Y004524D02*
X000138Y005224D01*
X000138Y006524D02*
X000138Y007224D01*
X000138Y008524D02*
X000638Y008674D01*
X000638Y009074D01*
X000138Y009224D01*
X000138Y010524D02*
X000638Y010674D01*
X000638Y011074D01*
X000138Y011224D01*
X000138Y013374D02*
X000638Y013524D01*
X000638Y013924D01*
X000138Y014074D01*
X000138Y015374D02*
X000638Y015524D01*
X000638Y015924D01*
X000138Y016074D01*
X001338Y025974D02*
X004888Y025974D01*
X001338Y026025D02*
X001338Y030825D01*
X000638Y029625D02*
X000138Y029775D01*
X000638Y029625D02*
X000638Y029225D01*
X000138Y029075D01*
X000138Y027775D02*
X000638Y027625D01*
X000638Y027225D01*
X000138Y027075D01*
D16*
X012420Y010462D03*
X016948Y010462D03*
X021633Y010423D03*
X025885Y010462D03*
X030294Y010423D03*
D17*
X030615Y009614D02*
X030578Y009577D01*
X030578Y009430D01*
X030615Y009394D01*
X030688Y009394D01*
X030725Y009430D01*
X030799Y009430D02*
X030836Y009394D01*
X030909Y009394D01*
X030946Y009430D01*
X030946Y009577D01*
X030909Y009614D01*
X030836Y009614D01*
X030799Y009577D01*
X030799Y009540D01*
X030836Y009504D01*
X030946Y009504D01*
X030725Y009577D02*
X030688Y009614D01*
X030615Y009614D01*
X031757Y010391D02*
X031794Y010355D01*
X031941Y010355D01*
X031977Y010391D01*
X031977Y010465D01*
X031941Y010501D01*
X031867Y010576D02*
X031867Y010722D01*
X031867Y010797D02*
X031867Y010943D01*
X031757Y010907D02*
X031867Y010797D01*
X031977Y010907D02*
X031757Y010907D01*
X031757Y010686D02*
X031867Y010576D01*
X031794Y010501D02*
X031757Y010465D01*
X031757Y010391D01*
X031757Y010686D02*
X031977Y010686D01*
X029428Y009863D02*
X029428Y009790D01*
X029391Y009753D01*
X029245Y009900D01*
X029391Y009900D01*
X029428Y009863D01*
X029391Y009753D02*
X029245Y009753D01*
X029208Y009790D01*
X029208Y009863D01*
X029245Y009900D01*
X029428Y009679D02*
X029428Y009532D01*
X029428Y009606D02*
X029208Y009606D01*
X029281Y009532D01*
X029245Y009458D02*
X029208Y009421D01*
X029208Y009348D01*
X029245Y009311D01*
X029391Y009311D01*
X029428Y009348D01*
X029428Y009421D01*
X029391Y009458D01*
X028346Y009837D02*
X028199Y009690D01*
X028199Y009653D01*
X028125Y009653D02*
X027978Y009653D01*
X028051Y009653D02*
X028051Y009873D01*
X027978Y009800D01*
X027904Y009873D02*
X027904Y009690D01*
X027867Y009653D01*
X027794Y009653D01*
X027757Y009690D01*
X027757Y009873D01*
X027462Y010168D02*
X027499Y010204D01*
X027499Y010278D01*
X027462Y010314D01*
X027389Y010389D02*
X027389Y010535D01*
X027462Y010610D02*
X027499Y010646D01*
X027499Y010720D01*
X027462Y010756D01*
X027426Y010756D01*
X027389Y010720D01*
X027389Y010683D01*
X027389Y010720D02*
X027352Y010756D01*
X027316Y010756D01*
X027279Y010720D01*
X027279Y010646D01*
X027316Y010610D01*
X027279Y010499D02*
X027389Y010389D01*
X027316Y010314D02*
X027279Y010278D01*
X027279Y010204D01*
X027316Y010168D01*
X027462Y010168D01*
X027499Y010499D02*
X027279Y010499D01*
X028199Y009873D02*
X028346Y009873D01*
X028346Y009837D01*
X026349Y009633D02*
X026349Y009597D01*
X026203Y009450D01*
X026203Y009413D01*
X026129Y009450D02*
X026092Y009413D01*
X026018Y009413D01*
X025982Y009450D01*
X025982Y009597D01*
X026018Y009633D01*
X026092Y009633D01*
X026129Y009597D01*
X026203Y009633D02*
X026349Y009633D01*
X025483Y009557D02*
X025483Y009521D01*
X025447Y009484D01*
X025373Y009484D01*
X025337Y009521D01*
X025337Y009557D01*
X025373Y009594D01*
X025447Y009594D01*
X025483Y009557D01*
X025447Y009484D02*
X025483Y009447D01*
X025483Y009411D01*
X025447Y009374D01*
X025373Y009374D01*
X025337Y009411D01*
X025337Y009447D01*
X025373Y009484D01*
X025262Y009557D02*
X025226Y009594D01*
X025152Y009594D01*
X025116Y009557D01*
X025116Y009411D01*
X025152Y009374D01*
X025226Y009374D01*
X025262Y009411D01*
X023789Y009975D02*
X023789Y010012D01*
X023752Y010049D01*
X023642Y010049D01*
X023642Y009975D01*
X023678Y009939D01*
X023752Y009939D01*
X023789Y009975D01*
X023715Y010122D02*
X023642Y010049D01*
X023715Y010122D02*
X023789Y010159D01*
X023494Y010159D02*
X023494Y009939D01*
X023421Y009939D02*
X023568Y009939D01*
X023421Y010086D02*
X023494Y010159D01*
X023347Y010159D02*
X023347Y009975D01*
X023310Y009939D01*
X023236Y009939D01*
X023200Y009975D01*
X023200Y010159D01*
X023250Y010305D02*
X023103Y010305D01*
X023066Y010342D01*
X023066Y010415D01*
X023103Y010452D01*
X023176Y010526D02*
X023066Y010636D01*
X023286Y010636D01*
X023286Y010747D02*
X023140Y010894D01*
X023103Y010894D01*
X023066Y010857D01*
X023066Y010784D01*
X023103Y010747D01*
X023176Y010673D02*
X023176Y010526D01*
X023250Y010452D02*
X023286Y010415D01*
X023286Y010342D01*
X023250Y010305D01*
X023286Y010747D02*
X023286Y010894D01*
X022206Y009584D02*
X022059Y009584D01*
X022059Y009474D01*
X022132Y009511D01*
X022169Y009511D01*
X022206Y009474D01*
X022206Y009401D01*
X022169Y009364D01*
X022096Y009364D01*
X022059Y009401D01*
X021985Y009401D02*
X021948Y009364D01*
X021875Y009364D01*
X021838Y009401D01*
X021838Y009547D01*
X021875Y009584D01*
X021948Y009584D01*
X021985Y009547D01*
X021349Y009555D02*
X021276Y009518D01*
X021203Y009445D01*
X021313Y009445D01*
X021349Y009408D01*
X021349Y009371D01*
X021313Y009334D01*
X021239Y009334D01*
X021203Y009371D01*
X021203Y009445D01*
X021129Y009518D02*
X021092Y009555D01*
X021018Y009555D01*
X020982Y009518D01*
X020982Y009371D01*
X021018Y009334D01*
X021092Y009334D01*
X021129Y009371D01*
X019970Y009857D02*
X019933Y009821D01*
X019860Y009821D01*
X019823Y009857D01*
X019823Y009931D02*
X019896Y009967D01*
X019933Y009967D01*
X019970Y009931D01*
X019970Y009857D01*
X019823Y009931D02*
X019823Y010041D01*
X019970Y010041D01*
X019675Y010041D02*
X019675Y009821D01*
X019602Y009821D02*
X019749Y009821D01*
X019602Y009967D02*
X019675Y010041D01*
X019528Y010041D02*
X019528Y009857D01*
X019491Y009821D01*
X019418Y009821D01*
X019381Y009857D01*
X019381Y010041D01*
X018749Y010224D02*
X018749Y010297D01*
X018712Y010334D01*
X018712Y010408D02*
X018749Y010445D01*
X018749Y010518D01*
X018712Y010555D01*
X018676Y010555D01*
X018639Y010518D01*
X018639Y010482D01*
X018639Y010518D02*
X018602Y010555D01*
X018566Y010555D01*
X018529Y010518D01*
X018529Y010445D01*
X018566Y010408D01*
X018566Y010334D02*
X018529Y010297D01*
X018529Y010224D01*
X018566Y010187D01*
X018712Y010187D01*
X018749Y010224D01*
X018712Y010629D02*
X018676Y010629D01*
X018639Y010666D01*
X018639Y010739D01*
X018676Y010776D01*
X018712Y010776D01*
X018749Y010739D01*
X018749Y010666D01*
X018712Y010629D01*
X018639Y010666D02*
X018602Y010629D01*
X018566Y010629D01*
X018529Y010666D01*
X018529Y010739D01*
X018566Y010776D01*
X018602Y010776D01*
X018639Y010739D01*
X017494Y009555D02*
X017531Y009518D01*
X017531Y009481D01*
X017494Y009445D01*
X017531Y009408D01*
X017531Y009371D01*
X017494Y009334D01*
X017421Y009334D01*
X017384Y009371D01*
X017310Y009371D02*
X017273Y009334D01*
X017200Y009334D01*
X017163Y009371D01*
X017163Y009518D01*
X017200Y009555D01*
X017273Y009555D01*
X017310Y009518D01*
X017384Y009518D02*
X017421Y009555D01*
X017494Y009555D01*
X017494Y009445D02*
X017457Y009445D01*
X016556Y009425D02*
X016409Y009425D01*
X016519Y009535D01*
X016519Y009315D01*
X016335Y009351D02*
X016299Y009315D01*
X016225Y009315D01*
X016188Y009351D01*
X016188Y009498D01*
X016225Y009535D01*
X016299Y009535D01*
X016335Y009498D01*
X015760Y009752D02*
X015760Y009972D01*
X015650Y009862D01*
X015796Y009862D01*
X015575Y009752D02*
X015429Y009752D01*
X015502Y009752D02*
X015502Y009972D01*
X015429Y009899D01*
X015354Y009972D02*
X015354Y009788D01*
X015318Y009752D01*
X015244Y009752D01*
X015208Y009788D01*
X015208Y009972D01*
X014103Y010372D02*
X014103Y010445D01*
X014067Y010482D01*
X014103Y010556D02*
X013957Y010703D01*
X013920Y010703D01*
X013883Y010666D01*
X013883Y010593D01*
X013920Y010556D01*
X013920Y010482D02*
X013883Y010445D01*
X013883Y010372D01*
X013920Y010335D01*
X014067Y010335D01*
X014103Y010372D01*
X014103Y010556D02*
X014103Y010703D01*
X014103Y010777D02*
X014067Y010777D01*
X013920Y010924D01*
X013883Y010924D01*
X013883Y010777D01*
X013224Y009592D02*
X013224Y009372D01*
X013151Y009372D02*
X013297Y009372D01*
X013151Y009519D02*
X013224Y009592D01*
X013076Y009556D02*
X013040Y009592D01*
X012966Y009592D01*
X012930Y009556D01*
X012930Y009409D01*
X012966Y009372D01*
X013040Y009372D01*
X013076Y009409D01*
X011929Y009382D02*
X011782Y009382D01*
X011929Y009529D01*
X011929Y009565D01*
X011892Y009602D01*
X011819Y009602D01*
X011782Y009565D01*
X011708Y009565D02*
X011671Y009602D01*
X011598Y009602D01*
X011561Y009565D01*
X011561Y009419D01*
X011598Y009382D01*
X011671Y009382D01*
X011708Y009419D01*
X011239Y009838D02*
X011203Y009801D01*
X011129Y009801D01*
X011093Y009838D01*
X011018Y009801D02*
X010872Y009801D01*
X010945Y009801D02*
X010945Y010021D01*
X010872Y009948D01*
X010797Y010021D02*
X010797Y009838D01*
X010761Y009801D01*
X010687Y009801D01*
X010651Y009838D01*
X010651Y010021D01*
X011093Y009984D02*
X011129Y010021D01*
X011203Y010021D01*
X011239Y009984D01*
X011239Y009948D01*
X011203Y009911D01*
X011239Y009874D01*
X011239Y009838D01*
X011203Y009911D02*
X011166Y009911D01*
X007866Y013307D02*
X007719Y013307D01*
X007682Y013344D01*
X007682Y013417D01*
X007719Y013454D01*
X007682Y013528D02*
X007792Y013528D01*
X007756Y013602D01*
X007756Y013638D01*
X007792Y013675D01*
X007866Y013675D01*
X007903Y013638D01*
X007903Y013565D01*
X007866Y013528D01*
X007866Y013454D02*
X007903Y013417D01*
X007903Y013344D01*
X007866Y013307D01*
X007682Y013528D02*
X007682Y013675D01*
X007719Y013749D02*
X007756Y013749D01*
X007792Y013786D01*
X007792Y013896D01*
X007719Y013896D02*
X007682Y013859D01*
X007682Y013786D01*
X007719Y013749D01*
X007866Y013749D02*
X007903Y013786D01*
X007903Y013859D01*
X007866Y013896D01*
X007719Y013896D01*
X006892Y012871D02*
X006819Y012871D01*
X006782Y012834D01*
X006782Y012798D01*
X006819Y012761D01*
X006929Y012761D01*
X006929Y012688D02*
X006929Y012834D01*
X006892Y012871D01*
X006708Y012871D02*
X006708Y012688D01*
X006671Y012651D01*
X006598Y012651D01*
X006561Y012688D01*
X006561Y012871D01*
X006782Y012688D02*
X006819Y012651D01*
X006892Y012651D01*
X006929Y012688D01*
X006011Y012798D02*
X006011Y012872D01*
X005974Y012908D01*
X006011Y012983D02*
X005864Y013129D01*
X005827Y013129D01*
X005791Y013093D01*
X005791Y013019D01*
X005827Y012983D01*
X005827Y012908D02*
X005791Y012872D01*
X005791Y012798D01*
X005827Y012762D01*
X005974Y012762D01*
X006011Y012798D01*
X006011Y012983D02*
X006011Y013129D01*
X006011Y013204D02*
X005864Y013350D01*
X005827Y013350D01*
X005791Y013314D01*
X005791Y013240D01*
X005827Y013204D01*
X006011Y013204D02*
X006011Y013350D01*
X005338Y013298D02*
X005338Y013225D01*
X005301Y013188D01*
X005338Y013114D02*
X005338Y012967D01*
X005191Y013114D01*
X005154Y013114D01*
X005118Y013077D01*
X005118Y013004D01*
X005154Y012967D01*
X005154Y012893D02*
X005118Y012856D01*
X005118Y012783D01*
X005154Y012746D01*
X005301Y012746D01*
X005338Y012783D01*
X005338Y012856D01*
X005301Y012893D01*
X005154Y013188D02*
X005118Y013225D01*
X005118Y013298D01*
X005154Y013335D01*
X005191Y013335D01*
X005228Y013298D01*
X005264Y013335D01*
X005301Y013335D01*
X005338Y013298D01*
X005228Y013298D02*
X005228Y013261D01*
X005001Y011923D02*
X005147Y011776D01*
X005184Y011776D01*
X005184Y011666D02*
X004964Y011666D01*
X005074Y011555D01*
X005074Y011702D01*
X004964Y011776D02*
X004964Y011923D01*
X005001Y011923D01*
X005001Y011481D02*
X005074Y011481D01*
X005111Y011445D01*
X005111Y011334D01*
X005184Y011334D02*
X004964Y011334D01*
X004964Y011445D01*
X005001Y011481D01*
X005111Y011408D02*
X005184Y011481D01*
X005175Y015128D02*
X005102Y015128D01*
X005065Y015164D01*
X004991Y015164D02*
X004954Y015128D01*
X004881Y015128D01*
X004844Y015164D01*
X004844Y015311D01*
X004881Y015348D01*
X004954Y015348D01*
X004991Y015311D01*
X004991Y015164D01*
X004991Y015128D02*
X004917Y015201D01*
X005065Y015311D02*
X005102Y015348D01*
X005175Y015348D01*
X005212Y015311D01*
X005212Y015275D01*
X005175Y015238D01*
X005212Y015201D01*
X005212Y015164D01*
X005175Y015128D01*
X005175Y015238D02*
X005138Y015238D01*
X005170Y016842D02*
X004950Y016842D01*
X005170Y016842D02*
X005170Y016989D01*
X005170Y017063D02*
X005170Y017210D01*
X005170Y017284D02*
X005170Y017394D01*
X005134Y017431D01*
X004987Y017431D01*
X004950Y017394D01*
X004950Y017284D01*
X005170Y017284D01*
X005060Y017137D02*
X005060Y017063D01*
X004950Y017063D02*
X005170Y017063D01*
X004950Y017063D02*
X004950Y017210D01*
X004987Y017505D02*
X004950Y017542D01*
X004950Y017615D01*
X004987Y017652D01*
X005024Y017652D01*
X005060Y017615D01*
X005097Y017652D01*
X005134Y017652D01*
X005170Y017615D01*
X005170Y017542D01*
X005134Y017505D01*
X005060Y017579D02*
X005060Y017615D01*
X005033Y017929D02*
X005033Y018039D01*
X005070Y018076D01*
X005143Y018076D01*
X005180Y018039D01*
X005180Y017929D01*
X005253Y017929D02*
X005033Y017929D01*
X005180Y018002D02*
X005253Y018076D01*
X005143Y018150D02*
X005033Y018260D01*
X005253Y018260D01*
X005143Y018297D02*
X005143Y018150D01*
X005143Y018371D02*
X005143Y018481D01*
X005180Y018518D01*
X005216Y018518D01*
X005253Y018481D01*
X005253Y018408D01*
X005216Y018371D01*
X005143Y018371D01*
X005070Y018444D01*
X005033Y018518D01*
X005787Y017927D02*
X005787Y017780D01*
X005897Y017780D01*
X005860Y017854D01*
X005860Y017890D01*
X005897Y017927D01*
X005970Y017927D01*
X006007Y017890D01*
X006007Y017817D01*
X005970Y017780D01*
X006007Y017706D02*
X006007Y017559D01*
X006007Y017633D02*
X005787Y017633D01*
X005860Y017559D01*
X005824Y017485D02*
X005897Y017485D01*
X005934Y017449D01*
X005934Y017338D01*
X006007Y017338D02*
X005787Y017338D01*
X005787Y017449D01*
X005824Y017485D01*
X005934Y017412D02*
X006007Y017485D01*
X007163Y016248D02*
X007273Y016248D01*
X007310Y016211D01*
X007310Y016137D01*
X007273Y016101D01*
X007163Y016101D01*
X007236Y016101D02*
X007310Y016027D01*
X007384Y016064D02*
X007421Y016027D01*
X007494Y016027D01*
X007531Y016064D01*
X007531Y016101D01*
X007494Y016137D01*
X007457Y016137D01*
X007494Y016137D02*
X007531Y016174D01*
X007531Y016211D01*
X007494Y016248D01*
X007421Y016248D01*
X007384Y016211D01*
X007605Y016211D02*
X007641Y016248D01*
X007715Y016248D01*
X007752Y016211D01*
X007752Y016174D01*
X007605Y016027D01*
X007752Y016027D01*
X007163Y016027D02*
X007163Y016248D01*
X007572Y018497D02*
X007645Y018497D01*
X007682Y018534D01*
X007682Y018718D01*
X007756Y018681D02*
X007756Y018644D01*
X007793Y018608D01*
X007866Y018608D01*
X007903Y018571D01*
X007903Y018534D01*
X007866Y018497D01*
X007793Y018497D01*
X007756Y018534D01*
X007756Y018571D01*
X007793Y018608D01*
X007866Y018608D02*
X007903Y018644D01*
X007903Y018681D01*
X007866Y018718D01*
X007793Y018718D01*
X007756Y018681D01*
X007535Y018718D02*
X007535Y018534D01*
X007572Y018497D01*
X007577Y019884D02*
X007540Y019921D01*
X007540Y019957D01*
X007577Y019994D01*
X007650Y019994D01*
X007687Y019957D01*
X007687Y019921D01*
X007650Y019884D01*
X007577Y019884D01*
X007577Y019994D02*
X007540Y020031D01*
X007540Y020067D01*
X007577Y020104D01*
X007650Y020104D01*
X007687Y020067D01*
X007687Y020031D01*
X007650Y019994D01*
X007466Y019994D02*
X007466Y019921D01*
X007429Y019884D01*
X007356Y019884D01*
X007319Y019921D01*
X007319Y019994D02*
X007393Y020031D01*
X007429Y020031D01*
X007466Y019994D01*
X007466Y020104D02*
X007319Y020104D01*
X007319Y019994D01*
X007245Y020067D02*
X007208Y020104D01*
X007135Y020104D01*
X007098Y020067D01*
X007098Y019921D01*
X007135Y019884D01*
X007208Y019884D01*
X007245Y019921D01*
X005964Y019872D02*
X005964Y019725D01*
X005817Y019872D01*
X005780Y019872D01*
X005744Y019835D01*
X005744Y019761D01*
X005780Y019725D01*
X005780Y019651D02*
X005744Y019614D01*
X005744Y019540D01*
X005780Y019504D01*
X005927Y019504D01*
X005964Y019540D01*
X005964Y019614D01*
X005927Y019651D01*
X005927Y019946D02*
X005780Y020093D01*
X005927Y020093D01*
X005964Y020056D01*
X005964Y019982D01*
X005927Y019946D01*
X005780Y019946D01*
X005744Y019982D01*
X005744Y020056D01*
X005780Y020093D01*
X005420Y020093D02*
X005420Y019946D01*
X005420Y020019D02*
X005200Y020019D01*
X005274Y019946D01*
X005274Y019872D02*
X005237Y019872D01*
X005200Y019835D01*
X005200Y019761D01*
X005237Y019725D01*
X005237Y019651D02*
X005200Y019614D01*
X005200Y019540D01*
X005237Y019504D01*
X005384Y019504D01*
X005420Y019540D01*
X005420Y019614D01*
X005384Y019651D01*
X005420Y019725D02*
X005274Y019872D01*
X005420Y019872D02*
X005420Y019725D01*
X007308Y021240D02*
X007308Y021351D01*
X007345Y021387D01*
X007418Y021387D01*
X007455Y021351D01*
X007455Y021240D01*
X007529Y021240D02*
X007308Y021240D01*
X007455Y021314D02*
X007529Y021387D01*
X007492Y021461D02*
X007529Y021498D01*
X007529Y021571D01*
X007492Y021608D01*
X007455Y021608D01*
X007418Y021571D01*
X007418Y021535D01*
X007418Y021571D02*
X007382Y021608D01*
X007345Y021608D01*
X007308Y021571D01*
X007308Y021498D01*
X007345Y021461D01*
X007382Y021682D02*
X007308Y021756D01*
X007529Y021756D01*
X007529Y021829D02*
X007529Y021682D01*
X006137Y022884D02*
X005990Y022884D01*
X006137Y023030D01*
X006137Y023067D01*
X006100Y023104D01*
X006027Y023104D01*
X005990Y023067D01*
X005916Y023067D02*
X005916Y022920D01*
X005879Y022884D01*
X005806Y022884D01*
X005769Y022920D01*
X005769Y023067D01*
X005806Y023104D01*
X005879Y023104D01*
X005916Y023067D01*
X005843Y022957D02*
X005916Y022884D01*
X005220Y023397D02*
X005220Y023544D01*
X005220Y023618D02*
X005220Y023765D01*
X005220Y023839D02*
X005220Y023950D01*
X005183Y023986D01*
X005036Y023986D01*
X004999Y023950D01*
X004999Y023839D01*
X005220Y023839D01*
X005110Y023692D02*
X005110Y023618D01*
X005220Y023618D02*
X004999Y023618D01*
X004999Y023765D01*
X005036Y024060D02*
X004999Y024097D01*
X004999Y024171D01*
X005036Y024207D01*
X005073Y024207D01*
X005220Y024060D01*
X005220Y024207D01*
X005253Y024612D02*
X005033Y024612D01*
X005033Y024722D01*
X005070Y024759D01*
X005143Y024759D01*
X005180Y024722D01*
X005180Y024612D01*
X005180Y024685D02*
X005253Y024759D01*
X005143Y024833D02*
X005143Y024980D01*
X005106Y025054D02*
X005070Y025054D01*
X005033Y025091D01*
X005033Y025164D01*
X005070Y025201D01*
X005106Y025201D01*
X005143Y025164D01*
X005143Y025091D01*
X005106Y025054D01*
X005143Y025091D02*
X005180Y025054D01*
X005216Y025054D01*
X005253Y025091D01*
X005253Y025164D01*
X005216Y025201D01*
X005180Y025201D01*
X005143Y025164D01*
X005033Y024943D02*
X005143Y024833D01*
X005253Y024943D02*
X005033Y024943D01*
X005814Y024509D02*
X005814Y024289D01*
X005814Y024363D02*
X005924Y024363D01*
X005961Y024399D01*
X005961Y024473D01*
X005924Y024509D01*
X005814Y024509D01*
X005888Y024363D02*
X005961Y024289D01*
X006035Y024289D02*
X006182Y024289D01*
X006109Y024289D02*
X006109Y024509D01*
X006035Y024436D01*
X006256Y024399D02*
X006366Y024399D01*
X006403Y024363D01*
X006403Y024326D01*
X006366Y024289D01*
X006293Y024289D01*
X006256Y024326D01*
X006256Y024399D01*
X006330Y024473D01*
X006403Y024509D01*
X007634Y025148D02*
X007670Y025112D01*
X007744Y025112D01*
X007780Y025148D01*
X007780Y025332D01*
X007855Y025332D02*
X008001Y025332D01*
X008001Y025295D01*
X007855Y025148D01*
X007855Y025112D01*
X007634Y025148D02*
X007634Y025332D01*
X008305Y025387D02*
X008341Y025351D01*
X008305Y025387D02*
X008305Y025461D01*
X008341Y025498D01*
X008378Y025498D01*
X008525Y025351D01*
X008525Y025498D01*
X008488Y025572D02*
X008525Y025608D01*
X008525Y025682D01*
X008488Y025719D01*
X008341Y025719D01*
X008305Y025682D01*
X008305Y025608D01*
X008341Y025572D01*
X008378Y025572D01*
X008415Y025608D01*
X008415Y025719D01*
X008895Y025666D02*
X008932Y025703D01*
X008969Y025703D01*
X009005Y025666D01*
X009005Y025593D01*
X008969Y025556D01*
X008932Y025556D01*
X008895Y025593D01*
X008895Y025666D01*
X009005Y025666D02*
X009042Y025703D01*
X009079Y025703D01*
X009115Y025666D01*
X009115Y025593D01*
X009079Y025556D01*
X009042Y025556D01*
X009005Y025593D01*
X008969Y025482D02*
X008932Y025482D01*
X008895Y025445D01*
X008895Y025372D01*
X008932Y025335D01*
X008932Y025261D02*
X009005Y025261D01*
X009042Y025224D01*
X009042Y025114D01*
X009115Y025114D02*
X008895Y025114D01*
X008895Y025224D01*
X008932Y025261D01*
X009042Y025187D02*
X009115Y025261D01*
X009115Y025335D02*
X008969Y025482D01*
X009115Y025482D02*
X009115Y025335D01*
X009427Y025387D02*
X009463Y025351D01*
X009427Y025387D02*
X009427Y025461D01*
X009463Y025498D01*
X009500Y025498D01*
X009647Y025351D01*
X009647Y025498D01*
X009610Y025572D02*
X009647Y025608D01*
X009647Y025682D01*
X009610Y025719D01*
X009537Y025719D01*
X009500Y025682D01*
X009500Y025645D01*
X009537Y025572D01*
X009427Y025572D01*
X009427Y025719D01*
X009875Y025703D02*
X009912Y025629D01*
X009986Y025556D01*
X009986Y025666D01*
X010022Y025703D01*
X010059Y025703D01*
X010096Y025666D01*
X010096Y025593D01*
X010059Y025556D01*
X009986Y025556D01*
X009949Y025482D02*
X009912Y025482D01*
X009875Y025445D01*
X009875Y025372D01*
X009912Y025335D01*
X009912Y025261D02*
X009986Y025261D01*
X010022Y025224D01*
X010022Y025114D01*
X010022Y025187D02*
X010096Y025261D01*
X010096Y025335D02*
X009949Y025482D01*
X010096Y025482D02*
X010096Y025335D01*
X009912Y025261D02*
X009875Y025224D01*
X009875Y025114D01*
X010096Y025114D01*
X010387Y025114D02*
X010387Y025224D01*
X010424Y025261D01*
X010497Y025261D01*
X010534Y025224D01*
X010534Y025114D01*
X010534Y025187D02*
X010607Y025261D01*
X010607Y025335D02*
X010461Y025482D01*
X010424Y025482D01*
X010387Y025445D01*
X010387Y025372D01*
X010424Y025335D01*
X010607Y025335D02*
X010607Y025482D01*
X010607Y025556D02*
X010571Y025556D01*
X010424Y025703D01*
X010387Y025703D01*
X010387Y025556D01*
X010431Y025866D02*
X010431Y025976D01*
X010467Y026013D01*
X010614Y026013D01*
X010651Y025976D01*
X010651Y025866D01*
X010431Y025866D01*
X010467Y026087D02*
X010431Y026124D01*
X010431Y026197D01*
X010467Y026234D01*
X010504Y026234D01*
X010541Y026197D01*
X010577Y026234D01*
X010614Y026234D01*
X010651Y026197D01*
X010651Y026124D01*
X010614Y026087D01*
X010541Y026160D02*
X010541Y026197D01*
X010902Y025695D02*
X011049Y025548D01*
X011086Y025585D01*
X011086Y025658D01*
X011049Y025695D01*
X010902Y025695D01*
X010866Y025658D01*
X010866Y025585D01*
X010902Y025548D01*
X011049Y025548D01*
X011049Y025474D02*
X011086Y025437D01*
X011086Y025364D01*
X011049Y025327D01*
X011086Y025253D02*
X011012Y025180D01*
X011012Y025216D02*
X011012Y025106D01*
X011086Y025106D02*
X010866Y025106D01*
X010866Y025216D01*
X010902Y025253D01*
X010976Y025253D01*
X011012Y025216D01*
X010902Y025327D02*
X010866Y025364D01*
X010866Y025437D01*
X010902Y025474D01*
X010939Y025474D01*
X010976Y025437D01*
X011012Y025474D01*
X011049Y025474D01*
X010976Y025437D02*
X010976Y025401D01*
X010607Y025114D02*
X010387Y025114D01*
X009647Y025130D02*
X009427Y025130D01*
X009427Y025240D01*
X009463Y025277D01*
X009537Y025277D01*
X009573Y025240D01*
X009573Y025130D01*
X009573Y025203D02*
X009647Y025277D01*
X008525Y025277D02*
X008451Y025203D01*
X008451Y025240D02*
X008451Y025130D01*
X008525Y025130D02*
X008305Y025130D01*
X008305Y025240D01*
X008341Y025277D01*
X008415Y025277D01*
X008451Y025240D01*
X007096Y026699D02*
X006950Y026699D01*
X006913Y026735D01*
X006913Y026809D01*
X006950Y026845D01*
X006913Y026920D02*
X007023Y026920D01*
X006986Y026993D01*
X006986Y027030D01*
X007023Y027066D01*
X007096Y027066D01*
X007133Y027030D01*
X007133Y026956D01*
X007096Y026920D01*
X007096Y026845D02*
X007133Y026809D01*
X007133Y026735D01*
X007096Y026699D01*
X006913Y026920D02*
X006913Y027066D01*
X006913Y027141D02*
X006913Y027287D01*
X006950Y027287D01*
X007096Y027141D01*
X007133Y027141D01*
X007081Y027756D02*
X006934Y027756D01*
X006897Y027792D01*
X006897Y027866D01*
X006934Y027903D01*
X007081Y027903D01*
X007117Y027866D01*
X007117Y027792D01*
X007081Y027756D01*
X007044Y027829D02*
X007117Y027903D01*
X007117Y027977D02*
X007117Y028124D01*
X007117Y028050D02*
X006897Y028050D01*
X006970Y027977D01*
X007030Y028490D02*
X007030Y028600D01*
X006993Y028637D01*
X006920Y028637D01*
X006883Y028600D01*
X006883Y028490D01*
X007103Y028490D01*
X007030Y028563D02*
X007103Y028637D01*
X007067Y028711D02*
X007103Y028748D01*
X007103Y028821D01*
X007067Y028858D01*
X007030Y028858D01*
X006993Y028821D01*
X006993Y028784D01*
X006993Y028821D02*
X006957Y028858D01*
X006920Y028858D01*
X006883Y028821D01*
X006883Y028748D01*
X006920Y028711D01*
X006883Y028932D02*
X006883Y029079D01*
X006920Y029079D01*
X007067Y028932D01*
X007103Y028932D01*
X008826Y030306D02*
X008973Y030526D01*
X009047Y030489D02*
X009047Y030453D01*
X009084Y030416D01*
X009194Y030416D01*
X009194Y030489D02*
X009194Y030342D01*
X009157Y030306D01*
X009084Y030306D01*
X009047Y030342D01*
X008973Y030306D02*
X008826Y030526D01*
X009047Y030489D02*
X009084Y030526D01*
X009157Y030526D01*
X009194Y030489D01*
X010501Y030371D02*
X010538Y030407D01*
X010575Y030407D01*
X010611Y030371D01*
X010648Y030407D01*
X010685Y030407D01*
X010722Y030371D01*
X010722Y030297D01*
X010685Y030261D01*
X010722Y030186D02*
X010722Y030040D01*
X010722Y030113D02*
X010501Y030113D01*
X010575Y030040D01*
X010538Y029966D02*
X010611Y029966D01*
X010648Y029929D01*
X010648Y029819D01*
X010648Y029892D02*
X010722Y029966D01*
X010722Y029819D02*
X010501Y029819D01*
X010501Y029929D01*
X010538Y029966D01*
X010538Y030261D02*
X010501Y030297D01*
X010501Y030371D01*
X010611Y030371D02*
X010611Y030334D01*
X010584Y029504D02*
X010511Y029504D01*
X010474Y029467D01*
X010474Y029320D01*
X010511Y029283D01*
X010584Y029283D01*
X010621Y029320D01*
X010695Y029283D02*
X010842Y029283D01*
X010769Y029283D02*
X010769Y029504D01*
X010695Y029430D01*
X010621Y029467D02*
X010584Y029504D01*
X010916Y029394D02*
X011063Y029394D01*
X011026Y029504D02*
X011026Y029283D01*
X010916Y029394D02*
X011026Y029504D01*
X012547Y030325D02*
X012693Y030546D01*
X012768Y030509D02*
X012768Y030472D01*
X012804Y030436D01*
X012878Y030436D01*
X012914Y030399D01*
X012914Y030362D01*
X012878Y030325D01*
X012804Y030325D01*
X012768Y030362D01*
X012768Y030399D01*
X012804Y030436D01*
X012878Y030436D02*
X012914Y030472D01*
X012914Y030509D01*
X012878Y030546D01*
X012804Y030546D01*
X012768Y030509D01*
X012693Y030325D02*
X012547Y030546D01*
X014121Y029508D02*
X014121Y029361D01*
X014158Y029325D01*
X014232Y029325D01*
X014268Y029361D01*
X014342Y029325D02*
X014489Y029325D01*
X014416Y029325D02*
X014416Y029545D01*
X014342Y029471D01*
X014268Y029508D02*
X014232Y029545D01*
X014158Y029545D01*
X014121Y029508D01*
X014212Y029779D02*
X014212Y029889D01*
X014249Y029926D01*
X014322Y029926D01*
X014359Y029889D01*
X014359Y029779D01*
X014432Y029779D02*
X014212Y029779D01*
X014359Y029853D02*
X014432Y029926D01*
X014432Y030000D02*
X014432Y030147D01*
X014432Y030074D02*
X014212Y030074D01*
X014285Y030000D01*
X014212Y030221D02*
X014212Y030368D01*
X014249Y030368D01*
X014396Y030221D01*
X014432Y030221D01*
X014563Y029545D02*
X014563Y029435D01*
X014637Y029471D01*
X014674Y029471D01*
X014710Y029435D01*
X014710Y029361D01*
X014674Y029325D01*
X014600Y029325D01*
X014563Y029361D01*
X014563Y029545D02*
X014710Y029545D01*
X014144Y028902D02*
X013997Y028902D01*
X013960Y028865D01*
X013960Y028791D01*
X013997Y028755D01*
X014033Y028755D01*
X014070Y028791D01*
X014070Y028902D01*
X014144Y028902D02*
X014180Y028865D01*
X014180Y028791D01*
X014144Y028755D01*
X014144Y028681D02*
X014180Y028644D01*
X014180Y028571D01*
X014144Y028534D01*
X014180Y028460D02*
X014107Y028386D01*
X014107Y028423D02*
X014107Y028313D01*
X014180Y028313D02*
X013960Y028313D01*
X013960Y028423D01*
X013997Y028460D01*
X014070Y028460D01*
X014107Y028423D01*
X013997Y028534D02*
X013960Y028571D01*
X013960Y028644D01*
X013997Y028681D01*
X014033Y028681D01*
X014070Y028644D01*
X014107Y028681D01*
X014144Y028681D01*
X014070Y028644D02*
X014070Y028607D01*
X014473Y027872D02*
X014436Y027835D01*
X014436Y027688D01*
X014473Y027651D01*
X014547Y027651D01*
X014583Y027688D01*
X014657Y027761D02*
X014804Y027761D01*
X014878Y027761D02*
X014952Y027798D01*
X014989Y027798D01*
X015025Y027761D01*
X015025Y027688D01*
X014989Y027651D01*
X014915Y027651D01*
X014878Y027688D01*
X014878Y027761D02*
X014878Y027872D01*
X015025Y027872D01*
X014768Y027872D02*
X014768Y027651D01*
X014657Y027761D02*
X014768Y027872D01*
X014583Y027835D02*
X014547Y027872D01*
X014473Y027872D01*
X016287Y030345D02*
X016434Y030565D01*
X016508Y030565D02*
X016655Y030565D01*
X016655Y030529D01*
X016508Y030382D01*
X016508Y030345D01*
X016434Y030345D02*
X016287Y030565D01*
X017972Y030090D02*
X018008Y030126D01*
X018045Y030126D01*
X018082Y030090D01*
X018082Y030016D01*
X018045Y029980D01*
X018008Y029980D01*
X017972Y030016D01*
X017972Y030090D01*
X018082Y030090D02*
X018119Y030126D01*
X018155Y030126D01*
X018192Y030090D01*
X018192Y030016D01*
X018155Y029980D01*
X018119Y029980D01*
X018082Y030016D01*
X018192Y029905D02*
X018192Y029759D01*
X018192Y029832D02*
X017972Y029832D01*
X018045Y029759D01*
X018008Y029684D02*
X018082Y029684D01*
X018119Y029648D01*
X018119Y029538D01*
X018142Y029585D02*
X018142Y029438D01*
X018178Y029402D01*
X018252Y029402D01*
X018288Y029438D01*
X018363Y029402D02*
X018509Y029402D01*
X018436Y029402D02*
X018436Y029622D01*
X018363Y029548D01*
X018288Y029585D02*
X018252Y029622D01*
X018178Y029622D01*
X018142Y029585D01*
X018119Y029611D02*
X018192Y029684D01*
X018192Y029538D02*
X017972Y029538D01*
X017972Y029648D01*
X018008Y029684D01*
X018584Y029512D02*
X018584Y029438D01*
X018620Y029402D01*
X018694Y029402D01*
X018730Y029438D01*
X018730Y029475D01*
X018694Y029512D01*
X018584Y029512D01*
X018657Y029585D01*
X018730Y029622D01*
X018009Y028993D02*
X018009Y028919D01*
X017972Y028883D01*
X017826Y029030D01*
X017972Y029030D01*
X018009Y028993D01*
X017972Y028883D02*
X017826Y028883D01*
X017789Y028919D01*
X017789Y028993D01*
X017826Y029030D01*
X017899Y028809D02*
X017899Y028662D01*
X017789Y028772D01*
X018009Y028772D01*
X018009Y028588D02*
X017936Y028514D01*
X017936Y028551D02*
X017936Y028441D01*
X018009Y028441D02*
X017789Y028441D01*
X017789Y028551D01*
X017826Y028588D01*
X017899Y028588D01*
X017936Y028551D01*
X018154Y028009D02*
X018118Y027973D01*
X018118Y027826D01*
X018154Y027789D01*
X018228Y027789D01*
X018264Y027826D01*
X018339Y027899D02*
X018485Y027899D01*
X018560Y027899D02*
X018670Y027899D01*
X018706Y027863D01*
X018706Y027826D01*
X018670Y027789D01*
X018596Y027789D01*
X018560Y027826D01*
X018560Y027899D01*
X018633Y027973D01*
X018706Y028009D01*
X018449Y028009D02*
X018339Y027899D01*
X018264Y027973D02*
X018228Y028009D01*
X018154Y028009D01*
X018449Y028009D02*
X018449Y027789D01*
X018388Y025647D02*
X018388Y025537D01*
X018461Y025574D01*
X018498Y025574D01*
X018535Y025537D01*
X018535Y025464D01*
X018498Y025427D01*
X018424Y025427D01*
X018388Y025464D01*
X018314Y025464D02*
X018277Y025427D01*
X018203Y025427D01*
X018167Y025464D01*
X018167Y025610D01*
X018203Y025647D01*
X018277Y025647D01*
X018314Y025610D01*
X018388Y025647D02*
X018535Y025647D01*
X018609Y025537D02*
X018756Y025537D01*
X018719Y025427D02*
X018719Y025647D01*
X018609Y025537D01*
X019338Y024813D02*
X019338Y024666D01*
X019375Y024630D01*
X019448Y024630D01*
X019485Y024666D01*
X019559Y024666D02*
X019596Y024630D01*
X019669Y024630D01*
X019706Y024666D01*
X019706Y024740D01*
X019669Y024777D01*
X019632Y024777D01*
X019559Y024740D01*
X019559Y024850D01*
X019706Y024850D01*
X019780Y024740D02*
X019890Y024740D01*
X019927Y024703D01*
X019927Y024666D01*
X019890Y024630D01*
X019817Y024630D01*
X019780Y024666D01*
X019780Y024740D01*
X019853Y024813D01*
X019927Y024850D01*
X020283Y024870D02*
X020283Y024649D01*
X020283Y024723D02*
X020393Y024723D01*
X020430Y024760D01*
X020430Y024833D01*
X020393Y024870D01*
X020283Y024870D01*
X020356Y024723D02*
X020430Y024649D01*
X020504Y024760D02*
X020651Y024760D01*
X020725Y024760D02*
X020872Y024760D01*
X020835Y024870D02*
X020725Y024760D01*
X020835Y024870D02*
X020835Y024649D01*
X020614Y024649D02*
X020614Y024870D01*
X020504Y024760D01*
X019485Y024813D02*
X019448Y024850D01*
X019375Y024850D01*
X019338Y024813D01*
X020194Y023610D02*
X020304Y023610D01*
X020341Y023573D01*
X020341Y023500D01*
X020304Y023463D01*
X020194Y023463D01*
X020194Y023390D02*
X020194Y023610D01*
X020268Y023463D02*
X020341Y023390D01*
X020415Y023500D02*
X020562Y023500D01*
X020636Y023573D02*
X020673Y023610D01*
X020746Y023610D01*
X020783Y023573D01*
X020783Y023536D01*
X020636Y023390D01*
X020783Y023390D01*
X020525Y023390D02*
X020525Y023610D01*
X020415Y023500D01*
X019592Y023012D02*
X019592Y022975D01*
X019555Y022939D01*
X019592Y022902D01*
X019592Y022865D01*
X019555Y022829D01*
X019482Y022829D01*
X019445Y022865D01*
X019519Y022939D02*
X019555Y022939D01*
X019592Y023012D02*
X019555Y023049D01*
X019482Y023049D01*
X019445Y023012D01*
X019371Y022939D02*
X019224Y022939D01*
X019334Y023049D01*
X019334Y022829D01*
X019150Y022829D02*
X019077Y022902D01*
X019113Y022902D02*
X019003Y022902D01*
X019003Y022829D02*
X019003Y023049D01*
X019113Y023049D01*
X019150Y023012D01*
X019150Y022939D01*
X019113Y022902D01*
X019108Y022311D02*
X019071Y022311D01*
X019034Y022274D01*
X019034Y022164D01*
X019108Y022164D01*
X019144Y022200D01*
X019144Y022274D01*
X019108Y022311D01*
X018961Y022237D02*
X018924Y022311D01*
X018961Y022237D02*
X019034Y022164D01*
X018961Y022090D02*
X019108Y022090D01*
X019144Y022053D01*
X019144Y021979D01*
X019108Y021943D01*
X018961Y021943D01*
X018924Y021979D01*
X018924Y022053D01*
X018961Y022090D01*
X019071Y022016D02*
X019144Y022090D01*
X017354Y020742D02*
X017354Y020706D01*
X017317Y020669D01*
X017354Y020632D01*
X017354Y020596D01*
X017317Y020559D01*
X017244Y020559D01*
X017207Y020596D01*
X017133Y020596D02*
X017096Y020559D01*
X017023Y020559D01*
X016986Y020596D01*
X016986Y020669D02*
X017060Y020706D01*
X017096Y020706D01*
X017133Y020669D01*
X017133Y020596D01*
X016986Y020669D02*
X016986Y020779D01*
X017133Y020779D01*
X017207Y020742D02*
X017244Y020779D01*
X017317Y020779D01*
X017354Y020742D01*
X017317Y020669D02*
X017281Y020669D01*
X016912Y020596D02*
X016875Y020559D01*
X016802Y020559D01*
X016765Y020596D01*
X016765Y020742D01*
X016802Y020779D01*
X016875Y020779D01*
X016912Y020742D01*
X016904Y022894D02*
X016684Y022894D01*
X016904Y022894D02*
X016904Y023041D01*
X016904Y023115D02*
X016758Y023262D01*
X016721Y023262D01*
X016684Y023226D01*
X016684Y023152D01*
X016721Y023115D01*
X016904Y023115D02*
X016904Y023262D01*
X015634Y024713D02*
X015487Y024713D01*
X015634Y024859D01*
X015634Y024896D01*
X015597Y024933D01*
X015524Y024933D01*
X015487Y024896D01*
X015413Y024933D02*
X015266Y024933D01*
X015266Y024823D01*
X015340Y024859D01*
X015376Y024859D01*
X015413Y024823D01*
X015413Y024749D01*
X015376Y024713D01*
X015303Y024713D01*
X015266Y024749D01*
X015192Y024749D02*
X015155Y024713D01*
X015082Y024713D01*
X015045Y024749D01*
X015045Y024896D01*
X015082Y024933D01*
X015155Y024933D01*
X015192Y024896D01*
X016621Y025444D02*
X016658Y025407D01*
X016732Y025407D01*
X016768Y025444D01*
X016842Y025444D02*
X016879Y025407D01*
X016953Y025407D01*
X016989Y025444D01*
X016989Y025517D01*
X016953Y025554D01*
X016916Y025554D01*
X016842Y025517D01*
X016842Y025627D01*
X016989Y025627D01*
X017063Y025627D02*
X017063Y025517D01*
X017137Y025554D01*
X017174Y025554D01*
X017210Y025517D01*
X017210Y025444D01*
X017174Y025407D01*
X017100Y025407D01*
X017063Y025444D01*
X017063Y025627D02*
X017210Y025627D01*
X016768Y025591D02*
X016732Y025627D01*
X016658Y025627D01*
X016621Y025591D01*
X016621Y025444D01*
X012665Y023773D02*
X012665Y023553D01*
X012702Y023663D02*
X012555Y023663D01*
X012665Y023773D01*
X012481Y023736D02*
X012481Y023590D01*
X012444Y023553D01*
X012334Y023553D01*
X012334Y023773D01*
X012444Y023773D01*
X012481Y023736D01*
X012131Y023765D02*
X012094Y023802D01*
X012131Y023765D02*
X012131Y023692D01*
X012094Y023655D01*
X011948Y023655D01*
X011911Y023692D01*
X011911Y023765D01*
X011948Y023802D01*
X011984Y023876D02*
X011911Y023950D01*
X012131Y023950D01*
X012131Y024023D02*
X012131Y023876D01*
X012131Y024097D02*
X012094Y024097D01*
X011948Y024244D01*
X011911Y024244D01*
X011911Y024097D01*
X010997Y027650D02*
X010923Y027650D01*
X010887Y027686D01*
X010887Y027760D01*
X010997Y027760D01*
X011034Y027723D01*
X011034Y027686D01*
X010997Y027650D01*
X010887Y027760D02*
X010960Y027833D01*
X011034Y027870D01*
X010813Y027833D02*
X010776Y027870D01*
X010702Y027870D01*
X010666Y027833D01*
X010592Y027833D02*
X010555Y027870D01*
X010481Y027870D01*
X010445Y027833D01*
X010445Y027686D01*
X010481Y027650D01*
X010555Y027650D01*
X010592Y027686D01*
X010666Y027650D02*
X010813Y027796D01*
X010813Y027833D01*
X010813Y027650D02*
X010666Y027650D01*
X010074Y027737D02*
X010038Y027701D01*
X009964Y027701D01*
X009928Y027737D01*
X009928Y027774D01*
X009964Y027811D01*
X010038Y027811D01*
X010074Y027774D01*
X010074Y027737D01*
X010038Y027811D02*
X010074Y027847D01*
X010074Y027884D01*
X010038Y027921D01*
X009964Y027921D01*
X009928Y027884D01*
X009928Y027847D01*
X009964Y027811D01*
X009853Y027847D02*
X009817Y027811D01*
X009853Y027774D01*
X009853Y027737D01*
X009817Y027701D01*
X009743Y027701D01*
X009707Y027737D01*
X009632Y027701D02*
X009559Y027774D01*
X009596Y027774D02*
X009486Y027774D01*
X009486Y027701D02*
X009486Y027921D01*
X009596Y027921D01*
X009632Y027884D01*
X009632Y027811D01*
X009596Y027774D01*
X009707Y027884D02*
X009743Y027921D01*
X009817Y027921D01*
X009853Y027884D01*
X009853Y027847D01*
X009817Y027811D02*
X009780Y027811D01*
X006431Y026377D02*
X006321Y026267D01*
X006468Y026267D01*
X006431Y026157D02*
X006431Y026377D01*
X006247Y026341D02*
X006210Y026377D01*
X006137Y026377D01*
X006100Y026341D01*
X006026Y026341D02*
X005989Y026377D01*
X005916Y026377D01*
X005879Y026341D01*
X005879Y026194D01*
X005916Y026157D01*
X005989Y026157D01*
X006026Y026194D01*
X006100Y026157D02*
X006247Y026304D01*
X006247Y026341D01*
X006247Y026157D02*
X006100Y026157D01*
X005631Y026172D02*
X005595Y026136D01*
X005521Y026136D01*
X005485Y026172D01*
X005485Y026246D02*
X005558Y026282D01*
X005595Y026282D01*
X005631Y026246D01*
X005631Y026172D01*
X005485Y026246D02*
X005485Y026356D01*
X005631Y026356D01*
X005411Y026319D02*
X005374Y026356D01*
X005300Y026356D01*
X005264Y026319D01*
X005190Y026319D02*
X005153Y026356D01*
X005079Y026356D01*
X005043Y026319D01*
X005043Y026172D01*
X005079Y026136D01*
X005153Y026136D01*
X005190Y026172D01*
X005264Y026136D02*
X005411Y026282D01*
X005411Y026319D01*
X005411Y026136D02*
X005264Y026136D01*
X005220Y023397D02*
X004999Y023397D01*
X010226Y019763D02*
X010226Y019580D01*
X010263Y019543D01*
X010336Y019543D01*
X010373Y019580D01*
X010373Y019763D01*
X010447Y019690D02*
X010520Y019763D01*
X010520Y019543D01*
X010447Y019543D02*
X010594Y019543D01*
X010668Y019543D02*
X010815Y019543D01*
X010741Y019543D02*
X010741Y019763D01*
X010668Y019690D01*
X010237Y018320D02*
X010237Y018174D01*
X010091Y018320D01*
X010054Y018320D01*
X010017Y018284D01*
X010017Y018210D01*
X010054Y018174D01*
X010054Y018099D02*
X010017Y018063D01*
X010017Y017953D01*
X010237Y017953D01*
X010237Y018063D01*
X010201Y018099D01*
X010054Y018099D01*
X011250Y017956D02*
X011250Y017773D01*
X011286Y017736D01*
X011360Y017736D01*
X011396Y017773D01*
X011396Y017956D01*
X011471Y017883D02*
X011544Y017956D01*
X011544Y017736D01*
X011471Y017736D02*
X011617Y017736D01*
X012183Y018134D02*
X012183Y018354D01*
X012293Y018354D01*
X012329Y018317D01*
X012329Y018244D01*
X012293Y018207D01*
X012183Y018207D01*
X012256Y018207D02*
X012329Y018134D01*
X012404Y018134D02*
X012550Y018134D01*
X012477Y018134D02*
X012477Y018354D01*
X012404Y018280D01*
X012624Y018317D02*
X012661Y018354D01*
X012735Y018354D01*
X012771Y018317D01*
X012771Y018280D01*
X012624Y018134D01*
X012771Y018134D01*
X013458Y018222D02*
X013495Y018185D01*
X013568Y018185D01*
X013605Y018222D01*
X013679Y018295D02*
X013826Y018295D01*
X013900Y018332D02*
X013973Y018405D01*
X013973Y018185D01*
X013900Y018185D02*
X014047Y018185D01*
X013789Y018185D02*
X013789Y018405D01*
X013679Y018295D01*
X013605Y018368D02*
X013568Y018405D01*
X013495Y018405D01*
X013458Y018368D01*
X013458Y018222D01*
X015718Y018153D02*
X015718Y017970D01*
X015755Y017933D01*
X015828Y017933D01*
X015865Y017970D01*
X015865Y018153D01*
X015939Y018116D02*
X015976Y018153D01*
X016049Y018153D01*
X016086Y018116D01*
X016086Y018080D01*
X015939Y017933D01*
X016086Y017933D01*
X016730Y018271D02*
X016730Y018492D01*
X016840Y018492D01*
X016877Y018455D01*
X016877Y018382D01*
X016840Y018345D01*
X016730Y018345D01*
X016803Y018345D02*
X016877Y018271D01*
X016951Y018308D02*
X016987Y018271D01*
X017061Y018271D01*
X017098Y018308D01*
X017098Y018345D01*
X017061Y018382D01*
X017024Y018382D01*
X017061Y018382D02*
X017098Y018418D01*
X017098Y018455D01*
X017061Y018492D01*
X016987Y018492D01*
X016951Y018455D01*
X017172Y018492D02*
X017172Y018382D01*
X017245Y018418D01*
X017282Y018418D01*
X017319Y018382D01*
X017319Y018308D01*
X017282Y018271D01*
X017208Y018271D01*
X017172Y018308D01*
X017172Y018492D02*
X017319Y018492D01*
X017724Y018514D02*
X017724Y018367D01*
X017761Y018331D01*
X017834Y018331D01*
X017871Y018367D01*
X017945Y018441D02*
X018092Y018441D01*
X018166Y018514D02*
X018166Y018367D01*
X018313Y018514D01*
X018313Y018367D01*
X018276Y018331D01*
X018203Y018331D01*
X018166Y018367D01*
X018055Y018331D02*
X018055Y018551D01*
X017945Y018441D01*
X017871Y018514D02*
X017834Y018551D01*
X017761Y018551D01*
X017724Y018514D01*
X018166Y018514D02*
X018203Y018551D01*
X018276Y018551D01*
X018313Y018514D01*
X020393Y018055D02*
X020393Y017871D01*
X020430Y017834D01*
X020503Y017834D01*
X020540Y017871D01*
X020540Y018055D01*
X020614Y018018D02*
X020651Y018055D01*
X020724Y018055D01*
X020761Y018018D01*
X020761Y017981D01*
X020724Y017945D01*
X020761Y017908D01*
X020761Y017871D01*
X020724Y017834D01*
X020651Y017834D01*
X020614Y017871D01*
X020688Y017945D02*
X020724Y017945D01*
X021375Y018262D02*
X021375Y018482D01*
X021486Y018482D01*
X021522Y018445D01*
X021522Y018372D01*
X021486Y018335D01*
X021375Y018335D01*
X021449Y018335D02*
X021522Y018262D01*
X021596Y018298D02*
X021633Y018262D01*
X021706Y018262D01*
X021743Y018298D01*
X021743Y018335D01*
X021706Y018372D01*
X021670Y018372D01*
X021706Y018372D02*
X021743Y018408D01*
X021743Y018445D01*
X021706Y018482D01*
X021633Y018482D01*
X021596Y018445D01*
X021817Y018372D02*
X021927Y018372D01*
X021964Y018335D01*
X021964Y018298D01*
X021927Y018262D01*
X021854Y018262D01*
X021817Y018298D01*
X021817Y018372D01*
X021891Y018445D01*
X021964Y018482D01*
X022261Y018534D02*
X022261Y018387D01*
X022298Y018350D01*
X022371Y018350D01*
X022408Y018387D01*
X022482Y018387D02*
X022519Y018350D01*
X022592Y018350D01*
X022629Y018387D01*
X022629Y018424D01*
X022592Y018460D01*
X022556Y018460D01*
X022592Y018460D02*
X022629Y018497D01*
X022629Y018534D01*
X022592Y018570D01*
X022519Y018570D01*
X022482Y018534D01*
X022408Y018534D02*
X022371Y018570D01*
X022298Y018570D01*
X022261Y018534D01*
X022703Y018534D02*
X022703Y018497D01*
X022740Y018460D01*
X022850Y018460D01*
X022850Y018387D02*
X022850Y018534D01*
X022813Y018570D01*
X022740Y018570D01*
X022703Y018534D01*
X022703Y018387D02*
X022740Y018350D01*
X022813Y018350D01*
X022850Y018387D01*
X024498Y018173D02*
X024498Y017989D01*
X024534Y017953D01*
X024608Y017953D01*
X024644Y017989D01*
X024644Y018173D01*
X024719Y018063D02*
X024865Y018063D01*
X024829Y017953D02*
X024829Y018173D01*
X024719Y018063D01*
X025618Y018291D02*
X025618Y018511D01*
X025728Y018511D01*
X025764Y018475D01*
X025764Y018401D01*
X025728Y018365D01*
X025618Y018365D01*
X025691Y018365D02*
X025764Y018291D01*
X025839Y018328D02*
X025875Y018291D01*
X025949Y018291D01*
X025985Y018328D01*
X025985Y018365D01*
X025949Y018401D01*
X025912Y018401D01*
X025949Y018401D02*
X025985Y018438D01*
X025985Y018475D01*
X025949Y018511D01*
X025875Y018511D01*
X025839Y018475D01*
X026060Y018475D02*
X026096Y018511D01*
X026170Y018511D01*
X026206Y018475D01*
X026206Y018438D01*
X026170Y018401D01*
X026206Y018365D01*
X026206Y018328D01*
X026170Y018291D01*
X026096Y018291D01*
X026060Y018328D01*
X026133Y018401D02*
X026170Y018401D01*
X026592Y018328D02*
X026629Y018291D01*
X026702Y018291D01*
X026739Y018328D01*
X026813Y018328D02*
X026850Y018291D01*
X026923Y018291D01*
X026960Y018328D01*
X026960Y018365D01*
X026923Y018401D01*
X026886Y018401D01*
X026923Y018401D02*
X026960Y018438D01*
X026960Y018475D01*
X026923Y018511D01*
X026850Y018511D01*
X026813Y018475D01*
X026739Y018475D02*
X026702Y018511D01*
X026629Y018511D01*
X026592Y018475D01*
X026592Y018328D01*
X027034Y018328D02*
X027071Y018291D01*
X027144Y018291D01*
X027181Y018328D01*
X027181Y018365D01*
X027144Y018401D01*
X027034Y018401D01*
X027034Y018328D01*
X027034Y018401D02*
X027107Y018475D01*
X027181Y018511D01*
X029045Y018133D02*
X029045Y017950D01*
X029082Y017913D01*
X029155Y017913D01*
X029192Y017950D01*
X029192Y018133D01*
X029266Y018133D02*
X029266Y018023D01*
X029339Y018060D01*
X029376Y018060D01*
X029413Y018023D01*
X029413Y017950D01*
X029376Y017913D01*
X029303Y017913D01*
X029266Y017950D01*
X029266Y018133D02*
X029413Y018133D01*
X030047Y018281D02*
X030047Y018501D01*
X030157Y018501D01*
X030193Y018465D01*
X030193Y018391D01*
X030157Y018355D01*
X030047Y018355D01*
X030120Y018355D02*
X030193Y018281D01*
X030268Y018318D02*
X030304Y018281D01*
X030378Y018281D01*
X030414Y018318D01*
X030414Y018355D01*
X030378Y018391D01*
X030341Y018391D01*
X030378Y018391D02*
X030414Y018428D01*
X030414Y018465D01*
X030378Y018501D01*
X030304Y018501D01*
X030268Y018465D01*
X030489Y018391D02*
X030635Y018391D01*
X030599Y018281D02*
X030599Y018501D01*
X030489Y018391D01*
X031051Y018348D02*
X031087Y018311D01*
X031161Y018311D01*
X031197Y018348D01*
X031272Y018348D02*
X031308Y018311D01*
X031382Y018311D01*
X031418Y018348D01*
X031418Y018384D01*
X031382Y018421D01*
X031345Y018421D01*
X031382Y018421D02*
X031418Y018458D01*
X031418Y018494D01*
X031382Y018531D01*
X031308Y018531D01*
X031272Y018494D01*
X031197Y018494D02*
X031161Y018531D01*
X031087Y018531D01*
X031051Y018494D01*
X031051Y018348D01*
X031493Y018348D02*
X031639Y018494D01*
X031639Y018531D01*
X031493Y018531D01*
X031493Y018348D02*
X031493Y018311D01*
X031494Y020091D02*
X031494Y020311D01*
X031384Y020201D01*
X031531Y020201D01*
X031605Y020237D02*
X031679Y020311D01*
X031679Y020091D01*
X031752Y020091D02*
X031605Y020091D01*
X031310Y020091D02*
X031237Y020164D01*
X031273Y020164D02*
X031163Y020164D01*
X031163Y020091D02*
X031163Y020311D01*
X031273Y020311D01*
X031310Y020274D01*
X031310Y020201D01*
X031273Y020164D01*
X030527Y021203D02*
X030564Y021239D01*
X030564Y021313D01*
X030527Y021349D01*
X030454Y021424D02*
X030454Y021570D01*
X030527Y021645D02*
X030564Y021645D01*
X030527Y021645D02*
X030381Y021791D01*
X030344Y021791D01*
X030344Y021645D01*
X030344Y021534D02*
X030454Y021424D01*
X030381Y021349D02*
X030344Y021313D01*
X030344Y021239D01*
X030381Y021203D01*
X030527Y021203D01*
X030564Y021534D02*
X030344Y021534D01*
X030292Y022672D02*
X030439Y022672D01*
X030475Y022708D01*
X030475Y022782D01*
X030439Y022818D01*
X030365Y022893D02*
X030365Y023039D01*
X030329Y023114D02*
X030365Y023150D01*
X030365Y023260D01*
X030292Y023260D02*
X030255Y023224D01*
X030255Y023150D01*
X030292Y023114D01*
X030329Y023114D01*
X030439Y023114D02*
X030475Y023150D01*
X030475Y023224D01*
X030439Y023260D01*
X030292Y023260D01*
X030255Y023003D02*
X030365Y022893D01*
X030292Y022818D02*
X030255Y022782D01*
X030255Y022708D01*
X030292Y022672D01*
X030255Y023003D02*
X030475Y023003D01*
X030838Y022828D02*
X030838Y022645D01*
X030875Y022608D01*
X030948Y022608D01*
X030985Y022645D01*
X030985Y022828D01*
X031059Y022718D02*
X031169Y022718D01*
X031206Y022681D01*
X031206Y022645D01*
X031169Y022608D01*
X031096Y022608D01*
X031059Y022645D01*
X031059Y022718D01*
X031132Y022792D01*
X031206Y022828D01*
X032690Y022773D02*
X032690Y022700D01*
X032727Y022663D01*
X032874Y022663D01*
X032911Y022700D01*
X032911Y022773D01*
X032874Y022810D01*
X032874Y022884D02*
X032911Y022921D01*
X032911Y022994D01*
X032874Y023031D01*
X032800Y023031D01*
X032764Y022994D01*
X032764Y022958D01*
X032800Y022884D01*
X032690Y022884D01*
X032690Y023031D01*
X032764Y023105D02*
X032690Y023179D01*
X032911Y023179D01*
X032911Y023252D02*
X032911Y023105D01*
X032727Y022810D02*
X032690Y022773D01*
X033645Y024215D02*
X033718Y024215D01*
X033755Y024251D01*
X033829Y024215D02*
X033976Y024215D01*
X033903Y024215D02*
X033903Y024435D01*
X033829Y024361D01*
X033755Y024398D02*
X033718Y024435D01*
X033645Y024435D01*
X033608Y024398D01*
X033608Y024251D01*
X033645Y024215D01*
X034050Y024251D02*
X034087Y024215D01*
X034160Y024215D01*
X034197Y024251D01*
X034197Y024288D01*
X034160Y024325D01*
X034124Y024325D01*
X034160Y024325D02*
X034197Y024361D01*
X034197Y024398D01*
X034160Y024435D01*
X034087Y024435D01*
X034050Y024398D01*
X034835Y023604D02*
X034908Y023604D01*
X034945Y023567D01*
X034945Y023530D01*
X034908Y023494D01*
X034835Y023494D01*
X034798Y023530D01*
X034798Y023567D01*
X034835Y023604D01*
X034835Y023494D02*
X034798Y023457D01*
X034798Y023420D01*
X034835Y023384D01*
X034908Y023384D01*
X034945Y023420D01*
X034945Y023457D01*
X034908Y023494D01*
X035019Y023604D02*
X035166Y023604D01*
X035092Y023604D02*
X035092Y023384D01*
X035166Y023457D01*
X035240Y023384D02*
X035240Y023567D01*
X035277Y023604D01*
X035350Y023604D01*
X035387Y023567D01*
X035387Y023384D01*
X036523Y022500D02*
X036523Y022426D01*
X036560Y022390D01*
X036523Y022500D02*
X036560Y022536D01*
X036596Y022536D01*
X036743Y022390D01*
X036743Y022536D01*
X036743Y021536D02*
X036743Y021390D01*
X036743Y021463D02*
X036523Y021463D01*
X036596Y021390D01*
X037661Y020818D02*
X037661Y020598D01*
X037808Y020598D01*
X037882Y020598D02*
X038029Y020598D01*
X038103Y020598D02*
X038213Y020598D01*
X038250Y020635D01*
X038250Y020782D01*
X038213Y020818D01*
X038103Y020818D01*
X038103Y020598D01*
X037955Y020708D02*
X037882Y020708D01*
X037882Y020818D02*
X037882Y020598D01*
X037882Y020818D02*
X038029Y020818D01*
X038324Y020708D02*
X038471Y020708D01*
X038434Y020598D02*
X038434Y020818D01*
X038324Y020708D01*
X036531Y020191D02*
X036384Y020191D01*
X036458Y020191D02*
X036458Y020411D01*
X036384Y020338D01*
X036237Y020411D02*
X036237Y020191D01*
X036310Y020191D02*
X036163Y020191D01*
X036089Y020191D02*
X036016Y020264D01*
X036052Y020264D02*
X035942Y020264D01*
X035942Y020191D02*
X035942Y020411D01*
X036052Y020411D01*
X036089Y020374D01*
X036089Y020301D01*
X036052Y020264D01*
X036163Y020338D02*
X036237Y020411D01*
X034749Y020360D02*
X034602Y020360D01*
X034749Y020507D01*
X034749Y020544D01*
X034712Y020580D01*
X034639Y020580D01*
X034602Y020544D01*
X034528Y020544D02*
X034491Y020580D01*
X034418Y020580D01*
X034381Y020544D01*
X034381Y020507D01*
X034418Y020470D01*
X034491Y020470D01*
X034528Y020433D01*
X034528Y020397D01*
X034491Y020360D01*
X034418Y020360D01*
X034381Y020397D01*
X034542Y021271D02*
X034505Y021308D01*
X034505Y021382D01*
X034542Y021418D01*
X034689Y021418D01*
X034726Y021382D01*
X034726Y021308D01*
X034689Y021271D01*
X034542Y021271D01*
X034505Y021492D02*
X034726Y021492D01*
X034726Y021639D02*
X034505Y021639D01*
X034505Y021492D02*
X034726Y021639D01*
X037547Y023423D02*
X037547Y023643D01*
X037657Y023643D01*
X037693Y023607D01*
X037693Y023533D01*
X037657Y023496D01*
X037547Y023496D01*
X037620Y023496D02*
X037693Y023423D01*
X037768Y023423D02*
X037914Y023570D01*
X037914Y023607D01*
X037878Y023643D01*
X037804Y023643D01*
X037768Y023607D01*
X037768Y023423D02*
X037914Y023423D01*
X037989Y023533D02*
X038135Y023533D01*
X038099Y023423D02*
X038099Y023643D01*
X037989Y023533D01*
X038316Y024130D02*
X038316Y024240D01*
X038353Y024277D01*
X038426Y024277D01*
X038463Y024240D01*
X038463Y024130D01*
X038463Y024203D02*
X038537Y024277D01*
X038537Y024351D02*
X038390Y024498D01*
X038353Y024498D01*
X038316Y024461D01*
X038316Y024387D01*
X038353Y024351D01*
X038537Y024351D02*
X038537Y024498D01*
X038500Y024572D02*
X038537Y024608D01*
X038537Y024682D01*
X038500Y024719D01*
X038463Y024719D01*
X038426Y024682D01*
X038426Y024645D01*
X038426Y024682D02*
X038390Y024719D01*
X038353Y024719D01*
X038316Y024682D01*
X038316Y024608D01*
X038353Y024572D01*
X038316Y024130D02*
X038537Y024130D01*
X038145Y025195D02*
X037999Y025195D01*
X038145Y025341D01*
X038145Y025378D01*
X038109Y025415D01*
X038035Y025415D01*
X037999Y025378D01*
X037924Y025378D02*
X037888Y025415D01*
X037814Y025415D01*
X037778Y025378D01*
X037703Y025378D02*
X037703Y025305D01*
X037667Y025268D01*
X037557Y025268D01*
X037630Y025268D02*
X037703Y025195D01*
X037778Y025195D02*
X037924Y025341D01*
X037924Y025378D01*
X037924Y025195D02*
X037778Y025195D01*
X037703Y025378D02*
X037667Y025415D01*
X037557Y025415D01*
X037557Y025195D01*
X031958Y025360D02*
X031811Y025360D01*
X031884Y025360D02*
X031884Y025580D01*
X031811Y025507D01*
X031737Y025360D02*
X031590Y025360D01*
X031590Y025580D01*
X028487Y023605D02*
X028487Y023532D01*
X028451Y023495D01*
X028304Y023642D01*
X028451Y023642D01*
X028487Y023605D01*
X028451Y023495D02*
X028304Y023495D01*
X028267Y023532D01*
X028267Y023605D01*
X028304Y023642D01*
X028267Y023421D02*
X028267Y023274D01*
X028377Y023274D01*
X028341Y023347D01*
X028341Y023384D01*
X028377Y023421D01*
X028451Y023421D01*
X028487Y023384D01*
X028487Y023311D01*
X028451Y023274D01*
X028451Y023200D02*
X028487Y023163D01*
X028487Y023090D01*
X028451Y023053D01*
X028304Y023053D01*
X028267Y023090D01*
X028267Y023163D01*
X028304Y023200D01*
X028309Y021862D02*
X028383Y021862D01*
X028419Y021825D01*
X028419Y021789D01*
X028383Y021752D01*
X028309Y021752D01*
X028273Y021789D01*
X028273Y021825D01*
X028309Y021862D01*
X028309Y021752D02*
X028273Y021715D01*
X028273Y021678D01*
X028309Y021642D01*
X028383Y021642D01*
X028419Y021678D01*
X028419Y021715D01*
X028383Y021752D01*
X028198Y021752D02*
X028052Y021752D01*
X028162Y021862D01*
X028162Y021642D01*
X027977Y021678D02*
X027941Y021642D01*
X027867Y021642D01*
X027831Y021678D01*
X027831Y021825D01*
X027867Y021862D01*
X027941Y021862D01*
X027977Y021825D01*
X025365Y022078D02*
X025328Y022041D01*
X025181Y022041D01*
X025145Y022078D01*
X025145Y022151D01*
X025181Y022188D01*
X025328Y022188D01*
X025365Y022151D01*
X025365Y022078D01*
X025292Y022115D02*
X025365Y022188D01*
X025255Y022262D02*
X025255Y022409D01*
X025365Y022372D02*
X025145Y022372D01*
X025255Y022262D01*
X022215Y022274D02*
X022215Y022200D01*
X022179Y022164D01*
X022105Y022164D02*
X022069Y022237D01*
X022069Y022274D01*
X022105Y022311D01*
X022179Y022311D01*
X022215Y022274D01*
X022105Y022164D02*
X021995Y022164D01*
X021995Y022311D01*
X022032Y022090D02*
X022179Y022090D01*
X022215Y022053D01*
X022215Y021979D01*
X022179Y021943D01*
X022032Y021943D01*
X021995Y021979D01*
X021995Y022053D01*
X022032Y022090D01*
X022142Y022016D02*
X022215Y022090D01*
X022252Y015087D02*
X022216Y015050D01*
X022216Y014940D01*
X022289Y014940D01*
X022326Y014977D01*
X022326Y015050D01*
X022289Y015087D01*
X022252Y015087D01*
X022142Y015014D02*
X022106Y015087D01*
X022142Y015014D02*
X022216Y014940D01*
X022216Y014866D02*
X022252Y014829D01*
X022252Y014719D01*
X022252Y014793D02*
X022326Y014866D01*
X022216Y014866D02*
X022142Y014866D01*
X022106Y014829D01*
X022106Y014719D01*
X022326Y014719D01*
X022572Y014522D02*
X022572Y014375D01*
X022682Y014375D01*
X022646Y014448D01*
X022646Y014485D01*
X022682Y014522D01*
X022756Y014522D01*
X022792Y014485D01*
X022792Y014412D01*
X022756Y014375D01*
X022756Y014301D02*
X022792Y014264D01*
X022792Y014191D01*
X022756Y014154D01*
X022756Y014080D02*
X022792Y014043D01*
X022792Y013970D01*
X022756Y013933D01*
X022609Y013933D01*
X022572Y013970D01*
X022572Y014043D01*
X022609Y014080D01*
X022609Y014154D02*
X022572Y014191D01*
X022572Y014264D01*
X022609Y014301D01*
X022646Y014301D01*
X022682Y014264D01*
X022719Y014301D01*
X022756Y014301D01*
X022682Y014264D02*
X022682Y014227D01*
X023222Y014181D02*
X023222Y014107D01*
X023259Y014071D01*
X023405Y014071D01*
X023442Y014107D01*
X023442Y014181D01*
X023405Y014217D01*
X023405Y014292D02*
X023442Y014328D01*
X023442Y014402D01*
X023405Y014438D01*
X023369Y014438D01*
X023332Y014402D01*
X023332Y014365D01*
X023332Y014402D02*
X023295Y014438D01*
X023259Y014438D01*
X023222Y014402D01*
X023222Y014328D01*
X023259Y014292D01*
X023259Y014217D02*
X023222Y014181D01*
X023332Y014513D02*
X023332Y014659D01*
X023442Y014623D02*
X023222Y014623D01*
X023332Y014513D01*
X024478Y014513D02*
X024478Y014623D01*
X024514Y014659D01*
X024588Y014659D01*
X024624Y014623D01*
X024624Y014513D01*
X024624Y014586D02*
X024698Y014659D01*
X024698Y014734D02*
X024661Y014734D01*
X024514Y014880D01*
X024478Y014880D01*
X024478Y014734D01*
X024478Y014513D02*
X024698Y014513D01*
X026287Y014850D02*
X026287Y015070D01*
X026397Y015070D01*
X026434Y015034D01*
X026434Y014960D01*
X026397Y014924D01*
X026287Y014924D01*
X026360Y014924D02*
X026434Y014850D01*
X026508Y014887D02*
X026508Y014924D01*
X026545Y014960D01*
X026618Y014960D01*
X026655Y014924D01*
X026655Y014887D01*
X026618Y014850D01*
X026545Y014850D01*
X026508Y014887D01*
X026545Y014960D02*
X026508Y014997D01*
X026508Y015034D01*
X026545Y015070D01*
X026618Y015070D01*
X026655Y015034D01*
X026655Y014997D01*
X026618Y014960D01*
X026861Y014384D02*
X026824Y014347D01*
X026824Y014274D01*
X026861Y014237D01*
X026898Y014237D01*
X026934Y014274D01*
X026934Y014384D01*
X026861Y014384D02*
X027008Y014384D01*
X027044Y014347D01*
X027044Y014274D01*
X027008Y014237D01*
X027044Y014163D02*
X027044Y014016D01*
X026898Y014163D01*
X026861Y014163D01*
X026824Y014126D01*
X026824Y014053D01*
X026861Y014016D01*
X026861Y013942D02*
X026824Y013905D01*
X026824Y013832D01*
X026861Y013795D01*
X027008Y013795D01*
X027044Y013832D01*
X027044Y013905D01*
X027008Y013942D01*
X027818Y013619D02*
X027855Y013656D01*
X027892Y013656D01*
X027928Y013619D01*
X027928Y013545D01*
X027892Y013509D01*
X027855Y013509D01*
X027818Y013545D01*
X027818Y013619D01*
X027928Y013619D02*
X027965Y013656D01*
X028002Y013656D01*
X028039Y013619D01*
X028039Y013545D01*
X028002Y013509D01*
X027965Y013509D01*
X027928Y013545D01*
X027892Y013435D02*
X027855Y013435D01*
X027818Y013398D01*
X027818Y013324D01*
X027855Y013288D01*
X027855Y013214D02*
X027818Y013177D01*
X027818Y013103D01*
X027855Y013067D01*
X028002Y013067D01*
X028039Y013103D01*
X028039Y013177D01*
X028002Y013214D01*
X028039Y013288D02*
X027892Y013435D01*
X028039Y013435D02*
X028039Y013288D01*
X028700Y014414D02*
X028700Y014524D01*
X028737Y014561D01*
X028810Y014561D01*
X028847Y014524D01*
X028847Y014414D01*
X028920Y014414D02*
X028700Y014414D01*
X028847Y014488D02*
X028920Y014561D01*
X028884Y014635D02*
X028920Y014672D01*
X028920Y014745D01*
X028884Y014782D01*
X028737Y014782D01*
X028700Y014745D01*
X028700Y014672D01*
X028737Y014635D01*
X028773Y014635D01*
X028810Y014672D01*
X028810Y014782D01*
X030747Y014803D02*
X030747Y014914D01*
X030784Y014950D01*
X030857Y014950D01*
X030894Y014914D01*
X030894Y014803D01*
X030967Y014803D02*
X030747Y014803D01*
X030894Y014877D02*
X030967Y014950D01*
X030967Y015024D02*
X030967Y015171D01*
X030967Y015098D02*
X030747Y015098D01*
X030821Y015024D01*
X030784Y015245D02*
X030747Y015282D01*
X030747Y015355D01*
X030784Y015392D01*
X030931Y015245D01*
X030967Y015282D01*
X030967Y015355D01*
X030931Y015392D01*
X030784Y015392D01*
X030784Y015245D02*
X030931Y015245D01*
X031516Y014295D02*
X031480Y014259D01*
X031480Y014185D01*
X031516Y014149D01*
X031553Y014149D01*
X031590Y014185D01*
X031590Y014295D01*
X031663Y014295D02*
X031516Y014295D01*
X031663Y014295D02*
X031700Y014259D01*
X031700Y014185D01*
X031663Y014149D01*
X031700Y014074D02*
X031700Y013928D01*
X031700Y014001D02*
X031480Y014001D01*
X031553Y013928D01*
X031516Y013853D02*
X031480Y013817D01*
X031480Y013743D01*
X031516Y013707D01*
X031663Y013707D01*
X031700Y013743D01*
X031700Y013817D01*
X031663Y013853D01*
X031982Y013832D02*
X032018Y013795D01*
X032165Y013795D01*
X032202Y013832D01*
X032202Y013905D01*
X032165Y013942D01*
X032202Y014016D02*
X032202Y014163D01*
X032202Y014089D02*
X031982Y014089D01*
X032055Y014016D01*
X032018Y013942D02*
X031982Y013905D01*
X031982Y013832D01*
X032018Y014237D02*
X032055Y014237D01*
X032092Y014274D01*
X032092Y014347D01*
X032129Y014384D01*
X032165Y014384D01*
X032202Y014347D01*
X032202Y014274D01*
X032165Y014237D01*
X032129Y014237D01*
X032092Y014274D01*
X032092Y014347D02*
X032055Y014384D01*
X032018Y014384D01*
X031982Y014347D01*
X031982Y014274D01*
X032018Y014237D01*
X035433Y011648D02*
X037050Y011648D01*
X037050Y009848D01*
X035433Y009848D01*
X035433Y011648D01*
X035795Y006074D02*
X035905Y006074D01*
X035941Y006038D01*
X035941Y005964D01*
X035905Y005928D01*
X035795Y005928D01*
X035868Y005928D02*
X035941Y005854D01*
X036016Y005854D02*
X036162Y006001D01*
X036162Y006038D01*
X036126Y006074D01*
X036052Y006074D01*
X036016Y006038D01*
X036016Y005854D02*
X036162Y005854D01*
X036237Y005891D02*
X036383Y006038D01*
X036383Y005891D01*
X036347Y005854D01*
X036273Y005854D01*
X036237Y005891D01*
X036237Y006038D01*
X036273Y006074D01*
X036347Y006074D01*
X036383Y006038D01*
X035795Y006074D02*
X035795Y005854D01*
X036466Y004483D02*
X036503Y004409D01*
X036576Y004336D01*
X036576Y004446D01*
X036613Y004483D01*
X036649Y004483D01*
X036686Y004446D01*
X036686Y004373D01*
X036649Y004336D01*
X036576Y004336D01*
X036503Y004262D02*
X036466Y004225D01*
X036466Y004115D01*
X036686Y004115D01*
X036686Y004225D01*
X036649Y004262D01*
X036503Y004262D01*
X036466Y004041D02*
X036466Y003894D01*
X036686Y003894D01*
X036686Y004041D01*
X036576Y003967D02*
X036576Y003894D01*
X036686Y003820D02*
X036686Y003673D01*
X036466Y003673D01*
X037269Y003692D02*
X037416Y003912D01*
X037490Y003912D02*
X037490Y003802D01*
X037563Y003838D01*
X037600Y003838D01*
X037637Y003802D01*
X037637Y003728D01*
X037600Y003692D01*
X037527Y003692D01*
X037490Y003728D01*
X037416Y003692D02*
X037269Y003912D01*
X037490Y003912D02*
X037637Y003912D01*
X034930Y003853D02*
X034857Y003816D01*
X034783Y003743D01*
X034893Y003743D01*
X034930Y003706D01*
X034930Y003669D01*
X034893Y003633D01*
X034820Y003633D01*
X034783Y003669D01*
X034783Y003743D01*
X034709Y003853D02*
X034562Y003633D01*
X034709Y003633D02*
X034562Y003853D01*
X034029Y003830D02*
X034029Y003683D01*
X033809Y003683D01*
X033809Y003904D02*
X034029Y003904D01*
X034029Y004051D01*
X034029Y004125D02*
X034029Y004235D01*
X033992Y004272D01*
X033845Y004272D01*
X033809Y004235D01*
X033809Y004125D01*
X034029Y004125D01*
X033919Y003977D02*
X033919Y003904D01*
X033809Y003904D02*
X033809Y004051D01*
X033809Y004346D02*
X033809Y004493D01*
X033845Y004493D01*
X033992Y004346D01*
X034029Y004346D01*
X033726Y005815D02*
X033579Y005815D01*
X033653Y005815D02*
X033653Y006035D01*
X033579Y005962D01*
X033505Y005962D02*
X033505Y005998D01*
X033468Y006035D01*
X033395Y006035D01*
X033358Y005998D01*
X033284Y005998D02*
X033284Y005925D01*
X033247Y005888D01*
X033137Y005888D01*
X033137Y005815D02*
X033137Y006035D01*
X033247Y006035D01*
X033284Y005998D01*
X033211Y005888D02*
X033284Y005815D01*
X033358Y005815D02*
X033505Y005962D01*
X033505Y005815D02*
X033358Y005815D01*
X032236Y003892D02*
X032126Y003782D01*
X032273Y003782D01*
X032236Y003672D02*
X032236Y003892D01*
X032052Y003892D02*
X031905Y003672D01*
X032052Y003672D02*
X031905Y003892D01*
X031332Y003859D02*
X031332Y003712D01*
X031112Y003712D01*
X031112Y003933D02*
X031332Y003933D01*
X031332Y004080D01*
X031332Y004154D02*
X031332Y004264D01*
X031295Y004301D01*
X031148Y004301D01*
X031112Y004264D01*
X031112Y004154D01*
X031332Y004154D01*
X031222Y004007D02*
X031222Y003933D01*
X031112Y003933D02*
X031112Y004080D01*
X031112Y004375D02*
X031222Y004375D01*
X031185Y004449D01*
X031185Y004485D01*
X031222Y004522D01*
X031295Y004522D01*
X031332Y004485D01*
X031332Y004412D01*
X031295Y004375D01*
X031112Y004375D02*
X031112Y004522D01*
X030914Y005775D02*
X030950Y005812D01*
X030950Y005959D01*
X030914Y005996D01*
X030840Y005996D01*
X030804Y005959D01*
X030804Y005922D01*
X030840Y005886D01*
X030950Y005886D01*
X030914Y005775D02*
X030840Y005775D01*
X030804Y005812D01*
X030729Y005775D02*
X030583Y005775D01*
X030656Y005775D02*
X030656Y005996D01*
X030583Y005922D01*
X030508Y005886D02*
X030472Y005849D01*
X030362Y005849D01*
X030435Y005849D02*
X030508Y005775D01*
X030508Y005886D02*
X030508Y005959D01*
X030472Y005996D01*
X030362Y005996D01*
X030362Y005775D01*
X027843Y003889D02*
X027843Y003853D01*
X027806Y003816D01*
X027733Y003816D01*
X027696Y003853D01*
X027696Y003889D01*
X027733Y003926D01*
X027806Y003926D01*
X027843Y003889D01*
X027806Y003816D02*
X027843Y003779D01*
X027843Y003743D01*
X027806Y003706D01*
X027733Y003706D01*
X027696Y003743D01*
X027696Y003779D01*
X027733Y003816D01*
X027622Y003706D02*
X027475Y003706D01*
X027548Y003706D02*
X027548Y003926D01*
X027475Y003853D01*
X027401Y003926D02*
X027254Y003706D01*
X027401Y003706D02*
X027254Y003926D01*
X023453Y003968D02*
X023306Y003821D01*
X023306Y003785D01*
X023232Y003785D02*
X023085Y003785D01*
X023158Y003785D02*
X023158Y004005D01*
X023085Y003931D01*
X023011Y004005D02*
X022864Y003785D01*
X023011Y003785D02*
X022864Y004005D01*
X023306Y004005D02*
X023453Y004005D01*
X023453Y003968D01*
X018807Y004005D02*
X018734Y003968D01*
X018660Y003895D01*
X018770Y003895D01*
X018807Y003858D01*
X018807Y003821D01*
X018770Y003785D01*
X018697Y003785D01*
X018660Y003821D01*
X018660Y003895D01*
X018586Y003785D02*
X018439Y003785D01*
X018513Y003785D02*
X018513Y004005D01*
X018439Y003931D01*
X018365Y004005D02*
X018218Y003785D01*
X018365Y003785D02*
X018218Y004005D01*
X014299Y003887D02*
X014153Y003887D01*
X014153Y003777D01*
X014226Y003813D01*
X014263Y003813D01*
X014299Y003777D01*
X014299Y003703D01*
X014263Y003666D01*
X014189Y003666D01*
X014153Y003703D01*
X014078Y003666D02*
X013932Y003666D01*
X014005Y003666D02*
X014005Y003887D01*
X013932Y003813D01*
X013857Y003887D02*
X013711Y003666D01*
X013857Y003666D02*
X013711Y003887D01*
X009831Y003895D02*
X009684Y003895D01*
X009794Y004005D01*
X009794Y003785D01*
X009610Y003785D02*
X009463Y003785D01*
X009536Y003785D02*
X009536Y004005D01*
X009463Y003931D01*
X009389Y004005D02*
X009242Y003785D01*
X009389Y003785D02*
X009242Y004005D01*
X006542Y004026D02*
X006542Y004173D01*
X006542Y004247D02*
X006542Y004357D01*
X006506Y004394D01*
X006359Y004394D01*
X006322Y004357D01*
X006322Y004247D01*
X006542Y004247D01*
X006432Y004099D02*
X006432Y004026D01*
X006322Y004026D02*
X006542Y004026D01*
X006542Y003952D02*
X006542Y003805D01*
X006322Y003805D01*
X006322Y004026D02*
X006322Y004173D01*
X006359Y004468D02*
X006396Y004468D01*
X006432Y004505D01*
X006432Y004578D01*
X006469Y004615D01*
X006506Y004615D01*
X006542Y004578D01*
X006542Y004505D01*
X006506Y004468D01*
X006469Y004468D01*
X006432Y004505D01*
X006432Y004578D02*
X006396Y004615D01*
X006359Y004615D01*
X006322Y004578D01*
X006322Y004505D01*
X006359Y004468D01*
X005865Y004283D02*
X005865Y004209D01*
X005828Y004173D01*
X005755Y004173D02*
X005718Y004246D01*
X005718Y004283D01*
X005755Y004319D01*
X005828Y004319D01*
X005865Y004283D01*
X005755Y004173D02*
X005645Y004173D01*
X005645Y004319D01*
X005755Y004098D02*
X005755Y003952D01*
X005645Y004062D01*
X005865Y004062D01*
X005865Y003877D02*
X005792Y003804D01*
X005792Y003841D02*
X005792Y003731D01*
X005865Y003731D02*
X005645Y003731D01*
X005645Y003841D01*
X005682Y003877D01*
X005755Y003877D01*
X005792Y003841D01*
X013613Y013933D02*
X013760Y013933D01*
X013796Y013970D01*
X013796Y014043D01*
X013760Y014080D01*
X013760Y014154D02*
X013796Y014191D01*
X013796Y014264D01*
X013760Y014301D01*
X013723Y014301D01*
X013686Y014264D01*
X013686Y014227D01*
X013686Y014264D02*
X013650Y014301D01*
X013613Y014301D01*
X013576Y014264D01*
X013576Y014191D01*
X013613Y014154D01*
X013613Y014080D02*
X013576Y014043D01*
X013576Y013970D01*
X013613Y013933D01*
X013650Y014375D02*
X013576Y014448D01*
X013796Y014448D01*
X013796Y014375D02*
X013796Y014522D01*
X014108Y014579D02*
X014108Y014652D01*
X014144Y014689D01*
X014291Y014542D01*
X014328Y014579D01*
X014328Y014652D01*
X014291Y014689D01*
X014144Y014689D01*
X014108Y014579D02*
X014144Y014542D01*
X014291Y014542D01*
X014291Y014468D02*
X014328Y014431D01*
X014328Y014358D01*
X014291Y014321D01*
X014291Y014247D02*
X014328Y014210D01*
X014328Y014137D01*
X014291Y014100D01*
X014144Y014100D01*
X014108Y014137D01*
X014108Y014210D01*
X014144Y014247D01*
X014144Y014321D02*
X014108Y014358D01*
X014108Y014431D01*
X014144Y014468D01*
X014181Y014468D01*
X014218Y014431D01*
X014254Y014468D01*
X014291Y014468D01*
X014218Y014431D02*
X014218Y014395D01*
X015265Y014494D02*
X015265Y014604D01*
X015302Y014641D01*
X015375Y014641D01*
X015412Y014604D01*
X015412Y014494D01*
X015412Y014567D02*
X015485Y014641D01*
X015375Y014715D02*
X015375Y014862D01*
X015485Y014825D02*
X015265Y014825D01*
X015375Y014715D01*
X015485Y014494D02*
X015265Y014494D01*
X013123Y014612D02*
X012903Y014612D01*
X012903Y014722D01*
X012940Y014759D01*
X013013Y014759D01*
X013050Y014722D01*
X013050Y014612D01*
X013050Y014685D02*
X013123Y014759D01*
X013123Y014833D02*
X012976Y014980D01*
X012940Y014980D01*
X012903Y014943D01*
X012903Y014870D01*
X012940Y014833D01*
X013123Y014833D02*
X013123Y014980D01*
X011076Y014921D02*
X011076Y014774D01*
X011076Y014847D02*
X010856Y014847D01*
X010929Y014774D01*
X010892Y014700D02*
X010966Y014700D01*
X011003Y014663D01*
X011003Y014553D01*
X011076Y014553D02*
X010856Y014553D01*
X010856Y014663D01*
X010892Y014700D01*
X011003Y014626D02*
X011076Y014700D01*
X010159Y014724D02*
X010159Y014834D01*
X010122Y014871D01*
X009975Y014871D01*
X009938Y014834D01*
X009938Y014724D01*
X010159Y014724D01*
X010159Y014945D02*
X010159Y015092D01*
X010159Y015019D02*
X009938Y015019D01*
X010012Y014945D01*
X017460Y014953D02*
X017497Y014990D01*
X017533Y014990D01*
X017570Y014953D01*
X017607Y014990D01*
X017644Y014990D01*
X017680Y014953D01*
X017680Y014880D01*
X017644Y014843D01*
X017680Y014769D02*
X017607Y014695D01*
X017607Y014732D02*
X017607Y014622D01*
X017680Y014622D02*
X017460Y014622D01*
X017460Y014732D01*
X017497Y014769D01*
X017570Y014769D01*
X017607Y014732D01*
X017497Y014843D02*
X017460Y014880D01*
X017460Y014953D01*
X017570Y014953D02*
X017570Y014916D01*
X018094Y014357D02*
X018131Y014394D01*
X018167Y014394D01*
X018204Y014357D01*
X018241Y014394D01*
X018277Y014394D01*
X018314Y014357D01*
X018314Y014284D01*
X018277Y014247D01*
X018277Y014173D02*
X018314Y014136D01*
X018314Y014063D01*
X018277Y014026D01*
X018277Y013952D02*
X018314Y013915D01*
X018314Y013842D01*
X018277Y013805D01*
X018131Y013805D01*
X018094Y013842D01*
X018094Y013915D01*
X018131Y013952D01*
X018131Y014026D02*
X018094Y014063D01*
X018094Y014136D01*
X018131Y014173D01*
X018167Y014173D01*
X018204Y014136D01*
X018241Y014173D01*
X018277Y014173D01*
X018204Y014136D02*
X018204Y014099D01*
X018131Y014247D02*
X018094Y014284D01*
X018094Y014357D01*
X018204Y014357D02*
X018204Y014320D01*
X018576Y014328D02*
X018576Y014402D01*
X018613Y014438D01*
X018650Y014438D01*
X018686Y014402D01*
X018723Y014438D01*
X018760Y014438D01*
X018796Y014402D01*
X018796Y014328D01*
X018760Y014292D01*
X018760Y014217D02*
X018796Y014181D01*
X018796Y014107D01*
X018760Y014071D01*
X018613Y014071D01*
X018576Y014107D01*
X018576Y014181D01*
X018613Y014217D01*
X018613Y014292D02*
X018576Y014328D01*
X018686Y014365D02*
X018686Y014402D01*
X018613Y014513D02*
X018576Y014549D01*
X018576Y014623D01*
X018613Y014659D01*
X018650Y014659D01*
X018796Y014513D01*
X018796Y014659D01*
X019960Y014819D02*
X019960Y014929D01*
X019997Y014966D01*
X020070Y014966D01*
X020107Y014929D01*
X020107Y014819D01*
X020107Y014892D02*
X020180Y014966D01*
X020144Y015040D02*
X020180Y015076D01*
X020180Y015150D01*
X020144Y015186D01*
X020070Y015186D01*
X020033Y015150D01*
X020033Y015113D01*
X020070Y015040D01*
X019960Y015040D01*
X019960Y015186D01*
X019960Y014819D02*
X020180Y014819D01*
X005239Y029675D02*
X005019Y029675D01*
X005239Y029675D02*
X005239Y029822D01*
X005239Y029896D02*
X005239Y030043D01*
X005239Y030117D02*
X005239Y030227D01*
X005202Y030264D01*
X005056Y030264D01*
X005019Y030227D01*
X005019Y030117D01*
X005239Y030117D01*
X005129Y029969D02*
X005129Y029896D01*
X005019Y029896D02*
X005239Y029896D01*
X005019Y029896D02*
X005019Y030043D01*
X005092Y030338D02*
X005019Y030411D01*
X005239Y030411D01*
X005239Y030338D02*
X005239Y030485D01*
X005686Y030480D02*
X005686Y030700D01*
X005797Y030700D01*
X005833Y030664D01*
X005833Y030590D01*
X005797Y030554D01*
X005686Y030554D01*
X005760Y030554D02*
X005833Y030480D01*
X005907Y030480D02*
X006054Y030480D01*
X005981Y030480D02*
X005981Y030700D01*
X005907Y030627D01*
X006128Y030590D02*
X006275Y030590D01*
X006239Y030480D02*
X006239Y030700D01*
X006128Y030590D01*
D18*
X006822Y029271D02*
X005011Y029271D01*
X005011Y026752D01*
X006822Y026752D01*
X006822Y029271D01*
X006577Y028681D02*
X006579Y028699D01*
X006585Y028717D01*
X006594Y028733D01*
X006606Y028746D01*
X006621Y028757D01*
X006638Y028765D01*
X006656Y028769D01*
X006674Y028769D01*
X006692Y028765D01*
X006709Y028757D01*
X006724Y028746D01*
X006736Y028733D01*
X006745Y028717D01*
X006751Y028699D01*
X006753Y028681D01*
X006751Y028663D01*
X006745Y028645D01*
X006736Y028629D01*
X006724Y028616D01*
X006709Y028605D01*
X006692Y028597D01*
X006674Y028593D01*
X006656Y028593D01*
X006638Y028597D01*
X006621Y028605D01*
X006606Y028616D01*
X006594Y028629D01*
X006585Y028645D01*
X006579Y028663D01*
X006577Y028681D01*
X004313Y028190D02*
X004313Y027890D01*
X004013Y028190D01*
X003938Y028190D01*
X003863Y028115D01*
X003863Y027965D01*
X003938Y027890D01*
X004013Y029790D02*
X003863Y029940D01*
X004313Y029940D01*
X004313Y029790D02*
X004313Y030090D01*
X007978Y030661D02*
X010128Y030661D01*
X011659Y030681D02*
X013809Y030681D01*
X015379Y030720D02*
X017529Y030720D01*
X019779Y030730D02*
X021929Y030730D01*
X016576Y023819D02*
X013426Y023819D01*
X013426Y020669D01*
X016576Y020669D01*
X016576Y023819D01*
X015697Y017539D02*
X015699Y017559D01*
X015704Y017579D01*
X015714Y017597D01*
X015726Y017614D01*
X015741Y017628D01*
X015759Y017638D01*
X015778Y017646D01*
X015798Y017650D01*
X015818Y017650D01*
X015838Y017646D01*
X015857Y017638D01*
X015875Y017628D01*
X015890Y017614D01*
X015902Y017597D01*
X015912Y017579D01*
X015917Y017559D01*
X015919Y017539D01*
X015917Y017519D01*
X015912Y017499D01*
X015902Y017481D01*
X015890Y017464D01*
X015875Y017450D01*
X015857Y017440D01*
X015838Y017432D01*
X015818Y017428D01*
X015798Y017428D01*
X015778Y017432D01*
X015759Y017440D01*
X015741Y017450D01*
X015726Y017464D01*
X015714Y017481D01*
X015704Y017499D01*
X015699Y017519D01*
X015697Y017539D01*
X011170Y017421D02*
X011172Y017441D01*
X011177Y017461D01*
X011187Y017479D01*
X011199Y017496D01*
X011214Y017510D01*
X011232Y017520D01*
X011251Y017528D01*
X011271Y017532D01*
X011291Y017532D01*
X011311Y017528D01*
X011330Y017520D01*
X011348Y017510D01*
X011363Y017496D01*
X011375Y017479D01*
X011385Y017461D01*
X011390Y017441D01*
X011392Y017421D01*
X011390Y017401D01*
X011385Y017381D01*
X011375Y017363D01*
X011363Y017346D01*
X011348Y017332D01*
X011330Y017322D01*
X011311Y017314D01*
X011291Y017310D01*
X011271Y017310D01*
X011251Y017314D01*
X011232Y017322D01*
X011214Y017332D01*
X011199Y017346D01*
X011187Y017363D01*
X011177Y017381D01*
X011172Y017401D01*
X011170Y017421D01*
X006960Y015866D02*
X005149Y015866D01*
X005149Y013346D01*
X006960Y013346D01*
X006960Y015866D01*
X006714Y015275D02*
X006716Y015293D01*
X006722Y015311D01*
X006731Y015327D01*
X006743Y015340D01*
X006758Y015351D01*
X006775Y015359D01*
X006793Y015363D01*
X006811Y015363D01*
X006829Y015359D01*
X006846Y015351D01*
X006861Y015340D01*
X006873Y015327D01*
X006882Y015311D01*
X006888Y015293D01*
X006890Y015275D01*
X006888Y015257D01*
X006882Y015239D01*
X006873Y015223D01*
X006861Y015210D01*
X006846Y015199D01*
X006829Y015191D01*
X006811Y015187D01*
X006793Y015187D01*
X006775Y015191D01*
X006758Y015199D01*
X006743Y015210D01*
X006731Y015223D01*
X006722Y015239D01*
X006716Y015257D01*
X006714Y015275D01*
X004313Y014489D02*
X004313Y014189D01*
X004013Y014489D01*
X003938Y014489D01*
X003863Y014414D01*
X003863Y014264D01*
X003938Y014189D01*
X004013Y016089D02*
X003863Y016239D01*
X004313Y016239D01*
X004313Y016089D02*
X004313Y016389D01*
X004088Y019039D02*
X004088Y019339D01*
X004313Y019264D02*
X003863Y019264D01*
X004088Y019039D01*
X005080Y020285D02*
X006891Y020285D01*
X006891Y022805D01*
X005080Y022805D01*
X005080Y020285D01*
X004313Y021114D02*
X004238Y021039D01*
X004313Y021114D02*
X004313Y021264D01*
X004238Y021339D01*
X004163Y021339D01*
X004088Y021264D01*
X004088Y021189D01*
X004088Y021264D02*
X004013Y021339D01*
X003938Y021339D01*
X003863Y021264D01*
X003863Y021114D01*
X003938Y021039D01*
X003938Y023039D02*
X003863Y023114D01*
X003863Y023264D01*
X003938Y023339D01*
X004013Y023339D01*
X004313Y023039D01*
X004313Y023339D01*
X004313Y024939D02*
X004313Y025239D01*
X004313Y025089D02*
X003863Y025089D01*
X004013Y024939D01*
X006646Y022214D02*
X006648Y022232D01*
X006654Y022250D01*
X006663Y022266D01*
X006675Y022279D01*
X006690Y022290D01*
X006707Y022298D01*
X006725Y022302D01*
X006743Y022302D01*
X006761Y022298D01*
X006778Y022290D01*
X006793Y022279D01*
X006805Y022266D01*
X006814Y022250D01*
X006820Y022232D01*
X006822Y022214D01*
X006820Y022196D01*
X006814Y022178D01*
X006805Y022162D01*
X006793Y022149D01*
X006778Y022138D01*
X006761Y022130D01*
X006743Y022126D01*
X006725Y022126D01*
X006707Y022130D01*
X006690Y022138D01*
X006675Y022149D01*
X006663Y022162D01*
X006654Y022178D01*
X006648Y022196D01*
X006646Y022214D01*
X009224Y023504D02*
X009226Y023522D01*
X009232Y023540D01*
X009241Y023556D01*
X009253Y023569D01*
X009268Y023580D01*
X009285Y023588D01*
X009303Y023592D01*
X009321Y023592D01*
X009339Y023588D01*
X009356Y023580D01*
X009371Y023569D01*
X009383Y023556D01*
X009392Y023540D01*
X009398Y023522D01*
X009400Y023504D01*
X009398Y023486D01*
X009392Y023468D01*
X009383Y023452D01*
X009371Y023439D01*
X009356Y023428D01*
X009339Y023420D01*
X009321Y023416D01*
X009303Y023416D01*
X009285Y023420D01*
X009268Y023428D01*
X009253Y023439D01*
X009241Y023452D01*
X009232Y023468D01*
X009226Y023486D01*
X009224Y023504D01*
X020284Y017539D02*
X020286Y017559D01*
X020291Y017579D01*
X020301Y017597D01*
X020313Y017614D01*
X020328Y017628D01*
X020346Y017638D01*
X020365Y017646D01*
X020385Y017650D01*
X020405Y017650D01*
X020425Y017646D01*
X020444Y017638D01*
X020462Y017628D01*
X020477Y017614D01*
X020489Y017597D01*
X020499Y017579D01*
X020504Y017559D01*
X020506Y017539D01*
X020504Y017519D01*
X020499Y017499D01*
X020489Y017481D01*
X020477Y017464D01*
X020462Y017450D01*
X020444Y017440D01*
X020425Y017432D01*
X020405Y017428D01*
X020385Y017428D01*
X020365Y017432D01*
X020346Y017440D01*
X020328Y017450D01*
X020313Y017464D01*
X020301Y017481D01*
X020291Y017499D01*
X020286Y017519D01*
X020284Y017539D01*
X024516Y017559D02*
X024518Y017579D01*
X024523Y017599D01*
X024533Y017617D01*
X024545Y017634D01*
X024560Y017648D01*
X024578Y017658D01*
X024597Y017666D01*
X024617Y017670D01*
X024637Y017670D01*
X024657Y017666D01*
X024676Y017658D01*
X024694Y017648D01*
X024709Y017634D01*
X024721Y017617D01*
X024731Y017599D01*
X024736Y017579D01*
X024738Y017559D01*
X024736Y017539D01*
X024731Y017519D01*
X024721Y017501D01*
X024709Y017484D01*
X024694Y017470D01*
X024676Y017460D01*
X024657Y017452D01*
X024637Y017448D01*
X024617Y017448D01*
X024597Y017452D01*
X024578Y017460D01*
X024560Y017470D01*
X024545Y017484D01*
X024533Y017501D01*
X024523Y017519D01*
X024518Y017539D01*
X024516Y017559D01*
X028985Y017559D02*
X028987Y017579D01*
X028992Y017599D01*
X029002Y017617D01*
X029014Y017634D01*
X029029Y017648D01*
X029047Y017658D01*
X029066Y017666D01*
X029086Y017670D01*
X029106Y017670D01*
X029126Y017666D01*
X029145Y017658D01*
X029163Y017648D01*
X029178Y017634D01*
X029190Y017617D01*
X029200Y017599D01*
X029205Y017579D01*
X029207Y017559D01*
X029205Y017539D01*
X029200Y017519D01*
X029190Y017501D01*
X029178Y017484D01*
X029163Y017470D01*
X029145Y017460D01*
X029126Y017452D01*
X029106Y017448D01*
X029086Y017448D01*
X029066Y017452D01*
X029047Y017460D01*
X029029Y017470D01*
X029014Y017484D01*
X029002Y017501D01*
X028992Y017519D01*
X028987Y017539D01*
X028985Y017559D01*
X030966Y021338D02*
X030966Y022519D01*
X032147Y022519D01*
X032147Y021338D01*
X030966Y021338D01*
X031045Y022401D02*
X031047Y022413D01*
X031052Y022424D01*
X031061Y022433D01*
X031072Y022438D01*
X031084Y022440D01*
X031096Y022438D01*
X031107Y022433D01*
X031116Y022424D01*
X031121Y022413D01*
X031123Y022401D01*
X031121Y022389D01*
X031116Y022378D01*
X031107Y022369D01*
X031096Y022364D01*
X031084Y022362D01*
X031072Y022364D01*
X031061Y022369D01*
X031052Y022378D01*
X031047Y022389D01*
X031045Y022401D01*
X031950Y023504D02*
X032039Y023511D01*
X032125Y023534D01*
X032206Y023572D01*
X032279Y023623D01*
X032342Y023686D01*
X032393Y023760D01*
X032431Y023840D01*
X032454Y023927D01*
X032462Y024015D01*
X032462Y024212D01*
X032462Y024488D01*
X032462Y024567D01*
X032454Y024655D01*
X032431Y024742D01*
X032393Y024823D01*
X032342Y024896D01*
X032279Y024959D01*
X032206Y025010D01*
X032125Y025048D01*
X032039Y025071D01*
X031950Y025078D01*
X031950Y023504D01*
X031950Y023540D02*
X032137Y023540D01*
X032230Y023589D02*
X031950Y023589D01*
X031950Y023637D02*
X032293Y023637D01*
X032341Y023686D02*
X031950Y023686D01*
X031950Y023734D02*
X032376Y023734D01*
X032404Y023783D02*
X031950Y023783D01*
X031950Y023831D02*
X032427Y023831D01*
X032442Y023880D02*
X031950Y023880D01*
X031950Y023929D02*
X032454Y023929D01*
X032459Y023977D02*
X031950Y023977D01*
X031950Y024026D02*
X032462Y024026D01*
X032462Y024074D02*
X031950Y024074D01*
X031950Y024123D02*
X032462Y024123D01*
X032462Y024171D02*
X031950Y024171D01*
X031950Y024220D02*
X032462Y024220D01*
X032462Y024268D02*
X031950Y024268D01*
X031950Y024317D02*
X032462Y024317D01*
X032462Y024365D02*
X031950Y024365D01*
X031950Y024414D02*
X032462Y024414D01*
X032462Y024462D02*
X031950Y024462D01*
X031950Y024511D02*
X032462Y024511D01*
X032462Y024560D02*
X031950Y024560D01*
X031950Y024608D02*
X032458Y024608D01*
X032454Y024657D02*
X031950Y024657D01*
X031950Y024705D02*
X032441Y024705D01*
X032425Y024754D02*
X031950Y024754D01*
X031950Y024802D02*
X032403Y024802D01*
X032373Y024851D02*
X031950Y024851D01*
X031950Y024899D02*
X032338Y024899D01*
X032290Y024948D02*
X031950Y024948D01*
X031950Y024996D02*
X032225Y024996D01*
X032131Y025045D02*
X031950Y025045D01*
X030690Y024291D02*
X030692Y024353D01*
X030698Y024416D01*
X030708Y024477D01*
X030722Y024538D01*
X030739Y024598D01*
X030760Y024657D01*
X030786Y024714D01*
X030814Y024769D01*
X030846Y024823D01*
X030882Y024874D01*
X030920Y024924D01*
X030962Y024970D01*
X031006Y025014D01*
X031054Y025055D01*
X031103Y025093D01*
X031155Y025127D01*
X031209Y025158D01*
X031265Y025186D01*
X031323Y025210D01*
X031382Y025231D01*
X031442Y025247D01*
X031503Y025260D01*
X031565Y025269D01*
X031627Y025274D01*
X031690Y025275D01*
X031752Y025272D01*
X031814Y025265D01*
X031876Y025254D01*
X031936Y025239D01*
X031996Y025221D01*
X032054Y025199D01*
X032111Y025173D01*
X032166Y025143D01*
X032219Y025110D01*
X032270Y025074D01*
X032318Y025035D01*
X032364Y024992D01*
X032407Y024947D01*
X032447Y024899D01*
X032484Y024849D01*
X032518Y024796D01*
X032549Y024742D01*
X032575Y024686D01*
X032599Y024628D01*
X032618Y024568D01*
X032634Y024508D01*
X032646Y024446D01*
X032654Y024385D01*
X032658Y024322D01*
X032658Y024260D01*
X032654Y024197D01*
X032646Y024136D01*
X032634Y024074D01*
X032618Y024014D01*
X032599Y023954D01*
X032575Y023896D01*
X032549Y023840D01*
X032518Y023786D01*
X032484Y023733D01*
X032447Y023683D01*
X032407Y023635D01*
X032364Y023590D01*
X032318Y023547D01*
X032270Y023508D01*
X032219Y023472D01*
X032166Y023439D01*
X032111Y023409D01*
X032054Y023383D01*
X031996Y023361D01*
X031936Y023343D01*
X031876Y023328D01*
X031814Y023317D01*
X031752Y023310D01*
X031690Y023307D01*
X031627Y023308D01*
X031565Y023313D01*
X031503Y023322D01*
X031442Y023335D01*
X031382Y023351D01*
X031323Y023372D01*
X031265Y023396D01*
X031209Y023424D01*
X031155Y023455D01*
X031103Y023489D01*
X031054Y023527D01*
X031006Y023568D01*
X030962Y023612D01*
X030920Y023658D01*
X030882Y023708D01*
X030846Y023759D01*
X030814Y023813D01*
X030786Y023868D01*
X030760Y023925D01*
X030739Y023984D01*
X030722Y024044D01*
X030708Y024105D01*
X030698Y024166D01*
X030692Y024229D01*
X030690Y024291D01*
X036262Y023937D02*
X036264Y023955D01*
X036270Y023973D01*
X036279Y023989D01*
X036291Y024002D01*
X036306Y024013D01*
X036323Y024021D01*
X036341Y024025D01*
X036359Y024025D01*
X036377Y024021D01*
X036394Y024013D01*
X036409Y024002D01*
X036421Y023989D01*
X036430Y023973D01*
X036436Y023955D01*
X036438Y023937D01*
X036436Y023919D01*
X036430Y023901D01*
X036421Y023885D01*
X036409Y023872D01*
X036394Y023861D01*
X036377Y023853D01*
X036359Y023849D01*
X036341Y023849D01*
X036323Y023853D01*
X036306Y023861D01*
X036291Y023872D01*
X036279Y023885D01*
X036270Y023901D01*
X036264Y023919D01*
X036262Y023937D01*
X006769Y010984D02*
X006773Y009456D01*
X006764Y009433D01*
X006752Y009411D01*
X006737Y009391D01*
X006719Y009374D01*
X006699Y009359D01*
X006677Y009348D01*
X006653Y009339D01*
X006629Y009334D01*
X006604Y009333D01*
X006579Y009335D01*
X006554Y009341D01*
X006531Y009350D01*
X006509Y009363D01*
X006490Y009378D01*
X006473Y009396D01*
X006458Y009417D01*
X006178Y010074D01*
X005887Y010051D02*
X005659Y009500D01*
X005651Y009475D01*
X005640Y009452D01*
X005625Y009431D01*
X005608Y009412D01*
X005587Y009396D01*
X005565Y009383D01*
X005540Y009374D01*
X005515Y009369D01*
X005489Y009368D01*
X005463Y009371D01*
X005438Y009377D01*
X005415Y009388D01*
X005393Y009402D01*
X005373Y009419D01*
X005357Y009438D01*
X005343Y009460D01*
X005344Y009460D02*
X005352Y010968D01*
X005351Y010968D02*
X005361Y011001D01*
X005375Y011033D01*
X005392Y011062D01*
X005412Y011090D01*
X005435Y011116D01*
X005461Y011139D01*
X005489Y011159D01*
X005518Y011175D01*
X005550Y011189D01*
X005583Y011199D01*
X005616Y011206D01*
X005651Y011209D01*
X005651Y011208D02*
X006549Y011204D01*
X006578Y011202D01*
X006606Y011197D01*
X006633Y011187D01*
X006659Y011175D01*
X006683Y011159D01*
X006705Y011140D01*
X006724Y011118D01*
X006740Y011094D01*
X006752Y011068D01*
X006762Y011041D01*
X006767Y011013D01*
X006769Y010984D01*
X004313Y011238D02*
X004313Y011539D01*
X004313Y011388D02*
X003863Y011388D01*
X004013Y011238D01*
X004013Y009639D02*
X003938Y009639D01*
X003863Y009564D01*
X003863Y009413D01*
X003938Y009338D01*
X004013Y009639D02*
X004313Y009338D01*
X004313Y009639D01*
X004238Y007639D02*
X004313Y007564D01*
X004313Y007413D01*
X004238Y007338D01*
X004088Y007488D02*
X004088Y007564D01*
X004163Y007639D01*
X004238Y007639D01*
X004088Y007564D02*
X004013Y007639D01*
X003938Y007639D01*
X003863Y007564D01*
X003863Y007413D01*
X003938Y007338D01*
X005297Y006905D02*
X005293Y005374D01*
X005292Y005373D02*
X005297Y005342D01*
X005305Y005310D01*
X005317Y005280D01*
X005332Y005252D01*
X005350Y005225D01*
X005370Y005201D01*
X005394Y005179D01*
X005420Y005160D01*
X005448Y005143D01*
X005477Y005130D01*
X005508Y005121D01*
X005539Y005115D01*
X005571Y005112D01*
X005604Y005113D01*
X005604Y005114D02*
X006509Y005114D01*
X006541Y005119D01*
X006572Y005127D01*
X006601Y005139D01*
X006629Y005155D01*
X006655Y005173D01*
X006679Y005195D01*
X006700Y005219D01*
X006718Y005245D01*
X006733Y005274D01*
X006745Y005303D01*
X006753Y005335D01*
X006753Y005334D02*
X006753Y006945D01*
X006754Y006945D02*
X006740Y006967D01*
X006724Y006986D01*
X006704Y007003D01*
X006682Y007017D01*
X006659Y007028D01*
X006634Y007034D01*
X006608Y007037D01*
X006582Y007036D01*
X006557Y007031D01*
X006532Y007022D01*
X006510Y007009D01*
X006489Y006993D01*
X006472Y006974D01*
X006457Y006953D01*
X006446Y006930D01*
X006438Y006905D01*
X006123Y006039D01*
X005966Y006039D02*
X005611Y006945D01*
X005612Y006945D02*
X005597Y006966D01*
X005580Y006984D01*
X005561Y006999D01*
X005539Y007012D01*
X005516Y007021D01*
X005491Y007027D01*
X005466Y007029D01*
X005441Y007028D01*
X005417Y007023D01*
X005393Y007014D01*
X005371Y007003D01*
X005351Y006988D01*
X005333Y006971D01*
X005318Y006951D01*
X005306Y006929D01*
X005297Y006906D01*
X004313Y005564D02*
X003863Y005564D01*
X004088Y005338D01*
X004088Y005639D01*
D19*
X006606Y004153D03*
X006901Y004153D03*
X005543Y016791D03*
X005247Y016791D03*
X005336Y023700D03*
X005631Y023700D03*
X005611Y029990D03*
X005316Y029990D03*
X030503Y004035D03*
X030799Y004035D03*
X033200Y004035D03*
X033495Y004035D03*
X035877Y004035D03*
X036173Y004035D03*
D20*
X036025Y004035D03*
X033348Y004035D03*
X030651Y004035D03*
X038111Y020285D03*
X006753Y004153D03*
X005395Y016791D03*
X005484Y023700D03*
X005464Y029990D03*
D21*
X006958Y025717D02*
X007296Y025717D01*
X007446Y025263D02*
X007446Y025051D01*
X007296Y024597D02*
X006958Y024597D01*
X006919Y019103D02*
X007257Y019103D01*
X007407Y018649D02*
X007407Y018437D01*
X007257Y017983D02*
X006919Y017983D01*
X006840Y012568D02*
X007178Y012568D01*
X007328Y012113D02*
X007328Y011902D01*
X007178Y011448D02*
X006840Y011448D01*
X007816Y010492D02*
X007245Y009921D01*
X007245Y006673D01*
X008328Y006673D01*
X009470Y006673D02*
X010552Y006673D01*
X010552Y009921D01*
X009982Y010492D01*
X009470Y010492D01*
X008328Y010492D02*
X007816Y010492D01*
X009450Y010019D02*
X009522Y009989D01*
X009591Y009956D01*
X009659Y009920D01*
X009726Y009880D01*
X009790Y009837D01*
X009852Y009791D01*
X009911Y009741D01*
X009968Y009689D01*
X010022Y009634D01*
X010073Y009577D01*
X010122Y009516D01*
X010167Y009454D01*
X010209Y009389D01*
X010248Y009322D01*
X010284Y009254D01*
X010316Y009183D01*
X010344Y009112D01*
X010369Y009038D01*
X010390Y008964D01*
X010407Y008889D01*
X010421Y008813D01*
X010430Y008736D01*
X010436Y008659D01*
X010438Y008582D01*
X010436Y008505D01*
X010430Y008428D01*
X010421Y008351D01*
X010407Y008275D01*
X010390Y008200D01*
X010369Y008126D01*
X010344Y008052D01*
X010316Y007981D01*
X010284Y007910D01*
X010248Y007842D01*
X010209Y007775D01*
X010167Y007710D01*
X010122Y007648D01*
X010073Y007587D01*
X010022Y007530D01*
X009968Y007475D01*
X009911Y007423D01*
X009852Y007373D01*
X009790Y007327D01*
X009726Y007284D01*
X009659Y007244D01*
X009591Y007208D01*
X009522Y007175D01*
X009450Y007145D01*
X008348Y007145D02*
X008276Y007175D01*
X008207Y007208D01*
X008139Y007244D01*
X008072Y007284D01*
X008008Y007327D01*
X007946Y007373D01*
X007887Y007423D01*
X007830Y007475D01*
X007776Y007530D01*
X007725Y007587D01*
X007676Y007648D01*
X007631Y007710D01*
X007589Y007775D01*
X007550Y007842D01*
X007514Y007910D01*
X007482Y007981D01*
X007454Y008052D01*
X007429Y008126D01*
X007408Y008200D01*
X007391Y008275D01*
X007377Y008351D01*
X007368Y008428D01*
X007362Y008505D01*
X007360Y008582D01*
X007362Y008659D01*
X007368Y008736D01*
X007377Y008813D01*
X007391Y008889D01*
X007408Y008964D01*
X007429Y009038D01*
X007454Y009112D01*
X007482Y009183D01*
X007514Y009254D01*
X007550Y009322D01*
X007589Y009389D01*
X007631Y009454D01*
X007676Y009516D01*
X007725Y009577D01*
X007776Y009634D01*
X007830Y009689D01*
X007887Y009741D01*
X007946Y009791D01*
X008008Y009837D01*
X008072Y009880D01*
X008139Y009920D01*
X008207Y009956D01*
X008276Y009989D01*
X008348Y010019D01*
X018750Y020343D02*
X018750Y021743D01*
X021331Y021743D01*
X021331Y020343D01*
X018750Y020343D01*
X021821Y020382D02*
X021821Y021782D01*
X024402Y021782D01*
X024402Y020382D01*
X021821Y020382D01*
X025010Y020441D02*
X025010Y021841D01*
X027591Y021841D01*
X027591Y020441D01*
X025010Y020441D01*
X034361Y020708D02*
X036901Y020708D01*
X036901Y021200D01*
X036419Y020718D01*
X036419Y021163D02*
X034844Y021163D01*
X034844Y021754D01*
X036419Y021754D01*
X036419Y021163D01*
X036901Y021200D02*
X036901Y020927D01*
X036901Y021927D02*
X036901Y021980D01*
X036419Y022163D02*
X036419Y022754D01*
X034844Y022754D01*
X034844Y022163D01*
X036419Y022163D01*
X036901Y022980D02*
X036901Y023199D01*
X034361Y023199D01*
X034361Y022980D01*
X034361Y021980D02*
X034361Y021927D01*
X034361Y020927D02*
X034361Y020708D01*
D22*
X034766Y029907D02*
X034695Y029978D01*
X034695Y030122D01*
X034766Y030194D01*
X034838Y030194D01*
X035125Y029907D01*
X035125Y030194D01*
X034145Y030244D02*
X034145Y029957D01*
X034145Y030100D02*
X033715Y030100D01*
X033858Y029957D01*
X032517Y029917D02*
X032230Y030204D01*
X032158Y030204D01*
X032086Y030132D01*
X032086Y029988D01*
X032158Y029917D01*
X032517Y029917D02*
X032517Y030204D01*
X031537Y030254D02*
X031537Y029967D01*
X031537Y030110D02*
X031106Y030110D01*
X031250Y029967D01*
X029997Y029907D02*
X029710Y030194D01*
X029638Y030194D01*
X029567Y030122D01*
X029567Y029978D01*
X029638Y029907D01*
X029997Y029907D02*
X029997Y030194D01*
X029017Y030244D02*
X029017Y029957D01*
X029017Y030100D02*
X028587Y030100D01*
X028730Y029957D01*
X027458Y029907D02*
X027171Y030194D01*
X027099Y030194D01*
X027027Y030122D01*
X027027Y029978D01*
X027099Y029907D01*
X027458Y029907D02*
X027458Y030194D01*
X026478Y030244D02*
X026478Y029957D01*
X026478Y030100D02*
X026047Y030100D01*
X026191Y029957D01*
X024909Y029897D02*
X024622Y030184D01*
X024550Y030184D01*
X024478Y030112D01*
X024478Y029969D01*
X024550Y029897D01*
X024909Y029897D02*
X024909Y030184D01*
X023929Y030234D02*
X023929Y029947D01*
X023929Y030090D02*
X023498Y030090D01*
X023642Y029947D01*
X021914Y030126D02*
X021843Y030054D01*
X021914Y030126D02*
X021914Y030270D01*
X021843Y030341D01*
X021771Y030341D01*
X021699Y030270D01*
X021699Y030198D01*
X021699Y030270D02*
X021628Y030341D01*
X021556Y030341D01*
X021484Y030270D01*
X021484Y030126D01*
X021556Y030054D01*
X019934Y030104D02*
X019934Y030391D01*
X019934Y030248D02*
X019504Y030248D01*
X019648Y030104D01*
X017515Y030116D02*
X017443Y030045D01*
X017515Y030116D02*
X017515Y030260D01*
X017443Y030331D01*
X017371Y030331D01*
X017300Y030260D01*
X017300Y030188D01*
X017300Y030260D02*
X017228Y030331D01*
X017156Y030331D01*
X017084Y030260D01*
X017084Y030116D01*
X017156Y030045D01*
X015535Y030095D02*
X015535Y030381D01*
X015535Y030238D02*
X015104Y030238D01*
X015248Y030095D01*
X013794Y030077D02*
X013723Y030005D01*
X013794Y030077D02*
X013794Y030220D01*
X013723Y030292D01*
X013651Y030292D01*
X013579Y030220D01*
X013579Y030149D01*
X013579Y030220D02*
X013507Y030292D01*
X013436Y030292D01*
X013364Y030220D01*
X013364Y030077D01*
X013436Y030005D01*
X011814Y030055D02*
X011814Y030342D01*
X011814Y030199D02*
X011384Y030199D01*
X011527Y030055D01*
X010113Y030057D02*
X010042Y029986D01*
X010113Y030057D02*
X010113Y030201D01*
X010042Y030272D01*
X009970Y030272D01*
X009898Y030201D01*
X009898Y030129D01*
X009898Y030201D02*
X009826Y030272D01*
X009755Y030272D01*
X009683Y030201D01*
X009683Y030057D01*
X009755Y029986D01*
X008133Y030036D02*
X008133Y030322D01*
X008133Y030179D02*
X007703Y030179D01*
X007846Y030036D01*
X036205Y030110D02*
X036635Y030110D01*
X036635Y029967D02*
X036635Y030254D01*
X036348Y029967D02*
X036205Y030110D01*
X037185Y030132D02*
X037185Y029988D01*
X037257Y029917D01*
X037185Y030132D02*
X037257Y030204D01*
X037328Y030204D01*
X037615Y029917D01*
X037615Y030204D01*
X037158Y004123D02*
X037158Y003836D01*
X036871Y004123D01*
X036799Y004123D01*
X036728Y004051D01*
X036728Y003908D01*
X036799Y003836D01*
X037708Y003930D02*
X038138Y003930D01*
X038138Y004073D02*
X038138Y003786D01*
X037851Y003786D02*
X037708Y003930D01*
X035461Y003890D02*
X035030Y003890D01*
X035174Y003747D01*
X035461Y003747D02*
X035461Y004034D01*
X034481Y004084D02*
X034481Y003797D01*
X034194Y004084D01*
X034122Y004084D01*
X034050Y004012D01*
X034050Y003868D01*
X034122Y003797D01*
X032784Y003786D02*
X032784Y004073D01*
X032784Y003930D02*
X032353Y003930D01*
X032497Y003786D01*
X031804Y003836D02*
X031804Y004123D01*
X031804Y003836D02*
X031517Y004123D01*
X031445Y004123D01*
X031373Y004051D01*
X031373Y003908D01*
X031445Y003836D01*
X029374Y003786D02*
X029374Y004073D01*
X029374Y003930D02*
X028944Y003930D01*
X029087Y003786D01*
X026394Y004051D02*
X025964Y004051D01*
X026179Y003836D01*
X026179Y004123D01*
X024886Y004034D02*
X024886Y003747D01*
X024886Y003890D02*
X024456Y003890D01*
X024599Y003747D01*
X021906Y004012D02*
X021476Y004012D01*
X021691Y003797D01*
X021691Y004084D01*
X020398Y004034D02*
X020398Y003747D01*
X020398Y003890D02*
X019967Y003890D01*
X020111Y003747D01*
X017418Y004012D02*
X016987Y004012D01*
X017203Y003797D01*
X017203Y004084D01*
X015910Y004034D02*
X015910Y003747D01*
X015910Y003890D02*
X015479Y003890D01*
X015623Y003747D01*
X012930Y004012D02*
X012499Y004012D01*
X012714Y003797D01*
X012714Y004084D01*
X011421Y004034D02*
X011421Y003747D01*
X011421Y003890D02*
X010991Y003890D01*
X011134Y003747D01*
X008441Y004012D02*
X008011Y004012D01*
X008226Y003797D01*
X008226Y004084D01*
D23*
X038111Y020137D03*
X038111Y020433D03*
D24*
X037444Y009403D03*
D25*
X036704Y009398D03*
D26*
X036123Y021458D03*
X036123Y022458D03*
D27*
X013151Y022726D03*
X011970Y022726D03*
X009706Y017962D03*
X008525Y017962D03*
X008486Y015462D03*
X009667Y015462D03*
D28*
X009893Y026122D03*
X009893Y027303D03*
D29*
X017226Y024866D02*
X017226Y024816D01*
X017225Y024817D02*
X017210Y024814D01*
X017196Y024809D01*
X017184Y024801D01*
X017173Y024790D01*
X017165Y024778D01*
X017160Y024764D01*
X017157Y024749D01*
X017108Y024748D01*
X017107Y024749D01*
X017110Y024769D01*
X017115Y024789D01*
X017124Y024807D01*
X017136Y024823D01*
X017151Y024838D01*
X017167Y024850D01*
X017185Y024859D01*
X017205Y024864D01*
X017225Y024867D01*
X017225Y024858D01*
X017206Y024856D01*
X017188Y024850D01*
X017172Y024842D01*
X017156Y024831D01*
X017143Y024818D01*
X017132Y024802D01*
X017124Y024786D01*
X017118Y024768D01*
X017116Y024749D01*
X017125Y024749D01*
X017128Y024768D01*
X017134Y024786D01*
X017143Y024803D01*
X017156Y024818D01*
X017171Y024831D01*
X017188Y024840D01*
X017206Y024846D01*
X017225Y024849D01*
X017225Y024840D01*
X017208Y024837D01*
X017191Y024832D01*
X017176Y024823D01*
X017162Y024812D01*
X017151Y024798D01*
X017142Y024783D01*
X017137Y024766D01*
X017134Y024749D01*
X017143Y024749D01*
X017146Y024767D01*
X017153Y024784D01*
X017162Y024799D01*
X017175Y024812D01*
X017190Y024821D01*
X017207Y024828D01*
X017225Y024831D01*
X017225Y024822D01*
X017209Y024819D01*
X017194Y024813D01*
X017181Y024805D01*
X017169Y024793D01*
X017161Y024780D01*
X017155Y024765D01*
X017152Y024749D01*
X018324Y024748D02*
X018274Y024748D01*
X018275Y024749D02*
X018272Y024764D01*
X018267Y024778D01*
X018259Y024790D01*
X018248Y024801D01*
X018236Y024809D01*
X018222Y024814D01*
X018207Y024817D01*
X018206Y024866D01*
X018207Y024867D01*
X018227Y024864D01*
X018247Y024859D01*
X018265Y024850D01*
X018281Y024838D01*
X018296Y024823D01*
X018308Y024807D01*
X018317Y024789D01*
X018322Y024769D01*
X018325Y024749D01*
X018316Y024749D01*
X018314Y024768D01*
X018308Y024786D01*
X018300Y024802D01*
X018289Y024818D01*
X018276Y024831D01*
X018260Y024842D01*
X018244Y024850D01*
X018226Y024856D01*
X018207Y024858D01*
X018207Y024849D01*
X018226Y024846D01*
X018244Y024840D01*
X018261Y024831D01*
X018276Y024818D01*
X018289Y024803D01*
X018298Y024786D01*
X018304Y024768D01*
X018307Y024749D01*
X018298Y024749D01*
X018295Y024766D01*
X018290Y024783D01*
X018281Y024798D01*
X018270Y024812D01*
X018256Y024823D01*
X018241Y024832D01*
X018224Y024837D01*
X018207Y024840D01*
X018207Y024831D01*
X018225Y024828D01*
X018242Y024821D01*
X018257Y024812D01*
X018270Y024799D01*
X018279Y024784D01*
X018286Y024767D01*
X018289Y024749D01*
X018280Y024749D01*
X018277Y024765D01*
X018271Y024780D01*
X018263Y024793D01*
X018251Y024805D01*
X018238Y024813D01*
X018223Y024819D01*
X018207Y024822D01*
X018216Y023300D02*
X018242Y023275D01*
X018141Y023175D01*
X018166Y023150D01*
X018216Y023150D01*
X018242Y023175D01*
X018242Y023275D01*
X018216Y023300D02*
X018166Y023300D01*
X018141Y023275D01*
X018141Y023175D01*
X018094Y023150D02*
X017994Y023150D01*
X018044Y023150D02*
X018044Y023300D01*
X017994Y023250D01*
X017947Y023300D02*
X017947Y023175D01*
X017922Y023150D01*
X017872Y023150D01*
X017847Y023175D01*
X017847Y023300D01*
M02*
