G75*
G70*
%OFA0B0*%
%FSLAX24Y24*%
%IPPOS*%
%LPD*%
%AMOC8*
5,1,8,0,0,1.08239X$1,22.5*
%
%ADD10C,0.0000*%
%ADD11OC8,0.0640*%
%ADD12R,0.0640X0.0640*%
%ADD13C,0.0640*%
%ADD14R,0.0865X0.0865*%
%ADD15C,0.0865*%
%ADD16C,0.0985*%
D10*
X000474Y003346D02*
X006615Y003346D01*
X006616Y003346D02*
X006657Y003350D01*
X006699Y003358D01*
X006739Y003369D01*
X006778Y003384D01*
X006815Y003403D01*
X006851Y003425D01*
X006884Y003450D01*
X006915Y003478D01*
X006944Y003509D01*
X006969Y003542D01*
X006991Y003577D01*
X007010Y003615D01*
X007025Y003654D01*
X007037Y003694D01*
X007044Y003735D01*
X007048Y003777D01*
X007049Y003819D01*
X007049Y004626D01*
X007324Y004626D01*
X007324Y003858D01*
X007323Y003821D01*
X007327Y003784D01*
X007334Y003748D01*
X007344Y003713D01*
X007358Y003679D01*
X007376Y003646D01*
X007396Y003616D01*
X007419Y003587D01*
X007445Y003561D01*
X007474Y003538D01*
X007504Y003517D01*
X007536Y003500D01*
X007570Y003485D01*
X007606Y003475D01*
X007642Y003467D01*
X007678Y003464D01*
X029686Y003464D01*
X029714Y003466D01*
X029742Y003471D01*
X029770Y003479D01*
X029796Y003491D01*
X029820Y003506D01*
X029842Y003523D01*
X029863Y003544D01*
X029880Y003566D01*
X029895Y003590D01*
X029907Y003616D01*
X029915Y003644D01*
X029920Y003672D01*
X029922Y003700D01*
X029923Y003700D02*
X029923Y004527D01*
X030237Y004527D01*
X030237Y003700D01*
X030238Y003700D02*
X030240Y003672D01*
X030245Y003644D01*
X030253Y003616D01*
X030265Y003590D01*
X030280Y003566D01*
X030297Y003544D01*
X030318Y003523D01*
X030340Y003506D01*
X030364Y003491D01*
X030390Y003479D01*
X030418Y003471D01*
X030446Y003466D01*
X030474Y003464D01*
X038249Y003464D01*
X038249Y003465D02*
X038290Y003461D01*
X038332Y003462D01*
X038373Y003465D01*
X038414Y003473D01*
X038454Y003484D01*
X038493Y003498D01*
X038531Y003516D01*
X038566Y003537D01*
X038600Y003561D01*
X038632Y003588D01*
X038661Y003618D01*
X038688Y003650D01*
X038711Y003684D01*
X038732Y003720D01*
X038749Y003758D01*
X038763Y003797D01*
X038773Y003837D01*
X038780Y003878D01*
X038781Y003878D02*
X038781Y012795D01*
X033545Y012795D01*
X033545Y019882D01*
X038663Y019882D01*
X038663Y030511D01*
X038662Y030512D02*
X038658Y030548D01*
X038649Y030584D01*
X038637Y030618D01*
X038622Y030651D01*
X038603Y030683D01*
X038581Y030712D01*
X038556Y030739D01*
X038528Y030763D01*
X038498Y030784D01*
X038466Y030802D01*
X038433Y030816D01*
X038398Y030827D01*
X038362Y030834D01*
X038325Y030837D01*
X038288Y030836D01*
X038289Y030836D02*
X022964Y030836D01*
X022963Y030836D02*
X022935Y030831D01*
X022907Y030823D01*
X022880Y030811D01*
X022854Y030797D01*
X022831Y030779D01*
X022810Y030759D01*
X022792Y030736D01*
X022776Y030712D01*
X022763Y030685D01*
X022754Y030657D01*
X022748Y030629D01*
X022746Y030600D01*
X022747Y030570D01*
X022747Y030571D02*
X022747Y029645D01*
X022491Y029645D01*
X022491Y030551D01*
X022492Y030551D02*
X022493Y030582D01*
X022490Y030613D01*
X022483Y030643D01*
X022472Y030673D01*
X022458Y030700D01*
X022441Y030726D01*
X022421Y030750D01*
X022398Y030771D01*
X022373Y030789D01*
X022345Y030804D01*
X022316Y030815D01*
X022286Y030823D01*
X022256Y030827D01*
X022255Y030826D02*
X019273Y030826D01*
X019245Y030819D01*
X019217Y030809D01*
X019192Y030796D01*
X019168Y030780D01*
X019146Y030762D01*
X019126Y030740D01*
X019109Y030717D01*
X019096Y030692D01*
X019085Y030665D01*
X019078Y030637D01*
X019074Y030608D01*
X019073Y030579D01*
X019076Y030551D01*
X019076Y029626D01*
X018820Y029626D01*
X018820Y030551D01*
X018823Y030579D01*
X018822Y030608D01*
X018818Y030637D01*
X018811Y030665D01*
X018800Y030692D01*
X018787Y030717D01*
X018770Y030740D01*
X018750Y030762D01*
X018728Y030780D01*
X018704Y030796D01*
X018679Y030809D01*
X018651Y030819D01*
X018623Y030826D01*
X007797Y030826D01*
X007756Y030824D01*
X007715Y030819D01*
X007675Y030810D01*
X007636Y030798D01*
X007598Y030782D01*
X007561Y030763D01*
X007526Y030741D01*
X007494Y030716D01*
X007463Y030688D01*
X007435Y030657D01*
X007410Y030625D01*
X007388Y030590D01*
X007369Y030553D01*
X007353Y030515D01*
X007341Y030476D01*
X007332Y030436D01*
X007327Y030395D01*
X007325Y030354D01*
X007324Y030354D02*
X007324Y029409D01*
X007009Y029409D01*
X007009Y030354D01*
X007010Y030354D02*
X007006Y030397D01*
X006999Y030439D01*
X006988Y030481D01*
X006973Y030521D01*
X006955Y030560D01*
X006934Y030597D01*
X006909Y030633D01*
X006882Y030666D01*
X006851Y030696D01*
X006819Y030724D01*
X006783Y030749D01*
X006746Y030770D01*
X006707Y030789D01*
X006667Y030804D01*
X006625Y030815D01*
X006583Y030823D01*
X006540Y030826D01*
X006497Y030827D01*
X006497Y030826D02*
X000474Y030826D01*
X000474Y003346D01*
D11*
X011340Y007137D03*
X012340Y007137D03*
X013340Y007137D03*
X014340Y007137D03*
X015340Y007137D03*
X016340Y007137D03*
X017340Y007137D03*
X018340Y007137D03*
X019340Y007137D03*
X020340Y007137D03*
X021340Y007137D03*
X022340Y007137D03*
X023340Y007137D03*
X024340Y007137D03*
X025340Y007137D03*
X026340Y007137D03*
X027340Y007137D03*
X028340Y007137D03*
X029340Y007137D03*
X030340Y007137D03*
X031340Y007137D03*
X032340Y007137D03*
X033340Y007137D03*
X032340Y008137D03*
X031340Y008137D03*
X030340Y008137D03*
X029340Y008137D03*
X028340Y008137D03*
X027340Y008137D03*
X026340Y008137D03*
X025340Y008137D03*
X024340Y008137D03*
X023340Y008137D03*
X022340Y008137D03*
X021340Y008137D03*
X020340Y008137D03*
X019340Y008137D03*
X018340Y008137D03*
X017340Y008137D03*
X016340Y008137D03*
X015340Y008137D03*
X014340Y008137D03*
X013340Y008137D03*
X012340Y008137D03*
X011340Y008137D03*
X011277Y026130D03*
X011277Y027130D03*
X012277Y027130D03*
X013277Y027130D03*
X014277Y027130D03*
X015277Y027130D03*
X016277Y027130D03*
X017277Y027130D03*
X018277Y027130D03*
X019277Y027130D03*
X020277Y027130D03*
X021277Y027130D03*
X022277Y027130D03*
X023277Y027130D03*
X024277Y027130D03*
X025277Y027130D03*
X026277Y027130D03*
X027277Y027130D03*
X028277Y027130D03*
X029277Y027130D03*
X030277Y027130D03*
X031277Y027130D03*
X032277Y027130D03*
X032277Y026130D03*
X033277Y026130D03*
X031277Y026130D03*
X030277Y026130D03*
X029277Y026130D03*
X028277Y026130D03*
X027277Y026130D03*
X026277Y026130D03*
X025277Y026130D03*
X024277Y026130D03*
X023277Y026130D03*
X022277Y026130D03*
X021277Y026130D03*
X020277Y026130D03*
X019277Y026130D03*
X018277Y026130D03*
X017277Y026130D03*
X016277Y026130D03*
X015277Y026130D03*
X014277Y026130D03*
X013277Y026130D03*
X012277Y026130D03*
D12*
X011659Y028681D03*
X007978Y028661D03*
X015379Y028720D03*
X019779Y028730D03*
X023773Y028573D03*
X026322Y028582D03*
X028861Y028582D03*
X031381Y028592D03*
X033277Y027130D03*
X033989Y028582D03*
X036480Y028592D03*
X033340Y008137D03*
X032509Y005551D03*
X035186Y005511D03*
X037863Y005551D03*
X029100Y005551D03*
X024611Y005511D03*
X020123Y005511D03*
X015635Y005511D03*
X011147Y005511D03*
D13*
X010147Y005211D02*
X010147Y005811D01*
X009147Y005811D02*
X009147Y005211D01*
X008147Y005211D02*
X008147Y005811D01*
X012635Y005811D02*
X012635Y005211D01*
X013635Y005211D02*
X013635Y005811D01*
X014635Y005811D02*
X014635Y005211D01*
X017123Y005211D02*
X017123Y005811D01*
X018123Y005811D02*
X018123Y005211D01*
X019123Y005211D02*
X019123Y005811D01*
X021611Y005811D02*
X021611Y005211D01*
X022611Y005211D02*
X022611Y005811D01*
X023611Y005811D02*
X023611Y005211D01*
X026100Y005251D02*
X026100Y005851D01*
X027100Y005851D02*
X027100Y005251D01*
X028100Y005251D02*
X028100Y005851D01*
X031509Y005851D02*
X031509Y005251D01*
X034186Y005211D02*
X034186Y005811D01*
X036863Y005851D02*
X036863Y005251D01*
X037480Y028292D02*
X037480Y028892D01*
X034989Y028882D02*
X034989Y028282D01*
X032381Y028292D02*
X032381Y028892D01*
X029861Y028882D02*
X029861Y028282D01*
X027322Y028282D02*
X027322Y028882D01*
X024773Y028873D02*
X024773Y028273D01*
X021779Y028430D02*
X021779Y029030D01*
X020779Y029030D02*
X020779Y028430D01*
X017379Y028420D02*
X017379Y029020D01*
X016379Y029020D02*
X016379Y028420D01*
X013659Y028381D02*
X013659Y028981D01*
X012659Y028981D02*
X012659Y028381D01*
X009978Y028361D02*
X009978Y028961D01*
X008978Y028961D02*
X008978Y028361D01*
D14*
X004088Y029425D03*
X004088Y024574D03*
X004088Y015724D03*
X004088Y010874D03*
D15*
X004500Y008874D02*
X003675Y008874D01*
X003675Y006874D02*
X004500Y006874D01*
X004500Y004874D02*
X003675Y004874D01*
X003675Y013724D02*
X004500Y013724D01*
X004500Y018574D02*
X003675Y018574D01*
X003675Y020574D02*
X004500Y020574D01*
X004500Y022574D02*
X003675Y022574D01*
X003675Y027425D02*
X004500Y027425D01*
D16*
X005375Y010551D03*
X006714Y010551D03*
X006714Y005669D03*
X005375Y005669D03*
M02*
