%
M48
M72
T01C0.0118
T02C0.0236
T03C0.0360
T04C0.0400
T05C0.0550
%
T01
X5443Y2632
X5757Y2986
X6860Y3931
X7765Y4600
X8395Y4600
X8269Y5057
X9025Y4640
X9694Y4640
X9931Y4994
X10403Y4640
X10246Y5466
X10206Y6096
X9852Y6726
X9813Y7120
X9813Y7986
X10049Y8183
X10364Y8183
X10679Y8222
X10364Y8970
X10718Y9246
X10482Y9640
X11033Y9994
X11427Y9482
X11191Y9246
X10324Y10270
X10324Y10624
X11033Y10742
X11033Y11057
X10757Y11529
X11348Y11726
X10246Y12514
X9419Y12002
X9419Y11648
X9419Y11293
X8789Y11529
X8750Y11175
X8710Y10624
X8710Y10270
X9399Y9522
X9104Y9089
X9261Y8813
X9025Y8577
X8631Y7750
X8631Y7317
X7608Y6648
X7883Y6175
X6415Y7203
X6427Y7514
X5639Y8026
X6506Y8577
X6072Y9010
X5639Y9718
X5718Y10506
X4813Y9797
X3198Y11372
X5285Y13655
X5206Y14010
X5679Y14915
X7490Y14915
X9419Y13616
X9419Y13065
X9025Y12750
X9104Y12396
X8789Y11884
X7490Y11884
X7175Y11569
X7529Y12750
X8435Y13380
X10757Y14364
X10797Y14679
X10206Y14837
X11387Y14679
X11545Y14364
X11269Y14167
X12214Y15781
X12569Y15900
X12765Y15663
X13120Y15663
X13356Y16018
X13750Y15939
X15128Y14915
X15679Y14797
X16230Y14718
X16387Y14403
X16112Y14246
X15718Y14482
X14340Y14403
X14340Y14049
X14380Y13655
X14301Y13144
X13789Y12907
X13789Y12553
X13789Y12199
X14301Y12120
X14301Y12514
X15167Y12711
X15206Y11844
X15561Y11687
X15954Y11766
X15994Y11077
X15521Y11057
X15954Y10742
X15876Y10033
X15876Y9640
X16466Y9246
X16663Y9522
X17726Y9010
X17962Y9482
X18513Y9797
X18277Y10033
X17962Y10270
X18750Y10939
X19537Y10309
X18986Y9758
X20088Y9679
X20521Y9994
X21387Y9561
X21309Y9246
X22372Y9010
X22411Y9443
X23080Y9797
X22844Y10033
X22687Y10309
X23435Y9679
X24537Y10191
X24694Y9640
X25285Y9955
X25876Y9522
X25836Y9207
X25757Y8616
X24576Y8695
X23435Y8655
X21978Y7140
X21348Y7120
X22962Y6136
X23356Y6372
X21506Y6057
X20639Y6057
X20679Y5624
X19065Y4620
X18513Y5309
X17687Y5388
X16860Y6214
X18120Y7199
X19222Y7002
X19970Y8695
X18986Y8813
X16506Y8537
X15915Y8577
X15285Y8577
X14773Y7829
X14537Y7592
X14183Y7592
X13592Y7750
X12883Y7671
X12883Y7317
X13592Y6923
X13710Y6608
X15088Y6687
X15167Y7199
X15246Y5585
X15167Y5270
X13356Y3970
X13120Y4718
X12883Y5545
X12293Y6766
X11230Y6254
X11269Y5545
X11269Y4758
X9261Y3892
X10324Y3262
X12372Y2120
X16387Y2947
X21309Y2986
X23317Y4608
X22923Y4994
X24340Y3892
X24675Y4364
X25561Y4915
X26663Y4325
X27293Y4797
X27832Y4364
X28120Y4640
X28592Y4679
X29183Y4797
X28592Y4010
X28750Y6175
X29931Y6451
X29931Y7081
X30246Y7081
X30206Y7907
X29104Y7396
X27962Y8577
X27411Y8222
X26978Y8931
X27411Y9207
X27372Y9718
X27135Y9955
X26978Y10230
X26427Y10939
X25285Y10900
X25167Y11451
X24340Y12592
X23631Y12317
X23317Y12199
X23356Y12592
X23631Y13104
X23553Y13459
X23513Y13774
X24931Y14443
X25364Y14167
X25639Y14403
X25403Y14718
X24773Y14797
X24222Y15821
X24537Y15978
X26466Y15703
X26939Y15624
X28238Y15821
X28553Y15624
X29143Y14797
X29340Y14364
X29891Y14364
X30246Y14246
X30049Y14797
X31191Y14876
X31781Y14679
X32057Y15900
X31151Y15900
X28986Y16963
X27883Y17337
X28159Y17829
X28395Y18144
X26624Y19207
X26348Y18852
X26584Y19561
X27096Y19640
X28159Y19955
X28395Y20526
X28828Y20722
X27332Y21254
X27254Y21805
X26348Y21175
X25364Y21766
X24340Y22238
X23356Y21726
X22450Y20703
X22962Y20348
X22057Y19718
X21506Y19640
X20364Y20734
X19655Y20073
X19655Y19325
X18789Y19797
X18750Y20270
X17844Y20033
X17254Y19718
X16773Y19955
X15836Y20191
X15049Y20427
X14773Y20663
X14576Y20427
X13828Y19955
X13356Y20191
X12962Y20348
X12805Y20663
X12096Y20624
X11820Y20270
X11624Y19955
X12057Y19600
X12569Y19955
X13750Y19010
X14616Y18734
X15167Y18774
X14891Y18419
X14616Y17671
X15836Y17986
X17057Y17789
X17332Y18419
X17332Y18931
X18986Y17789
X18986Y17474
X19261Y18419
X18474Y16333
X18041Y16057
X18592Y15703
X20049Y15821
X20324Y14915
X20324Y14561
X20757Y14285
X20954Y14797
X21269Y14837
X22726Y15860
X24616Y17986
X24222Y20033
X25876Y20506
X26348Y22711
X31309Y20545
X32214Y20506
X31466Y19522
X30718Y18774
X32175Y17986
X34498Y20151
X35482Y20151
X34498Y20860
X32569Y21569
X35009Y22750
X39025Y21529
X36820Y18026
X37411Y17081
X37647Y15624
X31309Y13104
X29616Y11608
X28828Y11805
X28002Y11844
X27765Y12081
X28041Y12238
X27726Y12396
X27765Y13104
X27883Y13616
X28061Y13911
X26781Y13340
X26781Y12435
X28750Y12553
X29537Y11057
X29773Y10703
X30876Y10900
X31348Y10191
X31584Y9915
X31820Y9640
X31624Y8931
X31624Y8380
X32254Y7907
X32332Y7041
X31702Y6923
X31978Y6451
X32391Y5309
X32293Y4876
X32411Y3970
X34655Y4403
X34655Y5230
X36230Y6057
X36939Y5230
X36269Y3892
X36939Y3065
X35285Y2277
X34734Y3262
X34655Y6569
X34852Y7179
X36939Y7159
X30246Y9089
X30285Y9443
X29537Y9915
X29104Y9443
X28986Y8892
X28513Y10191
X27096Y6884
X26427Y6687
X25797Y6333
X25403Y3026
X25364Y2120
X13986Y9522
X13474Y9758
X13238Y9994
X13080Y10270
X12057Y10742
X13789Y11569
X13986Y11293
X14183Y11057
X15206Y10309
X17057Y10821
X19025Y11608
X19025Y12081
X19025Y12435
X18750Y12592
X18986Y13183
X19065Y13655
X19025Y13970
X19852Y12711
X20679Y11529
X20639Y11096
X22017Y11136
X23474Y11785
X13041Y9010
X12726Y8498
X8002Y9482
X7372Y9010
X7175Y9718
X7332Y10112
X7411Y7868
X5600Y4207
X4104Y4128
X5246Y16529
X3553Y16726
X5679Y18380
X5246Y18774
X7254Y18380
X8435Y18104
X8435Y17711
X9183Y16923
X7490Y16451
X9852Y18970
X9183Y20270
X9537Y20545
X8789Y21057
X12372Y21726
X14576Y19679
X14891Y19482
X19301Y21726
X20364Y21963
T02
X5679Y17317
X5679Y14443
T03
X6269Y3486
X7490Y3486
X8710Y3486
X8710Y2486
X7490Y2486
X6269Y2486
T04
X9848Y2526
X10848Y2526
X11848Y2526
X12848Y2526
X13848Y2526
X14848Y2526
X15848Y2526
X16848Y2526
X17848Y2526
X18848Y2526
X19848Y2486
X20848Y2486
X21848Y2486
X22848Y2486
X23848Y2486
X24848Y2486
X25848Y2486
X26848Y2486
X27848Y2486
X28848Y2486
X29848Y2486
X30848Y2486
X31848Y2486
X31848Y3486
X30848Y3486
X29848Y3486
X28848Y3486
X27848Y3486
X26848Y3486
X25848Y3486
X24848Y3486
X23848Y3486
X22848Y3486
X21848Y3486
X20848Y3486
X19848Y3486
X18848Y3526
X17848Y3526
X16848Y3526
X15848Y3526
X14848Y3526
X13848Y3526
X12848Y3526
X11848Y3526
X10848Y3526
X9848Y3526
X6679Y11081
X6679Y12081
X6679Y13081
X6679Y15569
X6679Y16569
X6679Y17569
X6679Y20018
X6679Y21018
X6679Y22018
X9852Y22486
X10852Y22486
X11852Y22486
X12852Y22486
X13852Y22486
X14852Y22486
X15852Y22486
X16852Y22486
X17852Y22486
X18852Y22486
X19852Y22486
X20852Y22486
X21852Y22486
X22852Y22486
X23852Y22486
X24852Y22486
X25852Y22486
X26852Y22486
X27852Y22486
X28852Y22486
X29852Y22486
X30852Y22486
X31852Y22486
X31852Y21486
X30852Y21486
X29852Y21486
X28852Y21486
X27852Y21486
X26852Y21486
X25852Y21486
X24852Y21486
X23852Y21486
X22852Y21486
X21852Y21486
X20852Y21486
X19852Y21486
X18852Y21486
X17852Y21486
X16852Y21486
X15852Y21486
X14852Y21486
X13852Y21486
X12852Y21486
X11852Y21486
X10852Y21486
X9852Y21486
X10915Y19486
X10915Y18486
X10915Y17486
X10915Y16486
X15954Y16486
X15954Y17486
X15954Y18486
X15954Y19486
X20679Y19486
X20679Y18486
X20679Y17486
X20679Y16486
X25167Y16486
X25167Y17486
X25167Y18486
X25167Y19486
X29616Y19447
X29616Y18447
X29616Y17447
X29616Y16447
X33458Y19285
X34458Y19285
X35458Y19285
X36883Y19285
X37883Y19285
X38883Y19285
X37033Y20860
X36033Y20860
X35033Y20860
X33789Y7620
X33789Y6620
X33789Y5455
X33789Y4455
X33789Y3289
X33789Y2289
X30982Y5506
X29982Y5506
X27832Y5585
X26832Y5585
X24683Y5545
X23683Y5545
T05
X4096Y3136
X4096Y5136
X4096Y7136
X4096Y9136
X4135Y12041
X4135Y14041
X4135Y16041
X4135Y18041
X4135Y20041
X4135Y22041
M30
